<?xml version="1.0" encoding="utf-8" ?>
<svg baseProfile="full" height="100%" version="1.1" viewBox="-400 -400 800 400" width="100%" xmlns="http://www.w3.org/2000/svg" xmlns:ev="http://www.w3.org/2001/xml-events" xmlns:xlink="http://www.w3.org/1999/xlink"><defs /><circle cx="46.23349827866411" cy="-148.991488471378" fill="rgb(0,255,0)" r="2" stroke="rgb(0,255,0)" /><circle cx="46.23349827866411" cy="-148.991488471378" fill="rgb(0,255,0)" r="2" stroke="rgb(0,255,0)" /><circle cx="45.10133270325202" cy="-147.34279168001464" fill="rgb(0,255,0)" r="2" stroke="rgb(0,255,0)" /><circle cx="46.23349827866411" cy="-148.991488471378" fill="rgb(0,255,0)" r="2" stroke="rgb(0,255,0)" /><circle cx="46.23349827866411" cy="-148.991488471378" fill="rgb(0,255,0)" r="2" stroke="rgb(0,255,0)" /><circle cx="45.10133270325202" cy="-147.34279168001464" fill="rgb(0,255,0)" r="2" stroke="rgb(0,255,0)" /><circle cx="45.667415490958064" cy="-148.16714007569632" fill="rgb(0,255,0)" r="2" stroke="rgb(0,255,0)" /><circle cx="45.667415490958064" cy="-148.16714007569632" fill="rgb(0,255,0)" r="2" stroke="rgb(0,255,0)" /><circle cx="44.535249915545975" cy="-146.51844328433296" fill="rgb(0,255,0)" r="2" stroke="rgb(0,255,0)" /><circle cx="46.23349827866411" cy="-148.991488471378" fill="rgb(0,255,0)" r="2" stroke="rgb(0,255,0)" /><circle cx="46.23349827866411" cy="-148.991488471378" fill="rgb(0,255,0)" r="2" stroke="rgb(0,255,0)" /><circle cx="45.10133270325202" cy="-147.34279168001464" fill="rgb(0,255,0)" r="2" stroke="rgb(0,255,0)" /><circle cx="46.23349827866411" cy="-148.991488471378" fill="rgb(0,255,0)" r="2" stroke="rgb(0,255,0)" /><circle cx="46.23349827866411" cy="-148.991488471378" fill="rgb(0,255,0)" r="2" stroke="rgb(0,255,0)" /><circle cx="45.10133270325202" cy="-147.34279168001464" fill="rgb(0,255,0)" r="2" stroke="rgb(0,255,0)" /><circle cx="45.667415490958064" cy="-148.16714007569632" fill="rgb(0,255,0)" r="2" stroke="rgb(0,255,0)" /><circle cx="45.667415490958064" cy="-148.16714007569632" fill="rgb(0,255,0)" r="2" stroke="rgb(0,255,0)" /><circle cx="44.535249915545975" cy="-146.51844328433296" fill="rgb(0,255,0)" r="2" stroke="rgb(0,255,0)" /><circle cx="46.23349827866411" cy="-148.991488471378" fill="rgb(0,255,0)" r="2" stroke="rgb(0,255,0)" /><circle cx="46.23349827866411" cy="-148.991488471378" fill="rgb(0,255,0)" r="2" stroke="rgb(0,255,0)" /><circle cx="45.10133270325202" cy="-147.34279168001464" fill="rgb(0,255,0)" r="2" stroke="rgb(0,255,0)" /><circle cx="46.23349827866411" cy="-148.991488471378" fill="rgb(0,255,0)" r="2" stroke="rgb(0,255,0)" /><circle cx="46.23349827866411" cy="-148.991488471378" fill="rgb(0,255,0)" r="2" stroke="rgb(0,255,0)" /><circle cx="45.10133270325202" cy="-147.34279168001464" fill="rgb(0,255,0)" r="2" stroke="rgb(0,255,0)" /><circle cx="45.667415490958064" cy="-148.16714007569632" fill="rgb(0,255,0)" r="2" stroke="rgb(0,255,0)" /><circle cx="45.667415490958064" cy="-148.16714007569632" fill="rgb(0,255,0)" r="2" stroke="rgb(0,255,0)" /><circle cx="44.535249915545975" cy="-146.51844328433296" fill="rgb(0,255,0)" r="2" stroke="rgb(0,255,0)" /><line stroke="rgb(139,69,19)" x1="0" x2="15.411166092888037" y1="0" y2="-49.663829490459335" /><line stroke="rgb(139,69,19)" x1="0" x2="15.411166092888037" y1="0" y2="-49.663829490459335" /><line stroke="rgb(139,69,19)" x1="0" x2="15.411166092888037" y1="0" y2="-49.663829490459335" /><line stroke="rgb(139,69,19)" x1="15.411166092888037" x2="30.822332185776073" y1="-49.663829490459335" y2="-99.32765898091867" /><line stroke="rgb(139,69,19)" x1="15.411166092888037" x2="30.822332185776073" y1="-49.663829490459335" y2="-99.32765898091867" /><line stroke="rgb(139,69,19)" x1="15.411166092888037" x2="30.25624939807003" y1="-49.663829490459335" y2="-98.50331058523699" /><line stroke="rgb(139,69,19)" x1="15.411166092888037" x2="30.822332185776073" y1="-49.663829490459335" y2="-99.32765898091867" /><line stroke="rgb(139,69,19)" x1="15.411166092888037" x2="30.822332185776073" y1="-49.663829490459335" y2="-99.32765898091867" /><line stroke="rgb(139,69,19)" x1="15.411166092888037" x2="30.25624939807003" y1="-49.663829490459335" y2="-98.50331058523699" /><line stroke="rgb(139,69,19)" x1="15.411166092888037" x2="30.822332185776073" y1="-49.663829490459335" y2="-99.32765898091867" /><line stroke="rgb(139,69,19)" x1="15.411166092888037" x2="30.822332185776073" y1="-49.663829490459335" y2="-99.32765898091867" /><line stroke="rgb(139,69,19)" x1="15.411166092888037" x2="30.25624939807003" y1="-49.663829490459335" y2="-98.50331058523699" /><line stroke="rgb(139,69,19)" x1="30.822332185776073" x2="46.23349827866411" y1="-99.32765898091867" y2="-148.991488471378" /><line stroke="rgb(139,69,19)" x1="30.822332185776073" x2="46.23349827866411" y1="-99.32765898091867" y2="-148.991488471378" /><line stroke="rgb(139,69,19)" x1="30.822332185776073" x2="45.10133270325202" y1="-99.32765898091867" y2="-147.34279168001464" /><line stroke="rgb(139,69,19)" x1="30.822332185776073" x2="46.23349827866411" y1="-99.32765898091867" y2="-148.991488471378" /><line stroke="rgb(139,69,19)" x1="30.822332185776073" x2="46.23349827866411" y1="-99.32765898091867" y2="-148.991488471378" /><line stroke="rgb(139,69,19)" x1="30.822332185776073" x2="45.10133270325202" y1="-99.32765898091867" y2="-147.34279168001464" /><line stroke="rgb(139,69,19)" x1="30.25624939807003" x2="45.667415490958064" y1="-98.50331058523699" y2="-148.16714007569632" /><line stroke="rgb(139,69,19)" x1="30.25624939807003" x2="45.667415490958064" y1="-98.50331058523699" y2="-148.16714007569632" /><line stroke="rgb(139,69,19)" x1="30.25624939807003" x2="44.535249915545975" y1="-98.50331058523699" y2="-146.51844328433296" /><line stroke="rgb(139,69,19)" x1="30.822332185776073" x2="46.23349827866411" y1="-99.32765898091867" y2="-148.991488471378" /><line stroke="rgb(139,69,19)" x1="30.822332185776073" x2="46.23349827866411" y1="-99.32765898091867" y2="-148.991488471378" /><line stroke="rgb(139,69,19)" x1="30.822332185776073" x2="45.10133270325202" y1="-99.32765898091867" y2="-147.34279168001464" /><line stroke="rgb(139,69,19)" x1="30.822332185776073" x2="46.23349827866411" y1="-99.32765898091867" y2="-148.991488471378" /><line stroke="rgb(139,69,19)" x1="30.822332185776073" x2="46.23349827866411" y1="-99.32765898091867" y2="-148.991488471378" /><line stroke="rgb(139,69,19)" x1="30.822332185776073" x2="45.10133270325202" y1="-99.32765898091867" y2="-147.34279168001464" /><line stroke="rgb(139,69,19)" x1="30.25624939807003" x2="45.667415490958064" y1="-98.50331058523699" y2="-148.16714007569632" /><line stroke="rgb(139,69,19)" x1="30.25624939807003" x2="45.667415490958064" y1="-98.50331058523699" y2="-148.16714007569632" /><line stroke="rgb(139,69,19)" x1="30.25624939807003" x2="44.535249915545975" y1="-98.50331058523699" y2="-146.51844328433296" /><line stroke="rgb(139,69,19)" x1="30.822332185776073" x2="46.23349827866411" y1="-99.32765898091867" y2="-148.991488471378" /><line stroke="rgb(139,69,19)" x1="30.822332185776073" x2="46.23349827866411" y1="-99.32765898091867" y2="-148.991488471378" /><line stroke="rgb(139,69,19)" x1="30.822332185776073" x2="45.10133270325202" y1="-99.32765898091867" y2="-147.34279168001464" /><line stroke="rgb(139,69,19)" x1="30.822332185776073" x2="46.23349827866411" y1="-99.32765898091867" y2="-148.991488471378" /><line stroke="rgb(139,69,19)" x1="30.822332185776073" x2="46.23349827866411" y1="-99.32765898091867" y2="-148.991488471378" /><line stroke="rgb(139,69,19)" x1="30.822332185776073" x2="45.10133270325202" y1="-99.32765898091867" y2="-147.34279168001464" /><line stroke="rgb(139,69,19)" x1="30.25624939807003" x2="45.667415490958064" y1="-98.50331058523699" y2="-148.16714007569632" /><line stroke="rgb(139,69,19)" x1="30.25624939807003" x2="45.667415490958064" y1="-98.50331058523699" y2="-148.16714007569632" /><line stroke="rgb(139,69,19)" x1="30.25624939807003" x2="44.535249915545975" y1="-98.50331058523699" y2="-146.51844328433296" /><circle cx="0" cy="-300" fill="rgb(255,255,0)" r="10" stroke="rgb(255,255,0)" /></svg>