<?xml version="1.0" encoding="utf-8" ?>
<svg baseProfile="full" height="100%" version="1.1" viewBox="-400 -400 800 400" width="100%" xmlns="http://www.w3.org/2000/svg" xmlns:ev="http://www.w3.org/2001/xml-events" xmlns:xlink="http://www.w3.org/1999/xlink"><defs /><circle cx="0.0" cy="-138.0" fill="rgb(0,255,0)" r="2" stroke="rgb(0,255,0)" /><circle cx="11.237543691014558" cy="-133.79077064149044" fill="rgb(0,255,0)" r="2" stroke="rgb(0,255,0)" /><circle cx="-43.48456299784567" cy="-95.13137594447689" fill="rgb(0,255,0)" r="2" stroke="rgb(0,255,0)" /><circle cx="11.237543691014558" cy="-145.028314332505" fill="rgb(0,255,0)" r="2" stroke="rgb(0,255,0)" /><circle cx="22.475087382029116" cy="-140.81908497399544" fill="rgb(0,255,0)" r="2" stroke="rgb(0,255,0)" /><circle cx="-32.24701930683111" cy="-102.15969027698189" fill="rgb(0,255,0)" r="2" stroke="rgb(0,255,0)" /><circle cx="59.9564046199231" cy="-239.74207007155684" fill="rgb(0,255,0)" r="2" stroke="rgb(0,255,0)" /><circle cx="71.19394831093766" cy="-235.53284071304728" fill="rgb(0,255,0)" r="2" stroke="rgb(0,255,0)" /><circle cx="16.47184162207743" cy="-196.87344601603374" fill="rgb(0,255,0)" r="2" stroke="rgb(0,255,0)" /><circle cx="11.237543691014558" cy="-156.26585802351957" fill="rgb(0,255,0)" r="2" stroke="rgb(0,255,0)" /><circle cx="22.475087382029116" cy="-152.05662866501" fill="rgb(0,255,0)" r="2" stroke="rgb(0,255,0)" /><circle cx="-32.24701930683111" cy="-113.39723396799646" fill="rgb(0,255,0)" r="2" stroke="rgb(0,255,0)" /><circle cx="22.475087382029116" cy="-163.29417235602455" fill="rgb(0,255,0)" r="2" stroke="rgb(0,255,0)" /><circle cx="33.712631073043674" cy="-159.084942997515" fill="rgb(0,255,0)" r="2" stroke="rgb(0,255,0)" /><circle cx="-21.00947561581655" cy="-120.42554830050143" fill="rgb(0,255,0)" r="2" stroke="rgb(0,255,0)" /><circle cx="71.19394831093767" cy="-258.0079280950764" fill="rgb(0,255,0)" r="2" stroke="rgb(0,255,0)" /><circle cx="82.43149200195222" cy="-253.79869873656685" fill="rgb(0,255,0)" r="2" stroke="rgb(0,255,0)" /><circle cx="27.709385313091996" cy="-215.1393040395533" fill="rgb(0,255,0)" r="2" stroke="rgb(0,255,0)" /><circle cx="76.26382602219998" cy="-270.17406252540576" fill="rgb(0,255,0)" r="2" stroke="rgb(0,255,0)" /><circle cx="87.50136971321453" cy="-265.9648331668962" fill="rgb(0,255,0)" r="2" stroke="rgb(0,255,0)" /><circle cx="32.7792630243543" cy="-227.30543846988266" fill="rgb(0,255,0)" r="2" stroke="rgb(0,255,0)" /><circle cx="87.50136971321453" cy="-277.20237685791074" fill="rgb(0,255,0)" r="2" stroke="rgb(0,255,0)" /><circle cx="98.7389134042291" cy="-272.9931474994012" fill="rgb(0,255,0)" r="2" stroke="rgb(0,255,0)" /><circle cx="44.016806715368865" cy="-234.33375280238764" fill="rgb(0,255,0)" r="2" stroke="rgb(0,255,0)" /><circle cx="136.22023064212308" cy="-371.9161325969626" fill="rgb(0,255,0)" r="2" stroke="rgb(0,255,0)" /><circle cx="147.45777433313765" cy="-367.70690323845304" fill="rgb(0,255,0)" r="2" stroke="rgb(0,255,0)" /><circle cx="92.73566764427743" cy="-329.0475085414395" fill="rgb(0,255,0)" r="2" stroke="rgb(0,255,0)" /><line stroke="rgb(139,69,19)" x1="0" x2="0.0" y1="0" y2="-46.0" /><line stroke="rgb(139,69,19)" x1="0" x2="11.237543691014558" y1="0" y2="-41.79077064149043" /><line stroke="rgb(139,69,19)" x1="0" x2="76.26382602219998" y1="0" y2="-25.646410481005784" /><line stroke="rgb(139,69,19)" x1="0.0" x2="0.0" y1="-46.0" y2="-92.0" /><line stroke="rgb(139,69,19)" x1="0.0" x2="11.237543691014558" y1="-46.0" y2="-87.79077064149043" /><line stroke="rgb(139,69,19)" x1="0.0" x2="59.9564046199231" y1="-46.0" y2="-133.78566545163375" /><line stroke="rgb(139,69,19)" x1="11.237543691014558" x2="11.237543691014558" y1="-41.79077064149043" y2="-99.028314332505" /><line stroke="rgb(139,69,19)" x1="11.237543691014558" x2="22.475087382029116" y1="-41.79077064149043" y2="-94.81908497399543" /><line stroke="rgb(139,69,19)" x1="11.237543691014558" x2="71.19394831093767" y1="-41.79077064149043" y2="-140.81397978413875" /><line stroke="rgb(139,69,19)" x1="76.26382602219998" x2="76.26382602219998" y1="-25.646410481005784" y2="-147.91023650320577" /><line stroke="rgb(139,69,19)" x1="76.26382602219998" x2="87.50136971321453" y1="-25.646410481005784" y2="-143.7010071446962" /><line stroke="rgb(139,69,19)" x1="76.26382602219998" x2="136.22023064212308" y1="-25.646410481005784" y2="-189.69590195483954" /><line stroke="rgb(139,69,19)" x1="0.0" x2="0.0" y1="-92.0" y2="-138.0" /><line stroke="rgb(139,69,19)" x1="0.0" x2="11.237543691014558" y1="-92.0" y2="-133.79077064149044" /><line stroke="rgb(139,69,19)" x1="0.0" x2="-43.48456299784567" y1="-92.0" y2="-95.13137594447689" /><line stroke="rgb(139,69,19)" x1="11.237543691014558" x2="11.237543691014558" y1="-87.79077064149043" y2="-145.028314332505" /><line stroke="rgb(139,69,19)" x1="11.237543691014558" x2="22.475087382029116" y1="-87.79077064149043" y2="-140.81908497399544" /><line stroke="rgb(139,69,19)" x1="11.237543691014558" x2="-32.24701930683111" y1="-87.79077064149043" y2="-102.15969027698189" /><line stroke="rgb(139,69,19)" x1="59.9564046199231" x2="59.9564046199231" y1="-133.78566545163375" y2="-239.74207007155684" /><line stroke="rgb(139,69,19)" x1="59.9564046199231" x2="71.19394831093766" y1="-133.78566545163375" y2="-235.53284071304728" /><line stroke="rgb(139,69,19)" x1="59.9564046199231" x2="16.47184162207743" y1="-133.78566545163375" y2="-196.87344601603374" /><line stroke="rgb(139,69,19)" x1="11.237543691014558" x2="11.237543691014558" y1="-99.028314332505" y2="-156.26585802351957" /><line stroke="rgb(139,69,19)" x1="11.237543691014558" x2="22.475087382029116" y1="-99.028314332505" y2="-152.05662866501" /><line stroke="rgb(139,69,19)" x1="11.237543691014558" x2="-32.24701930683111" y1="-99.028314332505" y2="-113.39723396799646" /><line stroke="rgb(139,69,19)" x1="22.475087382029116" x2="22.475087382029116" y1="-94.81908497399543" y2="-163.29417235602455" /><line stroke="rgb(139,69,19)" x1="22.475087382029116" x2="33.712631073043674" y1="-94.81908497399543" y2="-159.084942997515" /><line stroke="rgb(139,69,19)" x1="22.475087382029116" x2="-21.00947561581655" y1="-94.81908497399543" y2="-120.42554830050143" /><line stroke="rgb(139,69,19)" x1="71.19394831093767" x2="71.19394831093767" y1="-140.81397978413875" y2="-258.0079280950764" /><line stroke="rgb(139,69,19)" x1="71.19394831093767" x2="82.43149200195222" y1="-140.81397978413875" y2="-253.79869873656685" /><line stroke="rgb(139,69,19)" x1="71.19394831093767" x2="27.709385313091996" y1="-140.81397978413875" y2="-215.1393040395533" /><line stroke="rgb(139,69,19)" x1="76.26382602219998" x2="76.26382602219998" y1="-147.91023650320577" y2="-270.17406252540576" /><line stroke="rgb(139,69,19)" x1="76.26382602219998" x2="87.50136971321453" y1="-147.91023650320577" y2="-265.9648331668962" /><line stroke="rgb(139,69,19)" x1="76.26382602219998" x2="32.7792630243543" y1="-147.91023650320577" y2="-227.30543846988266" /><line stroke="rgb(139,69,19)" x1="87.50136971321453" x2="87.50136971321453" y1="-143.7010071446962" y2="-277.20237685791074" /><line stroke="rgb(139,69,19)" x1="87.50136971321453" x2="98.7389134042291" y1="-143.7010071446962" y2="-272.9931474994012" /><line stroke="rgb(139,69,19)" x1="87.50136971321453" x2="44.016806715368865" y1="-143.7010071446962" y2="-234.33375280238764" /><line stroke="rgb(139,69,19)" x1="136.22023064212308" x2="136.22023064212308" y1="-189.69590195483954" y2="-371.9161325969626" /><line stroke="rgb(139,69,19)" x1="136.22023064212308" x2="147.45777433313765" y1="-189.69590195483954" y2="-367.70690323845304" /><line stroke="rgb(139,69,19)" x1="136.22023064212308" x2="92.73566764427743" y1="-189.69590195483954" y2="-329.0475085414395" /><circle cx="0" cy="-300" fill="rgb(255,255,0)" r="10" stroke="rgb(255,255,0)" /></svg>