<?xml version="1.0" encoding="utf-8" ?>
<svg baseProfile="full" height="100%" version="1.1" viewBox="-400 -400 800 400" width="100%" xmlns="http://www.w3.org/2000/svg" xmlns:ev="http://www.w3.org/2001/xml-events" xmlns:xlink="http://www.w3.org/1999/xlink"><defs /><circle cx="0" cy="0" fill="rgb(0,255,0)" r="2" stroke="rgb(0,255,0)" /><circle cx="0" cy="0" fill="rgb(0,255,0)" r="2" stroke="rgb(0,255,0)" /><circle cx="-1.5742491222235726" cy="-5.78979617095268" fill="rgb(0,255,0)" r="2" stroke="rgb(0,255,0)" /><circle cx="-3.093346045552849" cy="-11.376752787815732" fill="rgb(0,255,0)" r="2" stroke="rgb(0,255,0)" /><circle cx="-30.868564541371203" cy="-6.02709203571091" fill="rgb(0,255,0)" r="2" stroke="rgb(0,255,0)" /><circle cx="24.120756925097478" cy="-16.61833958533258" fill="rgb(0,255,0)" r="2" stroke="rgb(0,255,0)" /><circle cx="0" cy="0" fill="rgb(0,255,0)" r="2" stroke="rgb(0,255,0)" /><circle cx="0" cy="0" fill="rgb(0,255,0)" r="2" stroke="rgb(0,255,0)" /><circle cx="-1.5742491222235726" cy="-5.78979617095268" fill="rgb(0,255,0)" r="2" stroke="rgb(0,255,0)" /><circle cx="-3.093346045552849" cy="-11.376752787815732" fill="rgb(0,255,0)" r="2" stroke="rgb(0,255,0)" /><circle cx="-30.868564541371203" cy="-6.02709203571091" fill="rgb(0,255,0)" r="2" stroke="rgb(0,255,0)" /><circle cx="24.120756925097478" cy="-16.61833958533258" fill="rgb(0,255,0)" r="2" stroke="rgb(0,255,0)" /><circle cx="-1.3118742685196438" cy="-4.824830142460566" fill="rgb(0,255,0)" r="2" stroke="rgb(0,255,0)" /><circle cx="-1.3118742685196438" cy="-4.824830142460566" fill="rgb(0,255,0)" r="2" stroke="rgb(0,255,0)" /><circle cx="-2.8861233907432164" cy="-10.614626313413245" fill="rgb(0,255,0)" r="2" stroke="rgb(0,255,0)" /><circle cx="-5.67113441684689" cy="-20.857380110995507" fill="rgb(0,255,0)" r="2" stroke="rgb(0,255,0)" /><circle cx="-33.44635291266525" cy="-15.507719358890686" fill="rgb(0,255,0)" r="2" stroke="rgb(0,255,0)" /><circle cx="21.542968553803433" cy="-26.098966908512356" fill="rgb(0,255,0)" r="2" stroke="rgb(0,255,0)" /><circle cx="-2.577788371294041" cy="-9.480627323179776" fill="rgb(0,255,0)" r="2" stroke="rgb(0,255,0)" /><circle cx="-2.577788371294041" cy="-9.480627323179776" fill="rgb(0,255,0)" r="2" stroke="rgb(0,255,0)" /><circle cx="-4.152037493517613" cy="-15.270423494132457" fill="rgb(0,255,0)" r="2" stroke="rgb(0,255,0)" /><circle cx="-8.158612623787654" cy="-30.005863406658115" fill="rgb(0,255,0)" r="2" stroke="rgb(0,255,0)" /><circle cx="-35.93383111960601" cy="-24.656202654553294" fill="rgb(0,255,0)" r="2" stroke="rgb(0,255,0)" /><circle cx="19.05549034686267" cy="-35.24745020417497" fill="rgb(0,255,0)" r="2" stroke="rgb(0,255,0)" /><circle cx="68.96444108763205" cy="-23.260056533146745" fill="rgb(0,255,0)" r="2" stroke="rgb(0,255,0)" /><circle cx="68.96444108763205" cy="-23.260056533146745" fill="rgb(0,255,0)" r="2" stroke="rgb(0,255,0)" /><circle cx="67.39019196540848" cy="-29.049852704099425" fill="rgb(0,255,0)" r="2" stroke="rgb(0,255,0)" /><circle cx="59.76824111204971" cy="-57.081973696255126" fill="rgb(0,255,0)" r="2" stroke="rgb(0,255,0)" /><circle cx="31.993022616231354" cy="-51.7323129441503" fill="rgb(0,255,0)" r="2" stroke="rgb(0,255,0)" /><circle cx="86.98234408270004" cy="-62.32356049377197" fill="rgb(0,255,0)" r="2" stroke="rgb(0,255,0)" /><circle cx="123.95376255410073" cy="-33.851304082768415" fill="rgb(0,255,0)" r="2" stroke="rgb(0,255,0)" /><circle cx="123.95376255410073" cy="-33.851304082768415" fill="rgb(0,255,0)" r="2" stroke="rgb(0,255,0)" /><circle cx="122.37951343187716" cy="-39.6411002537211" fill="rgb(0,255,0)" r="2" stroke="rgb(0,255,0)" /><circle cx="111.97868555214431" cy="-77.89341533061204" fill="rgb(0,255,0)" r="2" stroke="rgb(0,255,0)" /><circle cx="84.20346705632596" cy="-72.54375457850722" fill="rgb(0,255,0)" r="2" stroke="rgb(0,255,0)" /><circle cx="139.19278852279464" cy="-83.13500212812889" fill="rgb(0,255,0)" r="2" stroke="rgb(0,255,0)" /><circle cx="0" cy="0" fill="rgb(0,255,0)" r="2" stroke="rgb(0,255,0)" /><circle cx="0" cy="0" fill="rgb(0,255,0)" r="2" stroke="rgb(0,255,0)" /><circle cx="-1.5742491222235726" cy="-5.78979617095268" fill="rgb(0,255,0)" r="2" stroke="rgb(0,255,0)" /><circle cx="-3.093346045552849" cy="-11.376752787815732" fill="rgb(0,255,0)" r="2" stroke="rgb(0,255,0)" /><circle cx="-30.868564541371203" cy="-6.02709203571091" fill="rgb(0,255,0)" r="2" stroke="rgb(0,255,0)" /><circle cx="24.120756925097478" cy="-16.61833958533258" fill="rgb(0,255,0)" r="2" stroke="rgb(0,255,0)" /><circle cx="0" cy="0" fill="rgb(0,255,0)" r="2" stroke="rgb(0,255,0)" /><circle cx="0" cy="0" fill="rgb(0,255,0)" r="2" stroke="rgb(0,255,0)" /><circle cx="-1.5742491222235726" cy="-5.78979617095268" fill="rgb(0,255,0)" r="2" stroke="rgb(0,255,0)" /><circle cx="-3.093346045552849" cy="-11.376752787815732" fill="rgb(0,255,0)" r="2" stroke="rgb(0,255,0)" /><circle cx="-30.868564541371203" cy="-6.02709203571091" fill="rgb(0,255,0)" r="2" stroke="rgb(0,255,0)" /><circle cx="24.120756925097478" cy="-16.61833958533258" fill="rgb(0,255,0)" r="2" stroke="rgb(0,255,0)" /><circle cx="-1.3118742685196438" cy="-4.824830142460566" fill="rgb(0,255,0)" r="2" stroke="rgb(0,255,0)" /><circle cx="-1.3118742685196438" cy="-4.824830142460566" fill="rgb(0,255,0)" r="2" stroke="rgb(0,255,0)" /><circle cx="-2.8861233907432164" cy="-10.614626313413245" fill="rgb(0,255,0)" r="2" stroke="rgb(0,255,0)" /><circle cx="-5.67113441684689" cy="-20.857380110995507" fill="rgb(0,255,0)" r="2" stroke="rgb(0,255,0)" /><circle cx="-33.44635291266525" cy="-15.507719358890686" fill="rgb(0,255,0)" r="2" stroke="rgb(0,255,0)" /><circle cx="21.542968553803433" cy="-26.098966908512356" fill="rgb(0,255,0)" r="2" stroke="rgb(0,255,0)" /><circle cx="-2.577788371294041" cy="-9.480627323179776" fill="rgb(0,255,0)" r="2" stroke="rgb(0,255,0)" /><circle cx="-2.577788371294041" cy="-9.480627323179776" fill="rgb(0,255,0)" r="2" stroke="rgb(0,255,0)" /><circle cx="-4.152037493517613" cy="-15.270423494132457" fill="rgb(0,255,0)" r="2" stroke="rgb(0,255,0)" /><circle cx="-8.158612623787654" cy="-30.005863406658115" fill="rgb(0,255,0)" r="2" stroke="rgb(0,255,0)" /><circle cx="-35.93383111960601" cy="-24.656202654553294" fill="rgb(0,255,0)" r="2" stroke="rgb(0,255,0)" /><circle cx="19.05549034686267" cy="-35.24745020417497" fill="rgb(0,255,0)" r="2" stroke="rgb(0,255,0)" /><circle cx="68.96444108763205" cy="-23.260056533146745" fill="rgb(0,255,0)" r="2" stroke="rgb(0,255,0)" /><circle cx="68.96444108763205" cy="-23.260056533146745" fill="rgb(0,255,0)" r="2" stroke="rgb(0,255,0)" /><circle cx="67.39019196540848" cy="-29.049852704099425" fill="rgb(0,255,0)" r="2" stroke="rgb(0,255,0)" /><circle cx="59.76824111204971" cy="-57.081973696255126" fill="rgb(0,255,0)" r="2" stroke="rgb(0,255,0)" /><circle cx="31.993022616231354" cy="-51.7323129441503" fill="rgb(0,255,0)" r="2" stroke="rgb(0,255,0)" /><circle cx="86.98234408270004" cy="-62.32356049377197" fill="rgb(0,255,0)" r="2" stroke="rgb(0,255,0)" /><circle cx="123.95376255410073" cy="-33.851304082768415" fill="rgb(0,255,0)" r="2" stroke="rgb(0,255,0)" /><circle cx="123.95376255410073" cy="-33.851304082768415" fill="rgb(0,255,0)" r="2" stroke="rgb(0,255,0)" /><circle cx="122.37951343187716" cy="-39.6411002537211" fill="rgb(0,255,0)" r="2" stroke="rgb(0,255,0)" /><circle cx="111.97868555214431" cy="-77.89341533061204" fill="rgb(0,255,0)" r="2" stroke="rgb(0,255,0)" /><circle cx="84.20346705632596" cy="-72.54375457850722" fill="rgb(0,255,0)" r="2" stroke="rgb(0,255,0)" /><circle cx="139.19278852279464" cy="-83.13500212812889" fill="rgb(0,255,0)" r="2" stroke="rgb(0,255,0)" /><circle cx="-1.049499414815715" cy="-3.8598641139684533" fill="rgb(0,255,0)" r="2" stroke="rgb(0,255,0)" /><circle cx="-1.049499414815715" cy="-3.8598641139684533" fill="rgb(0,255,0)" r="2" stroke="rgb(0,255,0)" /><circle cx="-2.6237485370392877" cy="-9.649660284921133" fill="rgb(0,255,0)" r="2" stroke="rgb(0,255,0)" /><circle cx="-5.155576742588082" cy="-18.961254646359553" fill="rgb(0,255,0)" r="2" stroke="rgb(0,255,0)" /><circle cx="-32.93079523840643" cy="-13.611593894254732" fill="rgb(0,255,0)" r="2" stroke="rgb(0,255,0)" /><circle cx="22.05852622806225" cy="-24.2028414438764" fill="rgb(0,255,0)" r="2" stroke="rgb(0,255,0)" /><circle cx="-1.049499414815715" cy="-3.8598641139684533" fill="rgb(0,255,0)" r="2" stroke="rgb(0,255,0)" /><circle cx="-1.049499414815715" cy="-3.8598641139684533" fill="rgb(0,255,0)" r="2" stroke="rgb(0,255,0)" /><circle cx="-2.6237485370392877" cy="-9.649660284921133" fill="rgb(0,255,0)" r="2" stroke="rgb(0,255,0)" /><circle cx="-5.155576742588082" cy="-18.961254646359553" fill="rgb(0,255,0)" r="2" stroke="rgb(0,255,0)" /><circle cx="-32.93079523840643" cy="-13.611593894254732" fill="rgb(0,255,0)" r="2" stroke="rgb(0,255,0)" /><circle cx="22.05852622806225" cy="-24.2028414438764" fill="rgb(0,255,0)" r="2" stroke="rgb(0,255,0)" /><circle cx="-2.361373683335359" cy="-8.68469425642902" fill="rgb(0,255,0)" r="2" stroke="rgb(0,255,0)" /><circle cx="-2.361373683335359" cy="-8.68469425642902" fill="rgb(0,255,0)" r="2" stroke="rgb(0,255,0)" /><circle cx="-3.9356228055589315" cy="-14.474490427381701" fill="rgb(0,255,0)" r="2" stroke="rgb(0,255,0)" /><circle cx="-7.733365113882122" cy="-28.44188196953933" fill="rgb(0,255,0)" r="2" stroke="rgb(0,255,0)" /><circle cx="-35.50858360970048" cy="-23.09222121743451" fill="rgb(0,255,0)" r="2" stroke="rgb(0,255,0)" /><circle cx="19.4807378567682" cy="-33.68346876705618" fill="rgb(0,255,0)" r="2" stroke="rgb(0,255,0)" /><circle cx="-4.6400190683292735" cy="-17.0651291817236" fill="rgb(0,255,0)" r="2" stroke="rgb(0,255,0)" /><circle cx="-4.6400190683292735" cy="-17.0651291817236" fill="rgb(0,255,0)" r="2" stroke="rgb(0,255,0)" /><circle cx="-6.214268190552846" cy="-22.85492535267628" fill="rgb(0,255,0)" r="2" stroke="rgb(0,255,0)" /><circle cx="-12.210825886375497" cy="-44.90915190173202" fill="rgb(0,255,0)" r="2" stroke="rgb(0,255,0)" /><circle cx="-39.98604438219385" cy="-39.55949114962719" fill="rgb(0,255,0)" r="2" stroke="rgb(0,255,0)" /><circle cx="15.003277084274828" cy="-50.15073869924886" fill="rgb(0,255,0)" r="2" stroke="rgb(0,255,0)" /><circle cx="66.90221039059682" cy="-30.84455839169057" fill="rgb(0,255,0)" r="2" stroke="rgb(0,255,0)" /><circle cx="66.90221039059682" cy="-30.84455839169057" fill="rgb(0,255,0)" r="2" stroke="rgb(0,255,0)" /><circle cx="65.32796126837324" cy="-36.63435456264325" fill="rgb(0,255,0)" r="2" stroke="rgb(0,255,0)" /><circle cx="55.71602784946187" cy="-71.98526219132904" fill="rgb(0,255,0)" r="2" stroke="rgb(0,255,0)" /><circle cx="27.940809353643512" cy="-66.63560143922422" fill="rgb(0,255,0)" r="2" stroke="rgb(0,255,0)" /><circle cx="82.9301308201122" cy="-77.22684898884589" fill="rgb(0,255,0)" r="2" stroke="rgb(0,255,0)" /><circle cx="121.8915318570655" cy="-41.43580594131224" fill="rgb(0,255,0)" r="2" stroke="rgb(0,255,0)" /><circle cx="121.8915318570655" cy="-41.43580594131224" fill="rgb(0,255,0)" r="2" stroke="rgb(0,255,0)" /><circle cx="120.31728273484192" cy="-47.22560211226492" fill="rgb(0,255,0)" r="2" stroke="rgb(0,255,0)" /><circle cx="107.92647228955647" cy="-92.79670382568597" fill="rgb(0,255,0)" r="2" stroke="rgb(0,255,0)" /><circle cx="80.15125379373812" cy="-87.44704307358114" fill="rgb(0,255,0)" r="2" stroke="rgb(0,255,0)" /><circle cx="135.1405752602068" cy="-98.03829062320281" fill="rgb(0,255,0)" r="2" stroke="rgb(0,255,0)" /><circle cx="-2.0622306970352327" cy="-7.584501858543822" fill="rgb(0,255,0)" r="2" stroke="rgb(0,255,0)" /><circle cx="-2.0622306970352327" cy="-7.584501858543822" fill="rgb(0,255,0)" r="2" stroke="rgb(0,255,0)" /><circle cx="-3.6364798192588053" cy="-13.374298029496503" fill="rgb(0,255,0)" r="2" stroke="rgb(0,255,0)" /><circle cx="-7.145559308140693" cy="-26.28004128288964" fill="rgb(0,255,0)" r="2" stroke="rgb(0,255,0)" /><circle cx="-34.92077780395905" cy="-20.93038053078482" fill="rgb(0,255,0)" r="2" stroke="rgb(0,255,0)" /><circle cx="20.068543662509633" cy="-31.52162808040649" fill="rgb(0,255,0)" r="2" stroke="rgb(0,255,0)" /><circle cx="-2.0622306970352327" cy="-7.584501858543822" fill="rgb(0,255,0)" r="2" stroke="rgb(0,255,0)" /><circle cx="-2.0622306970352327" cy="-7.584501858543822" fill="rgb(0,255,0)" r="2" stroke="rgb(0,255,0)" /><circle cx="-3.6364798192588053" cy="-13.374298029496503" fill="rgb(0,255,0)" r="2" stroke="rgb(0,255,0)" /><circle cx="-7.145559308140693" cy="-26.28004128288964" fill="rgb(0,255,0)" r="2" stroke="rgb(0,255,0)" /><circle cx="-34.92077780395905" cy="-20.93038053078482" fill="rgb(0,255,0)" r="2" stroke="rgb(0,255,0)" /><circle cx="20.068543662509633" cy="-31.52162808040649" fill="rgb(0,255,0)" r="2" stroke="rgb(0,255,0)" /><circle cx="-3.3741049655548765" cy="-12.40933200100439" fill="rgb(0,255,0)" r="2" stroke="rgb(0,255,0)" /><circle cx="-3.3741049655548765" cy="-12.40933200100439" fill="rgb(0,255,0)" r="2" stroke="rgb(0,255,0)" /><circle cx="-4.948354087778449" cy="-18.19912817195707" fill="rgb(0,255,0)" r="2" stroke="rgb(0,255,0)" /><circle cx="-9.723347679434735" cy="-35.760668606069416" fill="rgb(0,255,0)" r="2" stroke="rgb(0,255,0)" /><circle cx="-37.49856617525309" cy="-30.411007853964595" fill="rgb(0,255,0)" r="2" stroke="rgb(0,255,0)" /><circle cx="17.490755291215592" cy="-41.00225540358626" fill="rgb(0,255,0)" r="2" stroke="rgb(0,255,0)" /><circle cx="-6.630001633881886" cy="-24.383915818253687" fill="rgb(0,255,0)" r="2" stroke="rgb(0,255,0)" /><circle cx="-6.630001633881886" cy="-24.383915818253687" fill="rgb(0,255,0)" r="2" stroke="rgb(0,255,0)" /><circle cx="-8.20425075610546" cy="-30.173711989206367" fill="rgb(0,255,0)" r="2" stroke="rgb(0,255,0)" /><circle cx="-16.12107402497796" cy="-59.2903190122957" fill="rgb(0,255,0)" r="2" stroke="rgb(0,255,0)" /><circle cx="-43.896292520796315" cy="-53.94065826019087" fill="rgb(0,255,0)" r="2" stroke="rgb(0,255,0)" /><circle cx="11.093028945672366" cy="-64.53190580981254" fill="rgb(0,255,0)" r="2" stroke="rgb(0,255,0)" /><circle cx="64.9122278250442" cy="-38.16334502822066" fill="rgb(0,255,0)" r="2" stroke="rgb(0,255,0)" /><circle cx="64.9122278250442" cy="-38.16334502822066" fill="rgb(0,255,0)" r="2" stroke="rgb(0,255,0)" /><circle cx="63.33797870282063" cy="-43.953141199173345" fill="rgb(0,255,0)" r="2" stroke="rgb(0,255,0)" /><circle cx="51.8057797108594" cy="-86.36642930189274" fill="rgb(0,255,0)" r="2" stroke="rgb(0,255,0)" /><circle cx="24.030561215041043" cy="-81.01676854978791" fill="rgb(0,255,0)" r="2" stroke="rgb(0,255,0)" /><circle cx="79.01988268150973" cy="-91.60801609940958" fill="rgb(0,255,0)" r="2" stroke="rgb(0,255,0)" /><circle cx="119.90154929151288" cy="-48.75459257784233" fill="rgb(0,255,0)" r="2" stroke="rgb(0,255,0)" /><circle cx="119.90154929151288" cy="-48.75459257784233" fill="rgb(0,255,0)" r="2" stroke="rgb(0,255,0)" /><circle cx="118.3273001692893" cy="-54.544388748795015" fill="rgb(0,255,0)" r="2" stroke="rgb(0,255,0)" /><circle cx="104.01622415095399" cy="-107.17787093624966" fill="rgb(0,255,0)" r="2" stroke="rgb(0,255,0)" /><circle cx="76.24100565513564" cy="-101.82821018414484" fill="rgb(0,255,0)" r="2" stroke="rgb(0,255,0)" /><circle cx="131.23032712160432" cy="-112.4194577337665" fill="rgb(0,255,0)" r="2" stroke="rgb(0,255,0)" /><circle cx="168.7974467166353" cy="-40.49302103058258" fill="rgb(0,255,0)" r="2" stroke="rgb(0,255,0)" /><circle cx="168.7974467166353" cy="-40.49302103058258" fill="rgb(0,255,0)" r="2" stroke="rgb(0,255,0)" /><circle cx="167.22319759441172" cy="-46.282817201535266" fill="rgb(0,255,0)" r="2" stroke="rgb(0,255,0)" /><circle cx="155.0797502021532" cy="-90.94416350392723" fill="rgb(0,255,0)" r="2" stroke="rgb(0,255,0)" /><circle cx="127.30453170633486" cy="-85.5945027518224" fill="rgb(0,255,0)" r="2" stroke="rgb(0,255,0)" /><circle cx="182.29385317280355" cy="-96.18575030144407" fill="rgb(0,255,0)" r="2" stroke="rgb(0,255,0)" /><circle cx="168.7974467166353" cy="-40.49302103058258" fill="rgb(0,255,0)" r="2" stroke="rgb(0,255,0)" /><circle cx="168.7974467166353" cy="-40.49302103058258" fill="rgb(0,255,0)" r="2" stroke="rgb(0,255,0)" /><circle cx="167.22319759441172" cy="-46.282817201535266" fill="rgb(0,255,0)" r="2" stroke="rgb(0,255,0)" /><circle cx="155.0797502021532" cy="-90.94416350392723" fill="rgb(0,255,0)" r="2" stroke="rgb(0,255,0)" /><circle cx="127.30453170633486" cy="-85.5945027518224" fill="rgb(0,255,0)" r="2" stroke="rgb(0,255,0)" /><circle cx="182.29385317280355" cy="-96.18575030144407" fill="rgb(0,255,0)" r="2" stroke="rgb(0,255,0)" /><circle cx="167.48557244811565" cy="-45.31785117304315" fill="rgb(0,255,0)" r="2" stroke="rgb(0,255,0)" /><circle cx="167.48557244811565" cy="-45.31785117304315" fill="rgb(0,255,0)" r="2" stroke="rgb(0,255,0)" /><circle cx="165.91132332589206" cy="-51.107647343995836" fill="rgb(0,255,0)" r="2" stroke="rgb(0,255,0)" /><circle cx="152.50196183085916" cy="-100.424790827107" fill="rgb(0,255,0)" r="2" stroke="rgb(0,255,0)" /><circle cx="124.72674333504081" cy="-95.07513007500218" fill="rgb(0,255,0)" r="2" stroke="rgb(0,255,0)" /><circle cx="179.7160648015095" cy="-105.66637762462385" fill="rgb(0,255,0)" r="2" stroke="rgb(0,255,0)" /><circle cx="155.59530787641202" cy="-89.04803803929127" fill="rgb(0,255,0)" r="2" stroke="rgb(0,255,0)" /><circle cx="155.59530787641202" cy="-89.04803803929127" fill="rgb(0,255,0)" r="2" stroke="rgb(0,255,0)" /><circle cx="154.02105875418843" cy="-94.83783421024395" fill="rgb(0,255,0)" r="2" stroke="rgb(0,255,0)" /><circle cx="129.13799587767824" cy="-186.35312243889655" fill="rgb(0,255,0)" r="2" stroke="rgb(0,255,0)" /><circle cx="101.36277738185989" cy="-181.00346168679172" fill="rgb(0,255,0)" r="2" stroke="rgb(0,255,0)" /><circle cx="156.35209884832858" cy="-191.5947092364134" fill="rgb(0,255,0)" r="2" stroke="rgb(0,255,0)" /><circle cx="227.1375373353381" cy="-102.82746724925823" fill="rgb(0,255,0)" r="2" stroke="rgb(0,255,0)" /><circle cx="227.1375373353381" cy="-102.82746724925823" fill="rgb(0,255,0)" r="2" stroke="rgb(0,255,0)" /><circle cx="225.5632882131145" cy="-108.61726342021092" fill="rgb(0,255,0)" r="2" stroke="rgb(0,255,0)" /><circle cx="197.06484961351558" cy="-213.42923272849356" fill="rgb(0,255,0)" r="2" stroke="rgb(0,255,0)" /><circle cx="169.2896311176972" cy="-208.07957197638873" fill="rgb(0,255,0)" r="2" stroke="rgb(0,255,0)" /><circle cx="224.2789525841659" cy="-218.6708195260104" fill="rgb(0,255,0)" r="2" stroke="rgb(0,255,0)" /><circle cx="282.12685880180675" cy="-113.4187147988799" fill="rgb(0,255,0)" r="2" stroke="rgb(0,255,0)" /><circle cx="282.12685880180675" cy="-113.4187147988799" fill="rgb(0,255,0)" r="2" stroke="rgb(0,255,0)" /><circle cx="280.55260967958316" cy="-119.20851096983259" fill="rgb(0,255,0)" r="2" stroke="rgb(0,255,0)" /><circle cx="249.27529405361014" cy="-234.24067436285048" fill="rgb(0,255,0)" r="2" stroke="rgb(0,255,0)" /><circle cx="221.50007555779177" cy="-228.89101361074566" fill="rgb(0,255,0)" r="2" stroke="rgb(0,255,0)" /><circle cx="276.4893970242605" cy="-239.48226116036733" fill="rgb(0,255,0)" r="2" stroke="rgb(0,255,0)" /><circle cx="223.786768183104" cy="-51.08426858020425" fill="rgb(0,255,0)" r="2" stroke="rgb(0,255,0)" /><circle cx="223.786768183104" cy="-51.08426858020425" fill="rgb(0,255,0)" r="2" stroke="rgb(0,255,0)" /><circle cx="222.2125190608804" cy="-56.874064751156936" fill="rgb(0,255,0)" r="2" stroke="rgb(0,255,0)" /><circle cx="207.29019464224783" cy="-111.75560513828414" fill="rgb(0,255,0)" r="2" stroke="rgb(0,255,0)" /><circle cx="179.51497614642946" cy="-106.40594438617931" fill="rgb(0,255,0)" r="2" stroke="rgb(0,255,0)" /><circle cx="234.50429761289814" cy="-116.99719193580098" fill="rgb(0,255,0)" r="2" stroke="rgb(0,255,0)" /><circle cx="223.786768183104" cy="-51.08426858020425" fill="rgb(0,255,0)" r="2" stroke="rgb(0,255,0)" /><circle cx="223.786768183104" cy="-51.08426858020425" fill="rgb(0,255,0)" r="2" stroke="rgb(0,255,0)" /><circle cx="222.2125190608804" cy="-56.874064751156936" fill="rgb(0,255,0)" r="2" stroke="rgb(0,255,0)" /><circle cx="207.29019464224783" cy="-111.75560513828414" fill="rgb(0,255,0)" r="2" stroke="rgb(0,255,0)" /><circle cx="179.51497614642946" cy="-106.40594438617931" fill="rgb(0,255,0)" r="2" stroke="rgb(0,255,0)" /><circle cx="234.50429761289814" cy="-116.99719193580098" fill="rgb(0,255,0)" r="2" stroke="rgb(0,255,0)" /><circle cx="222.47489391458433" cy="-55.90909872266482" fill="rgb(0,255,0)" r="2" stroke="rgb(0,255,0)" /><circle cx="222.47489391458433" cy="-55.90909872266482" fill="rgb(0,255,0)" r="2" stroke="rgb(0,255,0)" /><circle cx="220.90064479236074" cy="-61.698894893617506" fill="rgb(0,255,0)" r="2" stroke="rgb(0,255,0)" /><circle cx="204.71240627095378" cy="-121.23623246146391" fill="rgb(0,255,0)" r="2" stroke="rgb(0,255,0)" /><circle cx="176.9371877751354" cy="-115.88657170935909" fill="rgb(0,255,0)" r="2" stroke="rgb(0,255,0)" /><circle cx="231.9265092416041" cy="-126.47781925898076" fill="rgb(0,255,0)" r="2" stroke="rgb(0,255,0)" /><circle cx="207.80575231650664" cy="-109.85947967364818" fill="rgb(0,255,0)" r="2" stroke="rgb(0,255,0)" /><circle cx="207.80575231650664" cy="-109.85947967364818" fill="rgb(0,255,0)" r="2" stroke="rgb(0,255,0)" /><circle cx="206.23150319428305" cy="-115.64927584460087" fill="rgb(0,255,0)" r="2" stroke="rgb(0,255,0)" /><circle cx="175.8880413635906" cy="-227.24689825435428" fill="rgb(0,255,0)" r="2" stroke="rgb(0,255,0)" /><circle cx="148.11282286777222" cy="-221.89723750224945" fill="rgb(0,255,0)" r="2" stroke="rgb(0,255,0)" /><circle cx="203.1021443342409" cy="-232.48848505187112" fill="rgb(0,255,0)" r="2" stroke="rgb(0,255,0)" /><circle cx="279.34798177543274" cy="-123.63890888361516" fill="rgb(0,255,0)" r="2" stroke="rgb(0,255,0)" /><circle cx="279.34798177543274" cy="-123.63890888361516" fill="rgb(0,255,0)" r="2" stroke="rgb(0,255,0)" /><circle cx="277.77373265320915" cy="-129.42870505456784" fill="rgb(0,255,0)" r="2" stroke="rgb(0,255,0)" /><circle cx="243.81489509942796" cy="-254.3230085439513" fill="rgb(0,255,0)" r="2" stroke="rgb(0,255,0)" /><circle cx="216.0396766036096" cy="-248.97334779184646" fill="rgb(0,255,0)" r="2" stroke="rgb(0,255,0)" /><circle cx="271.0289980700783" cy="-259.56459534146813" fill="rgb(0,255,0)" r="2" stroke="rgb(0,255,0)" /><circle cx="334.3373032419014" cy="-134.23015643323683" fill="rgb(0,255,0)" r="2" stroke="rgb(0,255,0)" /><circle cx="334.3373032419014" cy="-134.23015643323683" fill="rgb(0,255,0)" r="2" stroke="rgb(0,255,0)" /><circle cx="332.7630541196778" cy="-140.0199526041895" fill="rgb(0,255,0)" r="2" stroke="rgb(0,255,0)" /><circle cx="296.0253395395225" cy="-275.1344501783082" fill="rgb(0,255,0)" r="2" stroke="rgb(0,255,0)" /><circle cx="268.25012104370415" cy="-269.7847894262034" fill="rgb(0,255,0)" r="2" stroke="rgb(0,255,0)" /><circle cx="323.2394425101728" cy="-280.37603697582506" fill="rgb(0,255,0)" r="2" stroke="rgb(0,255,0)" /><line stroke="rgb(139,69,19)" x1="0" x2="0" y1="0" y2="0" /><line stroke="rgb(139,69,19)" x1="0" x2="0" y1="0" y2="0" /><line stroke="rgb(139,69,19)" x1="0" x2="-1.049499414815715" y1="0" y2="-3.8598641139684533" /><line stroke="rgb(139,69,19)" x1="0" x2="-2.0622306970352327" y1="0" y2="-7.584501858543822" /><line stroke="rgb(139,69,19)" x1="0" x2="168.7974467166353" y1="0" y2="-40.49302103058258" /><line stroke="rgb(139,69,19)" x1="0" x2="223.786768183104" y1="0" y2="-51.08426858020425" /><line stroke="rgb(139,69,19)" x1="0" x2="0" y1="0" y2="0" /><line stroke="rgb(139,69,19)" x1="0" x2="0" y1="0" y2="0" /><line stroke="rgb(139,69,19)" x1="0" x2="-1.3118742685196438" y1="0" y2="-4.824830142460566" /><line stroke="rgb(139,69,19)" x1="0" x2="-2.577788371294041" y1="0" y2="-9.480627323179776" /><line stroke="rgb(139,69,19)" x1="0" x2="68.96444108763205" y1="0" y2="-23.260056533146745" /><line stroke="rgb(139,69,19)" x1="0" x2="123.95376255410073" y1="0" y2="-33.851304082768415" /><line stroke="rgb(139,69,19)" x1="0" x2="0" y1="0" y2="0" /><line stroke="rgb(139,69,19)" x1="0" x2="0" y1="0" y2="0" /><line stroke="rgb(139,69,19)" x1="0" x2="-1.3118742685196438" y1="0" y2="-4.824830142460566" /><line stroke="rgb(139,69,19)" x1="0" x2="-2.577788371294041" y1="0" y2="-9.480627323179776" /><line stroke="rgb(139,69,19)" x1="0" x2="68.96444108763205" y1="0" y2="-23.260056533146745" /><line stroke="rgb(139,69,19)" x1="0" x2="123.95376255410073" y1="0" y2="-33.851304082768415" /><line stroke="rgb(139,69,19)" x1="-1.049499414815715" x2="-1.049499414815715" y1="-3.8598641139684533" y2="-3.8598641139684533" /><line stroke="rgb(139,69,19)" x1="-1.049499414815715" x2="-1.049499414815715" y1="-3.8598641139684533" y2="-3.8598641139684533" /><line stroke="rgb(139,69,19)" x1="-1.049499414815715" x2="-2.361373683335359" y1="-3.8598641139684533" y2="-8.68469425642902" /><line stroke="rgb(139,69,19)" x1="-1.049499414815715" x2="-4.6400190683292735" y1="-3.8598641139684533" y2="-17.0651291817236" /><line stroke="rgb(139,69,19)" x1="-1.049499414815715" x2="66.90221039059682" y1="-3.8598641139684533" y2="-30.84455839169057" /><line stroke="rgb(139,69,19)" x1="-1.049499414815715" x2="121.8915318570655" y1="-3.8598641139684533" y2="-41.43580594131224" /><line stroke="rgb(139,69,19)" x1="-2.0622306970352327" x2="-2.0622306970352327" y1="-7.584501858543822" y2="-7.584501858543822" /><line stroke="rgb(139,69,19)" x1="-2.0622306970352327" x2="-2.0622306970352327" y1="-7.584501858543822" y2="-7.584501858543822" /><line stroke="rgb(139,69,19)" x1="-2.0622306970352327" x2="-3.3741049655548765" y1="-7.584501858543822" y2="-12.40933200100439" /><line stroke="rgb(139,69,19)" x1="-2.0622306970352327" x2="-6.630001633881886" y1="-7.584501858543822" y2="-24.383915818253687" /><line stroke="rgb(139,69,19)" x1="-2.0622306970352327" x2="64.9122278250442" y1="-7.584501858543822" y2="-38.16334502822066" /><line stroke="rgb(139,69,19)" x1="-2.0622306970352327" x2="119.90154929151288" y1="-7.584501858543822" y2="-48.75459257784233" /><line stroke="rgb(139,69,19)" x1="168.7974467166353" x2="168.7974467166353" y1="-40.49302103058258" y2="-40.49302103058258" /><line stroke="rgb(139,69,19)" x1="168.7974467166353" x2="168.7974467166353" y1="-40.49302103058258" y2="-40.49302103058258" /><line stroke="rgb(139,69,19)" x1="168.7974467166353" x2="167.48557244811565" y1="-40.49302103058258" y2="-45.31785117304315" /><line stroke="rgb(139,69,19)" x1="168.7974467166353" x2="155.59530787641202" y1="-40.49302103058258" y2="-89.04803803929127" /><line stroke="rgb(139,69,19)" x1="168.7974467166353" x2="227.1375373353381" y1="-40.49302103058258" y2="-102.82746724925823" /><line stroke="rgb(139,69,19)" x1="168.7974467166353" x2="282.12685880180675" y1="-40.49302103058258" y2="-113.4187147988799" /><line stroke="rgb(139,69,19)" x1="223.786768183104" x2="223.786768183104" y1="-51.08426858020425" y2="-51.08426858020425" /><line stroke="rgb(139,69,19)" x1="223.786768183104" x2="223.786768183104" y1="-51.08426858020425" y2="-51.08426858020425" /><line stroke="rgb(139,69,19)" x1="223.786768183104" x2="222.47489391458433" y1="-51.08426858020425" y2="-55.90909872266482" /><line stroke="rgb(139,69,19)" x1="223.786768183104" x2="207.80575231650664" y1="-51.08426858020425" y2="-109.85947967364818" /><line stroke="rgb(139,69,19)" x1="223.786768183104" x2="279.34798177543274" y1="-51.08426858020425" y2="-123.63890888361516" /><line stroke="rgb(139,69,19)" x1="223.786768183104" x2="334.3373032419014" y1="-51.08426858020425" y2="-134.23015643323683" /><line stroke="rgb(139,69,19)" x1="0" x2="0" y1="0" y2="0" /><line stroke="rgb(139,69,19)" x1="0" x2="0" y1="0" y2="0" /><line stroke="rgb(139,69,19)" x1="0" x2="-1.5742491222235726" y1="0" y2="-5.78979617095268" /><line stroke="rgb(139,69,19)" x1="0" x2="-3.093346045552849" y1="0" y2="-11.376752787815732" /><line stroke="rgb(139,69,19)" x1="0" x2="-30.868564541371203" y1="0" y2="-6.02709203571091" /><line stroke="rgb(139,69,19)" x1="0" x2="24.120756925097478" y1="0" y2="-16.61833958533258" /><line stroke="rgb(139,69,19)" x1="0" x2="0" y1="0" y2="0" /><line stroke="rgb(139,69,19)" x1="0" x2="0" y1="0" y2="0" /><line stroke="rgb(139,69,19)" x1="0" x2="-1.5742491222235726" y1="0" y2="-5.78979617095268" /><line stroke="rgb(139,69,19)" x1="0" x2="-3.093346045552849" y1="0" y2="-11.376752787815732" /><line stroke="rgb(139,69,19)" x1="0" x2="-30.868564541371203" y1="0" y2="-6.02709203571091" /><line stroke="rgb(139,69,19)" x1="0" x2="24.120756925097478" y1="0" y2="-16.61833958533258" /><line stroke="rgb(139,69,19)" x1="-1.3118742685196438" x2="-1.3118742685196438" y1="-4.824830142460566" y2="-4.824830142460566" /><line stroke="rgb(139,69,19)" x1="-1.3118742685196438" x2="-1.3118742685196438" y1="-4.824830142460566" y2="-4.824830142460566" /><line stroke="rgb(139,69,19)" x1="-1.3118742685196438" x2="-2.8861233907432164" y1="-4.824830142460566" y2="-10.614626313413245" /><line stroke="rgb(139,69,19)" x1="-1.3118742685196438" x2="-5.67113441684689" y1="-4.824830142460566" y2="-20.857380110995507" /><line stroke="rgb(139,69,19)" x1="-1.3118742685196438" x2="-33.44635291266525" y1="-4.824830142460566" y2="-15.507719358890686" /><line stroke="rgb(139,69,19)" x1="-1.3118742685196438" x2="21.542968553803433" y1="-4.824830142460566" y2="-26.098966908512356" /><line stroke="rgb(139,69,19)" x1="-2.577788371294041" x2="-2.577788371294041" y1="-9.480627323179776" y2="-9.480627323179776" /><line stroke="rgb(139,69,19)" x1="-2.577788371294041" x2="-2.577788371294041" y1="-9.480627323179776" y2="-9.480627323179776" /><line stroke="rgb(139,69,19)" x1="-2.577788371294041" x2="-4.152037493517613" y1="-9.480627323179776" y2="-15.270423494132457" /><line stroke="rgb(139,69,19)" x1="-2.577788371294041" x2="-8.158612623787654" y1="-9.480627323179776" y2="-30.005863406658115" /><line stroke="rgb(139,69,19)" x1="-2.577788371294041" x2="-35.93383111960601" y1="-9.480627323179776" y2="-24.656202654553294" /><line stroke="rgb(139,69,19)" x1="-2.577788371294041" x2="19.05549034686267" y1="-9.480627323179776" y2="-35.24745020417497" /><line stroke="rgb(139,69,19)" x1="68.96444108763205" x2="68.96444108763205" y1="-23.260056533146745" y2="-23.260056533146745" /><line stroke="rgb(139,69,19)" x1="68.96444108763205" x2="68.96444108763205" y1="-23.260056533146745" y2="-23.260056533146745" /><line stroke="rgb(139,69,19)" x1="68.96444108763205" x2="67.39019196540848" y1="-23.260056533146745" y2="-29.049852704099425" /><line stroke="rgb(139,69,19)" x1="68.96444108763205" x2="59.76824111204971" y1="-23.260056533146745" y2="-57.081973696255126" /><line stroke="rgb(139,69,19)" x1="68.96444108763205" x2="31.993022616231354" y1="-23.260056533146745" y2="-51.7323129441503" /><line stroke="rgb(139,69,19)" x1="68.96444108763205" x2="86.98234408270004" y1="-23.260056533146745" y2="-62.32356049377197" /><line stroke="rgb(139,69,19)" x1="123.95376255410073" x2="123.95376255410073" y1="-33.851304082768415" y2="-33.851304082768415" /><line stroke="rgb(139,69,19)" x1="123.95376255410073" x2="123.95376255410073" y1="-33.851304082768415" y2="-33.851304082768415" /><line stroke="rgb(139,69,19)" x1="123.95376255410073" x2="122.37951343187716" y1="-33.851304082768415" y2="-39.6411002537211" /><line stroke="rgb(139,69,19)" x1="123.95376255410073" x2="111.97868555214431" y1="-33.851304082768415" y2="-77.89341533061204" /><line stroke="rgb(139,69,19)" x1="123.95376255410073" x2="84.20346705632596" y1="-33.851304082768415" y2="-72.54375457850722" /><line stroke="rgb(139,69,19)" x1="123.95376255410073" x2="139.19278852279464" y1="-33.851304082768415" y2="-83.13500212812889" /><line stroke="rgb(139,69,19)" x1="0" x2="0" y1="0" y2="0" /><line stroke="rgb(139,69,19)" x1="0" x2="0" y1="0" y2="0" /><line stroke="rgb(139,69,19)" x1="0" x2="-1.5742491222235726" y1="0" y2="-5.78979617095268" /><line stroke="rgb(139,69,19)" x1="0" x2="-3.093346045552849" y1="0" y2="-11.376752787815732" /><line stroke="rgb(139,69,19)" x1="0" x2="-30.868564541371203" y1="0" y2="-6.02709203571091" /><line stroke="rgb(139,69,19)" x1="0" x2="24.120756925097478" y1="0" y2="-16.61833958533258" /><line stroke="rgb(139,69,19)" x1="0" x2="0" y1="0" y2="0" /><line stroke="rgb(139,69,19)" x1="0" x2="0" y1="0" y2="0" /><line stroke="rgb(139,69,19)" x1="0" x2="-1.5742491222235726" y1="0" y2="-5.78979617095268" /><line stroke="rgb(139,69,19)" x1="0" x2="-3.093346045552849" y1="0" y2="-11.376752787815732" /><line stroke="rgb(139,69,19)" x1="0" x2="-30.868564541371203" y1="0" y2="-6.02709203571091" /><line stroke="rgb(139,69,19)" x1="0" x2="24.120756925097478" y1="0" y2="-16.61833958533258" /><line stroke="rgb(139,69,19)" x1="-1.3118742685196438" x2="-1.3118742685196438" y1="-4.824830142460566" y2="-4.824830142460566" /><line stroke="rgb(139,69,19)" x1="-1.3118742685196438" x2="-1.3118742685196438" y1="-4.824830142460566" y2="-4.824830142460566" /><line stroke="rgb(139,69,19)" x1="-1.3118742685196438" x2="-2.8861233907432164" y1="-4.824830142460566" y2="-10.614626313413245" /><line stroke="rgb(139,69,19)" x1="-1.3118742685196438" x2="-5.67113441684689" y1="-4.824830142460566" y2="-20.857380110995507" /><line stroke="rgb(139,69,19)" x1="-1.3118742685196438" x2="-33.44635291266525" y1="-4.824830142460566" y2="-15.507719358890686" /><line stroke="rgb(139,69,19)" x1="-1.3118742685196438" x2="21.542968553803433" y1="-4.824830142460566" y2="-26.098966908512356" /><line stroke="rgb(139,69,19)" x1="-2.577788371294041" x2="-2.577788371294041" y1="-9.480627323179776" y2="-9.480627323179776" /><line stroke="rgb(139,69,19)" x1="-2.577788371294041" x2="-2.577788371294041" y1="-9.480627323179776" y2="-9.480627323179776" /><line stroke="rgb(139,69,19)" x1="-2.577788371294041" x2="-4.152037493517613" y1="-9.480627323179776" y2="-15.270423494132457" /><line stroke="rgb(139,69,19)" x1="-2.577788371294041" x2="-8.158612623787654" y1="-9.480627323179776" y2="-30.005863406658115" /><line stroke="rgb(139,69,19)" x1="-2.577788371294041" x2="-35.93383111960601" y1="-9.480627323179776" y2="-24.656202654553294" /><line stroke="rgb(139,69,19)" x1="-2.577788371294041" x2="19.05549034686267" y1="-9.480627323179776" y2="-35.24745020417497" /><line stroke="rgb(139,69,19)" x1="68.96444108763205" x2="68.96444108763205" y1="-23.260056533146745" y2="-23.260056533146745" /><line stroke="rgb(139,69,19)" x1="68.96444108763205" x2="68.96444108763205" y1="-23.260056533146745" y2="-23.260056533146745" /><line stroke="rgb(139,69,19)" x1="68.96444108763205" x2="67.39019196540848" y1="-23.260056533146745" y2="-29.049852704099425" /><line stroke="rgb(139,69,19)" x1="68.96444108763205" x2="59.76824111204971" y1="-23.260056533146745" y2="-57.081973696255126" /><line stroke="rgb(139,69,19)" x1="68.96444108763205" x2="31.993022616231354" y1="-23.260056533146745" y2="-51.7323129441503" /><line stroke="rgb(139,69,19)" x1="68.96444108763205" x2="86.98234408270004" y1="-23.260056533146745" y2="-62.32356049377197" /><line stroke="rgb(139,69,19)" x1="123.95376255410073" x2="123.95376255410073" y1="-33.851304082768415" y2="-33.851304082768415" /><line stroke="rgb(139,69,19)" x1="123.95376255410073" x2="123.95376255410073" y1="-33.851304082768415" y2="-33.851304082768415" /><line stroke="rgb(139,69,19)" x1="123.95376255410073" x2="122.37951343187716" y1="-33.851304082768415" y2="-39.6411002537211" /><line stroke="rgb(139,69,19)" x1="123.95376255410073" x2="111.97868555214431" y1="-33.851304082768415" y2="-77.89341533061204" /><line stroke="rgb(139,69,19)" x1="123.95376255410073" x2="84.20346705632596" y1="-33.851304082768415" y2="-72.54375457850722" /><line stroke="rgb(139,69,19)" x1="123.95376255410073" x2="139.19278852279464" y1="-33.851304082768415" y2="-83.13500212812889" /><line stroke="rgb(139,69,19)" x1="-1.049499414815715" x2="-1.049499414815715" y1="-3.8598641139684533" y2="-3.8598641139684533" /><line stroke="rgb(139,69,19)" x1="-1.049499414815715" x2="-1.049499414815715" y1="-3.8598641139684533" y2="-3.8598641139684533" /><line stroke="rgb(139,69,19)" x1="-1.049499414815715" x2="-2.6237485370392877" y1="-3.8598641139684533" y2="-9.649660284921133" /><line stroke="rgb(139,69,19)" x1="-1.049499414815715" x2="-5.155576742588082" y1="-3.8598641139684533" y2="-18.961254646359553" /><line stroke="rgb(139,69,19)" x1="-1.049499414815715" x2="-32.93079523840643" y1="-3.8598641139684533" y2="-13.611593894254732" /><line stroke="rgb(139,69,19)" x1="-1.049499414815715" x2="22.05852622806225" y1="-3.8598641139684533" y2="-24.2028414438764" /><line stroke="rgb(139,69,19)" x1="-1.049499414815715" x2="-1.049499414815715" y1="-3.8598641139684533" y2="-3.8598641139684533" /><line stroke="rgb(139,69,19)" x1="-1.049499414815715" x2="-1.049499414815715" y1="-3.8598641139684533" y2="-3.8598641139684533" /><line stroke="rgb(139,69,19)" x1="-1.049499414815715" x2="-2.6237485370392877" y1="-3.8598641139684533" y2="-9.649660284921133" /><line stroke="rgb(139,69,19)" x1="-1.049499414815715" x2="-5.155576742588082" y1="-3.8598641139684533" y2="-18.961254646359553" /><line stroke="rgb(139,69,19)" x1="-1.049499414815715" x2="-32.93079523840643" y1="-3.8598641139684533" y2="-13.611593894254732" /><line stroke="rgb(139,69,19)" x1="-1.049499414815715" x2="22.05852622806225" y1="-3.8598641139684533" y2="-24.2028414438764" /><line stroke="rgb(139,69,19)" x1="-2.361373683335359" x2="-2.361373683335359" y1="-8.68469425642902" y2="-8.68469425642902" /><line stroke="rgb(139,69,19)" x1="-2.361373683335359" x2="-2.361373683335359" y1="-8.68469425642902" y2="-8.68469425642902" /><line stroke="rgb(139,69,19)" x1="-2.361373683335359" x2="-3.9356228055589315" y1="-8.68469425642902" y2="-14.474490427381701" /><line stroke="rgb(139,69,19)" x1="-2.361373683335359" x2="-7.733365113882122" y1="-8.68469425642902" y2="-28.44188196953933" /><line stroke="rgb(139,69,19)" x1="-2.361373683335359" x2="-35.50858360970048" y1="-8.68469425642902" y2="-23.09222121743451" /><line stroke="rgb(139,69,19)" x1="-2.361373683335359" x2="19.4807378567682" y1="-8.68469425642902" y2="-33.68346876705618" /><line stroke="rgb(139,69,19)" x1="-4.6400190683292735" x2="-4.6400190683292735" y1="-17.0651291817236" y2="-17.0651291817236" /><line stroke="rgb(139,69,19)" x1="-4.6400190683292735" x2="-4.6400190683292735" y1="-17.0651291817236" y2="-17.0651291817236" /><line stroke="rgb(139,69,19)" x1="-4.6400190683292735" x2="-6.214268190552846" y1="-17.0651291817236" y2="-22.85492535267628" /><line stroke="rgb(139,69,19)" x1="-4.6400190683292735" x2="-12.210825886375497" y1="-17.0651291817236" y2="-44.90915190173202" /><line stroke="rgb(139,69,19)" x1="-4.6400190683292735" x2="-39.98604438219385" y1="-17.0651291817236" y2="-39.55949114962719" /><line stroke="rgb(139,69,19)" x1="-4.6400190683292735" x2="15.003277084274828" y1="-17.0651291817236" y2="-50.15073869924886" /><line stroke="rgb(139,69,19)" x1="66.90221039059682" x2="66.90221039059682" y1="-30.84455839169057" y2="-30.84455839169057" /><line stroke="rgb(139,69,19)" x1="66.90221039059682" x2="66.90221039059682" y1="-30.84455839169057" y2="-30.84455839169057" /><line stroke="rgb(139,69,19)" x1="66.90221039059682" x2="65.32796126837324" y1="-30.84455839169057" y2="-36.63435456264325" /><line stroke="rgb(139,69,19)" x1="66.90221039059682" x2="55.71602784946187" y1="-30.84455839169057" y2="-71.98526219132904" /><line stroke="rgb(139,69,19)" x1="66.90221039059682" x2="27.940809353643512" y1="-30.84455839169057" y2="-66.63560143922422" /><line stroke="rgb(139,69,19)" x1="66.90221039059682" x2="82.9301308201122" y1="-30.84455839169057" y2="-77.22684898884589" /><line stroke="rgb(139,69,19)" x1="121.8915318570655" x2="121.8915318570655" y1="-41.43580594131224" y2="-41.43580594131224" /><line stroke="rgb(139,69,19)" x1="121.8915318570655" x2="121.8915318570655" y1="-41.43580594131224" y2="-41.43580594131224" /><line stroke="rgb(139,69,19)" x1="121.8915318570655" x2="120.31728273484192" y1="-41.43580594131224" y2="-47.22560211226492" /><line stroke="rgb(139,69,19)" x1="121.8915318570655" x2="107.92647228955647" y1="-41.43580594131224" y2="-92.79670382568597" /><line stroke="rgb(139,69,19)" x1="121.8915318570655" x2="80.15125379373812" y1="-41.43580594131224" y2="-87.44704307358114" /><line stroke="rgb(139,69,19)" x1="121.8915318570655" x2="135.1405752602068" y1="-41.43580594131224" y2="-98.03829062320281" /><line stroke="rgb(139,69,19)" x1="-2.0622306970352327" x2="-2.0622306970352327" y1="-7.584501858543822" y2="-7.584501858543822" /><line stroke="rgb(139,69,19)" x1="-2.0622306970352327" x2="-2.0622306970352327" y1="-7.584501858543822" y2="-7.584501858543822" /><line stroke="rgb(139,69,19)" x1="-2.0622306970352327" x2="-3.6364798192588053" y1="-7.584501858543822" y2="-13.374298029496503" /><line stroke="rgb(139,69,19)" x1="-2.0622306970352327" x2="-7.145559308140693" y1="-7.584501858543822" y2="-26.28004128288964" /><line stroke="rgb(139,69,19)" x1="-2.0622306970352327" x2="-34.92077780395905" y1="-7.584501858543822" y2="-20.93038053078482" /><line stroke="rgb(139,69,19)" x1="-2.0622306970352327" x2="20.068543662509633" y1="-7.584501858543822" y2="-31.52162808040649" /><line stroke="rgb(139,69,19)" x1="-2.0622306970352327" x2="-2.0622306970352327" y1="-7.584501858543822" y2="-7.584501858543822" /><line stroke="rgb(139,69,19)" x1="-2.0622306970352327" x2="-2.0622306970352327" y1="-7.584501858543822" y2="-7.584501858543822" /><line stroke="rgb(139,69,19)" x1="-2.0622306970352327" x2="-3.6364798192588053" y1="-7.584501858543822" y2="-13.374298029496503" /><line stroke="rgb(139,69,19)" x1="-2.0622306970352327" x2="-7.145559308140693" y1="-7.584501858543822" y2="-26.28004128288964" /><line stroke="rgb(139,69,19)" x1="-2.0622306970352327" x2="-34.92077780395905" y1="-7.584501858543822" y2="-20.93038053078482" /><line stroke="rgb(139,69,19)" x1="-2.0622306970352327" x2="20.068543662509633" y1="-7.584501858543822" y2="-31.52162808040649" /><line stroke="rgb(139,69,19)" x1="-3.3741049655548765" x2="-3.3741049655548765" y1="-12.40933200100439" y2="-12.40933200100439" /><line stroke="rgb(139,69,19)" x1="-3.3741049655548765" x2="-3.3741049655548765" y1="-12.40933200100439" y2="-12.40933200100439" /><line stroke="rgb(139,69,19)" x1="-3.3741049655548765" x2="-4.948354087778449" y1="-12.40933200100439" y2="-18.19912817195707" /><line stroke="rgb(139,69,19)" x1="-3.3741049655548765" x2="-9.723347679434735" y1="-12.40933200100439" y2="-35.760668606069416" /><line stroke="rgb(139,69,19)" x1="-3.3741049655548765" x2="-37.49856617525309" y1="-12.40933200100439" y2="-30.411007853964595" /><line stroke="rgb(139,69,19)" x1="-3.3741049655548765" x2="17.490755291215592" y1="-12.40933200100439" y2="-41.00225540358626" /><line stroke="rgb(139,69,19)" x1="-6.630001633881886" x2="-6.630001633881886" y1="-24.383915818253687" y2="-24.383915818253687" /><line stroke="rgb(139,69,19)" x1="-6.630001633881886" x2="-6.630001633881886" y1="-24.383915818253687" y2="-24.383915818253687" /><line stroke="rgb(139,69,19)" x1="-6.630001633881886" x2="-8.20425075610546" y1="-24.383915818253687" y2="-30.173711989206367" /><line stroke="rgb(139,69,19)" x1="-6.630001633881886" x2="-16.12107402497796" y1="-24.383915818253687" y2="-59.2903190122957" /><line stroke="rgb(139,69,19)" x1="-6.630001633881886" x2="-43.896292520796315" y1="-24.383915818253687" y2="-53.94065826019087" /><line stroke="rgb(139,69,19)" x1="-6.630001633881886" x2="11.093028945672366" y1="-24.383915818253687" y2="-64.53190580981254" /><line stroke="rgb(139,69,19)" x1="64.9122278250442" x2="64.9122278250442" y1="-38.16334502822066" y2="-38.16334502822066" /><line stroke="rgb(139,69,19)" x1="64.9122278250442" x2="64.9122278250442" y1="-38.16334502822066" y2="-38.16334502822066" /><line stroke="rgb(139,69,19)" x1="64.9122278250442" x2="63.33797870282063" y1="-38.16334502822066" y2="-43.953141199173345" /><line stroke="rgb(139,69,19)" x1="64.9122278250442" x2="51.8057797108594" y1="-38.16334502822066" y2="-86.36642930189274" /><line stroke="rgb(139,69,19)" x1="64.9122278250442" x2="24.030561215041043" y1="-38.16334502822066" y2="-81.01676854978791" /><line stroke="rgb(139,69,19)" x1="64.9122278250442" x2="79.01988268150973" y1="-38.16334502822066" y2="-91.60801609940958" /><line stroke="rgb(139,69,19)" x1="119.90154929151288" x2="119.90154929151288" y1="-48.75459257784233" y2="-48.75459257784233" /><line stroke="rgb(139,69,19)" x1="119.90154929151288" x2="119.90154929151288" y1="-48.75459257784233" y2="-48.75459257784233" /><line stroke="rgb(139,69,19)" x1="119.90154929151288" x2="118.3273001692893" y1="-48.75459257784233" y2="-54.544388748795015" /><line stroke="rgb(139,69,19)" x1="119.90154929151288" x2="104.01622415095399" y1="-48.75459257784233" y2="-107.17787093624966" /><line stroke="rgb(139,69,19)" x1="119.90154929151288" x2="76.24100565513564" y1="-48.75459257784233" y2="-101.82821018414484" /><line stroke="rgb(139,69,19)" x1="119.90154929151288" x2="131.23032712160432" y1="-48.75459257784233" y2="-112.4194577337665" /><line stroke="rgb(139,69,19)" x1="168.7974467166353" x2="168.7974467166353" y1="-40.49302103058258" y2="-40.49302103058258" /><line stroke="rgb(139,69,19)" x1="168.7974467166353" x2="168.7974467166353" y1="-40.49302103058258" y2="-40.49302103058258" /><line stroke="rgb(139,69,19)" x1="168.7974467166353" x2="167.22319759441172" y1="-40.49302103058258" y2="-46.282817201535266" /><line stroke="rgb(139,69,19)" x1="168.7974467166353" x2="155.0797502021532" y1="-40.49302103058258" y2="-90.94416350392723" /><line stroke="rgb(139,69,19)" x1="168.7974467166353" x2="127.30453170633486" y1="-40.49302103058258" y2="-85.5945027518224" /><line stroke="rgb(139,69,19)" x1="168.7974467166353" x2="182.29385317280355" y1="-40.49302103058258" y2="-96.18575030144407" /><line stroke="rgb(139,69,19)" x1="168.7974467166353" x2="168.7974467166353" y1="-40.49302103058258" y2="-40.49302103058258" /><line stroke="rgb(139,69,19)" x1="168.7974467166353" x2="168.7974467166353" y1="-40.49302103058258" y2="-40.49302103058258" /><line stroke="rgb(139,69,19)" x1="168.7974467166353" x2="167.22319759441172" y1="-40.49302103058258" y2="-46.282817201535266" /><line stroke="rgb(139,69,19)" x1="168.7974467166353" x2="155.0797502021532" y1="-40.49302103058258" y2="-90.94416350392723" /><line stroke="rgb(139,69,19)" x1="168.7974467166353" x2="127.30453170633486" y1="-40.49302103058258" y2="-85.5945027518224" /><line stroke="rgb(139,69,19)" x1="168.7974467166353" x2="182.29385317280355" y1="-40.49302103058258" y2="-96.18575030144407" /><line stroke="rgb(139,69,19)" x1="167.48557244811565" x2="167.48557244811565" y1="-45.31785117304315" y2="-45.31785117304315" /><line stroke="rgb(139,69,19)" x1="167.48557244811565" x2="167.48557244811565" y1="-45.31785117304315" y2="-45.31785117304315" /><line stroke="rgb(139,69,19)" x1="167.48557244811565" x2="165.91132332589206" y1="-45.31785117304315" y2="-51.107647343995836" /><line stroke="rgb(139,69,19)" x1="167.48557244811565" x2="152.50196183085916" y1="-45.31785117304315" y2="-100.424790827107" /><line stroke="rgb(139,69,19)" x1="167.48557244811565" x2="124.72674333504081" y1="-45.31785117304315" y2="-95.07513007500218" /><line stroke="rgb(139,69,19)" x1="167.48557244811565" x2="179.7160648015095" y1="-45.31785117304315" y2="-105.66637762462385" /><line stroke="rgb(139,69,19)" x1="155.59530787641202" x2="155.59530787641202" y1="-89.04803803929127" y2="-89.04803803929127" /><line stroke="rgb(139,69,19)" x1="155.59530787641202" x2="155.59530787641202" y1="-89.04803803929127" y2="-89.04803803929127" /><line stroke="rgb(139,69,19)" x1="155.59530787641202" x2="154.02105875418843" y1="-89.04803803929127" y2="-94.83783421024395" /><line stroke="rgb(139,69,19)" x1="155.59530787641202" x2="129.13799587767824" y1="-89.04803803929127" y2="-186.35312243889655" /><line stroke="rgb(139,69,19)" x1="155.59530787641202" x2="101.36277738185989" y1="-89.04803803929127" y2="-181.00346168679172" /><line stroke="rgb(139,69,19)" x1="155.59530787641202" x2="156.35209884832858" y1="-89.04803803929127" y2="-191.5947092364134" /><line stroke="rgb(139,69,19)" x1="227.1375373353381" x2="227.1375373353381" y1="-102.82746724925823" y2="-102.82746724925823" /><line stroke="rgb(139,69,19)" x1="227.1375373353381" x2="227.1375373353381" y1="-102.82746724925823" y2="-102.82746724925823" /><line stroke="rgb(139,69,19)" x1="227.1375373353381" x2="225.5632882131145" y1="-102.82746724925823" y2="-108.61726342021092" /><line stroke="rgb(139,69,19)" x1="227.1375373353381" x2="197.06484961351558" y1="-102.82746724925823" y2="-213.42923272849356" /><line stroke="rgb(139,69,19)" x1="227.1375373353381" x2="169.2896311176972" y1="-102.82746724925823" y2="-208.07957197638873" /><line stroke="rgb(139,69,19)" x1="227.1375373353381" x2="224.2789525841659" y1="-102.82746724925823" y2="-218.6708195260104" /><line stroke="rgb(139,69,19)" x1="282.12685880180675" x2="282.12685880180675" y1="-113.4187147988799" y2="-113.4187147988799" /><line stroke="rgb(139,69,19)" x1="282.12685880180675" x2="282.12685880180675" y1="-113.4187147988799" y2="-113.4187147988799" /><line stroke="rgb(139,69,19)" x1="282.12685880180675" x2="280.55260967958316" y1="-113.4187147988799" y2="-119.20851096983259" /><line stroke="rgb(139,69,19)" x1="282.12685880180675" x2="249.27529405361014" y1="-113.4187147988799" y2="-234.24067436285048" /><line stroke="rgb(139,69,19)" x1="282.12685880180675" x2="221.50007555779177" y1="-113.4187147988799" y2="-228.89101361074566" /><line stroke="rgb(139,69,19)" x1="282.12685880180675" x2="276.4893970242605" y1="-113.4187147988799" y2="-239.48226116036733" /><line stroke="rgb(139,69,19)" x1="223.786768183104" x2="223.786768183104" y1="-51.08426858020425" y2="-51.08426858020425" /><line stroke="rgb(139,69,19)" x1="223.786768183104" x2="223.786768183104" y1="-51.08426858020425" y2="-51.08426858020425" /><line stroke="rgb(139,69,19)" x1="223.786768183104" x2="222.2125190608804" y1="-51.08426858020425" y2="-56.874064751156936" /><line stroke="rgb(139,69,19)" x1="223.786768183104" x2="207.29019464224783" y1="-51.08426858020425" y2="-111.75560513828414" /><line stroke="rgb(139,69,19)" x1="223.786768183104" x2="179.51497614642946" y1="-51.08426858020425" y2="-106.40594438617931" /><line stroke="rgb(139,69,19)" x1="223.786768183104" x2="234.50429761289814" y1="-51.08426858020425" y2="-116.99719193580098" /><line stroke="rgb(139,69,19)" x1="223.786768183104" x2="223.786768183104" y1="-51.08426858020425" y2="-51.08426858020425" /><line stroke="rgb(139,69,19)" x1="223.786768183104" x2="223.786768183104" y1="-51.08426858020425" y2="-51.08426858020425" /><line stroke="rgb(139,69,19)" x1="223.786768183104" x2="222.2125190608804" y1="-51.08426858020425" y2="-56.874064751156936" /><line stroke="rgb(139,69,19)" x1="223.786768183104" x2="207.29019464224783" y1="-51.08426858020425" y2="-111.75560513828414" /><line stroke="rgb(139,69,19)" x1="223.786768183104" x2="179.51497614642946" y1="-51.08426858020425" y2="-106.40594438617931" /><line stroke="rgb(139,69,19)" x1="223.786768183104" x2="234.50429761289814" y1="-51.08426858020425" y2="-116.99719193580098" /><line stroke="rgb(139,69,19)" x1="222.47489391458433" x2="222.47489391458433" y1="-55.90909872266482" y2="-55.90909872266482" /><line stroke="rgb(139,69,19)" x1="222.47489391458433" x2="222.47489391458433" y1="-55.90909872266482" y2="-55.90909872266482" /><line stroke="rgb(139,69,19)" x1="222.47489391458433" x2="220.90064479236074" y1="-55.90909872266482" y2="-61.698894893617506" /><line stroke="rgb(139,69,19)" x1="222.47489391458433" x2="204.71240627095378" y1="-55.90909872266482" y2="-121.23623246146391" /><line stroke="rgb(139,69,19)" x1="222.47489391458433" x2="176.9371877751354" y1="-55.90909872266482" y2="-115.88657170935909" /><line stroke="rgb(139,69,19)" x1="222.47489391458433" x2="231.9265092416041" y1="-55.90909872266482" y2="-126.47781925898076" /><line stroke="rgb(139,69,19)" x1="207.80575231650664" x2="207.80575231650664" y1="-109.85947967364818" y2="-109.85947967364818" /><line stroke="rgb(139,69,19)" x1="207.80575231650664" x2="207.80575231650664" y1="-109.85947967364818" y2="-109.85947967364818" /><line stroke="rgb(139,69,19)" x1="207.80575231650664" x2="206.23150319428305" y1="-109.85947967364818" y2="-115.64927584460087" /><line stroke="rgb(139,69,19)" x1="207.80575231650664" x2="175.8880413635906" y1="-109.85947967364818" y2="-227.24689825435428" /><line stroke="rgb(139,69,19)" x1="207.80575231650664" x2="148.11282286777222" y1="-109.85947967364818" y2="-221.89723750224945" /><line stroke="rgb(139,69,19)" x1="207.80575231650664" x2="203.1021443342409" y1="-109.85947967364818" y2="-232.48848505187112" /><line stroke="rgb(139,69,19)" x1="279.34798177543274" x2="279.34798177543274" y1="-123.63890888361516" y2="-123.63890888361516" /><line stroke="rgb(139,69,19)" x1="279.34798177543274" x2="279.34798177543274" y1="-123.63890888361516" y2="-123.63890888361516" /><line stroke="rgb(139,69,19)" x1="279.34798177543274" x2="277.77373265320915" y1="-123.63890888361516" y2="-129.42870505456784" /><line stroke="rgb(139,69,19)" x1="279.34798177543274" x2="243.81489509942796" y1="-123.63890888361516" y2="-254.3230085439513" /><line stroke="rgb(139,69,19)" x1="279.34798177543274" x2="216.0396766036096" y1="-123.63890888361516" y2="-248.97334779184646" /><line stroke="rgb(139,69,19)" x1="279.34798177543274" x2="271.0289980700783" y1="-123.63890888361516" y2="-259.56459534146813" /><line stroke="rgb(139,69,19)" x1="334.3373032419014" x2="334.3373032419014" y1="-134.23015643323683" y2="-134.23015643323683" /><line stroke="rgb(139,69,19)" x1="334.3373032419014" x2="334.3373032419014" y1="-134.23015643323683" y2="-134.23015643323683" /><line stroke="rgb(139,69,19)" x1="334.3373032419014" x2="332.7630541196778" y1="-134.23015643323683" y2="-140.0199526041895" /><line stroke="rgb(139,69,19)" x1="334.3373032419014" x2="296.0253395395225" y1="-134.23015643323683" y2="-275.1344501783082" /><line stroke="rgb(139,69,19)" x1="334.3373032419014" x2="268.25012104370415" y1="-134.23015643323683" y2="-269.7847894262034" /><line stroke="rgb(139,69,19)" x1="334.3373032419014" x2="323.2394425101728" y1="-134.23015643323683" y2="-280.37603697582506" /><circle cx="0" cy="-300" fill="rgb(255,255,0)" r="10" stroke="rgb(255,255,0)" /></svg>