<?xml version="1.0" encoding="utf-8" ?>
<svg baseProfile="full" height="100%" version="1.1" viewBox="-400 -400 800 400" width="100%" xmlns="http://www.w3.org/2000/svg" xmlns:ev="http://www.w3.org/2001/xml-events" xmlns:xlink="http://www.w3.org/1999/xlink"><defs /><circle cx="-253.15600851106853" cy="-245.8868169622917" fill="rgb(0,255,0)" r="2" stroke="rgb(0,255,0)" /><circle cx="-158.80779330426225" cy="-327.64266593565804" fill="rgb(0,255,0)" r="2" stroke="rgb(0,255,0)" /><circle cx="-174.87289382672935" cy="-333.202571079006" fill="rgb(0,255,0)" r="2" stroke="rgb(0,255,0)" /><circle cx="-153.52673011602306" cy="-151.42907222261078" fill="rgb(0,255,0)" r="2" stroke="rgb(0,255,0)" /><circle cx="-38.293428289307776" cy="-128.81000988450586" fill="rgb(0,255,0)" r="2" stroke="rgb(0,255,0)" /><circle cx="-38.16377443363194" cy="-145.80951546195453" fill="rgb(0,255,0)" r="2" stroke="rgb(0,255,0)" /><circle cx="-140.44934135378622" cy="-162.2910197073541" fill="rgb(0,255,0)" r="2" stroke="rgb(0,255,0)" /><circle cx="-32.14816313513009" cy="-107.35943818168266" fill="rgb(0,255,0)" r="2" stroke="rgb(0,255,0)" /><circle cx="-15.165639517220505" cy="-106.58879457589398" fill="rgb(0,255,0)" r="2" stroke="rgb(0,255,0)" /><circle cx="-151.8764221864398" cy="-163.1539127588634" fill="rgb(0,255,0)" r="2" stroke="rgb(0,255,0)" /><circle cx="-25.610535071075542" cy="-111.8980279997645" fill="rgb(0,255,0)" r="2" stroke="rgb(0,255,0)" /><circle cx="-30.564859471799306" cy="-95.6359657156508" fill="rgb(0,255,0)" r="2" stroke="rgb(0,255,0)" /><circle cx="18.128657729467903" cy="-161.40579184952313" fill="rgb(0,255,0)" r="2" stroke="rgb(0,255,0)" /><circle cx="67.01024977553674" cy="-258.6448224421275" fill="rgb(0,255,0)" r="2" stroke="rgb(0,255,0)" /><circle cx="82.52527925373566" cy="-251.69616355780903" fill="rgb(0,255,0)" r="2" stroke="rgb(0,255,0)" /><circle cx="20.28542553855813" cy="-144.54316000815055" fill="rgb(0,255,0)" r="2" stroke="rgb(0,255,0)" /><circle cx="176.52695638152034" cy="-227.3179372195495" fill="rgb(0,255,0)" r="2" stroke="rgb(0,255,0)" /><circle cx="182.87495999434705" cy="-243.08825269298055" fill="rgb(0,255,0)" r="2" stroke="rgb(0,255,0)" /><circle cx="-137.45887408977376" cy="-172.16137116178263" fill="rgb(0,255,0)" r="2" stroke="rgb(0,255,0)" /><circle cx="-26.813402807603147" cy="-123.86095375678474" fill="rgb(0,255,0)" r="2" stroke="rgb(0,255,0)" /><circle cx="-31.112867743215144" cy="-140.30828184579187" fill="rgb(0,255,0)" r="2" stroke="rgb(0,255,0)" /><circle cx="22.760586498451318" cy="-211.13408921387077" fill="rgb(0,255,0)" r="2" stroke="rgb(0,255,0)" /><circle cx="225.30335117142604" cy="-283.6499244588104" fill="rgb(0,255,0)" r="2" stroke="rgb(0,255,0)" /><circle cx="217.0506310570185" cy="-298.51238087466754" fill="rgb(0,255,0)" r="2" stroke="rgb(0,255,0)" /><circle cx="14.658779913222503" cy="-196.1888314357144" fill="rgb(0,255,0)" r="2" stroke="rgb(0,255,0)" /><circle cx="42.053422364557115" cy="-251.2827883221313" fill="rgb(0,255,0)" r="2" stroke="rgb(0,255,0)" /><circle cx="27.976230695469795" cy="-241.7521705713358" fill="rgb(0,255,0)" r="2" stroke="rgb(0,255,0)" /><line stroke="rgb(139,69,19)" x1="0" x2="-84.38533617035618" y1="0" y2="-81.9622723207639" /><line stroke="rgb(139,69,19)" x1="0" x2="16.894250154272537" y1="0" y2="0.770631882664409" /><line stroke="rgb(139,69,19)" x1="0" x2="31.31179825093861" y1="0" y2="-8.23682652025483" /><line stroke="rgb(139,69,19)" x1="-84.38533617035618" x2="-168.77067234071237" y1="-81.9622723207639" y2="-163.9245446415278" /><line stroke="rgb(139,69,19)" x1="-84.38533617035618" x2="-69.14139394566688" y1="-81.9622723207639" y2="-69.46679990184688" /><line stroke="rgb(139,69,19)" x1="-84.38533617035618" x2="-56.06400518343005" y1="-81.9622723207639" y2="-80.32874738659021" /><line stroke="rgb(139,69,19)" x1="16.894250154272537" x2="-67.49108601608364" y1="0.770631882664409" y2="-81.1916404380995" /><line stroke="rgb(139,69,19)" x1="16.894250154272537" x2="102.51399389982409" y1="0.770631882664409" y2="-79.44351952875921" /><line stroke="rgb(139,69,19)" x1="16.894250154272537" x2="104.67076170891431" y1="0.770631882664409" y2="-62.580887687386635" /><line stroke="rgb(139,69,19)" x1="31.31179825093861" x2="-53.073537919417575" y1="-8.23682652025483" y2="-90.19909884101872" /><line stroke="rgb(139,69,19)" x1="31.31179825093861" x2="107.1459226688075" y1="-8.23682652025483" y2="-129.17181689310686" /><line stroke="rgb(139,69,19)" x1="31.31179825093861" x2="99.04411608357869" y1="-8.23682652025483" y2="-114.2265591149505" /><line stroke="rgb(139,69,19)" x1="-168.77067234071237" x2="-253.15600851106853" y1="-163.9245446415278" y2="-245.8868169622917" /><line stroke="rgb(139,69,19)" x1="-168.77067234071237" x2="-158.80779330426225" y1="-163.9245446415278" y2="-327.64266593565804" /><line stroke="rgb(139,69,19)" x1="-168.77067234071237" x2="-174.87289382672935" y1="-163.9245446415278" y2="-333.202571079006" /><line stroke="rgb(139,69,19)" x1="-69.14139394566688" x2="-153.52673011602306" y1="-69.46679990184688" y2="-151.42907222261078" /><line stroke="rgb(139,69,19)" x1="-69.14139394566688" x2="-38.293428289307776" y1="-69.46679990184688" y2="-128.81000988450586" /><line stroke="rgb(139,69,19)" x1="-69.14139394566688" x2="-38.16377443363194" y1="-69.46679990184688" y2="-145.80951546195453" /><line stroke="rgb(139,69,19)" x1="-56.06400518343005" x2="-140.44934135378622" y1="-80.32874738659021" y2="-162.2910197073541" /><line stroke="rgb(139,69,19)" x1="-56.06400518343005" x2="-32.14816313513009" y1="-80.32874738659021" y2="-107.35943818168266" /><line stroke="rgb(139,69,19)" x1="-56.06400518343005" x2="-15.165639517220505" y1="-80.32874738659021" y2="-106.58879457589398" /><line stroke="rgb(139,69,19)" x1="-67.49108601608364" x2="-151.8764221864398" y1="-81.1916404380995" y2="-163.1539127588634" /><line stroke="rgb(139,69,19)" x1="-67.49108601608364" x2="-25.610535071075542" y1="-81.1916404380995" y2="-111.8980279997645" /><line stroke="rgb(139,69,19)" x1="-67.49108601608364" x2="-30.564859471799306" y1="-81.1916404380995" y2="-95.6359657156508" /><line stroke="rgb(139,69,19)" x1="102.51399389982409" x2="18.128657729467903" y1="-79.44351952875921" y2="-161.40579184952313" /><line stroke="rgb(139,69,19)" x1="102.51399389982409" x2="67.01024977553674" y1="-79.44351952875921" y2="-258.6448224421275" /><line stroke="rgb(139,69,19)" x1="102.51399389982409" x2="82.52527925373566" y1="-79.44351952875921" y2="-251.69616355780903" /><line stroke="rgb(139,69,19)" x1="104.67076170891431" x2="20.28542553855813" y1="-62.580887687386635" y2="-144.54316000815055" /><line stroke="rgb(139,69,19)" x1="104.67076170891431" x2="176.52695638152034" y1="-62.580887687386635" y2="-227.3179372195495" /><line stroke="rgb(139,69,19)" x1="104.67076170891431" x2="182.87495999434705" y1="-62.580887687386635" y2="-243.08825269298055" /><line stroke="rgb(139,69,19)" x1="-53.073537919417575" x2="-137.45887408977376" y1="-90.19909884101872" y2="-172.16137116178263" /><line stroke="rgb(139,69,19)" x1="-53.073537919417575" x2="-26.813402807603147" y1="-90.19909884101872" y2="-123.86095375678474" /><line stroke="rgb(139,69,19)" x1="-53.073537919417575" x2="-31.112867743215144" y1="-90.19909884101872" y2="-140.30828184579187" /><line stroke="rgb(139,69,19)" x1="107.1459226688075" x2="22.760586498451318" y1="-129.17181689310686" y2="-211.13408921387077" /><line stroke="rgb(139,69,19)" x1="107.1459226688075" x2="225.30335117142604" y1="-129.17181689310686" y2="-283.6499244588104" /><line stroke="rgb(139,69,19)" x1="107.1459226688075" x2="217.0506310570185" y1="-129.17181689310686" y2="-298.51238087466754" /><line stroke="rgb(139,69,19)" x1="99.04411608357869" x2="14.658779913222503" y1="-114.2265591149505" y2="-196.1888314357144" /><line stroke="rgb(139,69,19)" x1="99.04411608357869" x2="42.053422364557115" y1="-114.2265591149505" y2="-251.2827883221313" /><line stroke="rgb(139,69,19)" x1="99.04411608357869" x2="27.976230695469795" y1="-114.2265591149505" y2="-241.7521705713358" /><circle cx="0" cy="-300" fill="rgb(255,255,0)" r="10" stroke="rgb(255,255,0)" /></svg>