<?xml version="1.0" encoding="utf-8" ?>
<svg baseProfile="full" height="100%" version="1.1" viewBox="-400 -400 800 400" width="100%" xmlns="http://www.w3.org/2000/svg" xmlns:ev="http://www.w3.org/2001/xml-events" xmlns:xlink="http://www.w3.org/1999/xlink"><defs /><circle cx="-29.5092507427892" cy="-64.47158056133105" fill="rgb(0,255,0)" r="2" stroke="rgb(0,255,0)" /><circle cx="-17.750174612475472" cy="-78.6609483273071" fill="rgb(0,255,0)" r="2" stroke="rgb(0,255,0)" /><circle cx="-34.684004891012734" cy="-92.91210337018892" fill="rgb(0,255,0)" r="2" stroke="rgb(0,255,0)" /><circle cx="-62.441336344340854" cy="-118.30782228642583" fill="rgb(0,255,0)" r="2" stroke="rgb(0,255,0)" /><circle cx="-50.0284770254982" cy="-113.30663619258422" fill="rgb(0,255,0)" r="2" stroke="rgb(0,255,0)" /><circle cx="-42.51017055972635" cy="-103.5825992365289" fill="rgb(0,255,0)" r="2" stroke="rgb(0,255,0)" /><circle cx="12.71519832657561" cy="-67.88073687798666" fill="rgb(0,255,0)" r="2" stroke="rgb(0,255,0)" /><circle cx="19.602623903669606" cy="-81.82481700766623" fill="rgb(0,255,0)" r="2" stroke="rgb(0,255,0)" /><circle cx="31.206096555506626" cy="-98.03703128560765" fill="rgb(0,255,0)" r="2" stroke="rgb(0,255,0)" /><circle cx="-48.56947020880544" cy="-28.351961811698118" fill="rgb(0,255,0)" r="2" stroke="rgb(0,255,0)" /><circle cx="-42.44940335044071" cy="-68.04532971801675" fill="rgb(0,255,0)" r="2" stroke="rgb(0,255,0)" /><circle cx="-2.827726915169534" cy="-23.626300607492727" fill="rgb(0,255,0)" r="2" stroke="rgb(0,255,0)" /><circle cx="-88.4102148809773" cy="-81.23461650925125" fill="rgb(0,255,0)" r="2" stroke="rgb(0,255,0)" /><circle cx="-78.46443940793947" cy="-86.93834451084324" fill="rgb(0,255,0)" r="2" stroke="rgb(0,255,0)" /><circle cx="-74.05998800571454" cy="-98.74761804884785" fill="rgb(0,255,0)" r="2" stroke="rgb(0,255,0)" /><circle cx="-156.2055202029736" cy="-146.50999613802003" fill="rgb(0,255,0)" r="2" stroke="rgb(0,255,0)" /><circle cx="-136.28934472780975" cy="-119.40491316105464" fill="rgb(0,255,0)" r="2" stroke="rgb(0,255,0)" /><circle cx="-118.29601194637725" cy="-131.71200100239076" fill="rgb(0,255,0)" r="2" stroke="rgb(0,255,0)" /><circle cx="-211.03196104578728" cy="-203.00794654859038" fill="rgb(0,255,0)" r="2" stroke="rgb(0,255,0)" /><circle cx="-183.25598224099414" cy="-149.34818489028316" fill="rgb(0,255,0)" r="2" stroke="rgb(0,255,0)" /><circle cx="-163.55927396569646" cy="-185.5840537170182" fill="rgb(0,255,0)" r="2" stroke="rgb(0,255,0)" /><circle cx="-185.7728855591379" cy="-211.40363847504454" fill="rgb(0,255,0)" r="2" stroke="rgb(0,255,0)" /><circle cx="-156.62791346807853" cy="-158.46774205078177" fill="rgb(0,255,0)" r="2" stroke="rgb(0,255,0)" /><circle cx="-172.81194930976594" cy="-192.27735664046406" fill="rgb(0,255,0)" r="2" stroke="rgb(0,255,0)" /><circle cx="-204.07395521498364" cy="-203.41975677390388" fill="rgb(0,255,0)" r="2" stroke="rgb(0,255,0)" /><circle cx="-175.5127713456781" cy="-153.41775226960226" fill="rgb(0,255,0)" r="2" stroke="rgb(0,255,0)" /><circle cx="-184.9104844634121" cy="-186.84265309283072" fill="rgb(0,255,0)" r="2" stroke="rgb(0,255,0)" /><line stroke="rgb(139,69,19)" x1="0" x2="-8.984168672999486" y1="0" y2="-4.652976031627528" /><line stroke="rgb(139,69,19)" x1="0" x2="-43.68488050396629" y1="0" y2="8.590594672603073" /><line stroke="rgb(139,69,19)" x1="0" x2="-130.51795745633876" y1="0" y2="-55.44853317127982" /><line stroke="rgb(139,69,19)" x1="-8.984168672999486" x2="-23.486607522240877" y1="-4.652976031627528" y2="-21.520694262216683" /><line stroke="rgb(139,69,19)" x1="-8.984168672999486" x2="-51.401516854349794" y1="-4.652976031627528" y2="-48.67259869612847" /><line stroke="rgb(139,69,19)" x1="-8.984168672999486" x2="19.055552026582838" y1="-4.652976031627528" y2="-23.240076662324903" /><line stroke="rgb(139,69,19)" x1="-43.68488050396629" x2="-45.912932946717916" y1="8.590594672603073" y2="-3.3040356498414627" /><line stroke="rgb(139,69,19)" x1="-43.68488050396629" x2="-80.82536925798085" y1="8.590594672603073" y2="-29.97500562377664" /><line stroke="rgb(139,69,19)" x1="-43.68488050396629" x2="-142.53744746088074" y1="8.590594672603073" y2="-62.89615340035877" /><line stroke="rgb(139,69,19)" x1="-130.51795745633876" x2="-192.0986586556164" y1="-55.44853317127982" y2="-91.39047063173108" /><line stroke="rgb(139,69,19)" x1="-130.51795745633876" x2="-166.05716105053514" y1="-55.44853317127982" y2="-95.62477483906562" /><line stroke="rgb(139,69,19)" x1="-130.51795745633876" x2="-185.10227487672887" y1="-55.44853317127982" y2="-91.59816402793278" /><line stroke="rgb(139,69,19)" x1="-23.486607522240877" x2="-29.5092507427892" y1="-21.520694262216683" y2="-64.47158056133105" /><line stroke="rgb(139,69,19)" x1="-23.486607522240877" x2="-17.750174612475472" y1="-21.520694262216683" y2="-78.6609483273071" /><line stroke="rgb(139,69,19)" x1="-23.486607522240877" x2="-34.684004891012734" y1="-21.520694262216683" y2="-92.91210337018892" /><line stroke="rgb(139,69,19)" x1="-51.401516854349794" x2="-62.441336344340854" y1="-48.67259869612847" y2="-118.30782228642583" /><line stroke="rgb(139,69,19)" x1="-51.401516854349794" x2="-50.0284770254982" y1="-48.67259869612847" y2="-113.30663619258422" /><line stroke="rgb(139,69,19)" x1="-51.401516854349794" x2="-42.51017055972635" y1="-48.67259869612847" y2="-103.5825992365289" /><line stroke="rgb(139,69,19)" x1="19.055552026582838" x2="12.71519832657561" y1="-23.240076662324903" y2="-67.88073687798666" /><line stroke="rgb(139,69,19)" x1="19.055552026582838" x2="19.602623903669606" y1="-23.240076662324903" y2="-81.82481700766623" /><line stroke="rgb(139,69,19)" x1="19.055552026582838" x2="31.206096555506626" y1="-23.240076662324903" y2="-98.03703128560765" /><line stroke="rgb(139,69,19)" x1="-45.912932946717916" x2="-48.56947020880544" y1="-3.3040356498414627" y2="-28.351961811698118" /><line stroke="rgb(139,69,19)" x1="-45.912932946717916" x2="-42.44940335044071" y1="-3.3040356498414627" y2="-68.04532971801675" /><line stroke="rgb(139,69,19)" x1="-45.912932946717916" x2="-2.827726915169534" y1="-3.3040356498414627" y2="-23.626300607492727" /><line stroke="rgb(139,69,19)" x1="-80.82536925798085" x2="-88.4102148809773" y1="-29.97500562377664" y2="-81.23461650925125" /><line stroke="rgb(139,69,19)" x1="-80.82536925798085" x2="-78.46443940793947" y1="-29.97500562377664" y2="-86.93834451084324" /><line stroke="rgb(139,69,19)" x1="-80.82536925798085" x2="-74.05998800571454" y1="-29.97500562377664" y2="-98.74761804884785" /><line stroke="rgb(139,69,19)" x1="-142.53744746088074" x2="-156.2055202029736" y1="-62.89615340035877" y2="-146.50999613802003" /><line stroke="rgb(139,69,19)" x1="-142.53744746088074" x2="-136.28934472780975" y1="-62.89615340035877" y2="-119.40491316105464" /><line stroke="rgb(139,69,19)" x1="-142.53744746088074" x2="-118.29601194637725" y1="-62.89615340035877" y2="-131.71200100239076" /><line stroke="rgb(139,69,19)" x1="-192.0986586556164" x2="-211.03196104578728" y1="-91.39047063173108" y2="-203.00794654859038" /><line stroke="rgb(139,69,19)" x1="-192.0986586556164" x2="-183.25598224099414" y1="-91.39047063173108" y2="-149.34818489028316" /><line stroke="rgb(139,69,19)" x1="-192.0986586556164" x2="-163.55927396569646" y1="-91.39047063173108" y2="-185.5840537170182" /><line stroke="rgb(139,69,19)" x1="-166.05716105053514" x2="-185.7728855591379" y1="-95.62477483906562" y2="-211.40363847504454" /><line stroke="rgb(139,69,19)" x1="-166.05716105053514" x2="-156.62791346807853" y1="-95.62477483906562" y2="-158.46774205078177" /><line stroke="rgb(139,69,19)" x1="-166.05716105053514" x2="-172.81194930976594" y1="-95.62477483906562" y2="-192.27735664046406" /><line stroke="rgb(139,69,19)" x1="-185.10227487672887" x2="-204.07395521498364" y1="-91.59816402793278" y2="-203.41975677390388" /><line stroke="rgb(139,69,19)" x1="-185.10227487672887" x2="-175.5127713456781" y1="-91.59816402793278" y2="-153.41775226960226" /><line stroke="rgb(139,69,19)" x1="-185.10227487672887" x2="-184.9104844634121" y1="-91.59816402793278" y2="-186.84265309283072" /><circle cx="0" cy="-300" fill="rgb(255,255,0)" r="10" stroke="rgb(255,255,0)" /></svg>