<?xml version="1.0" encoding="utf-8" ?>
<svg baseProfile="full" height="100%" version="1.1" viewBox="-400 -400 800 400" width="100%" xmlns="http://www.w3.org/2000/svg" xmlns:ev="http://www.w3.org/2001/xml-events" xmlns:xlink="http://www.w3.org/1999/xlink"><defs /><circle cx="0.0" cy="-78.0" fill="rgb(0,255,0)" r="2" stroke="rgb(0,255,0)" /><circle cx="-3.5804525625798362" cy="-166.0768268814613" fill="rgb(0,255,0)" r="2" stroke="rgb(0,255,0)" /><circle cx="-15.754723341240833" cy="-83.97453013522015" fill="rgb(0,255,0)" r="2" stroke="rgb(0,255,0)" /><circle cx="-32.71642876387067" cy="-92.53610412344975" fill="rgb(0,255,0)" r="2" stroke="rgb(0,255,0)" /><circle cx="-94.23675274551525" cy="-118.63844854475784" fill="rgb(0,255,0)" r="2" stroke="rgb(0,255,0)" /><circle cx="-97.43795785333049" cy="-206.73568236856062" fill="rgb(0,255,0)" r="2" stroke="rgb(0,255,0)" /><circle cx="-109.61222863199148" cy="-124.63338562231947" fill="rgb(0,255,0)" r="2" stroke="rgb(0,255,0)" /><circle cx="-109.97882602817674" cy="-143.62984861807502" fill="rgb(0,255,0)" r="2" stroke="rgb(0,255,0)" /><circle cx="-11.472687543514613" cy="-112.38468877650742" fill="rgb(0,255,0)" r="2" stroke="rgb(0,255,0)" /><circle cx="-14.935780684123916" cy="-201.2049644290662" fill="rgb(0,255,0)" r="2" stroke="rgb(0,255,0)" /><circle cx="-27.110051462784913" cy="-119.10266768282504" fill="rgb(0,255,0)" r="2" stroke="rgb(0,255,0)" /><circle cx="-37.845800610355326" cy="-134.7788818380489" fill="rgb(0,255,0)" r="2" stroke="rgb(0,255,0)" /><circle cx="-5.290395673553713" cy="-94.41863002021321" fill="rgb(0,255,0)" r="2" stroke="rgb(0,255,0)" /><circle cx="-8.809686108843717" cy="-182.88725453916217" fill="rgb(0,255,0)" r="2" stroke="rgb(0,255,0)" /><circle cx="-20.983956887504714" cy="-100.78495779292102" fill="rgb(0,255,0)" r="2" stroke="rgb(0,255,0)" /><circle cx="-34.77183928952725" cy="-113.85761241499367" fill="rgb(0,255,0)" r="2" stroke="rgb(0,255,0)" /><circle cx="40.60495556939586" cy="-182.6304524708711" fill="rgb(0,255,0)" r="2" stroke="rgb(0,255,0)" /><circle cx="23.095195060434513" cy="-176.88678467158402" fill="rgb(0,255,0)" r="2" stroke="rgb(0,255,0)" /><circle cx="10.920924281773516" cy="-94.78448792534287" fill="rgb(0,255,0)" r="2" stroke="rgb(0,255,0)" /><circle cx="27.497120241858255" cy="-85.49849161407555" fill="rgb(0,255,0)" r="2" stroke="rgb(0,255,0)" /><circle cx="41.06349686266347" cy="-216.24162835830225" fill="rgb(0,255,0)" r="2" stroke="rgb(0,255,0)" /><circle cx="17.740939305456138" cy="-171.29806019064392" fill="rgb(0,255,0)" r="2" stroke="rgb(0,255,0)" /><circle cx="5.566668526795141" cy="-89.19576344440276" fill="rgb(0,255,0)" r="2" stroke="rgb(0,255,0)" /><circle cx="-7.888944955295619" cy="-75.78135082883969" fill="rgb(0,255,0)" r="2" stroke="rgb(0,255,0)" /><circle cx="123.82756206466411" cy="-209.98786859005182" fill="rgb(0,255,0)" r="2" stroke="rgb(0,255,0)" /><circle cx="121.08014220368513" cy="-303.9108772924111" fill="rgb(0,255,0)" r="2" stroke="rgb(0,255,0)" /><circle cx="108.90587142502413" cy="-221.80858054616996" fill="rgb(0,255,0)" r="2" stroke="rgb(0,255,0)" /><circle cx="115.4077750945927" cy="-239.66145842822726" fill="rgb(0,255,0)" r="2" stroke="rgb(0,255,0)" /><circle cx="105.46325235074836" cy="-214.8614841607939" fill="rgb(0,255,0)" r="2" stroke="rgb(0,255,0)" /><circle cx="102.79826086533606" cy="-309.323337145585" fill="rgb(0,255,0)" r="2" stroke="rgb(0,255,0)" /><circle cx="90.62399008667506" cy="-227.22104039934385" fill="rgb(0,255,0)" r="2" stroke="rgb(0,255,0)" /><circle cx="97.81014471048664" cy="-244.80964983052604" fill="rgb(0,255,0)" r="2" stroke="rgb(0,255,0)" /><circle cx="-17.84176526746625" cy="-123.69845077893882" fill="rgb(0,255,0)" r="2" stroke="rgb(0,255,0)" /><circle cx="-21.25906472885412" cy="-212.7951070643968" fill="rgb(0,255,0)" r="2" stroke="rgb(0,255,0)" /><circle cx="-33.43333550751512" cy="-130.69281031815564" fill="rgb(0,255,0)" r="2" stroke="rgb(0,255,0)" /><circle cx="-41.848818275525744" cy="-147.72747056664068" fill="rgb(0,255,0)" r="2" stroke="rgb(0,255,0)" /><circle cx="-113.18767799064761" cy="-164.3477036957567" fill="rgb(0,255,0)" r="2" stroke="rgb(0,255,0)" /><circle cx="-116.36816877258349" cy="-272.0607168948415" fill="rgb(0,255,0)" r="2" stroke="rgb(0,255,0)" /><circle cx="-128.54243955124448" cy="-189.95842014860034" fill="rgb(0,255,0)" r="2" stroke="rgb(0,255,0)" /><circle cx="-128.63191184687173" cy="-208.9582094818618" fill="rgb(0,255,0)" r="2" stroke="rgb(0,255,0)" /><circle cx="-30.42361278864698" cy="-158.0939439275063" fill="rgb(0,255,0)" r="2" stroke="rgb(0,255,0)" /><circle cx="-33.77405311237997" cy="-247.56251546105517" fill="rgb(0,255,0)" r="2" stroke="rgb(0,255,0)" /><circle cx="-45.948323891040964" cy="-165.460218714814" fill="rgb(0,255,0)" r="2" stroke="rgb(0,255,0)" /><circle cx="-51.48339710296182" cy="-183.63610836398047" fill="rgb(0,255,0)" r="2" stroke="rgb(0,255,0)" /><circle cx="-46.34776989012177" cy="-147.72952302677334" fill="rgb(0,255,0)" r="2" stroke="rgb(0,255,0)" /><circle cx="-49.64083005795318" cy="-237.4380467619369" fill="rgb(0,255,0)" r="2" stroke="rgb(0,255,0)" /><circle cx="-61.81510083661418" cy="-155.33575001569574" fill="rgb(0,255,0)" r="2" stroke="rgb(0,255,0)" /><circle cx="-65.15229454413729" cy="-174.04037880534213" fill="rgb(0,255,0)" r="2" stroke="rgb(0,255,0)" /><circle cx="-25.31054749487194" cy="-141.168919920882" fill="rgb(0,255,0)" r="2" stroke="rgb(0,255,0)" /><circle cx="-28.685152663581924" cy="-230.5093698200244" fill="rgb(0,255,0)" r="2" stroke="rgb(0,255,0)" /><circle cx="-40.85942344224292" cy="-148.40707307378324" fill="rgb(0,255,0)" r="2" stroke="rgb(0,255,0)" /><circle cx="-47.365832983692755" cy="-166.25830930209332" fill="rgb(0,255,0)" r="2" stroke="rgb(0,255,0)" /><circle cx="-120.94670784661264" cy="-181.796553779297" fill="rgb(0,255,0)" r="2" stroke="rgb(0,255,0)" /><circle cx="-124.12010605580048" cy="-277.5058163721956" fill="rgb(0,255,0)" r="2" stroke="rgb(0,255,0)" /><circle cx="-136.29437683446147" cy="-195.40351962595446" fill="rgb(0,255,0)" r="2" stroke="rgb(0,255,0)" /><circle cx="-136.21667132535092" cy="-214.4033607267072" fill="rgb(0,255,0)" r="2" stroke="rgb(0,255,0)" /><circle cx="-38.182642644611995" cy="-175.54279401104657" fill="rgb(0,255,0)" r="2" stroke="rgb(0,255,0)" /><circle cx="-41.50228477507443" cy="-265.1564059817997" fill="rgb(0,255,0)" r="2" stroke="rgb(0,255,0)" /><circle cx="-53.676555553735426" cy="-183.05410923555854" fill="rgb(0,255,0)" r="2" stroke="rgb(0,255,0)" /><circle cx="-58.04459870826709" cy="-201.54519354665695" fill="rgb(0,255,0)" r="2" stroke="rgb(0,255,0)" /><circle cx="-55.29942808246079" cy="-167.29563351335725" fill="rgb(0,255,0)" r="2" stroke="rgb(0,255,0)" /><circle cx="-58.56846160583977" cy="-257.0477892500996" fill="rgb(0,255,0)" r="2" stroke="rgb(0,255,0)" /><circle cx="-70.74273238450077" cy="-174.94549250385845" fill="rgb(0,255,0)" r="2" stroke="rgb(0,255,0)" /><circle cx="-73.3305405233556" cy="-193.76843725319236" fill="rgb(0,255,0)" r="2" stroke="rgb(0,255,0)" /><line stroke="rgb(139,69,19)" x1="0" x2="0.0" y1="0" y2="-1.0" /><line stroke="rgb(139,69,19)" x1="0" x2="40.60495556939586" y1="0" y2="-105.63045247087109" /><line stroke="rgb(139,69,19)" x1="0" x2="-17.84176526746625" y1="0" y2="-46.69845077893882" /><line stroke="rgb(139,69,19)" x1="0" x2="-25.31054749487194" y1="0" y2="-64.168919920882" /><line stroke="rgb(139,69,19)" x1="0.0" x2="0.0" y1="-1.0" y2="-27.0" /><line stroke="rgb(139,69,19)" x1="0.0" x2="-94.23675274551525" y1="-1.0" y2="-67.63844854475784" /><line stroke="rgb(139,69,19)" x1="0.0" x2="-11.472687543514613" y1="-1.0" y2="-61.38468877650742" /><line stroke="rgb(139,69,19)" x1="0.0" x2="-5.290395673553713" y1="-1.0" y2="-43.41863002021322" /><line stroke="rgb(139,69,19)" x1="40.60495556939586" x2="40.60495556939586" y1="-105.63045247087109" y2="-131.6304524708711" /><line stroke="rgb(139,69,19)" x1="40.60495556939586" x2="41.06349686266347" y1="-105.63045247087109" y2="-165.24162835830225" /><line stroke="rgb(139,69,19)" x1="40.60495556939586" x2="123.82756206466411" y1="-105.63045247087109" y2="-158.98786859005182" /><line stroke="rgb(139,69,19)" x1="40.60495556939586" x2="105.46325235074836" y1="-105.63045247087109" y2="-163.8614841607939" /><line stroke="rgb(139,69,19)" x1="-17.84176526746625" x2="-17.84176526746625" y1="-46.69845077893882" y2="-72.69845077893882" /><line stroke="rgb(139,69,19)" x1="-17.84176526746625" x2="-113.18767799064761" y1="-46.69845077893882" y2="-113.3477036957567" /><line stroke="rgb(139,69,19)" x1="-17.84176526746625" x2="-30.42361278864698" y1="-46.69845077893882" y2="-107.09394392750629" /><line stroke="rgb(139,69,19)" x1="-17.84176526746625" x2="-46.34776989012177" y1="-46.69845077893882" y2="-96.72952302677334" /><line stroke="rgb(139,69,19)" x1="-25.31054749487194" x2="-25.31054749487194" y1="-64.168919920882" y2="-90.168919920882" /><line stroke="rgb(139,69,19)" x1="-25.31054749487194" x2="-120.94670784661264" y1="-64.168919920882" y2="-130.796553779297" /><line stroke="rgb(139,69,19)" x1="-25.31054749487194" x2="-38.182642644611995" y1="-64.168919920882" y2="-124.54279401104658" /><line stroke="rgb(139,69,19)" x1="-25.31054749487194" x2="-55.29942808246079" y1="-64.168919920882" y2="-116.29563351335725" /><line stroke="rgb(139,69,19)" x1="0.0" x2="0.0" y1="-27.0" y2="-78.0" /><line stroke="rgb(139,69,19)" x1="0.0" x2="-3.5804525625798362" y1="-27.0" y2="-166.0768268814613" /><line stroke="rgb(139,69,19)" x1="0.0" x2="-15.754723341240833" y1="-27.0" y2="-83.97453013522015" /><line stroke="rgb(139,69,19)" x1="0.0" x2="-32.71642876387067" y1="-27.0" y2="-92.53610412344975" /><line stroke="rgb(139,69,19)" x1="-94.23675274551525" x2="-94.23675274551525" y1="-67.63844854475784" y2="-118.63844854475784" /><line stroke="rgb(139,69,19)" x1="-94.23675274551525" x2="-97.43795785333049" y1="-67.63844854475784" y2="-206.73568236856062" /><line stroke="rgb(139,69,19)" x1="-94.23675274551525" x2="-109.61222863199148" y1="-67.63844854475784" y2="-124.63338562231947" /><line stroke="rgb(139,69,19)" x1="-94.23675274551525" x2="-109.97882602817674" y1="-67.63844854475784" y2="-143.62984861807502" /><line stroke="rgb(139,69,19)" x1="-11.472687543514613" x2="-11.472687543514613" y1="-61.38468877650742" y2="-112.38468877650742" /><line stroke="rgb(139,69,19)" x1="-11.472687543514613" x2="-14.935780684123916" y1="-61.38468877650742" y2="-201.2049644290662" /><line stroke="rgb(139,69,19)" x1="-11.472687543514613" x2="-27.110051462784913" y1="-61.38468877650742" y2="-119.10266768282504" /><line stroke="rgb(139,69,19)" x1="-11.472687543514613" x2="-37.845800610355326" y1="-61.38468877650742" y2="-134.7788818380489" /><line stroke="rgb(139,69,19)" x1="-5.290395673553713" x2="-5.290395673553713" y1="-43.41863002021322" y2="-94.41863002021321" /><line stroke="rgb(139,69,19)" x1="-5.290395673553713" x2="-8.809686108843717" y1="-43.41863002021322" y2="-182.88725453916217" /><line stroke="rgb(139,69,19)" x1="-5.290395673553713" x2="-20.983956887504714" y1="-43.41863002021322" y2="-100.78495779292102" /><line stroke="rgb(139,69,19)" x1="-5.290395673553713" x2="-34.77183928952725" y1="-43.41863002021322" y2="-113.85761241499367" /><line stroke="rgb(139,69,19)" x1="40.60495556939586" x2="40.60495556939586" y1="-131.6304524708711" y2="-182.6304524708711" /><line stroke="rgb(139,69,19)" x1="40.60495556939586" x2="23.095195060434513" y1="-131.6304524708711" y2="-176.88678467158402" /><line stroke="rgb(139,69,19)" x1="40.60495556939586" x2="10.920924281773516" y1="-131.6304524708711" y2="-94.78448792534287" /><line stroke="rgb(139,69,19)" x1="40.60495556939586" x2="27.497120241858255" y1="-131.6304524708711" y2="-85.49849161407555" /><line stroke="rgb(139,69,19)" x1="41.06349686266347" x2="41.06349686266347" y1="-165.24162835830225" y2="-216.24162835830225" /><line stroke="rgb(139,69,19)" x1="41.06349686266347" x2="17.740939305456138" y1="-165.24162835830225" y2="-171.29806019064392" /><line stroke="rgb(139,69,19)" x1="41.06349686266347" x2="5.566668526795141" y1="-165.24162835830225" y2="-89.19576344440276" /><line stroke="rgb(139,69,19)" x1="41.06349686266347" x2="-7.888944955295619" y1="-165.24162835830225" y2="-75.78135082883969" /><line stroke="rgb(139,69,19)" x1="123.82756206466411" x2="123.82756206466411" y1="-158.98786859005182" y2="-209.98786859005182" /><line stroke="rgb(139,69,19)" x1="123.82756206466411" x2="121.08014220368513" y1="-158.98786859005182" y2="-303.9108772924111" /><line stroke="rgb(139,69,19)" x1="123.82756206466411" x2="108.90587142502413" y1="-158.98786859005182" y2="-221.80858054616996" /><line stroke="rgb(139,69,19)" x1="123.82756206466411" x2="115.4077750945927" y1="-158.98786859005182" y2="-239.66145842822726" /><line stroke="rgb(139,69,19)" x1="105.46325235074836" x2="105.46325235074836" y1="-163.8614841607939" y2="-214.8614841607939" /><line stroke="rgb(139,69,19)" x1="105.46325235074836" x2="102.79826086533606" y1="-163.8614841607939" y2="-309.323337145585" /><line stroke="rgb(139,69,19)" x1="105.46325235074836" x2="90.62399008667506" y1="-163.8614841607939" y2="-227.22104039934385" /><line stroke="rgb(139,69,19)" x1="105.46325235074836" x2="97.81014471048664" y1="-163.8614841607939" y2="-244.80964983052604" /><line stroke="rgb(139,69,19)" x1="-17.84176526746625" x2="-17.84176526746625" y1="-72.69845077893882" y2="-123.69845077893882" /><line stroke="rgb(139,69,19)" x1="-17.84176526746625" x2="-21.25906472885412" y1="-72.69845077893882" y2="-212.7951070643968" /><line stroke="rgb(139,69,19)" x1="-17.84176526746625" x2="-33.43333550751512" y1="-72.69845077893882" y2="-130.69281031815564" /><line stroke="rgb(139,69,19)" x1="-17.84176526746625" x2="-41.848818275525744" y1="-72.69845077893882" y2="-147.72747056664068" /><line stroke="rgb(139,69,19)" x1="-113.18767799064761" x2="-113.18767799064761" y1="-113.3477036957567" y2="-164.3477036957567" /><line stroke="rgb(139,69,19)" x1="-113.18767799064761" x2="-116.36816877258349" y1="-113.3477036957567" y2="-272.0607168948415" /><line stroke="rgb(139,69,19)" x1="-113.18767799064761" x2="-128.54243955124448" y1="-113.3477036957567" y2="-189.95842014860034" /><line stroke="rgb(139,69,19)" x1="-113.18767799064761" x2="-128.63191184687173" y1="-113.3477036957567" y2="-208.9582094818618" /><line stroke="rgb(139,69,19)" x1="-30.42361278864698" x2="-30.42361278864698" y1="-107.09394392750629" y2="-158.0939439275063" /><line stroke="rgb(139,69,19)" x1="-30.42361278864698" x2="-33.77405311237997" y1="-107.09394392750629" y2="-247.56251546105517" /><line stroke="rgb(139,69,19)" x1="-30.42361278864698" x2="-45.948323891040964" y1="-107.09394392750629" y2="-165.460218714814" /><line stroke="rgb(139,69,19)" x1="-30.42361278864698" x2="-51.48339710296182" y1="-107.09394392750629" y2="-183.63610836398047" /><line stroke="rgb(139,69,19)" x1="-46.34776989012177" x2="-46.34776989012177" y1="-96.72952302677334" y2="-147.72952302677334" /><line stroke="rgb(139,69,19)" x1="-46.34776989012177" x2="-49.64083005795318" y1="-96.72952302677334" y2="-237.4380467619369" /><line stroke="rgb(139,69,19)" x1="-46.34776989012177" x2="-61.81510083661418" y1="-96.72952302677334" y2="-155.33575001569574" /><line stroke="rgb(139,69,19)" x1="-46.34776989012177" x2="-65.15229454413729" y1="-96.72952302677334" y2="-174.04037880534213" /><line stroke="rgb(139,69,19)" x1="-25.31054749487194" x2="-25.31054749487194" y1="-90.168919920882" y2="-141.168919920882" /><line stroke="rgb(139,69,19)" x1="-25.31054749487194" x2="-28.685152663581924" y1="-90.168919920882" y2="-230.5093698200244" /><line stroke="rgb(139,69,19)" x1="-25.31054749487194" x2="-40.85942344224292" y1="-90.168919920882" y2="-148.40707307378324" /><line stroke="rgb(139,69,19)" x1="-25.31054749487194" x2="-47.365832983692755" y1="-90.168919920882" y2="-166.25830930209332" /><line stroke="rgb(139,69,19)" x1="-120.94670784661264" x2="-120.94670784661264" y1="-130.796553779297" y2="-181.796553779297" /><line stroke="rgb(139,69,19)" x1="-120.94670784661264" x2="-124.12010605580048" y1="-130.796553779297" y2="-277.5058163721956" /><line stroke="rgb(139,69,19)" x1="-120.94670784661264" x2="-136.29437683446147" y1="-130.796553779297" y2="-195.40351962595446" /><line stroke="rgb(139,69,19)" x1="-120.94670784661264" x2="-136.21667132535092" y1="-130.796553779297" y2="-214.4033607267072" /><line stroke="rgb(139,69,19)" x1="-38.182642644611995" x2="-38.182642644611995" y1="-124.54279401104658" y2="-175.54279401104657" /><line stroke="rgb(139,69,19)" x1="-38.182642644611995" x2="-41.50228477507443" y1="-124.54279401104658" y2="-265.1564059817997" /><line stroke="rgb(139,69,19)" x1="-38.182642644611995" x2="-53.676555553735426" y1="-124.54279401104658" y2="-183.05410923555854" /><line stroke="rgb(139,69,19)" x1="-38.182642644611995" x2="-58.04459870826709" y1="-124.54279401104658" y2="-201.54519354665695" /><line stroke="rgb(139,69,19)" x1="-55.29942808246079" x2="-55.29942808246079" y1="-116.29563351335725" y2="-167.29563351335725" /><line stroke="rgb(139,69,19)" x1="-55.29942808246079" x2="-58.56846160583977" y1="-116.29563351335725" y2="-257.0477892500996" /><line stroke="rgb(139,69,19)" x1="-55.29942808246079" x2="-70.74273238450077" y1="-116.29563351335725" y2="-174.94549250385845" /><line stroke="rgb(139,69,19)" x1="-55.29942808246079" x2="-73.3305405233556" y1="-116.29563351335725" y2="-193.76843725319236" /><circle cx="0" cy="-300" fill="rgb(255,255,0)" r="10" stroke="rgb(255,255,0)" /></svg>