<?xml version="1.0" encoding="utf-8" ?>
<svg baseProfile="full" height="100%" version="1.1" viewBox="-400 -400 800 400" width="100%" xmlns="http://www.w3.org/2000/svg" xmlns:ev="http://www.w3.org/2001/xml-events" xmlns:xlink="http://www.w3.org/1999/xlink"><defs /><circle cx="19.21446895337219" cy="-143.5645079789491" fill="rgb(0,255,0)" r="2" stroke="rgb(0,255,0)" /><circle cx="9.135202031051898" cy="-115.2878087765095" fill="rgb(0,255,0)" r="2" stroke="rgb(0,255,0)" /><circle cx="74.8571442404319" cy="-132.74135604424038" fill="rgb(0,255,0)" r="2" stroke="rgb(0,255,0)" /><circle cx="59.14807916041483" cy="-156.00829685098233" fill="rgb(0,255,0)" r="2" stroke="rgb(0,255,0)" /><circle cx="61.591035802932005" cy="-148.27361897439025" fill="rgb(0,255,0)" r="2" stroke="rgb(0,255,0)" /><circle cx="63.514535535971106" cy="-118.31642121118726" fill="rgb(0,255,0)" r="2" stroke="rgb(0,255,0)" /><circle cx="5.654230444963716" cy="-82.59268827668636" fill="rgb(0,255,0)" r="2" stroke="rgb(0,255,0)" /><circle cx="24.427869207455753" cy="-67.95925033693916" fill="rgb(0,255,0)" r="2" stroke="rgb(0,255,0)" /><circle cx="95.61068870108302" cy="-182.7263433063672" fill="rgb(0,255,0)" r="2" stroke="rgb(0,255,0)" /><circle cx="100.73220598111803" cy="-212.2966299109603" fill="rgb(0,255,0)" r="2" stroke="rgb(0,255,0)" /><circle cx="168.64745333095374" cy="-215.69062127963466" fill="rgb(0,255,0)" r="2" stroke="rgb(0,255,0)" /><circle cx="142.1400109526354" cy="-229.56120520993431" fill="rgb(0,255,0)" r="2" stroke="rgb(0,255,0)" /><circle cx="69.31649017448666" cy="-114.06828752131153" fill="rgb(0,255,0)" r="2" stroke="rgb(0,255,0)" /><circle cx="40.334858165118064" cy="-121.88912768642909" fill="rgb(0,255,0)" r="2" stroke="rgb(0,255,0)" /><circle cx="81.84077962427774" cy="-68.02579615350153" fill="rgb(0,255,0)" r="2" stroke="rgb(0,255,0)" /><circle cx="104.19276123250462" cy="-68.00932827472202" fill="rgb(0,255,0)" r="2" stroke="rgb(0,255,0)" /><circle cx="-31.707414062680748" cy="-167.90894924472354" fill="rgb(0,255,0)" r="2" stroke="rgb(0,255,0)" /><circle cx="-5.156001417016097" cy="-153.91273872768204" fill="rgb(0,255,0)" r="2" stroke="rgb(0,255,0)" /><circle cx="-63.891552028957534" cy="-188.17839346113294" fill="rgb(0,255,0)" r="2" stroke="rgb(0,255,0)" /><circle cx="-45.53336806428514" cy="-203.55023159477577" fill="rgb(0,255,0)" r="2" stroke="rgb(0,255,0)" /><circle cx="-40.024687457728014" cy="-195.19198562483993" fill="rgb(0,255,0)" r="2" stroke="rgb(0,255,0)" /><circle cx="-14.162773919462992" cy="-179.96350284075186" fill="rgb(0,255,0)" r="2" stroke="rgb(0,255,0)" /><circle cx="-78.20510530549832" cy="-157.10349867099643" fill="rgb(0,255,0)" r="2" stroke="rgb(0,255,0)" /><circle cx="-90.87033278851845" cy="-176.5985217132268" fill="rgb(0,255,0)" r="2" stroke="rgb(0,255,0)" /><circle cx="-101.39223500583688" cy="-216.55831264202854" fill="rgb(0,255,0)" r="2" stroke="rgb(0,255,0)" /><circle cx="-94.9109540008935" cy="-187.2545720330427" fill="rgb(0,255,0)" r="2" stroke="rgb(0,255,0)" /><circle cx="-153.58922535300775" cy="-152.8909215993701" fill="rgb(0,255,0)" r="2" stroke="rgb(0,255,0)" /><circle cx="-146.3094867522283" cy="-175.73971763411592" fill="rgb(0,255,0)" r="2" stroke="rgb(0,255,0)" /><circle cx="-177.69008223654473" cy="-232.832984619819" fill="rgb(0,255,0)" r="2" stroke="rgb(0,255,0)" /><circle cx="-207.48296521236514" cy="-229.2317071464447" fill="rgb(0,255,0)" r="2" stroke="rgb(0,255,0)" /><circle cx="-139.4830958496915" cy="-229.09841551385003" fill="rgb(0,255,0)" r="2" stroke="rgb(0,255,0)" /><circle cx="-129.71082855195985" cy="-250.47258132966982" fill="rgb(0,255,0)" r="2" stroke="rgb(0,255,0)" /><circle cx="-164.2590537384046" cy="-166.55857480694573" fill="rgb(0,255,0)" r="2" stroke="rgb(0,255,0)" /><circle cx="-193.58735569148405" cy="-172.93245217846737" fill="rgb(0,255,0)" r="2" stroke="rgb(0,255,0)" /><circle cx="-125.84359347443774" cy="-167.03476782948016" fill="rgb(0,255,0)" r="2" stroke="rgb(0,255,0)" /><circle cx="-110.18824836418959" cy="-183.6880266234411" fill="rgb(0,255,0)" r="2" stroke="rgb(0,255,0)" /><circle cx="-183.05469096519576" cy="-213.55458167106113" fill="rgb(0,255,0)" r="2" stroke="rgb(0,255,0)" /><circle cx="-191.32307176451135" cy="-242.4022363964107" fill="rgb(0,255,0)" r="2" stroke="rgb(0,255,0)" /><circle cx="-144.42500160286238" cy="-193.16230326167695" fill="rgb(0,255,0)" r="2" stroke="rgb(0,255,0)" /><circle cx="-146.62304641601153" cy="-170.2754958374178" fill="rgb(0,255,0)" r="2" stroke="rgb(0,255,0)" /><circle cx="-140.21017012695802" cy="-107.45075514426142" fill="rgb(0,255,0)" r="2" stroke="rgb(0,255,0)" /><circle cx="-124.57846808235752" cy="-81.81310264278945" fill="rgb(0,255,0)" r="2" stroke="rgb(0,255,0)" /><circle cx="-82.80382553005154" cy="-28.157914267134046" fill="rgb(0,255,0)" r="2" stroke="rgb(0,255,0)" /><circle cx="-111.8055584304851" cy="-22.289019925479806" fill="rgb(0,255,0)" r="2" stroke="rgb(0,255,0)" /><circle cx="-178.4797781671951" cy="-130.74240358965494" fill="rgb(0,255,0)" r="2" stroke="rgb(0,255,0)" /><circle cx="-176.05687326846376" cy="-160.65836031686052" fill="rgb(0,255,0)" r="2" stroke="rgb(0,255,0)" /><circle cx="-153.46783374332858" cy="-96.51995299853151" fill="rgb(0,255,0)" r="2" stroke="rgb(0,255,0)" /><circle cx="-170.13585366521988" cy="-79.50941215591587" fill="rgb(0,255,0)" r="2" stroke="rgb(0,255,0)" /><circle cx="-93.92628851854892" cy="-208.97194990030283" fill="rgb(0,255,0)" r="2" stroke="rgb(0,255,0)" /><circle cx="-73.71467601889292" cy="-186.78617193284947" fill="rgb(0,255,0)" r="2" stroke="rgb(0,255,0)" /><circle cx="-130.4977398732495" cy="-149.37382558418983" fill="rgb(0,255,0)" r="2" stroke="rgb(0,255,0)" /><circle cx="-152.7003602380134" cy="-151.8537206095331" fill="rgb(0,255,0)" r="2" stroke="rgb(0,255,0)" /><circle cx="-141.0026771910257" cy="-227.10072656760596" fill="rgb(0,255,0)" r="2" stroke="rgb(0,255,0)" /><circle cx="-170.76179073769268" cy="-223.22826307814898" fill="rgb(0,255,0)" r="2" stroke="rgb(0,255,0)" /><circle cx="-105.54100304492259" cy="-242.47011467134575" fill="rgb(0,255,0)" r="2" stroke="rgb(0,255,0)" /><circle cx="-104.98581971019686" cy="-219.8916044408726" fill="rgb(0,255,0)" r="2" stroke="rgb(0,255,0)" /><circle cx="-210.63905808390416" cy="-232.91332425836666" fill="rgb(0,255,0)" r="2" stroke="rgb(0,255,0)" /><circle cx="-240.62710609583576" cy="-231.77506566502402" fill="rgb(0,255,0)" r="2" stroke="rgb(0,255,0)" /><circle cx="-293.3928893917079" cy="-274.6676304423028" fill="rgb(0,255,0)" r="2" stroke="rgb(0,255,0)" /><circle cx="-291.89301074899504" cy="-250.19686031555062" fill="rgb(0,255,0)" r="2" stroke="rgb(0,255,0)" /><circle cx="-187.76368993624203" cy="-280.11155377392276" fill="rgb(0,255,0)" r="2" stroke="rgb(0,255,0)" /><circle cx="-204.39676820714655" cy="-305.08714796715213" fill="rgb(0,255,0)" r="2" stroke="rgb(0,255,0)" /><circle cx="-150.19367623211457" cy="-264.02591539497735" fill="rgb(0,255,0)" r="2" stroke="rgb(0,255,0)" /><circle cx="-170.32436825822703" cy="-285.7864217971255" fill="rgb(0,255,0)" r="2" stroke="rgb(0,255,0)" /><line stroke="rgb(139,69,19)" x1="0" x2="-15.434711105311045" y1="0" y2="-33.83204338498173" /><line stroke="rgb(139,69,19)" x1="0" x2="-40.92847474743813" y1="0" y2="-17.78220353615269" /><line stroke="rgb(139,69,19)" x1="0" x2="-99.83480222063756" y1="0" y2="-51.753435242115174" /><line stroke="rgb(139,69,19)" x1="0" x2="-120.05134474223001" y1="0" y2="-60.4609530082344" /><line stroke="rgb(139,69,19)" x1="-15.434711105311045" x2="13.314786441876755" y1="-33.83204338498173" y2="-113.03285789488346" /><line stroke="rgb(139,69,19)" x1="-15.434711105311045" x2="43.33339201687744" y1="-33.83204338498173" y2="-112.76286129537" /><line stroke="rgb(139,69,19)" x1="-15.434711105311045" x2="106.94655878637352" y1="-33.83204338498173" y2="-88.73444034108584" /><line stroke="rgb(139,69,19)" x1="-15.434711105311045" x2="101.21939343487827" y1="-33.83204338498173" y2="-59.506579028369984" /><line stroke="rgb(139,69,19)" x1="-40.92847474743813" x2="-64.68478900131754" y1="-17.78220353615269" y2="-103.68717096836978" /><line stroke="rgb(139,69,19)" x1="-40.92847474743813" x2="-73.02303056370174" y1="-17.78220353615269" y2="-132.52267015794695" /><line stroke="rgb(139,69,19)" x1="-40.92847474743813" x2="-123.63940553081548" y1="-17.78220353615269" y2="-177.93172856250476" /><line stroke="rgb(139,69,19)" x1="-40.92847474743813" x2="-151.26914404055597" y1="-17.78220353615269" y2="-189.60503622919285" /><line stroke="rgb(139,69,19)" x1="-99.83480222063756" x2="-132.81348086531952" y1="-51.753435242115174" y2="-113.56736827486665" /><line stroke="rgb(139,69,19)" x1="-99.83480222063756" x2="-159.35234666388834" y1="-51.753435242115174" y2="-127.59376995583034" /><line stroke="rgb(139,69,19)" x1="-99.83480222063756" x2="-169.1529239928714" y1="-51.753435242115174" y2="-60.303735894175844" /><line stroke="rgb(139,69,19)" x1="-99.83480222063756" x2="-164.38384464179322" y1="-51.753435242115174" y2="-37.90443016571992" /><line stroke="rgb(139,69,19)" x1="-120.05134474223001" x2="-125.35553811048221" y1="-60.4609530082344" y2="-156.03188380107773" /><line stroke="rgb(139,69,19)" x1="-120.05134474223001" x2="-114.76288686009931" y1="-60.4609530082344" y2="-184.1125581526714" /><line stroke="rgb(139,69,19)" x1="-120.05134474223001" x2="-182.68118534423886" y1="-60.4609530082344" y2="-187.44493433481657" /><line stroke="rgb(139,69,19)" x1="-120.05134474223001" x2="-158.21047190107936" y1="-60.4609530082344" y2="-202.42798119208373" /><line stroke="rgb(139,69,19)" x1="13.314786441876755" x2="19.21446895337219" y1="-113.03285789488346" y2="-143.5645079789491" /><line stroke="rgb(139,69,19)" x1="13.314786441876755" x2="9.135202031051898" y1="-113.03285789488346" y2="-115.2878087765095" /><line stroke="rgb(139,69,19)" x1="13.314786441876755" x2="74.8571442404319" y1="-113.03285789488346" y2="-132.74135604424038" /><line stroke="rgb(139,69,19)" x1="13.314786441876755" x2="59.14807916041483" y1="-113.03285789488346" y2="-156.00829685098233" /><line stroke="rgb(139,69,19)" x1="43.33339201687744" x2="61.591035802932005" y1="-112.76286129537" y2="-148.27361897439025" /><line stroke="rgb(139,69,19)" x1="43.33339201687744" x2="63.514535535971106" y1="-112.76286129537" y2="-118.31642121118726" /><line stroke="rgb(139,69,19)" x1="43.33339201687744" x2="5.654230444963716" y1="-112.76286129537" y2="-82.59268827668636" /><line stroke="rgb(139,69,19)" x1="43.33339201687744" x2="24.427869207455753" y1="-112.76286129537" y2="-67.95925033693916" /><line stroke="rgb(139,69,19)" x1="106.94655878637352" x2="95.61068870108302" y1="-88.73444034108584" y2="-182.7263433063672" /><line stroke="rgb(139,69,19)" x1="106.94655878637352" x2="100.73220598111803" y1="-88.73444034108584" y2="-212.2966299109603" /><line stroke="rgb(139,69,19)" x1="106.94655878637352" x2="168.64745333095374" y1="-88.73444034108584" y2="-215.69062127963466" /><line stroke="rgb(139,69,19)" x1="106.94655878637352" x2="142.1400109526354" y1="-88.73444034108584" y2="-229.56120520993431" /><line stroke="rgb(139,69,19)" x1="101.21939343487827" x2="69.31649017448666" y1="-59.506579028369984" y2="-114.06828752131153" /><line stroke="rgb(139,69,19)" x1="101.21939343487827" x2="40.334858165118064" y1="-59.506579028369984" y2="-121.88912768642909" /><line stroke="rgb(139,69,19)" x1="101.21939343487827" x2="81.84077962427774" y1="-59.506579028369984" y2="-68.02579615350153" /><line stroke="rgb(139,69,19)" x1="101.21939343487827" x2="104.19276123250462" y1="-59.506579028369984" y2="-68.00932827472202" /><line stroke="rgb(139,69,19)" x1="-64.68478900131754" x2="-31.707414062680748" y1="-103.68717096836978" y2="-167.90894924472354" /><line stroke="rgb(139,69,19)" x1="-64.68478900131754" x2="-5.156001417016097" y1="-103.68717096836978" y2="-153.91273872768204" /><line stroke="rgb(139,69,19)" x1="-64.68478900131754" x2="-63.891552028957534" y1="-103.68717096836978" y2="-188.17839346113294" /><line stroke="rgb(139,69,19)" x1="-64.68478900131754" x2="-45.53336806428514" y1="-103.68717096836978" y2="-203.55023159477577" /><line stroke="rgb(139,69,19)" x1="-73.02303056370174" x2="-40.024687457728014" y1="-132.52267015794695" y2="-195.19198562483993" /><line stroke="rgb(139,69,19)" x1="-73.02303056370174" x2="-14.162773919462992" y1="-132.52267015794695" y2="-179.96350284075186" /><line stroke="rgb(139,69,19)" x1="-73.02303056370174" x2="-78.20510530549832" y1="-132.52267015794695" y2="-157.10349867099643" /><line stroke="rgb(139,69,19)" x1="-73.02303056370174" x2="-90.87033278851845" y1="-132.52267015794695" y2="-176.5985217132268" /><line stroke="rgb(139,69,19)" x1="-123.63940553081548" x2="-101.39223500583688" y1="-177.93172856250476" y2="-216.55831264202854" /><line stroke="rgb(139,69,19)" x1="-123.63940553081548" x2="-94.9109540008935" y1="-177.93172856250476" y2="-187.2545720330427" /><line stroke="rgb(139,69,19)" x1="-123.63940553081548" x2="-153.58922535300775" y1="-177.93172856250476" y2="-152.8909215993701" /><line stroke="rgb(139,69,19)" x1="-123.63940553081548" x2="-146.3094867522283" y1="-177.93172856250476" y2="-175.73971763411592" /><line stroke="rgb(139,69,19)" x1="-151.26914404055597" x2="-177.69008223654473" y1="-189.60503622919285" y2="-232.832984619819" /><line stroke="rgb(139,69,19)" x1="-151.26914404055597" x2="-207.48296521236514" y1="-189.60503622919285" y2="-229.2317071464447" /><line stroke="rgb(139,69,19)" x1="-151.26914404055597" x2="-139.4830958496915" y1="-189.60503622919285" y2="-229.09841551385003" /><line stroke="rgb(139,69,19)" x1="-151.26914404055597" x2="-129.71082855195985" y1="-189.60503622919285" y2="-250.47258132966982" /><line stroke="rgb(139,69,19)" x1="-132.81348086531952" x2="-164.2590537384046" y1="-113.56736827486665" y2="-166.55857480694573" /><line stroke="rgb(139,69,19)" x1="-132.81348086531952" x2="-193.58735569148405" y1="-113.56736827486665" y2="-172.93245217846737" /><line stroke="rgb(139,69,19)" x1="-132.81348086531952" x2="-125.84359347443774" y1="-113.56736827486665" y2="-167.03476782948016" /><line stroke="rgb(139,69,19)" x1="-132.81348086531952" x2="-110.18824836418959" y1="-113.56736827486665" y2="-183.6880266234411" /><line stroke="rgb(139,69,19)" x1="-159.35234666388834" x2="-183.05469096519576" y1="-127.59376995583034" y2="-213.55458167106113" /><line stroke="rgb(139,69,19)" x1="-159.35234666388834" x2="-191.32307176451135" y1="-127.59376995583034" y2="-242.4022363964107" /><line stroke="rgb(139,69,19)" x1="-159.35234666388834" x2="-144.42500160286238" y1="-127.59376995583034" y2="-193.16230326167695" /><line stroke="rgb(139,69,19)" x1="-159.35234666388834" x2="-146.62304641601153" y1="-127.59376995583034" y2="-170.2754958374178" /><line stroke="rgb(139,69,19)" x1="-169.1529239928714" x2="-140.21017012695802" y1="-60.303735894175844" y2="-107.45075514426142" /><line stroke="rgb(139,69,19)" x1="-169.1529239928714" x2="-124.57846808235752" y1="-60.303735894175844" y2="-81.81310264278945" /><line stroke="rgb(139,69,19)" x1="-169.1529239928714" x2="-82.80382553005154" y1="-60.303735894175844" y2="-28.157914267134046" /><line stroke="rgb(139,69,19)" x1="-169.1529239928714" x2="-111.8055584304851" y1="-60.303735894175844" y2="-22.289019925479806" /><line stroke="rgb(139,69,19)" x1="-164.38384464179322" x2="-178.4797781671951" y1="-37.90443016571992" y2="-130.74240358965494" /><line stroke="rgb(139,69,19)" x1="-164.38384464179322" x2="-176.05687326846376" y1="-37.90443016571992" y2="-160.65836031686052" /><line stroke="rgb(139,69,19)" x1="-164.38384464179322" x2="-153.46783374332858" y1="-37.90443016571992" y2="-96.51995299853151" /><line stroke="rgb(139,69,19)" x1="-164.38384464179322" x2="-170.13585366521988" y1="-37.90443016571992" y2="-79.50941215591587" /><line stroke="rgb(139,69,19)" x1="-125.35553811048221" x2="-93.92628851854892" y1="-156.03188380107773" y2="-208.97194990030283" /><line stroke="rgb(139,69,19)" x1="-125.35553811048221" x2="-73.71467601889292" y1="-156.03188380107773" y2="-186.78617193284947" /><line stroke="rgb(139,69,19)" x1="-125.35553811048221" x2="-130.4977398732495" y1="-156.03188380107773" y2="-149.37382558418983" /><line stroke="rgb(139,69,19)" x1="-125.35553811048221" x2="-152.7003602380134" y1="-156.03188380107773" y2="-151.8537206095331" /><line stroke="rgb(139,69,19)" x1="-114.76288686009931" x2="-141.0026771910257" y1="-184.1125581526714" y2="-227.10072656760596" /><line stroke="rgb(139,69,19)" x1="-114.76288686009931" x2="-170.76179073769268" y1="-184.1125581526714" y2="-223.22826307814898" /><line stroke="rgb(139,69,19)" x1="-114.76288686009931" x2="-105.54100304492259" y1="-184.1125581526714" y2="-242.47011467134575" /><line stroke="rgb(139,69,19)" x1="-114.76288686009931" x2="-104.98581971019686" y1="-184.1125581526714" y2="-219.8916044408726" /><line stroke="rgb(139,69,19)" x1="-182.68118534423886" x2="-210.63905808390416" y1="-187.44493433481657" y2="-232.91332425836666" /><line stroke="rgb(139,69,19)" x1="-182.68118534423886" x2="-240.62710609583576" y1="-187.44493433481657" y2="-231.77506566502402" /><line stroke="rgb(139,69,19)" x1="-182.68118534423886" x2="-293.3928893917079" y1="-187.44493433481657" y2="-274.6676304423028" /><line stroke="rgb(139,69,19)" x1="-182.68118534423886" x2="-291.89301074899504" y1="-187.44493433481657" y2="-250.19686031555062" /><line stroke="rgb(139,69,19)" x1="-158.21047190107936" x2="-187.76368993624203" y1="-202.42798119208373" y2="-280.11155377392276" /><line stroke="rgb(139,69,19)" x1="-158.21047190107936" x2="-204.39676820714655" y1="-202.42798119208373" y2="-305.08714796715213" /><line stroke="rgb(139,69,19)" x1="-158.21047190107936" x2="-150.19367623211457" y1="-202.42798119208373" y2="-264.02591539497735" /><line stroke="rgb(139,69,19)" x1="-158.21047190107936" x2="-170.32436825822703" y1="-202.42798119208373" y2="-285.7864217971255" /><circle cx="0" cy="-300" fill="rgb(255,255,0)" r="10" stroke="rgb(255,255,0)" /></svg>