<?xml version="1.0" encoding="utf-8" ?>
<svg baseProfile="full" height="100%" version="1.1" viewBox="-400 -400 800 400" width="100%" xmlns="http://www.w3.org/2000/svg" xmlns:ev="http://www.w3.org/2001/xml-events" xmlns:xlink="http://www.w3.org/1999/xlink"><defs /><circle cx="0" cy="0" fill="rgb(0,255,0)" r="2" stroke="rgb(0,255,0)" /><circle cx="45.06368682286268" cy="-71.3691921213119" fill="rgb(0,255,0)" r="2" stroke="rgb(0,255,0)" /><circle cx="76.70058413557798" cy="-83.82428312778148" fill="rgb(0,255,0)" r="2" stroke="rgb(0,255,0)" /><circle cx="51.66651678028147" cy="-76.4351592976018" fill="rgb(0,255,0)" r="2" stroke="rgb(0,255,0)" /><circle cx="115.78041240509883" cy="-12.443029670621499" fill="rgb(0,255,0)" r="2" stroke="rgb(0,255,0)" /><circle cx="96.62696970720387" cy="-117.43331242301831" fill="rgb(0,255,0)" r="2" stroke="rgb(0,255,0)" /><circle cx="128.26386701991916" cy="-129.88840342948788" fill="rgb(0,255,0)" r="2" stroke="rgb(0,255,0)" /><circle cx="103.22979966462266" cy="-122.49927959930821" fill="rgb(0,255,0)" r="2" stroke="rgb(0,255,0)" /><circle cx="122.5693788985351" cy="-46.77845184260543" fill="rgb(0,255,0)" r="2" stroke="rgb(0,255,0)" /><circle cx="103.59646128218643" cy="-151.67422009126858" fill="rgb(0,255,0)" r="2" stroke="rgb(0,255,0)" /><circle cx="135.23335859490172" cy="-164.12931109773817" fill="rgb(0,255,0)" r="2" stroke="rgb(0,255,0)" /><circle cx="110.19929123960522" cy="-156.7401872675585" fill="rgb(0,255,0)" r="2" stroke="rgb(0,255,0)" /><circle cx="140.54189570890418" cy="-25.80101029003592" fill="rgb(0,255,0)" r="2" stroke="rgb(0,255,0)" /><circle cx="121.26820581988983" cy="-130.8542488571963" fill="rgb(0,255,0)" r="2" stroke="rgb(0,255,0)" /><circle cx="152.90510313260512" cy="-143.30933986366588" fill="rgb(0,255,0)" r="2" stroke="rgb(0,255,0)" /><circle cx="127.87103577730862" cy="-135.9202160334862" fill="rgb(0,255,0)" r="2" stroke="rgb(0,255,0)" /><circle cx="203.57347824895805" cy="-40.1111609406269" fill="rgb(0,255,0)" r="2" stroke="rgb(0,255,0)" /><circle cx="184.03956077517597" cy="-145.3006425207883" fill="rgb(0,255,0)" r="2" stroke="rgb(0,255,0)" /><circle cx="215.67645808789126" cy="-157.7557335272579" fill="rgb(0,255,0)" r="2" stroke="rgb(0,255,0)" /><circle cx="190.64239073259478" cy="-150.36660969707822" fill="rgb(0,255,0)" r="2" stroke="rgb(0,255,0)" /><circle cx="254.75628635741214" cy="-86.37448007009792" fill="rgb(0,255,0)" r="2" stroke="rgb(0,255,0)" /><circle cx="235.2246440368009" cy="-191.56277048628908" fill="rgb(0,255,0)" r="2" stroke="rgb(0,255,0)" /><circle cx="266.8615413495162" cy="-204.01786149275867" fill="rgb(0,255,0)" r="2" stroke="rgb(0,255,0)" /><circle cx="241.8274739942197" cy="-196.628737662579" fill="rgb(0,255,0)" r="2" stroke="rgb(0,255,0)" /><circle cx="261.54525285084844" cy="-120.70990224208184" fill="rgb(0,255,0)" r="2" stroke="rgb(0,255,0)" /><circle cx="242.10866115029376" cy="-225.84842859165542" fill="rgb(0,255,0)" r="2" stroke="rgb(0,255,0)" /><circle cx="273.74555846300905" cy="-238.303519598125" fill="rgb(0,255,0)" r="2" stroke="rgb(0,255,0)" /><circle cx="248.71149110771256" cy="-230.91439576794534" fill="rgb(0,255,0)" r="2" stroke="rgb(0,255,0)" /><circle cx="279.51776966121747" cy="-99.73246068951232" fill="rgb(0,255,0)" r="2" stroke="rgb(0,255,0)" /><circle cx="259.9585280581613" cy="-204.93520080134323" fill="rgb(0,255,0)" r="2" stroke="rgb(0,255,0)" /><circle cx="291.59542537087657" cy="-217.39029180781282" fill="rgb(0,255,0)" r="2" stroke="rgb(0,255,0)" /><circle cx="266.5613580155801" cy="-210.00116797763314" fill="rgb(0,255,0)" r="2" stroke="rgb(0,255,0)" /><circle cx="177.61612067089573" cy="-65.05541052975285" fill="rgb(0,255,0)" r="2" stroke="rgb(0,255,0)" /><circle cx="158.3193941938319" cy="-170.12070997880602" fill="rgb(0,255,0)" r="2" stroke="rgb(0,255,0)" /><circle cx="189.9562915065472" cy="-182.5758009852756" fill="rgb(0,255,0)" r="2" stroke="rgb(0,255,0)" /><circle cx="164.9222241512507" cy="-175.18667715509594" fill="rgb(0,255,0)" r="2" stroke="rgb(0,255,0)" /><circle cx="229.03611977606806" cy="-111.19454752811563" fill="rgb(0,255,0)" r="2" stroke="rgb(0,255,0)" /><circle cx="209.68783074848398" cy="-216.2868427210949" fill="rgb(0,255,0)" r="2" stroke="rgb(0,255,0)" /><circle cx="241.32472806119927" cy="-228.7419337275645" fill="rgb(0,255,0)" r="2" stroke="rgb(0,255,0)" /><circle cx="216.29066070590278" cy="-221.35280989738482" fill="rgb(0,255,0)" r="2" stroke="rgb(0,255,0)" /><circle cx="235.82508626950434" cy="-145.52996970009957" fill="rgb(0,255,0)" r="2" stroke="rgb(0,255,0)" /><circle cx="216.5768946543991" cy="-250.5698585615906" fill="rgb(0,255,0)" r="2" stroke="rgb(0,255,0)" /><circle cx="248.2137919671144" cy="-263.02494956806015" fill="rgb(0,255,0)" r="2" stroke="rgb(0,255,0)" /><circle cx="223.1797246118179" cy="-255.63582573788048" fill="rgb(0,255,0)" r="2" stroke="rgb(0,255,0)" /><circle cx="253.7976030798734" cy="-124.55252814753005" fill="rgb(0,255,0)" r="2" stroke="rgb(0,255,0)" /><circle cx="234.40118588044766" cy="-229.67002100411514" fill="rgb(0,255,0)" r="2" stroke="rgb(0,255,0)" /><circle cx="266.03808319316295" cy="-242.12511201058473" fill="rgb(0,255,0)" r="2" stroke="rgb(0,255,0)" /><circle cx="241.00401583786646" cy="-234.73598818040506" fill="rgb(0,255,0)" r="2" stroke="rgb(0,255,0)" /><circle cx="190.7478569018909" cy="-90.1342917764087" fill="rgb(0,255,0)" r="2" stroke="rgb(0,255,0)" /><circle cx="171.4964767328873" cy="-195.17585001584297" fill="rgb(0,255,0)" r="2" stroke="rgb(0,255,0)" /><circle cx="203.13337404560258" cy="-207.63094102231256" fill="rgb(0,255,0)" r="2" stroke="rgb(0,255,0)" /><circle cx="178.0993066903061" cy="-200.24181719213288" fill="rgb(0,255,0)" r="2" stroke="rgb(0,255,0)" /><circle cx="242.21320231512345" cy="-136.24968756515256" fill="rgb(0,255,0)" r="2" stroke="rgb(0,255,0)" /><circle cx="222.90320697294214" cy="-241.3219339724397" fill="rgb(0,255,0)" r="2" stroke="rgb(0,255,0)" /><circle cx="254.54010428565743" cy="-253.77702497890928" fill="rgb(0,255,0)" r="2" stroke="rgb(0,255,0)" /><circle cx="229.50603693036095" cy="-246.3879011487296" fill="rgb(0,255,0)" r="2" stroke="rgb(0,255,0)" /><circle cx="249.00216880855973" cy="-170.5851097371365" fill="rgb(0,255,0)" r="2" stroke="rgb(0,255,0)" /><circle cx="229.7859786635978" cy="-275.60824412305305" fill="rgb(0,255,0)" r="2" stroke="rgb(0,255,0)" /><circle cx="261.4228759763131" cy="-288.0633351295226" fill="rgb(0,255,0)" r="2" stroke="rgb(0,255,0)" /><circle cx="236.3888086210166" cy="-280.67421129934297" fill="rgb(0,255,0)" r="2" stroke="rgb(0,255,0)" /><circle cx="266.97468561892873" cy="-149.607668184567" fill="rgb(0,255,0)" r="2" stroke="rgb(0,255,0)" /><circle cx="247.6153943647447" cy="-254.70572362968488" fill="rgb(0,255,0)" r="2" stroke="rgb(0,255,0)" /><circle cx="279.25229167746" cy="-267.16081463615444" fill="rgb(0,255,0)" r="2" stroke="rgb(0,255,0)" /><circle cx="254.2182243221635" cy="-259.7716908059748" fill="rgb(0,255,0)" r="2" stroke="rgb(0,255,0)" /><line stroke="rgb(139,69,19)" x1="0" x2="0" y1="0" y2="0" /><line stroke="rgb(139,69,19)" x1="0" x2="203.57347824895805" y1="0" y2="-40.1111609406269" /><line stroke="rgb(139,69,19)" x1="0" x2="177.61612067089573" y1="0" y2="-65.05541052975285" /><line stroke="rgb(139,69,19)" x1="0" x2="190.7478569018909" y1="0" y2="-90.1342917764087" /><line stroke="rgb(139,69,19)" x1="0" x2="0" y1="0" y2="0" /><line stroke="rgb(139,69,19)" x1="0" x2="115.78041240509883" y1="0" y2="-12.443029670621499" /><line stroke="rgb(139,69,19)" x1="0" x2="122.5693788985351" y1="0" y2="-46.77845184260543" /><line stroke="rgb(139,69,19)" x1="0" x2="140.54189570890418" y1="0" y2="-25.80101029003592" /><line stroke="rgb(139,69,19)" x1="203.57347824895805" x2="203.57347824895805" y1="-40.1111609406269" y2="-40.1111609406269" /><line stroke="rgb(139,69,19)" x1="203.57347824895805" x2="254.75628635741214" y1="-40.1111609406269" y2="-86.37448007009792" /><line stroke="rgb(139,69,19)" x1="203.57347824895805" x2="261.54525285084844" y1="-40.1111609406269" y2="-120.70990224208184" /><line stroke="rgb(139,69,19)" x1="203.57347824895805" x2="279.51776966121747" y1="-40.1111609406269" y2="-99.73246068951232" /><line stroke="rgb(139,69,19)" x1="177.61612067089573" x2="177.61612067089573" y1="-65.05541052975285" y2="-65.05541052975285" /><line stroke="rgb(139,69,19)" x1="177.61612067089573" x2="229.03611977606806" y1="-65.05541052975285" y2="-111.19454752811563" /><line stroke="rgb(139,69,19)" x1="177.61612067089573" x2="235.82508626950434" y1="-65.05541052975285" y2="-145.52996970009957" /><line stroke="rgb(139,69,19)" x1="177.61612067089573" x2="253.7976030798734" y1="-65.05541052975285" y2="-124.55252814753005" /><line stroke="rgb(139,69,19)" x1="190.7478569018909" x2="190.7478569018909" y1="-90.1342917764087" y2="-90.1342917764087" /><line stroke="rgb(139,69,19)" x1="190.7478569018909" x2="242.21320231512345" y1="-90.1342917764087" y2="-136.24968756515256" /><line stroke="rgb(139,69,19)" x1="190.7478569018909" x2="249.00216880855973" y1="-90.1342917764087" y2="-170.5851097371365" /><line stroke="rgb(139,69,19)" x1="190.7478569018909" x2="266.97468561892873" y1="-90.1342917764087" y2="-149.607668184567" /><line stroke="rgb(139,69,19)" x1="0" x2="0" y1="0" y2="0" /><line stroke="rgb(139,69,19)" x1="0" x2="45.06368682286268" y1="0" y2="-71.3691921213119" /><line stroke="rgb(139,69,19)" x1="0" x2="76.70058413557798" y1="0" y2="-83.82428312778148" /><line stroke="rgb(139,69,19)" x1="0" x2="51.66651678028147" y1="0" y2="-76.4351592976018" /><line stroke="rgb(139,69,19)" x1="115.78041240509883" x2="115.78041240509883" y1="-12.443029670621499" y2="-12.443029670621499" /><line stroke="rgb(139,69,19)" x1="115.78041240509883" x2="96.62696970720387" y1="-12.443029670621499" y2="-117.43331242301831" /><line stroke="rgb(139,69,19)" x1="115.78041240509883" x2="128.26386701991916" y1="-12.443029670621499" y2="-129.88840342948788" /><line stroke="rgb(139,69,19)" x1="115.78041240509883" x2="103.22979966462266" y1="-12.443029670621499" y2="-122.49927959930821" /><line stroke="rgb(139,69,19)" x1="122.5693788985351" x2="122.5693788985351" y1="-46.77845184260543" y2="-46.77845184260543" /><line stroke="rgb(139,69,19)" x1="122.5693788985351" x2="103.59646128218643" y1="-46.77845184260543" y2="-151.67422009126858" /><line stroke="rgb(139,69,19)" x1="122.5693788985351" x2="135.23335859490172" y1="-46.77845184260543" y2="-164.12931109773817" /><line stroke="rgb(139,69,19)" x1="122.5693788985351" x2="110.19929123960522" y1="-46.77845184260543" y2="-156.7401872675585" /><line stroke="rgb(139,69,19)" x1="140.54189570890418" x2="140.54189570890418" y1="-25.80101029003592" y2="-25.80101029003592" /><line stroke="rgb(139,69,19)" x1="140.54189570890418" x2="121.26820581988983" y1="-25.80101029003592" y2="-130.8542488571963" /><line stroke="rgb(139,69,19)" x1="140.54189570890418" x2="152.90510313260512" y1="-25.80101029003592" y2="-143.30933986366588" /><line stroke="rgb(139,69,19)" x1="140.54189570890418" x2="127.87103577730862" y1="-25.80101029003592" y2="-135.9202160334862" /><line stroke="rgb(139,69,19)" x1="203.57347824895805" x2="203.57347824895805" y1="-40.1111609406269" y2="-40.1111609406269" /><line stroke="rgb(139,69,19)" x1="203.57347824895805" x2="184.03956077517597" y1="-40.1111609406269" y2="-145.3006425207883" /><line stroke="rgb(139,69,19)" x1="203.57347824895805" x2="215.67645808789126" y1="-40.1111609406269" y2="-157.7557335272579" /><line stroke="rgb(139,69,19)" x1="203.57347824895805" x2="190.64239073259478" y1="-40.1111609406269" y2="-150.36660969707822" /><line stroke="rgb(139,69,19)" x1="254.75628635741214" x2="254.75628635741214" y1="-86.37448007009792" y2="-86.37448007009792" /><line stroke="rgb(139,69,19)" x1="254.75628635741214" x2="235.2246440368009" y1="-86.37448007009792" y2="-191.56277048628908" /><line stroke="rgb(139,69,19)" x1="254.75628635741214" x2="266.8615413495162" y1="-86.37448007009792" y2="-204.01786149275867" /><line stroke="rgb(139,69,19)" x1="254.75628635741214" x2="241.8274739942197" y1="-86.37448007009792" y2="-196.628737662579" /><line stroke="rgb(139,69,19)" x1="261.54525285084844" x2="261.54525285084844" y1="-120.70990224208184" y2="-120.70990224208184" /><line stroke="rgb(139,69,19)" x1="261.54525285084844" x2="242.10866115029376" y1="-120.70990224208184" y2="-225.84842859165542" /><line stroke="rgb(139,69,19)" x1="261.54525285084844" x2="273.74555846300905" y1="-120.70990224208184" y2="-238.303519598125" /><line stroke="rgb(139,69,19)" x1="261.54525285084844" x2="248.71149110771256" y1="-120.70990224208184" y2="-230.91439576794534" /><line stroke="rgb(139,69,19)" x1="279.51776966121747" x2="279.51776966121747" y1="-99.73246068951232" y2="-99.73246068951232" /><line stroke="rgb(139,69,19)" x1="279.51776966121747" x2="259.9585280581613" y1="-99.73246068951232" y2="-204.93520080134323" /><line stroke="rgb(139,69,19)" x1="279.51776966121747" x2="291.59542537087657" y1="-99.73246068951232" y2="-217.39029180781282" /><line stroke="rgb(139,69,19)" x1="279.51776966121747" x2="266.5613580155801" y1="-99.73246068951232" y2="-210.00116797763314" /><line stroke="rgb(139,69,19)" x1="177.61612067089573" x2="177.61612067089573" y1="-65.05541052975285" y2="-65.05541052975285" /><line stroke="rgb(139,69,19)" x1="177.61612067089573" x2="158.3193941938319" y1="-65.05541052975285" y2="-170.12070997880602" /><line stroke="rgb(139,69,19)" x1="177.61612067089573" x2="189.9562915065472" y1="-65.05541052975285" y2="-182.5758009852756" /><line stroke="rgb(139,69,19)" x1="177.61612067089573" x2="164.9222241512507" y1="-65.05541052975285" y2="-175.18667715509594" /><line stroke="rgb(139,69,19)" x1="229.03611977606806" x2="229.03611977606806" y1="-111.19454752811563" y2="-111.19454752811563" /><line stroke="rgb(139,69,19)" x1="229.03611977606806" x2="209.68783074848398" y1="-111.19454752811563" y2="-216.2868427210949" /><line stroke="rgb(139,69,19)" x1="229.03611977606806" x2="241.32472806119927" y1="-111.19454752811563" y2="-228.7419337275645" /><line stroke="rgb(139,69,19)" x1="229.03611977606806" x2="216.29066070590278" y1="-111.19454752811563" y2="-221.35280989738482" /><line stroke="rgb(139,69,19)" x1="235.82508626950434" x2="235.82508626950434" y1="-145.52996970009957" y2="-145.52996970009957" /><line stroke="rgb(139,69,19)" x1="235.82508626950434" x2="216.5768946543991" y1="-145.52996970009957" y2="-250.5698585615906" /><line stroke="rgb(139,69,19)" x1="235.82508626950434" x2="248.2137919671144" y1="-145.52996970009957" y2="-263.02494956806015" /><line stroke="rgb(139,69,19)" x1="235.82508626950434" x2="223.1797246118179" y1="-145.52996970009957" y2="-255.63582573788048" /><line stroke="rgb(139,69,19)" x1="253.7976030798734" x2="253.7976030798734" y1="-124.55252814753005" y2="-124.55252814753005" /><line stroke="rgb(139,69,19)" x1="253.7976030798734" x2="234.40118588044766" y1="-124.55252814753005" y2="-229.67002100411514" /><line stroke="rgb(139,69,19)" x1="253.7976030798734" x2="266.03808319316295" y1="-124.55252814753005" y2="-242.12511201058473" /><line stroke="rgb(139,69,19)" x1="253.7976030798734" x2="241.00401583786646" y1="-124.55252814753005" y2="-234.73598818040506" /><line stroke="rgb(139,69,19)" x1="190.7478569018909" x2="190.7478569018909" y1="-90.1342917764087" y2="-90.1342917764087" /><line stroke="rgb(139,69,19)" x1="190.7478569018909" x2="171.4964767328873" y1="-90.1342917764087" y2="-195.17585001584297" /><line stroke="rgb(139,69,19)" x1="190.7478569018909" x2="203.13337404560258" y1="-90.1342917764087" y2="-207.63094102231256" /><line stroke="rgb(139,69,19)" x1="190.7478569018909" x2="178.0993066903061" y1="-90.1342917764087" y2="-200.24181719213288" /><line stroke="rgb(139,69,19)" x1="242.21320231512345" x2="242.21320231512345" y1="-136.24968756515256" y2="-136.24968756515256" /><line stroke="rgb(139,69,19)" x1="242.21320231512345" x2="222.90320697294214" y1="-136.24968756515256" y2="-241.3219339724397" /><line stroke="rgb(139,69,19)" x1="242.21320231512345" x2="254.54010428565743" y1="-136.24968756515256" y2="-253.77702497890928" /><line stroke="rgb(139,69,19)" x1="242.21320231512345" x2="229.50603693036095" y1="-136.24968756515256" y2="-246.3879011487296" /><line stroke="rgb(139,69,19)" x1="249.00216880855973" x2="249.00216880855973" y1="-170.5851097371365" y2="-170.5851097371365" /><line stroke="rgb(139,69,19)" x1="249.00216880855973" x2="229.7859786635978" y1="-170.5851097371365" y2="-275.60824412305305" /><line stroke="rgb(139,69,19)" x1="249.00216880855973" x2="261.4228759763131" y1="-170.5851097371365" y2="-288.0633351295226" /><line stroke="rgb(139,69,19)" x1="249.00216880855973" x2="236.3888086210166" y1="-170.5851097371365" y2="-280.67421129934297" /><line stroke="rgb(139,69,19)" x1="266.97468561892873" x2="266.97468561892873" y1="-149.607668184567" y2="-149.607668184567" /><line stroke="rgb(139,69,19)" x1="266.97468561892873" x2="247.6153943647447" y1="-149.607668184567" y2="-254.70572362968488" /><line stroke="rgb(139,69,19)" x1="266.97468561892873" x2="279.25229167746" y1="-149.607668184567" y2="-267.16081463615444" /><line stroke="rgb(139,69,19)" x1="266.97468561892873" x2="254.2182243221635" y1="-149.607668184567" y2="-259.7716908059748" /><circle cx="0" cy="-300" fill="rgb(255,255,0)" r="10" stroke="rgb(255,255,0)" /></svg>