<?xml version="1.0" encoding="utf-8" ?>
<svg baseProfile="full" height="100%" version="1.1" viewBox="-400 -400 800 400" width="100%" xmlns="http://www.w3.org/2000/svg" xmlns:ev="http://www.w3.org/2001/xml-events" xmlns:xlink="http://www.w3.org/1999/xlink"><defs /><circle cx="-107.218614465473" cy="-105.61809273096479" fill="rgb(0,255,0)" r="2" stroke="rgb(0,255,0)" /><circle cx="-32.99799421546919" cy="-156.36170883483933" fill="rgb(0,255,0)" r="2" stroke="rgb(0,255,0)" /><circle cx="-105.97228064241813" cy="-134.49651759101545" fill="rgb(0,255,0)" r="2" stroke="rgb(0,255,0)" /><circle cx="-99.98388127011772" cy="-112.11461760038966" fill="rgb(0,255,0)" r="2" stroke="rgb(0,255,0)" /><circle cx="-152.35226112244843" cy="-247.54730010177778" fill="rgb(0,255,0)" r="2" stroke="rgb(0,255,0)" /><circle cx="-200.90718630756322" cy="-323.3304069950697" fill="rgb(0,255,0)" r="2" stroke="rgb(0,255,0)" /><circle cx="-181.23172122801853" cy="-249.735297928123" fill="rgb(0,255,0)" r="2" stroke="rgb(0,255,0)" /><circle cx="-158.71615212316888" cy="-255.4209260063231" fill="rgb(0,255,0)" r="2" stroke="rgb(0,255,0)" /><circle cx="-218.4673081731886" cy="-265.6853098820789" fill="rgb(0,255,0)" r="2" stroke="rgb(0,255,0)" /><circle cx="-307.34010676038463" cy="-251.4212692374851" fill="rgb(0,255,0)" r="2" stroke="rgb(0,255,0)" /><circle cx="-231.99329229367876" cy="-240.06849015585135" fill="rgb(0,255,0)" r="2" stroke="rgb(0,255,0)" /><circle cx="-228.23494908522372" cy="-262.95234231415867" fill="rgb(0,255,0)" r="2" stroke="rgb(0,255,0)" /><circle cx="-123.06624639098074" cy="-226.76058635526678" fill="rgb(0,255,0)" r="2" stroke="rgb(0,255,0)" /><circle cx="-163.3907709559229" cy="-307.21818809194895" fill="rgb(0,255,0)" r="2" stroke="rgb(0,255,0)" /><circle cx="-151.55329418090085" cy="-231.963720904045" fill="rgb(0,255,0)" r="2" stroke="rgb(0,255,0)" /><circle cx="-128.79412299017247" cy="-235.19054902743076" fill="rgb(0,255,0)" r="2" stroke="rgb(0,255,0)" /><circle cx="13.027611904773991" cy="-212.5682125457654" fill="rgb(0,255,0)" r="2" stroke="rgb(0,255,0)" /><circle cx="38.621053285358485" cy="-153.8375881314336" fill="rgb(0,255,0)" r="2" stroke="rgb(0,255,0)" /><circle cx="30.83567734020201" cy="-229.6202771196943" fill="rgb(0,255,0)" r="2" stroke="rgb(0,255,0)" /><circle cx="7.8780543946436925" cy="-227.92410029574575" fill="rgb(0,255,0)" r="2" stroke="rgb(0,255,0)" /><circle cx="240.6664469844885" cy="-215.93787469103665" fill="rgb(0,255,0)" r="2" stroke="rgb(0,255,0)" /><circle cx="287.22566417612586" cy="-292.8848340413994" fill="rgb(0,255,0)" r="2" stroke="rgb(0,255,0)" /><circle cx="229.85681742356576" cy="-242.7637535328097" fill="rgb(0,255,0)" r="2" stroke="rgb(0,255,0)" /><circle cx="244.77662076995767" cy="-224.84696436190077" fill="rgb(0,255,0)" r="2" stroke="rgb(0,255,0)" /><circle cx="178.002568915058" cy="-360.0896036227699" fill="rgb(0,255,0)" r="2" stroke="rgb(0,255,0)" /><circle cx="91.01860086933637" cy="-380.86219347979977" fill="rgb(0,255,0)" r="2" stroke="rgb(0,255,0)" /><circle cx="156.24130500216842" cy="-341.4992900906931" fill="rgb(0,255,0)" r="2" stroke="rgb(0,255,0)" /><circle cx="168.6407352230574" cy="-361.23435104059547" fill="rgb(0,255,0)" r="2" stroke="rgb(0,255,0)" /><circle cx="65.98162806725291" cy="-262.02033442017637" fill="rgb(0,255,0)" r="2" stroke="rgb(0,255,0)" /><circle cx="75.63757025647409" cy="-175.4151079451968" fill="rgb(0,255,0)" r="2" stroke="rgb(0,255,0)" /><circle cx="90.59113142699493" cy="-250.11655926455438" fill="rgb(0,255,0)" r="2" stroke="rgb(0,255,0)" /><circle cx="67.82594279032607" cy="-255.08925682123137" fill="rgb(0,255,0)" r="2" stroke="rgb(0,255,0)" /><circle cx="-53.995078344386066" cy="-87.1588379367026" fill="rgb(0,255,0)" r="2" stroke="rgb(0,255,0)" /><circle cx="24.482081179365203" cy="-44.35246552944454" fill="rgb(0,255,0)" r="2" stroke="rgb(0,255,0)" /><circle cx="-28.15824822057067" cy="-99.42113030496677" fill="rgb(0,255,0)" r="2" stroke="rgb(0,255,0)" /><circle cx="-45.256445054055696" cy="-83.6092392353956" fill="rgb(0,255,0)" r="2" stroke="rgb(0,255,0)" /><circle cx="-5.422569862275381" cy="-138.26792762246237" fill="rgb(0,255,0)" r="2" stroke="rgb(0,255,0)" /><circle cx="-45.06420736478327" cy="-218.68795877936134" fill="rgb(0,255,0)" r="2" stroke="rgb(0,255,0)" /><circle cx="-33.725479217976066" cy="-143.35612292361418" fill="rgb(0,255,0)" r="2" stroke="rgb(0,255,0)" /><circle cx="-10.918403514953425" cy="-146.1585901408326" fill="rgb(0,255,0)" r="2" stroke="rgb(0,255,0)" /><circle cx="-28.29916319776747" cy="-179.49851247290377" fill="rgb(0,255,0)" r="2" stroke="rgb(0,255,0)" /><circle cx="-116.81981896666426" cy="-195.5039875043011" fill="rgb(0,255,0)" r="2" stroke="rgb(0,255,0)" /><circle cx="-49.46661821492722" cy="-159.75895460184267" fill="rgb(0,255,0)" r="2" stroke="rgb(0,255,0)" /><circle cx="-38.07618079833948" cy="-180.10957527407464" fill="rgb(0,255,0)" r="2" stroke="rgb(0,255,0)" /><circle cx="-5.086778683064786" cy="-59.47477685476939" fill="rgb(0,255,0)" r="2" stroke="rgb(0,255,0)" /><circle cx="41.61356347764152" cy="-110.16555488922059" fill="rgb(0,255,0)" r="2" stroke="rgb(0,255,0)" /><circle cx="-24.580952939970228" cy="-72.46081558351841" fill="rgb(0,255,0)" r="2" stroke="rgb(0,255,0)" /><circle cx="-13.415432375980885" cy="-51.99927990682848" fill="rgb(0,255,0)" r="2" stroke="rgb(0,255,0)" /><circle cx="44.18871252190404" cy="-252.0954169602503" fill="rgb(0,255,0)" r="2" stroke="rgb(0,255,0)" /><circle cx="30.020055635760777" cy="-161.63857541345237" fill="rgb(0,255,0)" r="2" stroke="rgb(0,255,0)" /><circle cx="64.12784433173013" cy="-229.77964273474475" fill="rgb(0,255,0)" r="2" stroke="rgb(0,255,0)" /><circle cx="43.53664953038958" cy="-240.71160664549527" fill="rgb(0,255,0)" r="2" stroke="rgb(0,255,0)" /><circle cx="212.60773492067747" cy="-328.49918746579164" fill="rgb(0,255,0)" r="2" stroke="rgb(0,255,0)" /><circle cx="123.56285395385252" cy="-316.8593497419224" fill="rgb(0,255,0)" r="2" stroke="rgb(0,255,0)" /><circle cx="198.53366094014345" cy="-303.3241222528056" fill="rgb(0,255,0)" r="2" stroke="rgb(0,255,0)" /><circle cx="203.175483542029" cy="-325.7963138988553" fill="rgb(0,255,0)" r="2" stroke="rgb(0,255,0)" /><circle cx="135.36017089060954" cy="-330.5762475399669" fill="rgb(0,255,0)" r="2" stroke="rgb(0,255,0)" /><circle cx="75.30663023537882" cy="-268.7106676931247" fill="rgb(0,255,0)" r="2" stroke="rgb(0,255,0)" /><circle cx="142.47111017093113" cy="-304.67614422152974" fill="rgb(0,255,0)" r="2" stroke="rgb(0,255,0)" /><circle cx="132.03178582389833" cy="-325.4845774386648" fill="rgb(0,255,0)" r="2" stroke="rgb(0,255,0)" /><circle cx="181.22426239110357" cy="-159.3705809212891" fill="rgb(0,255,0)" r="2" stroke="rgb(0,255,0)" /><circle cx="270.520460502231" cy="-169.8648836085809" fill="rgb(0,255,0)" r="2" stroke="rgb(0,255,0)" /><circle cx="195.73476122342447" cy="-184.3710801194818" fill="rgb(0,255,0)" r="2" stroke="rgb(0,255,0)" /><circle cx="190.85819446723983" cy="-161.96623557593801" fill="rgb(0,255,0)" r="2" stroke="rgb(0,255,0)" /><line stroke="rgb(139,69,19)" x1="0" x2="-61.35199782188549" y1="0" y2="-94.90109447285766" /><line stroke="rgb(139,69,19)" x1="0" x2="28.070081652442724" y1="0" y2="-105.08400675210899" /><line stroke="rgb(139,69,19)" x1="0" x2="55.20146565028075" y1="0" y2="-133.4542797123993" /><line stroke="rgb(139,69,19)" x1="0" x2="50.2011412502986" y1="0" y2="-111.18054903649055" /><line stroke="rgb(139,69,19)" x1="-61.35199782188549" x2="-144.04789652397398" y1="-94.90109447285766" y2="-140.9995688056931" /><line stroke="rgb(139,69,19)" x1="-61.35199782188549" x2="-227.80072465203938" y1="-94.90109447285766" y2="-173.95641472681254" /><line stroke="rgb(139,69,19)" x1="-61.35199782188549" x2="-216.87366330998984" y1="-94.90109447285766" y2="-143.70061071379848" /><line stroke="rgb(139,69,19)" x1="-61.35199782188549" x2="-201.73030531301433" y1="-94.90109447285766" y2="-161.28482699107047" /><line stroke="rgb(139,69,19)" x1="28.070081652442724" x2="92.99791562104427" y1="-105.08400675210899" y2="-195.7887103693401" /><line stroke="rgb(139,69,19)" x1="28.070081652442724" x2="176.3418233353989" y1="-105.08400675210899" y2="-229.39111856024826" /><line stroke="rgb(139,69,19)" x1="28.070081652442724" x2="147.6514244889578" y1="-105.08400675210899" y2="-243.83801443506448" /><line stroke="rgb(139,69,19)" x1="28.070081652442724" x2="148.94695640911442" y1="-105.08400675210899" y2="-220.6215236466653" /><line stroke="rgb(139,69,19)" x1="55.20146565028075" x2="-4.474894162478364" y1="-133.4542797123993" y2="-114.76778146975931" /><line stroke="rgb(139,69,19)" x1="55.20146565028075" x2="-84.26020975324845" y1="-133.4542797123993" y2="-73.31361128738521" /><line stroke="rgb(139,69,19)" x1="55.20146565028075" x2="-54.31508773077832" y1="-133.4542797123993" y2="-61.681181442903224" /><line stroke="rgb(139,69,19)" x1="55.20146565028075" x2="-57.689089224151886" y1="-133.4542797123993" y2="-84.67755659006619" /><line stroke="rgb(139,69,19)" x1="50.2011412502986" x2="123.59574429759175" y1="-111.18054903649055" y2="-188.93918992507525" /><line stroke="rgb(139,69,19)" x1="50.2011412502986" x2="211.7811700506362" y1="-111.18054903649055" y2="-206.50330328762522" /><line stroke="rgb(139,69,19)" x1="50.2011412502986" x2="186.26979392354892" y1="-111.18054903649055" y2="-226.0231371435562" /><line stroke="rgb(139,69,19)" x1="50.2011412502986" x2="183.12934090347346" y1="-111.18054903649055" y2="-203.34871464253948" /><line stroke="rgb(139,69,19)" x1="-144.04789652397398" x2="-107.218614465473" y1="-140.9995688056931" y2="-105.61809273096479" /><line stroke="rgb(139,69,19)" x1="-144.04789652397398" x2="-32.99799421546919" y1="-140.9995688056931" y2="-156.36170883483933" /><line stroke="rgb(139,69,19)" x1="-144.04789652397398" x2="-105.97228064241813" y1="-140.9995688056931" y2="-134.49651759101545" /><line stroke="rgb(139,69,19)" x1="-144.04789652397398" x2="-99.98388127011772" y1="-140.9995688056931" y2="-112.11461760038966" /><line stroke="rgb(139,69,19)" x1="-227.80072465203938" x2="-152.35226112244843" y1="-173.95641472681254" y2="-247.54730010177778" /><line stroke="rgb(139,69,19)" x1="-227.80072465203938" x2="-200.90718630756322" y1="-173.95641472681254" y2="-323.3304069950697" /><line stroke="rgb(139,69,19)" x1="-227.80072465203938" x2="-181.23172122801853" y1="-173.95641472681254" y2="-249.735297928123" /><line stroke="rgb(139,69,19)" x1="-227.80072465203938" x2="-158.71615212316888" y1="-173.95641472681254" y2="-255.4209260063231" /><line stroke="rgb(139,69,19)" x1="-216.87366330998984" x2="-218.4673081731886" y1="-143.70061071379848" y2="-265.6853098820789" /><line stroke="rgb(139,69,19)" x1="-216.87366330998984" x2="-307.34010676038463" y1="-143.70061071379848" y2="-251.4212692374851" /><line stroke="rgb(139,69,19)" x1="-216.87366330998984" x2="-231.99329229367876" y1="-143.70061071379848" y2="-240.06849015585135" /><line stroke="rgb(139,69,19)" x1="-216.87366330998984" x2="-228.23494908522372" y1="-143.70061071379848" y2="-262.95234231415867" /><line stroke="rgb(139,69,19)" x1="-201.73030531301433" x2="-123.06624639098074" y1="-161.28482699107047" y2="-226.76058635526678" /><line stroke="rgb(139,69,19)" x1="-201.73030531301433" x2="-163.3907709559229" y1="-161.28482699107047" y2="-307.21818809194895" /><line stroke="rgb(139,69,19)" x1="-201.73030531301433" x2="-151.55329418090085" y1="-161.28482699107047" y2="-231.963720904045" /><line stroke="rgb(139,69,19)" x1="-201.73030531301433" x2="-128.79412299017247" y1="-161.28482699107047" y2="-235.19054902743076" /><line stroke="rgb(139,69,19)" x1="92.99791562104427" x2="13.027611904773991" y1="-195.7887103693401" y2="-212.5682125457654" /><line stroke="rgb(139,69,19)" x1="92.99791562104427" x2="38.621053285358485" y1="-195.7887103693401" y2="-153.8375881314336" /><line stroke="rgb(139,69,19)" x1="92.99791562104427" x2="30.83567734020201" y1="-195.7887103693401" y2="-229.6202771196943" /><line stroke="rgb(139,69,19)" x1="92.99791562104427" x2="7.8780543946436925" y1="-195.7887103693401" y2="-227.92410029574575" /><line stroke="rgb(139,69,19)" x1="176.3418233353989" x2="240.6664469844885" y1="-229.39111856024826" y2="-215.93787469103665" /><line stroke="rgb(139,69,19)" x1="176.3418233353989" x2="287.22566417612586" y1="-229.39111856024826" y2="-292.8848340413994" /><line stroke="rgb(139,69,19)" x1="176.3418233353989" x2="229.85681742356576" y1="-229.39111856024826" y2="-242.7637535328097" /><line stroke="rgb(139,69,19)" x1="176.3418233353989" x2="244.77662076995767" y1="-229.39111856024826" y2="-224.84696436190077" /><line stroke="rgb(139,69,19)" x1="147.6514244889578" x2="178.002568915058" y1="-243.83801443506448" y2="-360.0896036227699" /><line stroke="rgb(139,69,19)" x1="147.6514244889578" x2="91.01860086933637" y1="-243.83801443506448" y2="-380.86219347979977" /><line stroke="rgb(139,69,19)" x1="147.6514244889578" x2="156.24130500216842" y1="-243.83801443506448" y2="-341.4992900906931" /><line stroke="rgb(139,69,19)" x1="147.6514244889578" x2="168.6407352230574" y1="-243.83801443506448" y2="-361.23435104059547" /><line stroke="rgb(139,69,19)" x1="148.94695640911442" x2="65.98162806725291" y1="-220.6215236466653" y2="-262.02033442017637" /><line stroke="rgb(139,69,19)" x1="148.94695640911442" x2="75.63757025647409" y1="-220.6215236466653" y2="-175.4151079451968" /><line stroke="rgb(139,69,19)" x1="148.94695640911442" x2="90.59113142699493" y1="-220.6215236466653" y2="-250.11655926455438" /><line stroke="rgb(139,69,19)" x1="148.94695640911442" x2="67.82594279032607" y1="-220.6215236466653" y2="-255.08925682123137" /><line stroke="rgb(139,69,19)" x1="-4.474894162478364" x2="-53.995078344386066" y1="-114.76778146975931" y2="-87.1588379367026" /><line stroke="rgb(139,69,19)" x1="-4.474894162478364" x2="24.482081179365203" y1="-114.76778146975931" y2="-44.35246552944454" /><line stroke="rgb(139,69,19)" x1="-4.474894162478364" x2="-28.15824822057067" y1="-114.76778146975931" y2="-99.42113030496677" /><line stroke="rgb(139,69,19)" x1="-4.474894162478364" x2="-45.256445054055696" y1="-114.76778146975931" y2="-83.6092392353956" /><line stroke="rgb(139,69,19)" x1="-84.26020975324845" x2="-5.422569862275381" y1="-73.31361128738521" y2="-138.26792762246237" /><line stroke="rgb(139,69,19)" x1="-84.26020975324845" x2="-45.06420736478327" y1="-73.31361128738521" y2="-218.68795877936134" /><line stroke="rgb(139,69,19)" x1="-84.26020975324845" x2="-33.725479217976066" y1="-73.31361128738521" y2="-143.35612292361418" /><line stroke="rgb(139,69,19)" x1="-84.26020975324845" x2="-10.918403514953425" y1="-73.31361128738521" y2="-146.1585901408326" /><line stroke="rgb(139,69,19)" x1="-54.31508773077832" x2="-28.29916319776747" y1="-61.681181442903224" y2="-179.49851247290377" /><line stroke="rgb(139,69,19)" x1="-54.31508773077832" x2="-116.81981896666426" y1="-61.681181442903224" y2="-195.5039875043011" /><line stroke="rgb(139,69,19)" x1="-54.31508773077832" x2="-49.46661821492722" y1="-61.681181442903224" y2="-159.75895460184267" /><line stroke="rgb(139,69,19)" x1="-54.31508773077832" x2="-38.07618079833948" y1="-61.681181442903224" y2="-180.10957527407464" /><line stroke="rgb(139,69,19)" x1="-57.689089224151886" x2="-5.086778683064786" y1="-84.67755659006619" y2="-59.47477685476939" /><line stroke="rgb(139,69,19)" x1="-57.689089224151886" x2="41.61356347764152" y1="-84.67755659006619" y2="-110.16555488922059" /><line stroke="rgb(139,69,19)" x1="-57.689089224151886" x2="-24.580952939970228" y1="-84.67755659006619" y2="-72.46081558351841" /><line stroke="rgb(139,69,19)" x1="-57.689089224151886" x2="-13.415432375980885" y1="-84.67755659006619" y2="-51.99927990682848" /><line stroke="rgb(139,69,19)" x1="123.59574429759175" x2="44.18871252190404" y1="-188.93918992507525" y2="-252.0954169602503" /><line stroke="rgb(139,69,19)" x1="123.59574429759175" x2="30.020055635760777" y1="-188.93918992507525" y2="-161.63857541345237" /><line stroke="rgb(139,69,19)" x1="123.59574429759175" x2="64.12784433173013" y1="-188.93918992507525" y2="-229.77964273474475" /><line stroke="rgb(139,69,19)" x1="123.59574429759175" x2="43.53664953038958" y1="-188.93918992507525" y2="-240.71160664549527" /><line stroke="rgb(139,69,19)" x1="211.7811700506362" x2="212.60773492067747" y1="-206.50330328762522" y2="-328.49918746579164" /><line stroke="rgb(139,69,19)" x1="211.7811700506362" x2="123.56285395385252" y1="-206.50330328762522" y2="-316.8593497419224" /><line stroke="rgb(139,69,19)" x1="211.7811700506362" x2="198.53366094014345" y1="-206.50330328762522" y2="-303.3241222528056" /><line stroke="rgb(139,69,19)" x1="211.7811700506362" x2="203.175483542029" y1="-206.50330328762522" y2="-325.7963138988553" /><line stroke="rgb(139,69,19)" x1="186.26979392354892" x2="135.36017089060954" y1="-226.0231371435562" y2="-330.5762475399669" /><line stroke="rgb(139,69,19)" x1="186.26979392354892" x2="75.30663023537882" y1="-226.0231371435562" y2="-268.7106676931247" /><line stroke="rgb(139,69,19)" x1="186.26979392354892" x2="142.47111017093113" y1="-226.0231371435562" y2="-304.67614422152974" /><line stroke="rgb(139,69,19)" x1="186.26979392354892" x2="132.03178582389833" y1="-226.0231371435562" y2="-325.4845774386648" /><line stroke="rgb(139,69,19)" x1="183.12934090347346" x2="181.22426239110357" y1="-203.34871464253948" y2="-159.3705809212891" /><line stroke="rgb(139,69,19)" x1="183.12934090347346" x2="270.520460502231" y1="-203.34871464253948" y2="-169.8648836085809" /><line stroke="rgb(139,69,19)" x1="183.12934090347346" x2="195.73476122342447" y1="-203.34871464253948" y2="-184.3710801194818" /><line stroke="rgb(139,69,19)" x1="183.12934090347346" x2="190.85819446723983" y1="-203.34871464253948" y2="-161.96623557593801" /><circle cx="0" cy="-300" fill="rgb(255,255,0)" r="10" stroke="rgb(255,255,0)" /></svg>