<?xml version="1.0" encoding="utf-8" ?>
<svg baseProfile="full" height="100%" version="1.1" viewBox="-400 -400 800 400" width="100%" xmlns="http://www.w3.org/2000/svg" xmlns:ev="http://www.w3.org/2001/xml-events" xmlns:xlink="http://www.w3.org/1999/xlink"><defs /><circle cx="0.0" cy="-139.86849999999998" fill="rgb(0,255,0)" r="2" stroke="rgb(0,255,0)" /><circle cx="-3.195648130460003" cy="-153.3674044332529" fill="rgb(0,255,0)" r="2" stroke="rgb(0,255,0)" /><circle cx="54.75793390437745" cy="-147.2203232406192" fill="rgb(0,255,0)" r="2" stroke="rgb(0,255,0)" /><circle cx="77.662699001189" cy="-147.72656471860043" fill="rgb(0,255,0)" r="2" stroke="rgb(0,255,0)" /><circle cx="-3.4546467115328894" cy="-154.08480624330696" fill="rgb(0,255,0)" r="2" stroke="rgb(0,255,0)" /><circle cx="-0.26066973817301164" cy="-167.59429981625837" fill="rgb(0,255,0)" r="2" stroke="rgb(0,255,0)" /><circle cx="-57.29065078035674" cy="-155.5949023236527" fill="rgb(0,255,0)" r="2" stroke="rgb(0,255,0)" /><circle cx="-78.92610849701016" cy="-148.05944379737554" fill="rgb(0,255,0)" r="2" stroke="rgb(0,255,0)" /><circle cx="81.16355584308288" cy="-155.91203817270082" fill="rgb(0,255,0)" r="2" stroke="rgb(0,255,0)" /><circle cx="78.13994297789705" cy="-167.76363151619162" fill="rgb(0,255,0)" r="2" stroke="rgb(0,255,0)" /><circle cx="131.53778073454515" cy="-191.1104771440745" fill="rgb(0,255,0)" r="2" stroke="rgb(0,255,0)" /><circle cx="151.1600318199863" cy="-202.8713439385165" fill="rgb(0,255,0)" r="2" stroke="rgb(0,255,0)" /><circle cx="104.09378241774058" cy="-156.44418261206363" fill="rgb(0,255,0)" r="2" stroke="rgb(0,255,0)" /><circle cx="106.80610382571555" cy="-167.68225605653626" fill="rgb(0,255,0)" r="2" stroke="rgb(0,255,0)" /><circle cx="56.43172294088785" cy="-196.98798976732556" fill="rgb(0,255,0)" r="2" stroke="rgb(0,255,0)" /><circle cx="35.354637726619856" cy="-205.87754292503033" fill="rgb(0,255,0)" r="2" stroke="rgb(0,255,0)" /><circle cx="-34.2394510480031" cy="-160.09437125927042" fill="rgb(0,255,0)" r="2" stroke="rgb(0,255,0)" /><circle cx="-31.360115805404913" cy="-171.62110917533423" fill="rgb(0,255,0)" r="2" stroke="rgb(0,255,0)" /><circle cx="-84.48443394267116" cy="-195.58381145007758" fill="rgb(0,255,0)" r="2" stroke="rgb(0,255,0)" /><circle cx="-106.36697541613954" cy="-202.25636280938548" fill="rgb(0,255,0)" r="2" stroke="rgb(0,255,0)" /><circle cx="-31.12675352275625" cy="-172.07207199602152" fill="rgb(0,255,0)" r="2" stroke="rgb(0,255,0)" /><circle cx="-34.047451002956095" cy="-186.46153190418232" fill="rgb(0,255,0)" r="2" stroke="rgb(0,255,0)" /><circle cx="19.747000185440104" cy="-164.04365289664185" fill="rgb(0,255,0)" r="2" stroke="rgb(0,255,0)" /><circle cx="41.83912337678172" cy="-157.99900059276902" fill="rgb(0,255,0)" r="2" stroke="rgb(0,255,0)" /><circle cx="-112.04484388697989" cy="-198.12246881798384" fill="rgb(0,255,0)" r="2" stroke="rgb(0,255,0)" /><circle cx="-113.19461569126206" cy="-214.14556282997052" fill="rgb(0,255,0)" r="2" stroke="rgb(0,255,0)" /><circle cx="-89.82366148942883" cy="-160.75827241780144" fill="rgb(0,255,0)" r="2" stroke="rgb(0,255,0)" /><circle cx="-78.0346118336788" cy="-141.10912600119255" fill="rgb(0,255,0)" r="2" stroke="rgb(0,255,0)" /><circle cx="-133.95648366715974" cy="-205.1379642107851" fill="rgb(0,255,0)" r="2" stroke="rgb(0,255,0)" /><circle cx="-133.0504535693495" cy="-215.03309995141822" fill="rgb(0,255,0)" r="2" stroke="rgb(0,255,0)" /><circle cx="-152.1072869731474" cy="-270.10797061379344" fill="rgb(0,255,0)" r="2" stroke="rgb(0,255,0)" /><circle cx="-162.2580663163324" cy="-290.55004419913666" fill="rgb(0,255,0)" r="2" stroke="rgb(0,255,0)" /><circle cx="58.148771611688716" cy="-191.44864755190926" fill="rgb(0,255,0)" r="2" stroke="rgb(0,255,0)" /><circle cx="58.741104913647376" cy="-207.6283038016669" fill="rgb(0,255,0)" r="2" stroke="rgb(0,255,0)" /><circle cx="50.89843084499814" cy="-149.87973895967" fill="rgb(0,255,0)" r="2" stroke="rgb(0,255,0)" /><circle cx="50.733177952371044" cy="-126.95732512029166" fill="rgb(0,255,0)" r="2" stroke="rgb(0,255,0)" /><circle cx="58.78911191519026" cy="-208.70787422096728" fill="rgb(0,255,0)" r="2" stroke="rgb(0,255,0)" /><circle cx="61.16384355162467" cy="-223.90371626040215" fill="rgb(0,255,0)" r="2" stroke="rgb(0,255,0)" /><circle cx="20.37192167490332" cy="-182.28132580212832" fill="rgb(0,255,0)" r="2" stroke="rgb(0,255,0)" /><circle cx="6.557553896896725" cy="-164.01668188288232" fill="rgb(0,255,0)" r="2" stroke="rgb(0,255,0)" /><circle cx="58.048990804249584" cy="-119.84337245377606" fill="rgb(0,255,0)" r="2" stroke="rgb(0,255,0)" /><circle cx="58.32163539020833" cy="-136.06621863952233" fill="rgb(0,255,0)" r="2" stroke="rgb(0,255,0)" /><circle cx="56.270612171203666" cy="-77.82364330487039" fill="rgb(0,255,0)" r="2" stroke="rgb(0,255,0)" /><circle cx="58.39364103460167" cy="-54.955306270991905" fill="rgb(0,255,0)" r="2" stroke="rgb(0,255,0)" /><circle cx="57.88339241449122" cy="-95.72451741364847" fill="rgb(0,255,0)" r="2" stroke="rgb(0,255,0)" /><circle cx="57.6210449637766" cy="-111.94821814763968" fill="rgb(0,255,0)" r="2" stroke="rgb(0,255,0)" /><circle cx="65.19893542742533" cy="-54.164311616683094" fill="rgb(0,255,0)" r="2" stroke="rgb(0,255,0)" /><circle cx="71.06615886406094" cy="-31.945290250046355" fill="rgb(0,255,0)" r="2" stroke="rgb(0,255,0)" /><circle cx="81.08813724435457" cy="-192.00762190898323" fill="rgb(0,255,0)" r="2" stroke="rgb(0,255,0)" /><circle cx="78.15964854333859" cy="-203.63465922367322" fill="rgb(0,255,0)" r="2" stroke="rgb(0,255,0)" /><circle cx="129.64657811029124" cy="-230.9385117288616" fill="rgb(0,255,0)" r="2" stroke="rgb(0,255,0)" /><circle cx="148.30644876918373" cy="-244.12996698973606" fill="rgb(0,255,0)" r="2" stroke="rgb(0,255,0)" /><circle cx="77.92230250670158" cy="-204.09917245715332" fill="rgb(0,255,0)" r="2" stroke="rgb(0,255,0)" /><circle cx="80.81665052779968" cy="-218.5427174477918" fill="rgb(0,255,0)" r="2" stroke="rgb(0,255,0)" /><circle cx="30.006686562929573" cy="-189.99885926873714" fill="rgb(0,255,0)" r="2" stroke="rgb(0,255,0)" /><circle cx="11.638976729378951" cy="-176.3343613368178" fill="rgb(0,255,0)" r="2" stroke="rgb(0,255,0)" /><circle cx="147.10768797330903" cy="-255.2876256344012" fill="rgb(0,255,0)" r="2" stroke="rgb(0,255,0)" /><circle cx="150.0963427492585" cy="-269.5241591913362" fill="rgb(0,255,0)" r="2" stroke="rgb(0,255,0)" /><circle cx="97.40572735211873" cy="-244.62228522714943" fill="rgb(0,255,0)" r="2" stroke="rgb(0,255,0)" /><circle cx="78.15158051870068" cy="-232.30093472092548" fill="rgb(0,255,0)" r="2" stroke="rgb(0,255,0)" /><circle cx="165.7829412392521" cy="-269.1500720076334" fill="rgb(0,255,0)" r="2" stroke="rgb(0,255,0)" /><circle cx="168.51186967690927" cy="-283.8861659536449" fill="rgb(0,255,0)" r="2" stroke="rgb(0,255,0)" /><circle cx="120.93815550670186" cy="-250.22393195307757" fill="rgb(0,255,0)" r="2" stroke="rgb(0,255,0)" /><circle cx="104.11362416475369" cy="-234.7511950105504" fill="rgb(0,255,0)" r="2" stroke="rgb(0,255,0)" /><line stroke="rgb(139,69,19)" x1="0" x2="0.0" y1="0" y2="-43.4" /><line stroke="rgb(139,69,19)" x1="0" x2="-34.2394510480031" y1="0" y2="-61.745461459655715" /><line stroke="rgb(139,69,19)" x1="0" x2="58.148771611688716" y1="0" y2="-90.18471433279751" /><line stroke="rgb(139,69,19)" x1="0" x2="81.08813724435457" y1="0" y2="-90.69172055236575" /><line stroke="rgb(139,69,19)" x1="0.0" x2="0.0" y1="-43.4" y2="-89.97" /><line stroke="rgb(139,69,19)" x1="0.0" x2="-3.4546467115328894" y1="-43.4" y2="-103.50933927933995" /><line stroke="rgb(139,69,19)" x1="0.0" x2="81.16355584308288" y1="-43.4" y2="-105.24956016447696" /><line stroke="rgb(139,69,19)" x1="0.0" x2="104.09378241774058" y1="-43.4" y2="-105.75636439244154" /><line stroke="rgb(139,69,19)" x1="-34.2394510480031" x2="-34.2394510480031" y1="-61.745461459655715" y2="-109.2327345326385" /><line stroke="rgb(139,69,19)" x1="-34.2394510480031" x2="-31.12675352275625" y1="-61.745461459655715" y2="-120.64006856763955" /><line stroke="rgb(139,69,19)" x1="-34.2394510480031" x2="-112.04484388697989" y1="-61.745461459655715" y2="-145.44997030284176" /><line stroke="rgb(139,69,19)" x1="-34.2394510480031" x2="-133.95648366715974" y1="-61.745461459655715" y2="-152.131394486462" /><line stroke="rgb(139,69,19)" x1="58.148771611688716" x2="58.148771611688716" y1="-90.18471433279751" y2="-139.09395004943738" /><line stroke="rgb(139,69,19)" x1="58.148771611688716" x2="58.78911191519026" y1="-90.18471433279751" y2="-155.5313087818736" /><line stroke="rgb(139,69,19)" x1="58.148771611688716" x2="58.048990804249584" y1="-90.18471433279751" y2="-70.8984499559772" /><line stroke="rgb(139,69,19)" x1="58.148771611688716" x2="57.88339241449122" y1="-90.18471433279751" y2="-47.92811182252236" /><line stroke="rgb(139,69,19)" x1="81.08813724435457" x2="81.08813724435457" y1="-90.69172055236575" y2="-139.62630657998403" /><line stroke="rgb(139,69,19)" x1="81.08813724435457" x2="77.92230250670158" y1="-90.69172055236575" y2="-151.14206900681268" /><line stroke="rgb(139,69,19)" x1="81.08813724435457" x2="147.10768797330903" y1="-90.69172055236575" y2="-199.89297679466782" /><line stroke="rgb(139,69,19)" x1="81.08813724435457" x2="165.7829412392521" y1="-90.69172055236575" y2="-213.09530667393662" /><line stroke="rgb(139,69,19)" x1="0.0" x2="0.0" y1="-89.97" y2="-139.86849999999998" /><line stroke="rgb(139,69,19)" x1="0.0" x2="-3.195648130460003" y1="-89.97" y2="-153.3674044332529" /><line stroke="rgb(139,69,19)" x1="0.0" x2="54.75793390437745" y1="-89.97" y2="-147.2203232406192" /><line stroke="rgb(139,69,19)" x1="0.0" x2="77.662699001189" y1="-89.97" y2="-147.72656471860043" /><line stroke="rgb(139,69,19)" x1="-3.4546467115328894" x2="-3.4546467115328894" y1="-103.50933927933995" y2="-154.08480624330696" /><line stroke="rgb(139,69,19)" x1="-3.4546467115328894" x2="-0.26066973817301164" y1="-103.50933927933995" y2="-167.59429981625837" /><line stroke="rgb(139,69,19)" x1="-3.4546467115328894" x2="-57.29065078035674" y1="-103.50933927933995" y2="-155.5949023236527" /><line stroke="rgb(139,69,19)" x1="-3.4546467115328894" x2="-78.92610849701016" y1="-103.50933927933995" y2="-148.05944379737554" /><line stroke="rgb(139,69,19)" x1="81.16355584308288" x2="81.16355584308288" y1="-105.24956016447696" y2="-155.91203817270082" /><line stroke="rgb(139,69,19)" x1="81.16355584308288" x2="78.13994297789705" y1="-105.24956016447696" y2="-167.76363151619162" /><line stroke="rgb(139,69,19)" x1="81.16355584308288" x2="131.53778073454515" y1="-105.24956016447696" y2="-191.1104771440745" /><line stroke="rgb(139,69,19)" x1="81.16355584308288" x2="151.1600318199863" y1="-105.24956016447696" y2="-202.8713439385165" /><line stroke="rgb(139,69,19)" x1="104.09378241774058" x2="104.09378241774058" y1="-105.75636439244154" y2="-156.44418261206363" /><line stroke="rgb(139,69,19)" x1="104.09378241774058" x2="106.80610382571555" y1="-105.75636439244154" y2="-167.68225605653626" /><line stroke="rgb(139,69,19)" x1="104.09378241774058" x2="56.43172294088785" y1="-105.75636439244154" y2="-196.98798976732556" /><line stroke="rgb(139,69,19)" x1="104.09378241774058" x2="35.354637726619856" y1="-105.75636439244154" y2="-205.87754292503033" /><line stroke="rgb(139,69,19)" x1="-34.2394510480031" x2="-34.2394510480031" y1="-109.2327345326385" y2="-160.09437125927042" /><line stroke="rgb(139,69,19)" x1="-34.2394510480031" x2="-31.360115805404913" y1="-109.2327345326385" y2="-171.62110917533423" /><line stroke="rgb(139,69,19)" x1="-34.2394510480031" x2="-84.48443394267116" y1="-109.2327345326385" y2="-195.58381145007758" /><line stroke="rgb(139,69,19)" x1="-34.2394510480031" x2="-106.36697541613954" y1="-109.2327345326385" y2="-202.25636280938548" /><line stroke="rgb(139,69,19)" x1="-31.12675352275625" x2="-31.12675352275625" y1="-120.64006856763955" y2="-172.07207199602152" /><line stroke="rgb(139,69,19)" x1="-31.12675352275625" x2="-34.047451002956095" y1="-120.64006856763955" y2="-186.46153190418232" /><line stroke="rgb(139,69,19)" x1="-31.12675352275625" x2="19.747000185440104" y1="-120.64006856763955" y2="-164.04365289664185" /><line stroke="rgb(139,69,19)" x1="-31.12675352275625" x2="41.83912337678172" y1="-120.64006856763955" y2="-157.99900059276902" /><line stroke="rgb(139,69,19)" x1="-112.04484388697989" x2="-112.04484388697989" y1="-145.44997030284176" y2="-198.12246881798384" /><line stroke="rgb(139,69,19)" x1="-112.04484388697989" x2="-113.19461569126206" y1="-145.44997030284176" y2="-214.14556282997052" /><line stroke="rgb(139,69,19)" x1="-112.04484388697989" x2="-89.82366148942883" y1="-145.44997030284176" y2="-160.75827241780144" /><line stroke="rgb(139,69,19)" x1="-112.04484388697989" x2="-78.0346118336788" y1="-145.44997030284176" y2="-141.10912600119255" /><line stroke="rgb(139,69,19)" x1="-133.95648366715974" x2="-133.95648366715974" y1="-152.131394486462" y2="-205.1379642107851" /><line stroke="rgb(139,69,19)" x1="-133.95648366715974" x2="-133.0504535693495" y1="-152.131394486462" y2="-215.03309995141822" /><line stroke="rgb(139,69,19)" x1="-133.95648366715974" x2="-152.1072869731474" y1="-152.131394486462" y2="-270.10797061379344" /><line stroke="rgb(139,69,19)" x1="-133.95648366715974" x2="-162.2580663163324" y1="-152.131394486462" y2="-290.55004419913666" /><line stroke="rgb(139,69,19)" x1="58.148771611688716" x2="58.148771611688716" y1="-139.09395004943738" y2="-191.44864755190926" /><line stroke="rgb(139,69,19)" x1="58.148771611688716" x2="58.741104913647376" y1="-139.09395004943738" y2="-207.6283038016669" /><line stroke="rgb(139,69,19)" x1="58.148771611688716" x2="50.89843084499814" y1="-139.09395004943738" y2="-149.87973895967" /><line stroke="rgb(139,69,19)" x1="58.148771611688716" x2="50.733177952371044" y1="-139.09395004943738" y2="-126.95732512029166" /><line stroke="rgb(139,69,19)" x1="58.78911191519026" x2="58.78911191519026" y1="-155.5313087818736" y2="-208.70787422096728" /><line stroke="rgb(139,69,19)" x1="58.78911191519026" x2="61.16384355162467" y1="-155.5313087818736" y2="-223.90371626040215" /><line stroke="rgb(139,69,19)" x1="58.78911191519026" x2="20.37192167490332" y1="-155.5313087818736" y2="-182.28132580212832" /><line stroke="rgb(139,69,19)" x1="58.78911191519026" x2="6.557553896896725" y1="-155.5313087818736" y2="-164.01668188288232" /><line stroke="rgb(139,69,19)" x1="58.048990804249584" x2="58.048990804249584" y1="-70.8984499559772" y2="-119.84337245377606" /><line stroke="rgb(139,69,19)" x1="58.048990804249584" x2="58.32163539020833" y1="-70.8984499559772" y2="-136.06621863952233" /><line stroke="rgb(139,69,19)" x1="58.048990804249584" x2="56.270612171203666" y1="-70.8984499559772" y2="-77.82364330487039" /><line stroke="rgb(139,69,19)" x1="58.048990804249584" x2="58.39364103460167" y1="-70.8984499559772" y2="-54.955306270991905" /><line stroke="rgb(139,69,19)" x1="57.88339241449122" x2="57.88339241449122" y1="-47.92811182252236" y2="-95.72451741364847" /><line stroke="rgb(139,69,19)" x1="57.88339241449122" x2="57.6210449637766" y1="-47.92811182252236" y2="-111.94821814763968" /><line stroke="rgb(139,69,19)" x1="57.88339241449122" x2="65.19893542742533" y1="-47.92811182252236" y2="-54.164311616683094" /><line stroke="rgb(139,69,19)" x1="57.88339241449122" x2="71.06615886406094" y1="-47.92811182252236" y2="-31.945290250046355" /><line stroke="rgb(139,69,19)" x1="81.08813724435457" x2="81.08813724435457" y1="-139.62630657998403" y2="-192.00762190898323" /><line stroke="rgb(139,69,19)" x1="81.08813724435457" x2="78.15964854333859" y1="-139.62630657998403" y2="-203.63465922367322" /><line stroke="rgb(139,69,19)" x1="81.08813724435457" x2="129.64657811029124" y1="-139.62630657998403" y2="-230.9385117288616" /><line stroke="rgb(139,69,19)" x1="81.08813724435457" x2="148.30644876918373" y1="-139.62630657998403" y2="-244.12996698973606" /><line stroke="rgb(139,69,19)" x1="77.92230250670158" x2="77.92230250670158" y1="-151.14206900681268" y2="-204.09917245715332" /><line stroke="rgb(139,69,19)" x1="77.92230250670158" x2="80.81665052779968" y1="-151.14206900681268" y2="-218.5427174477918" /><line stroke="rgb(139,69,19)" x1="77.92230250670158" x2="30.006686562929573" y1="-151.14206900681268" y2="-189.99885926873714" /><line stroke="rgb(139,69,19)" x1="77.92230250670158" x2="11.638976729378951" y1="-151.14206900681268" y2="-176.3343613368178" /><line stroke="rgb(139,69,19)" x1="147.10768797330903" x2="147.10768797330903" y1="-199.89297679466782" y2="-255.2876256344012" /><line stroke="rgb(139,69,19)" x1="147.10768797330903" x2="150.0963427492585" y1="-199.89297679466782" y2="-269.5241591913362" /><line stroke="rgb(139,69,19)" x1="147.10768797330903" x2="97.40572735211873" y1="-199.89297679466782" y2="-244.62228522714943" /><line stroke="rgb(139,69,19)" x1="147.10768797330903" x2="78.15158051870068" y1="-199.89297679466782" y2="-232.30093472092548" /><line stroke="rgb(139,69,19)" x1="165.7829412392521" x2="165.7829412392521" y1="-213.09530667393662" y2="-269.1500720076334" /><line stroke="rgb(139,69,19)" x1="165.7829412392521" x2="168.51186967690927" y1="-213.09530667393662" y2="-283.8861659536449" /><line stroke="rgb(139,69,19)" x1="165.7829412392521" x2="120.93815550670186" y1="-213.09530667393662" y2="-250.22393195307757" /><line stroke="rgb(139,69,19)" x1="165.7829412392521" x2="104.11362416475369" y1="-213.09530667393662" y2="-234.7511950105504" /><circle cx="0" cy="-300" fill="rgb(255,255,0)" r="10" stroke="rgb(255,255,0)" /></svg>