<?xml version="1.0" encoding="utf-8" ?>
<svg baseProfile="full" height="100%" version="1.1" viewBox="-400 -400 800 400" width="100%" xmlns="http://www.w3.org/2000/svg" xmlns:ev="http://www.w3.org/2001/xml-events" xmlns:xlink="http://www.w3.org/1999/xlink"><defs /><circle cx="0.0" cy="-39.0" fill="rgb(0,255,0)" r="2" stroke="rgb(0,255,0)" /><circle cx="-14.605047730130996" cy="-38.28948001426735" fill="rgb(0,255,0)" r="2" stroke="rgb(0,255,0)" /><circle cx="-0.9155427879727185" cy="-67.71368164649309" fill="rgb(0,255,0)" r="2" stroke="rgb(0,255,0)" /><circle cx="5.425669560027597" cy="-72.78639902673277" fill="rgb(0,255,0)" r="2" stroke="rgb(0,255,0)" /><circle cx="6.385186334144876" cy="-62.017543571459484" fill="rgb(0,255,0)" r="2" stroke="rgb(0,255,0)" /><circle cx="-8.671627606916532" cy="-67.67620813419235" fill="rgb(0,255,0)" r="2" stroke="rgb(0,255,0)" /><circle cx="5.017877335241746" cy="-97.10040976641808" fill="rgb(0,255,0)" r="2" stroke="rgb(0,255,0)" /><circle cx="11.359089683242061" cy="-102.17312714665776" fill="rgb(0,255,0)" r="2" stroke="rgb(0,255,0)" /><circle cx="38.54126934524139" cy="-66.39618635646963" fill="rgb(0,255,0)" r="2" stroke="rgb(0,255,0)" /><circle cx="21.209340627559705" cy="-104.1303482243065" fill="rgb(0,255,0)" r="2" stroke="rgb(0,255,0)" /><circle cx="34.898845569717984" cy="-133.55454985653222" fill="rgb(0,255,0)" r="2" stroke="rgb(0,255,0)" /><circle cx="41.2400579177183" cy="-138.6272672367719" fill="rgb(0,255,0)" r="2" stroke="rgb(0,255,0)" /><circle cx="47.54652595775938" cy="-70.38381081393084" fill="rgb(0,255,0)" r="2" stroke="rgb(0,255,0)" /><circle cx="29.577455198264737" cy="-117.10066140374029" fill="rgb(0,255,0)" r="2" stroke="rgb(0,255,0)" /><circle cx="43.266960140423016" cy="-146.524863035966" fill="rgb(0,255,0)" r="2" stroke="rgb(0,255,0)" /><circle cx="49.608172488423335" cy="-151.5975804162057" fill="rgb(0,255,0)" r="2" stroke="rgb(0,255,0)" /><circle cx="40.57909607872835" cy="-39.410933555105586" fill="rgb(0,255,0)" r="2" stroke="rgb(0,255,0)" /><circle cx="23.102986562908157" cy="-79.17781520027584" fill="rgb(0,255,0)" r="2" stroke="rgb(0,255,0)" /><circle cx="36.79249150506644" cy="-108.60201683250158" fill="rgb(0,255,0)" r="2" stroke="rgb(0,255,0)" /><circle cx="43.133703853066756" cy="-113.67473421274126" fill="rgb(0,255,0)" r="2" stroke="rgb(0,255,0)" /><circle cx="79.47360012259608" cy="-86.71442575154092" fill="rgb(0,255,0)" r="2" stroke="rgb(0,255,0)" /><circle cx="59.24561747443622" cy="-165.27833871460905" fill="rgb(0,255,0)" r="2" stroke="rgb(0,255,0)" /><circle cx="72.9351224165945" cy="-194.70254034683478" fill="rgb(0,255,0)" r="2" stroke="rgb(0,255,0)" /><circle cx="79.27633476459481" cy="-199.77525772707446" fill="rgb(0,255,0)" r="2" stroke="rgb(0,255,0)" /><circle cx="111.6296831336926" cy="-91.09306853655107" fill="rgb(0,255,0)" r="2" stroke="rgb(0,255,0)" /><circle cx="89.12658570891244" cy="-201.73247880472323" fill="rgb(0,255,0)" r="2" stroke="rgb(0,255,0)" /><circle cx="102.81609065107072" cy="-231.15668043694896" fill="rgb(0,255,0)" r="2" stroke="rgb(0,255,0)" /><circle cx="109.15730299907104" cy="-236.22939781718864" fill="rgb(0,255,0)" r="2" stroke="rgb(0,255,0)" /><circle cx="120.63493974621059" cy="-95.08069299401227" fill="rgb(0,255,0)" r="2" stroke="rgb(0,255,0)" /><circle cx="97.49470027961749" cy="-214.702791984157" fill="rgb(0,255,0)" r="2" stroke="rgb(0,255,0)" /><circle cx="111.18420522177577" cy="-244.12699361638272" fill="rgb(0,255,0)" r="2" stroke="rgb(0,255,0)" /><circle cx="117.52541756977608" cy="-249.1997109966224" fill="rgb(0,255,0)" r="2" stroke="rgb(0,255,0)" /><circle cx="61.63760273373559" cy="-14.718313509507611" fill="rgb(0,255,0)" r="2" stroke="rgb(0,255,0)" /><circle cx="42.67155678356081" cy="-75.49092751421647" fill="rgb(0,255,0)" r="2" stroke="rgb(0,255,0)" /><circle cx="56.36106172571909" cy="-104.9151291464422" fill="rgb(0,255,0)" r="2" stroke="rgb(0,255,0)" /><circle cx="62.70227407371941" cy="-109.98784652668188" fill="rgb(0,255,0)" r="2" stroke="rgb(0,255,0)" /><circle cx="117.40280498171663" cy="-74.62498961496817" fill="rgb(0,255,0)" r="2" stroke="rgb(0,255,0)" /><circle cx="94.49124627702449" cy="-191.02305382785215" fill="rgb(0,255,0)" r="2" stroke="rgb(0,255,0)" /><circle cx="108.18075121918277" cy="-220.44725546007788" fill="rgb(0,255,0)" r="2" stroke="rgb(0,255,0)" /><circle cx="114.52196356718308" cy="-225.51997284031756" fill="rgb(0,255,0)" r="2" stroke="rgb(0,255,0)" /><circle cx="149.55888799281314" cy="-79.00363239997833" fill="rgb(0,255,0)" r="2" stroke="rgb(0,255,0)" /><circle cx="124.37221451150072" cy="-227.4771939179663" fill="rgb(0,255,0)" r="2" stroke="rgb(0,255,0)" /><circle cx="138.06171945365898" cy="-256.90139555019203" fill="rgb(0,255,0)" r="2" stroke="rgb(0,255,0)" /><circle cx="144.4029318016593" cy="-261.9741129304317" fill="rgb(0,255,0)" r="2" stroke="rgb(0,255,0)" /><circle cx="158.5641446053311" cy="-82.99125685743952" fill="rgb(0,255,0)" r="2" stroke="rgb(0,255,0)" /><circle cx="132.74032908220573" cy="-240.44750709740003" fill="rgb(0,255,0)" r="2" stroke="rgb(0,255,0)" /><circle cx="146.429834024364" cy="-269.87170872962577" fill="rgb(0,255,0)" r="2" stroke="rgb(0,255,0)" /><circle cx="152.7710463723643" cy="-274.94442610986545" fill="rgb(0,255,0)" r="2" stroke="rgb(0,255,0)" /><circle cx="71.16917439496878" cy="-15.877943807874871" fill="rgb(0,255,0)" r="2" stroke="rgb(0,255,0)" /><circle cx="51.5287484364017" cy="-86.15824259582641" fill="rgb(0,255,0)" r="2" stroke="rgb(0,255,0)" /><circle cx="65.21825337855998" cy="-115.58244422805214" fill="rgb(0,255,0)" r="2" stroke="rgb(0,255,0)" /><circle cx="71.55946572656029" cy="-120.65516160829182" fill="rgb(0,255,0)" r="2" stroke="rgb(0,255,0)" /><circle cx="134.57044844718234" cy="-81.4891151349855" fill="rgb(0,255,0)" r="2" stroke="rgb(0,255,0)" /><circle cx="110.44424057907838" cy="-215.01179933101568" fill="rgb(0,255,0)" r="2" stroke="rgb(0,255,0)" /><circle cx="124.13374552123666" cy="-244.4360009632414" fill="rgb(0,255,0)" r="2" stroke="rgb(0,255,0)" /><circle cx="130.47495786923696" cy="-249.5087183434811" fill="rgb(0,255,0)" r="2" stroke="rgb(0,255,0)" /><circle cx="166.72653145827886" cy="-85.86775791999565" fill="rgb(0,255,0)" r="2" stroke="rgb(0,255,0)" /><circle cx="140.3252088135546" cy="-251.4659394211298" fill="rgb(0,255,0)" r="2" stroke="rgb(0,255,0)" /><circle cx="154.01471375571288" cy="-280.89014105335553" fill="rgb(0,255,0)" r="2" stroke="rgb(0,255,0)" /><circle cx="160.3559261037132" cy="-285.9628584335952" fill="rgb(0,255,0)" r="2" stroke="rgb(0,255,0)" /><circle cx="175.73178807079682" cy="-89.85538237745685" fill="rgb(0,255,0)" r="2" stroke="rgb(0,255,0)" /><circle cx="148.69332338425963" cy="-264.4362526005636" fill="rgb(0,255,0)" r="2" stroke="rgb(0,255,0)" /><circle cx="162.3828283264179" cy="-293.8604542327893" fill="rgb(0,255,0)" r="2" stroke="rgb(0,255,0)" /><circle cx="168.7240406744182" cy="-298.933171613029" fill="rgb(0,255,0)" r="2" stroke="rgb(0,255,0)" /><line stroke="rgb(139,69,19)" x1="0" x2="0.0" y1="0" y2="-13.0" /><line stroke="rgb(139,69,19)" x1="0" x2="40.57909607872835" y1="0" y2="-13.410933555105585" /><line stroke="rgb(139,69,19)" x1="0" x2="61.63760273373559" y1="0" y2="11.281686490492389" /><line stroke="rgb(139,69,19)" x1="0" x2="71.16917439496878" y1="0" y2="10.122056192125129" /><line stroke="rgb(139,69,19)" x1="0.0" x2="0.0" y1="-13.0" y2="-26.0" /><line stroke="rgb(139,69,19)" x1="0.0" x2="6.385186334144876" y1="-13.0" y2="-49.017543571459484" /><line stroke="rgb(139,69,19)" x1="0.0" x2="38.54126934524139" y1="-13.0" y2="-53.396186356469634" /><line stroke="rgb(139,69,19)" x1="0.0" x2="47.54652595775938" y1="-13.0" y2="-57.38381081393083" /><line stroke="rgb(139,69,19)" x1="40.57909607872835" x2="40.57909607872835" y1="-13.410933555105585" y2="-26.410933555105586" /><line stroke="rgb(139,69,19)" x1="40.57909607872835" x2="79.47360012259608" y1="-13.410933555105585" y2="-73.71442575154092" /><line stroke="rgb(139,69,19)" x1="40.57909607872835" x2="111.6296831336926" y1="-13.410933555105585" y2="-78.09306853655107" /><line stroke="rgb(139,69,19)" x1="40.57909607872835" x2="120.63493974621059" y1="-13.410933555105585" y2="-82.08069299401227" /><line stroke="rgb(139,69,19)" x1="61.63760273373559" x2="61.63760273373559" y1="11.281686490492389" y2="-1.7183135095076114" /><line stroke="rgb(139,69,19)" x1="61.63760273373559" x2="117.40280498171663" y1="11.281686490492389" y2="-61.62498961496817" /><line stroke="rgb(139,69,19)" x1="61.63760273373559" x2="149.55888799281314" y1="11.281686490492389" y2="-66.00363239997833" /><line stroke="rgb(139,69,19)" x1="61.63760273373559" x2="158.5641446053311" y1="11.281686490492389" y2="-69.99125685743952" /><line stroke="rgb(139,69,19)" x1="71.16917439496878" x2="71.16917439496878" y1="10.122056192125129" y2="-2.877943807874871" /><line stroke="rgb(139,69,19)" x1="71.16917439496878" x2="134.57044844718234" y1="10.122056192125129" y2="-68.4891151349855" /><line stroke="rgb(139,69,19)" x1="71.16917439496878" x2="166.72653145827886" y1="10.122056192125129" y2="-72.86775791999565" /><line stroke="rgb(139,69,19)" x1="71.16917439496878" x2="175.73178807079682" y1="10.122056192125129" y2="-76.85538237745685" /><line stroke="rgb(139,69,19)" x1="0.0" x2="0.0" y1="-26.0" y2="-39.0" /><line stroke="rgb(139,69,19)" x1="0.0" x2="-14.605047730130996" y1="-26.0" y2="-38.28948001426735" /><line stroke="rgb(139,69,19)" x1="0.0" x2="-0.9155427879727185" y1="-26.0" y2="-67.71368164649309" /><line stroke="rgb(139,69,19)" x1="0.0" x2="5.425669560027597" y1="-26.0" y2="-72.78639902673277" /><line stroke="rgb(139,69,19)" x1="6.385186334144876" x2="6.385186334144876" y1="-49.017543571459484" y2="-62.017543571459484" /><line stroke="rgb(139,69,19)" x1="6.385186334144876" x2="-8.671627606916532" y1="-49.017543571459484" y2="-67.67620813419235" /><line stroke="rgb(139,69,19)" x1="6.385186334144876" x2="5.017877335241746" y1="-49.017543571459484" y2="-97.10040976641808" /><line stroke="rgb(139,69,19)" x1="6.385186334144876" x2="11.359089683242061" y1="-49.017543571459484" y2="-102.17312714665776" /><line stroke="rgb(139,69,19)" x1="38.54126934524139" x2="38.54126934524139" y1="-53.396186356469634" y2="-66.39618635646963" /><line stroke="rgb(139,69,19)" x1="38.54126934524139" x2="21.209340627559705" y1="-53.396186356469634" y2="-104.1303482243065" /><line stroke="rgb(139,69,19)" x1="38.54126934524139" x2="34.898845569717984" y1="-53.396186356469634" y2="-133.55454985653222" /><line stroke="rgb(139,69,19)" x1="38.54126934524139" x2="41.2400579177183" y1="-53.396186356469634" y2="-138.6272672367719" /><line stroke="rgb(139,69,19)" x1="47.54652595775938" x2="47.54652595775938" y1="-57.38381081393083" y2="-70.38381081393084" /><line stroke="rgb(139,69,19)" x1="47.54652595775938" x2="29.577455198264737" y1="-57.38381081393083" y2="-117.10066140374029" /><line stroke="rgb(139,69,19)" x1="47.54652595775938" x2="43.266960140423016" y1="-57.38381081393083" y2="-146.524863035966" /><line stroke="rgb(139,69,19)" x1="47.54652595775938" x2="49.608172488423335" y1="-57.38381081393083" y2="-151.5975804162057" /><line stroke="rgb(139,69,19)" x1="40.57909607872835" x2="40.57909607872835" y1="-26.410933555105586" y2="-39.410933555105586" /><line stroke="rgb(139,69,19)" x1="40.57909607872835" x2="23.102986562908157" y1="-26.410933555105586" y2="-79.17781520027584" /><line stroke="rgb(139,69,19)" x1="40.57909607872835" x2="36.79249150506644" y1="-26.410933555105586" y2="-108.60201683250158" /><line stroke="rgb(139,69,19)" x1="40.57909607872835" x2="43.133703853066756" y1="-26.410933555105586" y2="-113.67473421274126" /><line stroke="rgb(139,69,19)" x1="79.47360012259608" x2="79.47360012259608" y1="-73.71442575154092" y2="-86.71442575154092" /><line stroke="rgb(139,69,19)" x1="79.47360012259608" x2="59.24561747443622" y1="-73.71442575154092" y2="-165.27833871460905" /><line stroke="rgb(139,69,19)" x1="79.47360012259608" x2="72.9351224165945" y1="-73.71442575154092" y2="-194.70254034683478" /><line stroke="rgb(139,69,19)" x1="79.47360012259608" x2="79.27633476459481" y1="-73.71442575154092" y2="-199.77525772707446" /><line stroke="rgb(139,69,19)" x1="111.6296831336926" x2="111.6296831336926" y1="-78.09306853655107" y2="-91.09306853655107" /><line stroke="rgb(139,69,19)" x1="111.6296831336926" x2="89.12658570891244" y1="-78.09306853655107" y2="-201.73247880472323" /><line stroke="rgb(139,69,19)" x1="111.6296831336926" x2="102.81609065107072" y1="-78.09306853655107" y2="-231.15668043694896" /><line stroke="rgb(139,69,19)" x1="111.6296831336926" x2="109.15730299907104" y1="-78.09306853655107" y2="-236.22939781718864" /><line stroke="rgb(139,69,19)" x1="120.63493974621059" x2="120.63493974621059" y1="-82.08069299401227" y2="-95.08069299401227" /><line stroke="rgb(139,69,19)" x1="120.63493974621059" x2="97.49470027961749" y1="-82.08069299401227" y2="-214.702791984157" /><line stroke="rgb(139,69,19)" x1="120.63493974621059" x2="111.18420522177577" y1="-82.08069299401227" y2="-244.12699361638272" /><line stroke="rgb(139,69,19)" x1="120.63493974621059" x2="117.52541756977608" y1="-82.08069299401227" y2="-249.1997109966224" /><line stroke="rgb(139,69,19)" x1="61.63760273373559" x2="61.63760273373559" y1="-1.7183135095076114" y2="-14.718313509507611" /><line stroke="rgb(139,69,19)" x1="61.63760273373559" x2="42.67155678356081" y1="-1.7183135095076114" y2="-75.49092751421647" /><line stroke="rgb(139,69,19)" x1="61.63760273373559" x2="56.36106172571909" y1="-1.7183135095076114" y2="-104.9151291464422" /><line stroke="rgb(139,69,19)" x1="61.63760273373559" x2="62.70227407371941" y1="-1.7183135095076114" y2="-109.98784652668188" /><line stroke="rgb(139,69,19)" x1="117.40280498171663" x2="117.40280498171663" y1="-61.62498961496817" y2="-74.62498961496817" /><line stroke="rgb(139,69,19)" x1="117.40280498171663" x2="94.49124627702449" y1="-61.62498961496817" y2="-191.02305382785215" /><line stroke="rgb(139,69,19)" x1="117.40280498171663" x2="108.18075121918277" y1="-61.62498961496817" y2="-220.44725546007788" /><line stroke="rgb(139,69,19)" x1="117.40280498171663" x2="114.52196356718308" y1="-61.62498961496817" y2="-225.51997284031756" /><line stroke="rgb(139,69,19)" x1="149.55888799281314" x2="149.55888799281314" y1="-66.00363239997833" y2="-79.00363239997833" /><line stroke="rgb(139,69,19)" x1="149.55888799281314" x2="124.37221451150072" y1="-66.00363239997833" y2="-227.4771939179663" /><line stroke="rgb(139,69,19)" x1="149.55888799281314" x2="138.06171945365898" y1="-66.00363239997833" y2="-256.90139555019203" /><line stroke="rgb(139,69,19)" x1="149.55888799281314" x2="144.4029318016593" y1="-66.00363239997833" y2="-261.9741129304317" /><line stroke="rgb(139,69,19)" x1="158.5641446053311" x2="158.5641446053311" y1="-69.99125685743952" y2="-82.99125685743952" /><line stroke="rgb(139,69,19)" x1="158.5641446053311" x2="132.74032908220573" y1="-69.99125685743952" y2="-240.44750709740003" /><line stroke="rgb(139,69,19)" x1="158.5641446053311" x2="146.429834024364" y1="-69.99125685743952" y2="-269.87170872962577" /><line stroke="rgb(139,69,19)" x1="158.5641446053311" x2="152.7710463723643" y1="-69.99125685743952" y2="-274.94442610986545" /><line stroke="rgb(139,69,19)" x1="71.16917439496878" x2="71.16917439496878" y1="-2.877943807874871" y2="-15.877943807874871" /><line stroke="rgb(139,69,19)" x1="71.16917439496878" x2="51.5287484364017" y1="-2.877943807874871" y2="-86.15824259582641" /><line stroke="rgb(139,69,19)" x1="71.16917439496878" x2="65.21825337855998" y1="-2.877943807874871" y2="-115.58244422805214" /><line stroke="rgb(139,69,19)" x1="71.16917439496878" x2="71.55946572656029" y1="-2.877943807874871" y2="-120.65516160829182" /><line stroke="rgb(139,69,19)" x1="134.57044844718234" x2="134.57044844718234" y1="-68.4891151349855" y2="-81.4891151349855" /><line stroke="rgb(139,69,19)" x1="134.57044844718234" x2="110.44424057907838" y1="-68.4891151349855" y2="-215.01179933101568" /><line stroke="rgb(139,69,19)" x1="134.57044844718234" x2="124.13374552123666" y1="-68.4891151349855" y2="-244.4360009632414" /><line stroke="rgb(139,69,19)" x1="134.57044844718234" x2="130.47495786923696" y1="-68.4891151349855" y2="-249.5087183434811" /><line stroke="rgb(139,69,19)" x1="166.72653145827886" x2="166.72653145827886" y1="-72.86775791999565" y2="-85.86775791999565" /><line stroke="rgb(139,69,19)" x1="166.72653145827886" x2="140.3252088135546" y1="-72.86775791999565" y2="-251.4659394211298" /><line stroke="rgb(139,69,19)" x1="166.72653145827886" x2="154.01471375571288" y1="-72.86775791999565" y2="-280.89014105335553" /><line stroke="rgb(139,69,19)" x1="166.72653145827886" x2="160.3559261037132" y1="-72.86775791999565" y2="-285.9628584335952" /><line stroke="rgb(139,69,19)" x1="175.73178807079682" x2="175.73178807079682" y1="-76.85538237745685" y2="-89.85538237745685" /><line stroke="rgb(139,69,19)" x1="175.73178807079682" x2="148.69332338425963" y1="-76.85538237745685" y2="-264.4362526005636" /><line stroke="rgb(139,69,19)" x1="175.73178807079682" x2="162.3828283264179" y1="-76.85538237745685" y2="-293.8604542327893" /><line stroke="rgb(139,69,19)" x1="175.73178807079682" x2="168.7240406744182" y1="-76.85538237745685" y2="-298.933171613029" /><circle cx="0" cy="-300" fill="rgb(255,255,0)" r="10" stroke="rgb(255,255,0)" /></svg>