<?xml version="1.0" encoding="utf-8" ?>
<svg baseProfile="full" height="100%" version="1.1" viewBox="-400 -400 800 400" width="100%" xmlns="http://www.w3.org/2000/svg" xmlns:ev="http://www.w3.org/2001/xml-events" xmlns:xlink="http://www.w3.org/1999/xlink"><defs /><circle cx="0.0" cy="-51.0" fill="rgb(0,255,0)" r="2" stroke="rgb(0,255,0)" /><circle cx="0.0" cy="-110.34782608695653" fill="rgb(0,255,0)" r="2" stroke="rgb(0,255,0)" /><circle cx="16.386514436238997" cy="-107.39042447655765" fill="rgb(0,255,0)" r="2" stroke="rgb(0,255,0)" /><circle cx="-16.821874450209325" cy="-149.48090727091423" fill="rgb(0,255,0)" r="2" stroke="rgb(0,255,0)" /><circle cx="-7.620392765211502" cy="-168.35768493026725" fill="rgb(0,255,0)" r="2" stroke="rgb(0,255,0)" /><circle cx="-9.053615752396457" cy="-158.46092425472273" fill="rgb(0,255,0)" r="2" stroke="rgb(0,255,0)" /><circle cx="-11.052131079594673" cy="-158.5379728559677" fill="rgb(0,255,0)" r="2" stroke="rgb(0,255,0)" /><circle cx="0.0" cy="-105.17391304347827" fill="rgb(0,255,0)" r="2" stroke="rgb(0,255,0)" /><circle cx="0.0" cy="-164.52173913043478" fill="rgb(0,255,0)" r="2" stroke="rgb(0,255,0)" /><circle cx="16.386514436238997" cy="-161.5643375200359" fill="rgb(0,255,0)" r="2" stroke="rgb(0,255,0)" /><circle cx="11.095177908977226" cy="-108.21260285235267" fill="rgb(0,255,0)" r="2" stroke="rgb(0,255,0)" /><circle cx="32.09468086048279" cy="-108.06811828670932" fill="rgb(0,255,0)" r="2" stroke="rgb(0,255,0)" /><circle cx="22.549804849304827" cy="-105.08561230494844" fill="rgb(0,255,0)" r="2" stroke="rgb(0,255,0)" /><circle cx="21.755993688256716" cy="-106.9213311942655" fill="rgb(0,255,0)" r="2" stroke="rgb(0,255,0)" /><circle cx="16.386514436238997" cy="-107.39042447655765" fill="rgb(0,255,0)" r="2" stroke="rgb(0,255,0)" /><circle cx="16.386514436238997" cy="-150.35173612727516" fill="rgb(0,255,0)" r="2" stroke="rgb(0,255,0)" /><circle cx="32.773028872477994" cy="-163.7808489531153" fill="rgb(0,255,0)" r="2" stroke="rgb(0,255,0)" /><circle cx="5.397086845100741" cy="-189.00792126527702" fill="rgb(0,255,0)" r="2" stroke="rgb(0,255,0)" /><circle cx="3.9806392400349084" cy="-168.055745335744" fill="rgb(0,255,0)" r="2" stroke="rgb(0,255,0)" /><circle cx="1.5818760622343286" cy="-177.76377990597643" fill="rgb(0,255,0)" r="2" stroke="rgb(0,255,0)" /><circle cx="3.4623150022842433" cy="-178.44491821259555" fill="rgb(0,255,0)" r="2" stroke="rgb(0,255,0)" /><circle cx="26.067876189674575" cy="-160.12255006328823" fill="rgb(0,255,0)" r="2" stroke="rgb(0,255,0)" /><circle cx="26.067876189674575" cy="-193.4024999605702" fill="rgb(0,255,0)" r="2" stroke="rgb(0,255,0)" /><circle cx="42.454390625913575" cy="-216.51297453984589" fill="rgb(0,255,0)" r="2" stroke="rgb(0,255,0)" /><circle cx="69.93326970550329" cy="-214.59678031194395" fill="rgb(0,255,0)" r="2" stroke="rgb(0,255,0)" /><circle cx="54.43934050655483" cy="-200.4215146009256" fill="rgb(0,255,0)" r="2" stroke="rgb(0,255,0)" /><circle cx="59.408791811815526" cy="-209.0993342420937" fill="rgb(0,255,0)" r="2" stroke="rgb(0,255,0)" /><circle cx="61.239192810358624" cy="-208.29333660901256" fill="rgb(0,255,0)" r="2" stroke="rgb(0,255,0)" /><circle cx="20.789685939008617" cy="-139.79668703910707" fill="rgb(0,255,0)" r="2" stroke="rgb(0,255,0)" /><circle cx="20.789685939008617" cy="-178.35482718705498" fill="rgb(0,255,0)" r="2" stroke="rgb(0,255,0)" /><circle cx="37.17620037524762" cy="-196.18711151566472" fill="rgb(0,255,0)" r="2" stroke="rgb(0,255,0)" /><circle cx="42.53876317495641" cy="-228.56989617086498" fill="rgb(0,255,0)" r="2" stroke="rgb(0,255,0)" /><circle cx="21.559530279105616" cy="-229.50359157175973" fill="rgb(0,255,0)" r="2" stroke="rgb(0,255,0)" /><circle cx="31.209765519214166" cy="-232.12522461445795" fill="rgb(0,255,0)" r="2" stroke="rgb(0,255,0)" /><circle cx="31.934016164658324" cy="-230.2609657798071" fill="rgb(0,255,0)" r="2" stroke="rgb(0,255,0)" /><circle cx="20.23324687948278" cy="-149.78119381576028" fill="rgb(0,255,0)" r="2" stroke="rgb(0,255,0)" /><circle cx="20.23324687948278" cy="-188.89577302323403" fill="rgb(0,255,0)" r="2" stroke="rgb(0,255,0)" /><circle cx="36.619761315721775" cy="-206.17161829231793" fill="rgb(0,255,0)" r="2" stroke="rgb(0,255,0)" /><circle cx="14.513172448171378" cy="-181.16083935081988" fill="rgb(0,255,0)" r="2" stroke="rgb(0,255,0)" /><circle cx="-5.174029334703466" cy="-188.46933344744264" fill="rgb(0,255,0)" r="2" stroke="rgb(0,255,0)" /><circle cx="4.8155197848088545" cy="-188.01226847520059" fill="rgb(0,255,0)" r="2" stroke="rgb(0,255,0)" /><circle cx="4.934571962473169" cy="-186.0158149748672" fill="rgb(0,255,0)" r="2" stroke="rgb(0,255,0)" /><circle cx="21.220321341754122" cy="-149.94145611928715" fill="rgb(0,255,0)" r="2" stroke="rgb(0,255,0)" /><circle cx="21.220321341754122" cy="-188.06896086448955" fill="rgb(0,255,0)" r="2" stroke="rgb(0,255,0)" /><circle cx="37.60683577799312" cy="-206.3318805958448" fill="rgb(0,255,0)" r="2" stroke="rgb(0,255,0)" /><circle cx="12.555733188979637" cy="-185.79510023989252" fill="rgb(0,255,0)" r="2" stroke="rgb(0,255,0)" /><circle cx="29.036453723406137" cy="-198.8099321891008" fill="rgb(0,255,0)" r="2" stroke="rgb(0,255,0)" /><circle cx="23.451028412166487" cy="-190.5151733564063" fill="rgb(0,255,0)" r="2" stroke="rgb(0,255,0)" /><circle cx="21.68386889865795" cy="-191.45173475525652" fill="rgb(0,255,0)" r="2" stroke="rgb(0,255,0)" /><circle cx="0.0" cy="-100.0" fill="rgb(0,255,0)" r="2" stroke="rgb(0,255,0)" /><circle cx="0.0" cy="-159.3478260869565" fill="rgb(0,255,0)" r="2" stroke="rgb(0,255,0)" /><circle cx="16.386514436238997" cy="-156.39042447655765" fill="rgb(0,255,0)" r="2" stroke="rgb(0,255,0)" /><circle cx="-33.73958927381091" cy="-137.36992077279282" fill="rgb(0,255,0)" r="2" stroke="rgb(0,255,0)" /><circle cx="-41.875309719889806" cy="-118.00990907798092" fill="rgb(0,255,0)" r="2" stroke="rgb(0,255,0)" /><circle cx="-40.995581830064694" cy="-127.97113785960539" fill="rgb(0,255,0)" r="2" stroke="rgb(0,255,0)" /><circle cx="-38.99587756184384" cy="-128.00553029568235" fill="rgb(0,255,0)" r="2" stroke="rgb(0,255,0)" /><circle cx="0.0" cy="-154.17391304347825" fill="rgb(0,255,0)" r="2" stroke="rgb(0,255,0)" /><circle cx="0.0" cy="-213.52173913043478" fill="rgb(0,255,0)" r="2" stroke="rgb(0,255,0)" /><circle cx="16.386514436238997" cy="-210.5643375200359" fill="rgb(0,255,0)" r="2" stroke="rgb(0,255,0)" /><circle cx="65.68033659832813" cy="-189.4805776336224" fill="rgb(0,255,0)" r="2" stroke="rgb(0,255,0)" /><circle cx="81.67544622951303" cy="-175.87335646666932" fill="rgb(0,255,0)" r="2" stroke="rgb(0,255,0)" /><circle cx="72.44612452890436" cy="-179.72298254548193" fill="rgb(0,255,0)" r="2" stroke="rgb(0,255,0)" /><circle cx="73.01780586295685" cy="-181.63953686307795" fill="rgb(0,255,0)" r="2" stroke="rgb(0,255,0)" /><circle cx="16.386514436238997" cy="-156.39042447655765" fill="rgb(0,255,0)" r="2" stroke="rgb(0,255,0)" /><circle cx="16.386514436238997" cy="-199.3517361272752" fill="rgb(0,255,0)" r="2" stroke="rgb(0,255,0)" /><circle cx="32.773028872477994" cy="-212.7808489531153" fill="rgb(0,255,0)" r="2" stroke="rgb(0,255,0)" /><circle cx="0.48363768201104307" cy="-194.25404146023212" fill="rgb(0,255,0)" r="2" stroke="rgb(0,255,0)" /><circle cx="11.88433843866224" cy="-211.88991462424906" fill="rgb(0,255,0)" r="2" stroke="rgb(0,255,0)" /><circle cx="9.273588946443395" cy="-202.23672929043934" fill="rgb(0,255,0)" r="2" stroke="rgb(0,255,0)" /><circle cx="7.298769848257603" cy="-202.5530985832613" fill="rgb(0,255,0)" r="2" stroke="rgb(0,255,0)" /><circle cx="-30.996745071383334" cy="-181.47493269834519" fill="rgb(0,255,0)" r="2" stroke="rgb(0,255,0)" /><circle cx="-30.996745071383334" cy="-271.81950385668506" fill="rgb(0,255,0)" r="2" stroke="rgb(0,255,0)" /><circle cx="-14.610230635144337" cy="-237.86535717490284" fill="rgb(0,255,0)" r="2" stroke="rgb(0,255,0)" /><circle cx="-85.88266472604184" cy="-192.26786528235473" fill="rgb(0,255,0)" r="2" stroke="rgb(0,255,0)" /><circle cx="-104.3305266332729" cy="-202.3016278394284" fill="rgb(0,255,0)" r="2" stroke="rgb(0,255,0)" /><circle cx="-94.5074882816696" cy="-200.4286842890429" fill="rgb(0,255,0)" r="2" stroke="rgb(0,255,0)" /><circle cx="-94.67354351609164" cy="-198.43558979576844" fill="rgb(0,255,0)" r="2" stroke="rgb(0,255,0)" /><circle cx="-21.01254326870297" cy="-163.00020091779274" fill="rgb(0,255,0)" r="2" stroke="rgb(0,255,0)" /><circle cx="-21.01254326870297" cy="-243.36057027345225" fill="rgb(0,255,0)" r="2" stroke="rgb(0,255,0)" /><circle cx="-4.626028832463973" cy="-219.3906253943504" fill="rgb(0,255,0)" r="2" stroke="rgb(0,255,0)" /><circle cx="-77.847519760735" cy="-204.98030112510273" fill="rgb(0,255,0)" r="2" stroke="rgb(0,255,0)" /><circle cx="-91.24405207387716" cy="-188.80832159311785" fill="rgb(0,255,0)" r="2" stroke="rgb(0,255,0)" /><circle cx="-87.51565200626239" cy="-198.08727805038234" fill="rgb(0,255,0)" r="2" stroke="rgb(0,255,0)" /><circle cx="-85.59177361697274" cy="-197.54075088433814" fill="rgb(0,255,0)" r="2" stroke="rgb(0,255,0)" /><circle cx="-28.2222470137907" cy="-169.9298597772221" fill="rgb(0,255,0)" r="2" stroke="rgb(0,255,0)" /><circle cx="-28.2222470137907" cy="-257.49993287796934" fill="rgb(0,255,0)" r="2" stroke="rgb(0,255,0)" /><circle cx="-11.835732577551703" cy="-226.32028425377976" fill="rgb(0,255,0)" r="2" stroke="rgb(0,255,0)" /><circle cx="-85.44769405747442" cy="-262.0745323032484" fill="rgb(0,255,0)" r="2" stroke="rgb(0,255,0)" /><circle cx="-95.2626341620102" cy="-280.6397403749177" fill="rgb(0,255,0)" r="2" stroke="rgb(0,255,0)" /><circle cx="-88.11656322830802" cy="-273.6444798214789" fill="rgb(0,255,0)" r="2" stroke="rgb(0,255,0)" /><circle cx="-89.35767333144702" cy="-272.0761540543354" fill="rgb(0,255,0)" r="2" stroke="rgb(0,255,0)" /><circle cx="-27.60888451949471" cy="-170.7196613032975" fill="rgb(0,255,0)" r="2" stroke="rgb(0,255,0)" /><circle cx="-27.60888451949471" cy="-257.67637190974875" fill="rgb(0,255,0)" r="2" stroke="rgb(0,255,0)" /><circle cx="-11.222370083255711" cy="-227.11008577985515" fill="rgb(0,255,0)" r="2" stroke="rgb(0,255,0)" /><circle cx="-37.45294571777637" cy="-303.98030305431746" fill="rgb(0,255,0)" r="2" stroke="rgb(0,255,0)" /><circle cx="-26.167038280164213" cy="-286.2707493244899" fill="rgb(0,255,0)" r="2" stroke="rgb(0,255,0)" /><circle cx="-33.85604057120117" cy="-292.6644371311026" fill="rgb(0,255,0)" r="2" stroke="rgb(0,255,0)" /><circle cx="-32.74599006824846" cy="-294.328104129301" fill="rgb(0,255,0)" r="2" stroke="rgb(0,255,0)" /><circle cx="16.386514436238997" cy="-107.39042447655765" fill="rgb(0,255,0)" r="2" stroke="rgb(0,255,0)" /><circle cx="16.386514436238997" cy="-150.35173612727516" fill="rgb(0,255,0)" r="2" stroke="rgb(0,255,0)" /><circle cx="32.773028872477994" cy="-163.7808489531153" fill="rgb(0,255,0)" r="2" stroke="rgb(0,255,0)" /><circle cx="5.397086845100741" cy="-189.00792126527702" fill="rgb(0,255,0)" r="2" stroke="rgb(0,255,0)" /><circle cx="3.9806392400349084" cy="-168.055745335744" fill="rgb(0,255,0)" r="2" stroke="rgb(0,255,0)" /><circle cx="1.5818760622343286" cy="-177.76377990597643" fill="rgb(0,255,0)" r="2" stroke="rgb(0,255,0)" /><circle cx="3.4623150022842433" cy="-178.44491821259555" fill="rgb(0,255,0)" r="2" stroke="rgb(0,255,0)" /><circle cx="16.386514436238997" cy="-145.1778230837969" fill="rgb(0,255,0)" r="2" stroke="rgb(0,255,0)" /><circle cx="16.386514436238997" cy="-188.13913473451444" fill="rgb(0,255,0)" r="2" stroke="rgb(0,255,0)" /><circle cx="32.773028872477994" cy="-201.56824756035456" fill="rgb(0,255,0)" r="2" stroke="rgb(0,255,0)" /><circle cx="7.728033525380088" cy="-229.1108615864996" fill="rgb(0,255,0)" r="2" stroke="rgb(0,255,0)" /><circle cx="25.008188908806403" cy="-241.0438507310787" fill="rgb(0,255,0)" r="2" stroke="rgb(0,255,0)" /><circle cx="18.903168690710736" cy="-233.12370375411905" fill="rgb(0,255,0)" r="2" stroke="rgb(0,255,0)" /><circle cx="17.199595911353363" cy="-234.17148225429577" fill="rgb(0,255,0)" r="2" stroke="rgb(0,255,0)" /><circle cx="32.773028872477994" cy="-163.7808489531153" fill="rgb(0,255,0)" r="2" stroke="rgb(0,255,0)" /><circle cx="32.773028872477994" cy="-190.35564616759385" fill="rgb(0,255,0)" r="2" stroke="rgb(0,255,0)" /><circle cx="49.15954330871699" cy="-220.17127342967296" fill="rgb(0,255,0)" r="2" stroke="rgb(0,255,0)" /><circle cx="31.799887840965287" cy="-231.70240508021797" fill="rgb(0,255,0)" r="2" stroke="rgb(0,255,0)" /><circle cx="52.338561537304315" cy="-227.32486207125606" fill="rgb(0,255,0)" r="2" stroke="rgb(0,255,0)" /><circle cx="42.38826580760528" cy="-226.32906345128657" fill="rgb(0,255,0)" r="2" stroke="rgb(0,255,0)" /><circle cx="41.981074897197864" cy="-228.28717365310914" fill="rgb(0,255,0)" r="2" stroke="rgb(0,255,0)" /><circle cx="33.6414465276998" cy="-200.99768963183837" fill="rgb(0,255,0)" r="2" stroke="rgb(0,255,0)" /><circle cx="33.6414465276998" cy="-226.7040691910951" fill="rgb(0,255,0)" r="2" stroke="rgb(0,255,0)" /><circle cx="50.027960963938796" cy="-257.38811410839605" fill="rgb(0,255,0)" r="2" stroke="rgb(0,255,0)" /><circle cx="30.16394894872083" cy="-259.46257064378756" fill="rgb(0,255,0)" r="2" stroke="rgb(0,255,0)" /><circle cx="34.48272913744625" cy="-238.9114602679107" fill="rgb(0,255,0)" r="2" stroke="rgb(0,255,0)" /><circle cx="29.54108198063047" cy="-247.60514322610135" fill="rgb(0,255,0)" r="2" stroke="rgb(0,255,0)" /><circle cx="31.16632794139355" cy="-248.77072272447256" fill="rgb(0,255,0)" r="2" stroke="rgb(0,255,0)" /><circle cx="53.1725929571111" cy="-193.28184106198592" fill="rgb(0,255,0)" r="2" stroke="rgb(0,255,0)" /><circle cx="53.1725929571111" cy="-199.45707419183134" fill="rgb(0,255,0)" r="2" stroke="rgb(0,255,0)" /><circle cx="69.5591073933501" cy="-249.67226553854357" fill="rgb(0,255,0)" r="2" stroke="rgb(0,255,0)" /><circle cx="69.45336895673032" cy="-249.24424021964325" fill="rgb(0,255,0)" r="2" stroke="rgb(0,255,0)" /><circle cx="67.59702281236756" cy="-270.162031187915" fill="rgb(0,255,0)" r="2" stroke="rgb(0,255,0)" /><circle cx="71.47510520339611" cy="-260.9446304171774" fill="rgb(0,255,0)" r="2" stroke="rgb(0,255,0)" /><circle cx="69.72334180651788" cy="-259.9795786043934" fill="rgb(0,255,0)" r="2" stroke="rgb(0,255,0)" /><circle cx="43.19469296822166" cy="-193.94630461382306" fill="rgb(0,255,0)" r="2" stroke="rgb(0,255,0)" /><circle cx="43.19469296822166" cy="-210.09943773255793" fill="rgb(0,255,0)" r="2" stroke="rgb(0,255,0)" /><circle cx="59.581207404460656" cy="-250.33672909038071" fill="rgb(0,255,0)" r="2" stroke="rgb(0,255,0)" /><circle cx="51.376984364971705" cy="-243.91473847475504" fill="rgb(0,255,0)" r="2" stroke="rgb(0,255,0)" /><circle cx="47.26214541962187" cy="-264.5076523155361" fill="rgb(0,255,0)" r="2" stroke="rgb(0,255,0)" /><circle cx="52.11736679199421" cy="-255.76540858607748" fill="rgb(0,255,0)" r="2" stroke="rgb(0,255,0)" /><circle cx="50.4806459697463" cy="-254.61599788923317" fill="rgb(0,255,0)" r="2" stroke="rgb(0,255,0)" /><circle cx="43.15591431625325" cy="-194.94555243901536" fill="rgb(0,255,0)" r="2" stroke="rgb(0,255,0)" /><circle cx="43.15591431625325" cy="-211.13746420971864" fill="rgb(0,255,0)" r="2" stroke="rgb(0,255,0)" /><circle cx="59.54242875249225" cy="-251.335976915573" fill="rgb(0,255,0)" r="2" stroke="rgb(0,255,0)" /><circle cx="49.66654768943684" cy="-254.77512937295035" fill="rgb(0,255,0)" r="2" stroke="rgb(0,255,0)" /><circle cx="62.0238015428984" cy="-237.79578082239902" fill="rgb(0,255,0)" r="2" stroke="rgb(0,255,0)" /><circle cx="53.9548992810286" cy="-243.70279498256426" fill="rgb(0,255,0)" r="2" stroke="rgb(0,255,0)" /><circle cx="54.960169331434244" cy="-245.43179241626896" fill="rgb(0,255,0)" r="2" stroke="rgb(0,255,0)" /><circle cx="62.38043317138476" cy="-134.93974885448782" fill="rgb(0,255,0)" r="2" stroke="rgb(0,255,0)" /><circle cx="62.38043317138476" cy="-131.90714177005958" fill="rgb(0,255,0)" r="2" stroke="rgb(0,255,0)" /><circle cx="78.76694760762376" cy="-191.33017333104547" fill="rgb(0,255,0)" r="2" stroke="rgb(0,255,0)" /><circle cx="70.0016771494986" cy="-191.50164971641203" fill="rgb(0,255,0)" r="2" stroke="rgb(0,255,0)" /><circle cx="56.29172778460995" cy="-175.59450388781698" fill="rgb(0,255,0)" r="2" stroke="rgb(0,255,0)" /><circle cx="60.20071194459894" cy="-184.79884214958003" fill="rgb(0,255,0)" r="2" stroke="rgb(0,255,0)" /><circle cx="62.113544822314516" cy="-184.2148298364133" fill="rgb(0,255,0)" r="2" stroke="rgb(0,255,0)" /><circle cx="62.38043317138476" cy="-126.73322872658133" fill="rgb(0,255,0)" r="2" stroke="rgb(0,255,0)" /><circle cx="62.38043317138476" cy="-123.7006216421531" fill="rgb(0,255,0)" r="2" stroke="rgb(0,255,0)" /><circle cx="78.76694760762376" cy="-183.12365320313899" fill="rgb(0,255,0)" r="2" stroke="rgb(0,255,0)" /><circle cx="81.63250105840928" cy="-174.83824592434382" fill="rgb(0,255,0)" r="2" stroke="rgb(0,255,0)" /><circle cx="87.36410604558391" cy="-154.63555540374745" fill="rgb(0,255,0)" r="2" stroke="rgb(0,255,0)" /><circle cx="81.83227288657619" cy="-162.96615093473457" fill="rgb(0,255,0)" r="2" stroke="rgb(0,255,0)" /><circle cx="83.3728990104767" cy="-164.24148271366712" fill="rgb(0,255,0)" r="2" stroke="rgb(0,255,0)" /><circle cx="78.76694760762376" cy="-191.33017333104547" fill="rgb(0,255,0)" r="2" stroke="rgb(0,255,0)" /><circle cx="78.76694760762376" cy="-171.91105181037824" fill="rgb(0,255,0)" r="2" stroke="rgb(0,255,0)" /><circle cx="95.15346204386276" cy="-247.72059780760313" fill="rgb(0,255,0)" r="2" stroke="rgb(0,255,0)" /><circle cx="70.24149920099151" cy="-244.24342077623896" fill="rgb(0,255,0)" r="2" stroke="rgb(0,255,0)" /><circle cx="63.76967148054957" cy="-224.26554686641265" fill="rgb(0,255,0)" r="2" stroke="rgb(0,255,0)" /><circle cx="63.80509270588462" cy="-234.26548413305565" fill="rgb(0,255,0)" r="2" stroke="rgb(0,255,0)" /><circle cx="65.79475027984562" cy="-234.4686164504737" fill="rgb(0,255,0)" r="2" stroke="rgb(0,255,0)" /><circle cx="73.10786965037826" cy="-198.02600838192882" fill="rgb(0,255,0)" r="2" stroke="rgb(0,255,0)" /><circle cx="73.10786965037826" cy="-184.2659648185071" fill="rgb(0,255,0)" r="2" stroke="rgb(0,255,0)" /><circle cx="89.49438408661726" cy="-254.41643285848647" fill="rgb(0,255,0)" r="2" stroke="rgb(0,255,0)" /><circle cx="70.72703994397757" cy="-259.69069155031076" fill="rgb(0,255,0)" r="2" stroke="rgb(0,255,0)" /><circle cx="65.72731537954067" cy="-239.29454597621353" fill="rgb(0,255,0)" r="2" stroke="rgb(0,255,0)" /><circle cx="65.03438241436848" cy="-249.27050928337226" fill="rgb(0,255,0)" r="2" stroke="rgb(0,255,0)" /><circle cx="67.00396329587836" cy="-249.6180019468786" fill="rgb(0,255,0)" r="2" stroke="rgb(0,255,0)" /><circle cx="83.99984834476594" cy="-180.0714880563672" fill="rgb(0,255,0)" r="2" stroke="rgb(0,255,0)" /><circle cx="83.99984834476594" cy="-155.41946579855778" fill="rgb(0,255,0)" r="2" stroke="rgb(0,255,0)" /><circle cx="100.38636278100493" cy="-236.46191253292486" fill="rgb(0,255,0)" r="2" stroke="rgb(0,255,0)" /><circle cx="88.50317579295546" cy="-264.4283372251499" fill="rgb(0,255,0)" r="2" stroke="rgb(0,255,0)" /><circle cx="71.63474244211136" cy="-276.9365727637113" fill="rgb(0,255,0)" r="2" stroke="rgb(0,255,0)" /><circle cx="81.10062716878448" cy="-273.71213074355705" fill="rgb(0,255,0)" r="2" stroke="rgb(0,255,0)" /><circle cx="80.65826234075848" cy="-271.76166583515044" fill="rgb(0,255,0)" r="2" stroke="rgb(0,255,0)" /><circle cx="76.45394816240072" cy="-186.63345349652158" fill="rgb(0,255,0)" r="2" stroke="rgb(0,255,0)" /><circle cx="76.45394816240072" cy="-169.5273314210774" fill="rgb(0,255,0)" r="2" stroke="rgb(0,255,0)" /><circle cx="92.84046259863972" cy="-243.02387797307924" fill="rgb(0,255,0)" r="2" stroke="rgb(0,255,0)" /><circle cx="90.03785867544508" cy="-265.6917438401951" fill="rgb(0,255,0)" r="2" stroke="rgb(0,255,0)" /><circle cx="72.92024965936531" cy="-253.52673411670435" fill="rgb(0,255,0)" r="2" stroke="rgb(0,255,0)" /><circle cx="78.91787292177206" cy="-261.52851611837355" fill="rgb(0,255,0)" r="2" stroke="rgb(0,255,0)" /><circle cx="80.63542504519667" cy="-260.5038138673174" fill="rgb(0,255,0)" r="2" stroke="rgb(0,255,0)" /><circle cx="77.02721184873901" cy="-187.45282444177522" fill="rgb(0,255,0)" r="2" stroke="rgb(0,255,0)" /><circle cx="77.02721184873901" cy="-169.77343867999275" fill="rgb(0,255,0)" r="2" stroke="rgb(0,255,0)" /><circle cx="93.41372628497801" cy="-243.84324891833288" fill="rgb(0,255,0)" r="2" stroke="rgb(0,255,0)" /><circle cx="108.43193319886831" cy="-261.80587789182806" fill="rgb(0,255,0)" r="2" stroke="rgb(0,255,0)" /><circle cx="91.80354017391485" cy="-274.6314985554716" fill="rgb(0,255,0)" r="2" stroke="rgb(0,255,0)" /><circle cx="101.206627202923" cy="-271.22827150972535" fill="rgb(0,255,0)" r="2" stroke="rgb(0,255,0)" /><circle cx="100.7273834904001" cy="-269.2865389163935" fill="rgb(0,255,0)" r="2" stroke="rgb(0,255,0)" /><circle cx="69.55336746603575" cy="-154.67674491783595" fill="rgb(0,255,0)" r="2" stroke="rgb(0,255,0)" /><circle cx="69.55336746603575" cy="-144.47120353875673" fill="rgb(0,255,0)" r="2" stroke="rgb(0,255,0)" /><circle cx="85.93988190227475" cy="-211.0671693943936" fill="rgb(0,255,0)" r="2" stroke="rgb(0,255,0)" /><circle cx="76.11914755198126" cy="-223.62236799415425" fill="rgb(0,255,0)" r="2" stroke="rgb(0,255,0)" /><circle cx="55.5118974037243" cy="-227.66479812059595" fill="rgb(0,255,0)" r="2" stroke="rgb(0,255,0)" /><circle cx="65.44465367489815" cy="-228.8225342120505" fill="rgb(0,255,0)" r="2" stroke="rgb(0,255,0)" /><circle cx="65.88368410114713" cy="-226.87131605796634" fill="rgb(0,255,0)" r="2" stroke="rgb(0,255,0)" /><circle cx="69.55336746603575" cy="-139.29729049527845" fill="rgb(0,255,0)" r="2" stroke="rgb(0,255,0)" /><circle cx="69.55336746603575" cy="-129.09174911619922" fill="rgb(0,255,0)" r="2" stroke="rgb(0,255,0)" /><circle cx="85.93988190227475" cy="-195.6877149718361" fill="rgb(0,255,0)" r="2" stroke="rgb(0,255,0)" /><circle cx="91.18473897400825" cy="-180.6354291203266" fill="rgb(0,255,0)" r="2" stroke="rgb(0,255,0)" /><circle cx="82.88699929153093" cy="-199.92655444161983" fill="rgb(0,255,0)" r="2" stroke="rgb(0,255,0)" /><circle cx="89.45033970707446" cy="-192.38185016711756" fill="rgb(0,255,0)" r="2" stroke="rgb(0,255,0)" /><circle cx="88.0877015855853" cy="-190.91787702874907" fill="rgb(0,255,0)" r="2" stroke="rgb(0,255,0)" /><circle cx="85.93988190227475" cy="-211.0671693943936" fill="rgb(0,255,0)" r="2" stroke="rgb(0,255,0)" /><circle cx="85.93988190227475" cy="-184.47511357907538" fill="rgb(0,255,0)" r="2" stroke="rgb(0,255,0)" /><circle cx="102.32639633851375" cy="-267.45759387095126" fill="rgb(0,255,0)" r="2" stroke="rgb(0,255,0)" /><circle cx="78.64617223936581" cy="-289.46311333423154" fill="rgb(0,255,0)" r="2" stroke="rgb(0,255,0)" /><circle cx="95.36354502557856" cy="-276.7536897781928" fill="rgb(0,255,0)" r="2" stroke="rgb(0,255,0)" /><circle cx="85.93696877415216" cy="-280.0913027240036" fill="rgb(0,255,0)" r="2" stroke="rgb(0,255,0)" /><circle cx="86.40266863723143" cy="-282.0363280805293" fill="rgb(0,255,0)" r="2" stroke="rgb(0,255,0)" /><circle cx="88.88388095265522" cy="-226.73282305614117" fill="rgb(0,255,0)" r="2" stroke="rgb(0,255,0)" /><circle cx="88.88388095265522" cy="-197.19676819044247" fill="rgb(0,255,0)" r="2" stroke="rgb(0,255,0)" /><circle cx="105.27039538889422" cy="-283.1232475326988" fill="rgb(0,255,0)" r="2" stroke="rgb(0,255,0)" /><circle cx="132.09961373539514" cy="-260.2279678051063" fill="rgb(0,255,0)" r="2" stroke="rgb(0,255,0)" /><circle cx="149.87684589413027" cy="-249.0489688886365" fill="rgb(0,255,0)" r="2" stroke="rgb(0,255,0)" /><circle cx="140.19172957657634" cy="-251.5386519840224" fill="rgb(0,255,0)" r="2" stroke="rgb(0,255,0)" /><circle cx="140.48334854301538" cy="-253.5172773599875" fill="rgb(0,255,0)" r="2" stroke="rgb(0,255,0)" /><circle cx="94.56822663124987" cy="-246.94886159504" fill="rgb(0,255,0)" r="2" stroke="rgb(0,255,0)" /><circle cx="94.56822663124987" cy="-211.72846105074666" fill="rgb(0,255,0)" r="2" stroke="rgb(0,255,0)" /><circle cx="110.95474106748887" cy="-303.33928607159766" fill="rgb(0,255,0)" r="2" stroke="rgb(0,255,0)" /><circle cx="91.24333131549977" cy="-267.4401058373047" fill="rgb(0,255,0)" r="2" stroke="rgb(0,255,0)" /><circle cx="98.8884999353172" cy="-286.9990269929963" fill="rgb(0,255,0)" r="2" stroke="rgb(0,255,0)" /><circle cx="98.26012330416428" cy="-277.0187893801225" fill="rgb(0,255,0)" r="2" stroke="rgb(0,255,0)" /><circle cx="96.26192118780929" cy="-276.93400552438084" fill="rgb(0,255,0)" r="2" stroke="rgb(0,255,0)" /><circle cx="94.92452122830117" cy="-236.95521090271978" fill="rgb(0,255,0)" r="2" stroke="rgb(0,255,0)" /><circle cx="94.92452122830117" cy="-201.37851576137513" fill="rgb(0,255,0)" r="2" stroke="rgb(0,255,0)" /><circle cx="111.31103566454017" cy="-293.34563537927744" fill="rgb(0,255,0)" r="2" stroke="rgb(0,255,0)" /><circle cx="108.55604411532492" cy="-334.5647048646584" fill="rgb(0,255,0)" r="2" stroke="rgb(0,255,0)" /><circle cx="88.11004254590075" cy="-329.7729390290708" fill="rgb(0,255,0)" r="2" stroke="rgb(0,255,0)" /><circle cx="96.6874026277038" cy="-334.91384303781206" fill="rgb(0,255,0)" r="2" stroke="rgb(0,255,0)" /><circle cx="97.89016797234703" cy="-333.31592078509595" fill="rgb(0,255,0)" r="2" stroke="rgb(0,255,0)" /><circle cx="93.93443413295793" cy="-236.8147561283802" fill="rgb(0,255,0)" r="2" stroke="rgb(0,255,0)" /><circle cx="93.93443413295793" cy="-202.2281480823788" fill="rgb(0,255,0)" r="2" stroke="rgb(0,255,0)" /><circle cx="110.32094856919693" cy="-293.2051806049378" fill="rgb(0,255,0)" r="2" stroke="rgb(0,255,0)" /><circle cx="102.02636309222969" cy="-332.66375059024153" fill="rgb(0,255,0)" r="2" stroke="rgb(0,255,0)" /><circle cx="81.1880366146381" cy="-330.0629527101084" fill="rgb(0,255,0)" r="2" stroke="rgb(0,255,0)" /><circle cx="90.26134223853447" cy="-334.2671321847943" fill="rgb(0,255,0)" r="2" stroke="rgb(0,255,0)" /><circle cx="91.28822376180099" cy="-332.5508821047728" fill="rgb(0,255,0)" r="2" stroke="rgb(0,255,0)" /><circle cx="69.1650104654979" cy="-144.6842888213533" fill="rgb(0,255,0)" r="2" stroke="rgb(0,255,0)" /><circle cx="69.1650104654979" cy="-134.86710444281192" fill="rgb(0,255,0)" r="2" stroke="rgb(0,255,0)" /><circle cx="85.5515249017369" cy="-201.07471329791096" fill="rgb(0,255,0)" r="2" stroke="rgb(0,255,0)" /><circle cx="100.21630698350073" cy="-195.89841217995797" fill="rgb(0,255,0)" r="2" stroke="rgb(0,255,0)" /><circle cx="116.78540019406843" cy="-182.9962747531779" fill="rgb(0,255,0)" r="2" stroke="rgb(0,255,0)" /><circle cx="107.39810116070828" cy="-186.4428116902026" fill="rgb(0,255,0)" r="2" stroke="rgb(0,255,0)" /><circle cx="107.88629071822977" cy="-188.3823144501715" fill="rgb(0,255,0)" r="2" stroke="rgb(0,255,0)" /><circle cx="69.1650104654979" cy="-129.69319139933367" fill="rgb(0,255,0)" r="2" stroke="rgb(0,255,0)" /><circle cx="69.1650104654979" cy="-119.87600702079229" fill="rgb(0,255,0)" r="2" stroke="rgb(0,255,0)" /><circle cx="85.5515249017369" cy="-186.08361587589133" fill="rgb(0,255,0)" r="2" stroke="rgb(0,255,0)" /><circle cx="77.89716556542848" cy="-199.62099782071402" fill="rgb(0,255,0)" r="2" stroke="rgb(0,255,0)" /><circle cx="75.05679034849213" cy="-178.81397331870957" fill="rgb(0,255,0)" r="2" stroke="rgb(0,255,0)" /><circle cx="73.32488947426103" cy="-188.6628574870729" fill="rgb(0,255,0)" r="2" stroke="rgb(0,255,0)" /><circle cx="75.24735837321096" cy="-189.21432220268963" fill="rgb(0,255,0)" r="2" stroke="rgb(0,255,0)" /><circle cx="85.5515249017369" cy="-201.07471329791096" fill="rgb(0,255,0)" r="2" stroke="rgb(0,255,0)" /><circle cx="85.5515249017369" cy="-174.87101448313058" fill="rgb(0,255,0)" r="2" stroke="rgb(0,255,0)" /><circle cx="101.9380393379759" cy="-257.46513777446864" fill="rgb(0,255,0)" r="2" stroke="rgb(0,255,0)" /><circle cx="133.3538878461613" cy="-251.71337115326094" fill="rgb(0,255,0)" r="2" stroke="rgb(0,255,0)" /><circle cx="140.60419683304755" cy="-271.4220753114413" fill="rgb(0,255,0)" r="2" stroke="rgb(0,255,0)" /><circle cx="140.17664157802074" cy="-261.43121966720844" fill="rgb(0,255,0)" r="2" stroke="rgb(0,255,0)" /><circle cx="138.18054845090907" cy="-261.3062707660624" fill="rgb(0,255,0)" r="2" stroke="rgb(0,255,0)" /><circle cx="91.34758940805129" cy="-186.64365086273367" fill="rgb(0,255,0)" r="2" stroke="rgb(0,255,0)" /><circle cx="91.34758940805129" cy="-154.6438875416389" fill="rgb(0,255,0)" r="2" stroke="rgb(0,255,0)" /><circle cx="107.73410384429029" cy="-243.03407533929132" fill="rgb(0,255,0)" r="2" stroke="rgb(0,255,0)" /><circle cx="103.4861134086237" cy="-280.52830383102275" fill="rgb(0,255,0)" r="2" stroke="rgb(0,255,0)" /><circle cx="101.78159612876586" cy="-259.597593837268" fill="rgb(0,255,0)" r="2" stroke="rgb(0,255,0)" /><circle cx="99.5165969237048" cy="-269.33770567446334" fill="rgb(0,255,0)" r="2" stroke="rgb(0,255,0)" /><circle cx="101.40622722658561" cy="-269.9929135181546" fill="rgb(0,255,0)" r="2" stroke="rgb(0,255,0)" /><circle cx="99.22087365444301" cy="-206.11186585989043" fill="rgb(0,255,0)" r="2" stroke="rgb(0,255,0)" /><circle cx="99.22087365444301" cy="-166.23881829240395" fill="rgb(0,255,0)" r="2" stroke="rgb(0,255,0)" /><circle cx="115.60738809068201" cy="-262.5022903364481" fill="rgb(0,255,0)" r="2" stroke="rgb(0,255,0)" /><circle cx="137.7062203653285" cy="-302.39809789252" fill="rgb(0,255,0)" r="2" stroke="rgb(0,255,0)" /><circle cx="155.788241489365" cy="-313.0770731275272" fill="rgb(0,255,0)" r="2" stroke="rgb(0,255,0)" /><circle cx="149.13753360529086" cy="-305.609269927073" fill="rgb(0,255,0)" r="2" stroke="rgb(0,255,0)" /><circle cx="147.51245944648844" cy="-306.77508894321255" fill="rgb(0,255,0)" r="2" stroke="rgb(0,255,0)" /><circle cx="98.4758739355255" cy="-196.13965570271802" fill="rgb(0,255,0)" r="2" stroke="rgb(0,255,0)" /><circle cx="98.4758739355255" cy="-157.01160785414905" fill="rgb(0,255,0)" r="2" stroke="rgb(0,255,0)" /><circle cx="114.8623883717645" cy="-252.53008017927567" fill="rgb(0,255,0)" r="2" stroke="rgb(0,255,0)" /><circle cx="116.7276428425348" cy="-207.70648464993081" fill="rgb(0,255,0)" r="2" stroke="rgb(0,255,0)" /><circle cx="106.24444647763316" cy="-225.90270936757247" fill="rgb(0,255,0)" r="2" stroke="rgb(0,255,0)" /><circle cx="113.64003450242991" cy="-219.1717898339959" fill="rgb(0,255,0)" r="2" stroke="rgb(0,255,0)" /><circle cx="112.45674417735665" cy="-217.55939285850008" fill="rgb(0,255,0)" r="2" stroke="rgb(0,255,0)" /><circle cx="97.47634559376364" cy="-196.10894586691947" fill="rgb(0,255,0)" r="2" stroke="rgb(0,255,0)" /><circle cx="97.47634559376364" cy="-157.98042636011235" fill="rgb(0,255,0)" r="2" stroke="rgb(0,255,0)" /><circle cx="113.86286003000264" cy="-252.49937034347712" fill="rgb(0,255,0)" r="2" stroke="rgb(0,255,0)" /><circle cx="117.03134189072202" cy="-208.75109937524465" fill="rgb(0,255,0)" r="2" stroke="rgb(0,255,0)" /><circle cx="101.15666908568119" cy="-222.49863600305173" fill="rgb(0,255,0)" r="2" stroke="rgb(0,255,0)" /><circle cx="110.35173557021058" cy="-218.5678915004054" fill="rgb(0,255,0)" r="2" stroke="rgb(0,255,0)" /><circle cx="109.7632004138799" cy="-216.65644535422112" fill="rgb(0,255,0)" r="2" stroke="rgb(0,255,0)" /><circle cx="69.1650104654979" cy="-144.6842888213533" fill="rgb(0,255,0)" r="2" stroke="rgb(0,255,0)" /><circle cx="69.1650104654979" cy="-134.86710444281192" fill="rgb(0,255,0)" r="2" stroke="rgb(0,255,0)" /><circle cx="85.5515249017369" cy="-201.07471329791096" fill="rgb(0,255,0)" r="2" stroke="rgb(0,255,0)" /><circle cx="100.21630698350073" cy="-195.89841217995797" fill="rgb(0,255,0)" r="2" stroke="rgb(0,255,0)" /><circle cx="116.78540019406843" cy="-182.9962747531779" fill="rgb(0,255,0)" r="2" stroke="rgb(0,255,0)" /><circle cx="107.39810116070828" cy="-186.4428116902026" fill="rgb(0,255,0)" r="2" stroke="rgb(0,255,0)" /><circle cx="107.88629071822977" cy="-188.3823144501715" fill="rgb(0,255,0)" r="2" stroke="rgb(0,255,0)" /><circle cx="69.1650104654979" cy="-129.69319139933367" fill="rgb(0,255,0)" r="2" stroke="rgb(0,255,0)" /><circle cx="69.1650104654979" cy="-119.87600702079229" fill="rgb(0,255,0)" r="2" stroke="rgb(0,255,0)" /><circle cx="85.5515249017369" cy="-186.08361587589133" fill="rgb(0,255,0)" r="2" stroke="rgb(0,255,0)" /><circle cx="77.89716556542848" cy="-199.62099782071402" fill="rgb(0,255,0)" r="2" stroke="rgb(0,255,0)" /><circle cx="75.05679034849213" cy="-178.81397331870957" fill="rgb(0,255,0)" r="2" stroke="rgb(0,255,0)" /><circle cx="73.32488947426103" cy="-188.6628574870729" fill="rgb(0,255,0)" r="2" stroke="rgb(0,255,0)" /><circle cx="75.24735837321096" cy="-189.21432220268963" fill="rgb(0,255,0)" r="2" stroke="rgb(0,255,0)" /><circle cx="85.5515249017369" cy="-201.07471329791096" fill="rgb(0,255,0)" r="2" stroke="rgb(0,255,0)" /><circle cx="85.5515249017369" cy="-174.87101448313058" fill="rgb(0,255,0)" r="2" stroke="rgb(0,255,0)" /><circle cx="101.9380393379759" cy="-257.46513777446864" fill="rgb(0,255,0)" r="2" stroke="rgb(0,255,0)" /><circle cx="133.3538878461613" cy="-251.71337115326094" fill="rgb(0,255,0)" r="2" stroke="rgb(0,255,0)" /><circle cx="140.60419683304755" cy="-271.4220753114413" fill="rgb(0,255,0)" r="2" stroke="rgb(0,255,0)" /><circle cx="140.17664157802074" cy="-261.43121966720844" fill="rgb(0,255,0)" r="2" stroke="rgb(0,255,0)" /><circle cx="138.18054845090907" cy="-261.3062707660624" fill="rgb(0,255,0)" r="2" stroke="rgb(0,255,0)" /><circle cx="91.34758940805129" cy="-186.64365086273367" fill="rgb(0,255,0)" r="2" stroke="rgb(0,255,0)" /><circle cx="91.34758940805129" cy="-154.6438875416389" fill="rgb(0,255,0)" r="2" stroke="rgb(0,255,0)" /><circle cx="107.73410384429029" cy="-243.03407533929132" fill="rgb(0,255,0)" r="2" stroke="rgb(0,255,0)" /><circle cx="103.4861134086237" cy="-280.52830383102275" fill="rgb(0,255,0)" r="2" stroke="rgb(0,255,0)" /><circle cx="101.78159612876586" cy="-259.597593837268" fill="rgb(0,255,0)" r="2" stroke="rgb(0,255,0)" /><circle cx="99.5165969237048" cy="-269.33770567446334" fill="rgb(0,255,0)" r="2" stroke="rgb(0,255,0)" /><circle cx="101.40622722658561" cy="-269.9929135181546" fill="rgb(0,255,0)" r="2" stroke="rgb(0,255,0)" /><circle cx="99.22087365444301" cy="-206.11186585989043" fill="rgb(0,255,0)" r="2" stroke="rgb(0,255,0)" /><circle cx="99.22087365444301" cy="-166.23881829240395" fill="rgb(0,255,0)" r="2" stroke="rgb(0,255,0)" /><circle cx="115.60738809068201" cy="-262.5022903364481" fill="rgb(0,255,0)" r="2" stroke="rgb(0,255,0)" /><circle cx="137.7062203653285" cy="-302.39809789252" fill="rgb(0,255,0)" r="2" stroke="rgb(0,255,0)" /><circle cx="155.788241489365" cy="-313.0770731275272" fill="rgb(0,255,0)" r="2" stroke="rgb(0,255,0)" /><circle cx="149.13753360529086" cy="-305.609269927073" fill="rgb(0,255,0)" r="2" stroke="rgb(0,255,0)" /><circle cx="147.51245944648844" cy="-306.77508894321255" fill="rgb(0,255,0)" r="2" stroke="rgb(0,255,0)" /><circle cx="98.4758739355255" cy="-196.13965570271802" fill="rgb(0,255,0)" r="2" stroke="rgb(0,255,0)" /><circle cx="98.4758739355255" cy="-157.01160785414905" fill="rgb(0,255,0)" r="2" stroke="rgb(0,255,0)" /><circle cx="114.8623883717645" cy="-252.53008017927567" fill="rgb(0,255,0)" r="2" stroke="rgb(0,255,0)" /><circle cx="116.7276428425348" cy="-207.70648464993081" fill="rgb(0,255,0)" r="2" stroke="rgb(0,255,0)" /><circle cx="106.24444647763316" cy="-225.90270936757247" fill="rgb(0,255,0)" r="2" stroke="rgb(0,255,0)" /><circle cx="113.64003450242991" cy="-219.1717898339959" fill="rgb(0,255,0)" r="2" stroke="rgb(0,255,0)" /><circle cx="112.45674417735665" cy="-217.55939285850008" fill="rgb(0,255,0)" r="2" stroke="rgb(0,255,0)" /><circle cx="97.47634559376364" cy="-196.10894586691947" fill="rgb(0,255,0)" r="2" stroke="rgb(0,255,0)" /><circle cx="97.47634559376364" cy="-157.98042636011235" fill="rgb(0,255,0)" r="2" stroke="rgb(0,255,0)" /><circle cx="113.86286003000264" cy="-252.49937034347712" fill="rgb(0,255,0)" r="2" stroke="rgb(0,255,0)" /><circle cx="117.03134189072202" cy="-208.75109937524465" fill="rgb(0,255,0)" r="2" stroke="rgb(0,255,0)" /><circle cx="101.15666908568119" cy="-222.49863600305173" fill="rgb(0,255,0)" r="2" stroke="rgb(0,255,0)" /><circle cx="110.35173557021058" cy="-218.5678915004054" fill="rgb(0,255,0)" r="2" stroke="rgb(0,255,0)" /><circle cx="109.7632004138799" cy="-216.65644535422112" fill="rgb(0,255,0)" r="2" stroke="rgb(0,255,0)" /><line stroke="rgb(139,69,19)" x1="0" x2="0.0" y1="0" y2="-17.0" /><line stroke="rgb(139,69,19)" x1="0" x2="0.0" y1="0" y2="-66.0" /><line stroke="rgb(139,69,19)" x1="0" x2="16.386514436238997" y1="0" y2="-73.39042447655765" /><line stroke="rgb(139,69,19)" x1="0" x2="62.38043317138476" y1="0" y2="-100.93974885448782" /><line stroke="rgb(139,69,19)" x1="0" x2="69.55336746603575" y1="0" y2="-120.67674491783595" /><line stroke="rgb(139,69,19)" x1="0" x2="69.1650104654979" y1="0" y2="-110.6842888213533" /><line stroke="rgb(139,69,19)" x1="0" x2="69.1650104654979" y1="0" y2="-110.6842888213533" /><line stroke="rgb(139,69,19)" x1="0.0" x2="0.0" y1="-17.0" y2="-34.0" /><line stroke="rgb(139,69,19)" x1="0.0" x2="0.0" y1="-17.0" y2="-88.17391304347827" /><line stroke="rgb(139,69,19)" x1="0.0" x2="16.386514436238997" y1="-17.0" y2="-90.39042447655765" /><line stroke="rgb(139,69,19)" x1="0.0" x2="26.067876189674575" y1="-17.0" y2="-143.12255006328823" /><line stroke="rgb(139,69,19)" x1="0.0" x2="20.789685939008617" y1="-17.0" y2="-122.79668703910707" /><line stroke="rgb(139,69,19)" x1="0.0" x2="20.23324687948278" y1="-17.0" y2="-132.78119381576028" /><line stroke="rgb(139,69,19)" x1="0.0" x2="21.220321341754122" y1="-17.0" y2="-132.94145611928715" /><line stroke="rgb(139,69,19)" x1="0.0" x2="0.0" y1="-66.0" y2="-83.0" /><line stroke="rgb(139,69,19)" x1="0.0" x2="0.0" y1="-66.0" y2="-137.17391304347825" /><line stroke="rgb(139,69,19)" x1="0.0" x2="16.386514436238997" y1="-66.0" y2="-139.39042447655765" /><line stroke="rgb(139,69,19)" x1="0.0" x2="-30.996745071383334" y1="-66.0" y2="-164.47493269834519" /><line stroke="rgb(139,69,19)" x1="0.0" x2="-21.01254326870297" y1="-66.0" y2="-146.00020091779274" /><line stroke="rgb(139,69,19)" x1="0.0" x2="-28.2222470137907" y1="-66.0" y2="-152.9298597772221" /><line stroke="rgb(139,69,19)" x1="0.0" x2="-27.60888451949471" y1="-66.0" y2="-153.7196613032975" /><line stroke="rgb(139,69,19)" x1="16.386514436238997" x2="16.386514436238997" y1="-73.39042447655765" y2="-90.39042447655765" /><line stroke="rgb(139,69,19)" x1="16.386514436238997" x2="16.386514436238997" y1="-73.39042447655765" y2="-128.1778230837969" /><line stroke="rgb(139,69,19)" x1="16.386514436238997" x2="32.773028872477994" y1="-73.39042447655765" y2="-146.7808489531153" /><line stroke="rgb(139,69,19)" x1="16.386514436238997" x2="33.6414465276998" y1="-73.39042447655765" y2="-183.99768963183837" /><line stroke="rgb(139,69,19)" x1="16.386514436238997" x2="53.1725929571111" y1="-73.39042447655765" y2="-176.28184106198592" /><line stroke="rgb(139,69,19)" x1="16.386514436238997" x2="43.19469296822166" y1="-73.39042447655765" y2="-176.94630461382306" /><line stroke="rgb(139,69,19)" x1="16.386514436238997" x2="43.15591431625325" y1="-73.39042447655765" y2="-177.94555243901536" /><line stroke="rgb(139,69,19)" x1="62.38043317138476" x2="62.38043317138476" y1="-100.93974885448782" y2="-117.93974885448782" /><line stroke="rgb(139,69,19)" x1="62.38043317138476" x2="62.38043317138476" y1="-100.93974885448782" y2="-109.73322872658133" /><line stroke="rgb(139,69,19)" x1="62.38043317138476" x2="78.76694760762376" y1="-100.93974885448782" y2="-174.33017333104547" /><line stroke="rgb(139,69,19)" x1="62.38043317138476" x2="73.10786965037826" y1="-100.93974885448782" y2="-181.02600838192882" /><line stroke="rgb(139,69,19)" x1="62.38043317138476" x2="83.99984834476594" y1="-100.93974885448782" y2="-163.0714880563672" /><line stroke="rgb(139,69,19)" x1="62.38043317138476" x2="76.45394816240072" y1="-100.93974885448782" y2="-169.63345349652158" /><line stroke="rgb(139,69,19)" x1="62.38043317138476" x2="77.02721184873901" y1="-100.93974885448782" y2="-170.45282444177522" /><line stroke="rgb(139,69,19)" x1="69.55336746603575" x2="69.55336746603575" y1="-120.67674491783595" y2="-137.67674491783595" /><line stroke="rgb(139,69,19)" x1="69.55336746603575" x2="69.55336746603575" y1="-120.67674491783595" y2="-122.29729049527846" /><line stroke="rgb(139,69,19)" x1="69.55336746603575" x2="85.93988190227475" y1="-120.67674491783595" y2="-194.0671693943936" /><line stroke="rgb(139,69,19)" x1="69.55336746603575" x2="88.88388095265522" y1="-120.67674491783595" y2="-209.73282305614117" /><line stroke="rgb(139,69,19)" x1="69.55336746603575" x2="94.56822663124987" y1="-120.67674491783595" y2="-229.94886159504" /><line stroke="rgb(139,69,19)" x1="69.55336746603575" x2="94.92452122830117" y1="-120.67674491783595" y2="-219.95521090271978" /><line stroke="rgb(139,69,19)" x1="69.55336746603575" x2="93.93443413295793" y1="-120.67674491783595" y2="-219.8147561283802" /><line stroke="rgb(139,69,19)" x1="69.1650104654979" x2="69.1650104654979" y1="-110.6842888213533" y2="-127.6842888213533" /><line stroke="rgb(139,69,19)" x1="69.1650104654979" x2="69.1650104654979" y1="-110.6842888213533" y2="-112.69319139933367" /><line stroke="rgb(139,69,19)" x1="69.1650104654979" x2="85.5515249017369" y1="-110.6842888213533" y2="-184.07471329791096" /><line stroke="rgb(139,69,19)" x1="69.1650104654979" x2="91.34758940805129" y1="-110.6842888213533" y2="-169.64365086273367" /><line stroke="rgb(139,69,19)" x1="69.1650104654979" x2="99.22087365444301" y1="-110.6842888213533" y2="-189.11186585989043" /><line stroke="rgb(139,69,19)" x1="69.1650104654979" x2="98.4758739355255" y1="-110.6842888213533" y2="-179.13965570271802" /><line stroke="rgb(139,69,19)" x1="69.1650104654979" x2="97.47634559376364" y1="-110.6842888213533" y2="-179.10894586691947" /><line stroke="rgb(139,69,19)" x1="69.1650104654979" x2="69.1650104654979" y1="-110.6842888213533" y2="-127.6842888213533" /><line stroke="rgb(139,69,19)" x1="69.1650104654979" x2="69.1650104654979" y1="-110.6842888213533" y2="-112.69319139933367" /><line stroke="rgb(139,69,19)" x1="69.1650104654979" x2="85.5515249017369" y1="-110.6842888213533" y2="-184.07471329791096" /><line stroke="rgb(139,69,19)" x1="69.1650104654979" x2="91.34758940805129" y1="-110.6842888213533" y2="-169.64365086273367" /><line stroke="rgb(139,69,19)" x1="69.1650104654979" x2="99.22087365444301" y1="-110.6842888213533" y2="-189.11186585989043" /><line stroke="rgb(139,69,19)" x1="69.1650104654979" x2="98.4758739355255" y1="-110.6842888213533" y2="-179.13965570271802" /><line stroke="rgb(139,69,19)" x1="69.1650104654979" x2="97.47634559376364" y1="-110.6842888213533" y2="-179.10894586691947" /><line stroke="rgb(139,69,19)" x1="0.0" x2="0.0" y1="-34.0" y2="-51.0" /><line stroke="rgb(139,69,19)" x1="0.0" x2="0.0" y1="-34.0" y2="-110.34782608695653" /><line stroke="rgb(139,69,19)" x1="0.0" x2="16.386514436238997" y1="-34.0" y2="-107.39042447655765" /><line stroke="rgb(139,69,19)" x1="0.0" x2="-16.821874450209325" y1="-34.0" y2="-149.48090727091423" /><line stroke="rgb(139,69,19)" x1="0.0" x2="-7.620392765211502" y1="-34.0" y2="-168.35768493026725" /><line stroke="rgb(139,69,19)" x1="0.0" x2="-9.053615752396457" y1="-34.0" y2="-158.46092425472273" /><line stroke="rgb(139,69,19)" x1="0.0" x2="-11.052131079594673" y1="-34.0" y2="-158.5379728559677" /><line stroke="rgb(139,69,19)" x1="0.0" x2="0.0" y1="-88.17391304347827" y2="-105.17391304347827" /><line stroke="rgb(139,69,19)" x1="0.0" x2="0.0" y1="-88.17391304347827" y2="-164.52173913043478" /><line stroke="rgb(139,69,19)" x1="0.0" x2="16.386514436238997" y1="-88.17391304347827" y2="-161.5643375200359" /><line stroke="rgb(139,69,19)" x1="0.0" x2="11.095177908977226" y1="-88.17391304347827" y2="-108.21260285235267" /><line stroke="rgb(139,69,19)" x1="0.0" x2="32.09468086048279" y1="-88.17391304347827" y2="-108.06811828670932" /><line stroke="rgb(139,69,19)" x1="0.0" x2="22.549804849304827" y1="-88.17391304347827" y2="-105.08561230494844" /><line stroke="rgb(139,69,19)" x1="0.0" x2="21.755993688256716" y1="-88.17391304347827" y2="-106.9213311942655" /><line stroke="rgb(139,69,19)" x1="16.386514436238997" x2="16.386514436238997" y1="-90.39042447655765" y2="-107.39042447655765" /><line stroke="rgb(139,69,19)" x1="16.386514436238997" x2="16.386514436238997" y1="-90.39042447655765" y2="-150.35173612727516" /><line stroke="rgb(139,69,19)" x1="16.386514436238997" x2="32.773028872477994" y1="-90.39042447655765" y2="-163.7808489531153" /><line stroke="rgb(139,69,19)" x1="16.386514436238997" x2="5.397086845100741" y1="-90.39042447655765" y2="-189.00792126527702" /><line stroke="rgb(139,69,19)" x1="16.386514436238997" x2="3.9806392400349084" y1="-90.39042447655765" y2="-168.055745335744" /><line stroke="rgb(139,69,19)" x1="16.386514436238997" x2="1.5818760622343286" y1="-90.39042447655765" y2="-177.76377990597643" /><line stroke="rgb(139,69,19)" x1="16.386514436238997" x2="3.4623150022842433" y1="-90.39042447655765" y2="-178.44491821259555" /><line stroke="rgb(139,69,19)" x1="26.067876189674575" x2="26.067876189674575" y1="-143.12255006328823" y2="-160.12255006328823" /><line stroke="rgb(139,69,19)" x1="26.067876189674575" x2="26.067876189674575" y1="-143.12255006328823" y2="-193.4024999605702" /><line stroke="rgb(139,69,19)" x1="26.067876189674575" x2="42.454390625913575" y1="-143.12255006328823" y2="-216.51297453984589" /><line stroke="rgb(139,69,19)" x1="26.067876189674575" x2="69.93326970550329" y1="-143.12255006328823" y2="-214.59678031194395" /><line stroke="rgb(139,69,19)" x1="26.067876189674575" x2="54.43934050655483" y1="-143.12255006328823" y2="-200.4215146009256" /><line stroke="rgb(139,69,19)" x1="26.067876189674575" x2="59.408791811815526" y1="-143.12255006328823" y2="-209.0993342420937" /><line stroke="rgb(139,69,19)" x1="26.067876189674575" x2="61.239192810358624" y1="-143.12255006328823" y2="-208.29333660901256" /><line stroke="rgb(139,69,19)" x1="20.789685939008617" x2="20.789685939008617" y1="-122.79668703910707" y2="-139.79668703910707" /><line stroke="rgb(139,69,19)" x1="20.789685939008617" x2="20.789685939008617" y1="-122.79668703910707" y2="-178.35482718705498" /><line stroke="rgb(139,69,19)" x1="20.789685939008617" x2="37.17620037524762" y1="-122.79668703910707" y2="-196.18711151566472" /><line stroke="rgb(139,69,19)" x1="20.789685939008617" x2="42.53876317495641" y1="-122.79668703910707" y2="-228.56989617086498" /><line stroke="rgb(139,69,19)" x1="20.789685939008617" x2="21.559530279105616" y1="-122.79668703910707" y2="-229.50359157175973" /><line stroke="rgb(139,69,19)" x1="20.789685939008617" x2="31.209765519214166" y1="-122.79668703910707" y2="-232.12522461445795" /><line stroke="rgb(139,69,19)" x1="20.789685939008617" x2="31.934016164658324" y1="-122.79668703910707" y2="-230.2609657798071" /><line stroke="rgb(139,69,19)" x1="20.23324687948278" x2="20.23324687948278" y1="-132.78119381576028" y2="-149.78119381576028" /><line stroke="rgb(139,69,19)" x1="20.23324687948278" x2="20.23324687948278" y1="-132.78119381576028" y2="-188.89577302323403" /><line stroke="rgb(139,69,19)" x1="20.23324687948278" x2="36.619761315721775" y1="-132.78119381576028" y2="-206.17161829231793" /><line stroke="rgb(139,69,19)" x1="20.23324687948278" x2="14.513172448171378" y1="-132.78119381576028" y2="-181.16083935081988" /><line stroke="rgb(139,69,19)" x1="20.23324687948278" x2="-5.174029334703466" y1="-132.78119381576028" y2="-188.46933344744264" /><line stroke="rgb(139,69,19)" x1="20.23324687948278" x2="4.8155197848088545" y1="-132.78119381576028" y2="-188.01226847520059" /><line stroke="rgb(139,69,19)" x1="20.23324687948278" x2="4.934571962473169" y1="-132.78119381576028" y2="-186.0158149748672" /><line stroke="rgb(139,69,19)" x1="21.220321341754122" x2="21.220321341754122" y1="-132.94145611928715" y2="-149.94145611928715" /><line stroke="rgb(139,69,19)" x1="21.220321341754122" x2="21.220321341754122" y1="-132.94145611928715" y2="-188.06896086448955" /><line stroke="rgb(139,69,19)" x1="21.220321341754122" x2="37.60683577799312" y1="-132.94145611928715" y2="-206.3318805958448" /><line stroke="rgb(139,69,19)" x1="21.220321341754122" x2="12.555733188979637" y1="-132.94145611928715" y2="-185.79510023989252" /><line stroke="rgb(139,69,19)" x1="21.220321341754122" x2="29.036453723406137" y1="-132.94145611928715" y2="-198.8099321891008" /><line stroke="rgb(139,69,19)" x1="21.220321341754122" x2="23.451028412166487" y1="-132.94145611928715" y2="-190.5151733564063" /><line stroke="rgb(139,69,19)" x1="21.220321341754122" x2="21.68386889865795" y1="-132.94145611928715" y2="-191.45173475525652" /><line stroke="rgb(139,69,19)" x1="0.0" x2="0.0" y1="-83.0" y2="-100.0" /><line stroke="rgb(139,69,19)" x1="0.0" x2="0.0" y1="-83.0" y2="-159.3478260869565" /><line stroke="rgb(139,69,19)" x1="0.0" x2="16.386514436238997" y1="-83.0" y2="-156.39042447655765" /><line stroke="rgb(139,69,19)" x1="0.0" x2="-33.73958927381091" y1="-83.0" y2="-137.36992077279282" /><line stroke="rgb(139,69,19)" x1="0.0" x2="-41.875309719889806" y1="-83.0" y2="-118.00990907798092" /><line stroke="rgb(139,69,19)" x1="0.0" x2="-40.995581830064694" y1="-83.0" y2="-127.97113785960539" /><line stroke="rgb(139,69,19)" x1="0.0" x2="-38.99587756184384" y1="-83.0" y2="-128.00553029568235" /><line stroke="rgb(139,69,19)" x1="0.0" x2="0.0" y1="-137.17391304347825" y2="-154.17391304347825" /><line stroke="rgb(139,69,19)" x1="0.0" x2="0.0" y1="-137.17391304347825" y2="-213.52173913043478" /><line stroke="rgb(139,69,19)" x1="0.0" x2="16.386514436238997" y1="-137.17391304347825" y2="-210.5643375200359" /><line stroke="rgb(139,69,19)" x1="0.0" x2="65.68033659832813" y1="-137.17391304347825" y2="-189.4805776336224" /><line stroke="rgb(139,69,19)" x1="0.0" x2="81.67544622951303" y1="-137.17391304347825" y2="-175.87335646666932" /><line stroke="rgb(139,69,19)" x1="0.0" x2="72.44612452890436" y1="-137.17391304347825" y2="-179.72298254548193" /><line stroke="rgb(139,69,19)" x1="0.0" x2="73.01780586295685" y1="-137.17391304347825" y2="-181.63953686307795" /><line stroke="rgb(139,69,19)" x1="16.386514436238997" x2="16.386514436238997" y1="-139.39042447655765" y2="-156.39042447655765" /><line stroke="rgb(139,69,19)" x1="16.386514436238997" x2="16.386514436238997" y1="-139.39042447655765" y2="-199.3517361272752" /><line stroke="rgb(139,69,19)" x1="16.386514436238997" x2="32.773028872477994" y1="-139.39042447655765" y2="-212.7808489531153" /><line stroke="rgb(139,69,19)" x1="16.386514436238997" x2="0.48363768201104307" y1="-139.39042447655765" y2="-194.25404146023212" /><line stroke="rgb(139,69,19)" x1="16.386514436238997" x2="11.88433843866224" y1="-139.39042447655765" y2="-211.88991462424906" /><line stroke="rgb(139,69,19)" x1="16.386514436238997" x2="9.273588946443395" y1="-139.39042447655765" y2="-202.23672929043934" /><line stroke="rgb(139,69,19)" x1="16.386514436238997" x2="7.298769848257603" y1="-139.39042447655765" y2="-202.5530985832613" /><line stroke="rgb(139,69,19)" x1="-30.996745071383334" x2="-30.996745071383334" y1="-164.47493269834519" y2="-181.47493269834519" /><line stroke="rgb(139,69,19)" x1="-30.996745071383334" x2="-30.996745071383334" y1="-164.47493269834519" y2="-271.81950385668506" /><line stroke="rgb(139,69,19)" x1="-30.996745071383334" x2="-14.610230635144337" y1="-164.47493269834519" y2="-237.86535717490284" /><line stroke="rgb(139,69,19)" x1="-30.996745071383334" x2="-85.88266472604184" y1="-164.47493269834519" y2="-192.26786528235473" /><line stroke="rgb(139,69,19)" x1="-30.996745071383334" x2="-104.3305266332729" y1="-164.47493269834519" y2="-202.3016278394284" /><line stroke="rgb(139,69,19)" x1="-30.996745071383334" x2="-94.5074882816696" y1="-164.47493269834519" y2="-200.4286842890429" /><line stroke="rgb(139,69,19)" x1="-30.996745071383334" x2="-94.67354351609164" y1="-164.47493269834519" y2="-198.43558979576844" /><line stroke="rgb(139,69,19)" x1="-21.01254326870297" x2="-21.01254326870297" y1="-146.00020091779274" y2="-163.00020091779274" /><line stroke="rgb(139,69,19)" x1="-21.01254326870297" x2="-21.01254326870297" y1="-146.00020091779274" y2="-243.36057027345225" /><line stroke="rgb(139,69,19)" x1="-21.01254326870297" x2="-4.626028832463973" y1="-146.00020091779274" y2="-219.3906253943504" /><line stroke="rgb(139,69,19)" x1="-21.01254326870297" x2="-77.847519760735" y1="-146.00020091779274" y2="-204.98030112510273" /><line stroke="rgb(139,69,19)" x1="-21.01254326870297" x2="-91.24405207387716" y1="-146.00020091779274" y2="-188.80832159311785" /><line stroke="rgb(139,69,19)" x1="-21.01254326870297" x2="-87.51565200626239" y1="-146.00020091779274" y2="-198.08727805038234" /><line stroke="rgb(139,69,19)" x1="-21.01254326870297" x2="-85.59177361697274" y1="-146.00020091779274" y2="-197.54075088433814" /><line stroke="rgb(139,69,19)" x1="-28.2222470137907" x2="-28.2222470137907" y1="-152.9298597772221" y2="-169.9298597772221" /><line stroke="rgb(139,69,19)" x1="-28.2222470137907" x2="-28.2222470137907" y1="-152.9298597772221" y2="-257.49993287796934" /><line stroke="rgb(139,69,19)" x1="-28.2222470137907" x2="-11.835732577551703" y1="-152.9298597772221" y2="-226.32028425377976" /><line stroke="rgb(139,69,19)" x1="-28.2222470137907" x2="-85.44769405747442" y1="-152.9298597772221" y2="-262.0745323032484" /><line stroke="rgb(139,69,19)" x1="-28.2222470137907" x2="-95.2626341620102" y1="-152.9298597772221" y2="-280.6397403749177" /><line stroke="rgb(139,69,19)" x1="-28.2222470137907" x2="-88.11656322830802" y1="-152.9298597772221" y2="-273.6444798214789" /><line stroke="rgb(139,69,19)" x1="-28.2222470137907" x2="-89.35767333144702" y1="-152.9298597772221" y2="-272.0761540543354" /><line stroke="rgb(139,69,19)" x1="-27.60888451949471" x2="-27.60888451949471" y1="-153.7196613032975" y2="-170.7196613032975" /><line stroke="rgb(139,69,19)" x1="-27.60888451949471" x2="-27.60888451949471" y1="-153.7196613032975" y2="-257.67637190974875" /><line stroke="rgb(139,69,19)" x1="-27.60888451949471" x2="-11.222370083255711" y1="-153.7196613032975" y2="-227.11008577985515" /><line stroke="rgb(139,69,19)" x1="-27.60888451949471" x2="-37.45294571777637" y1="-153.7196613032975" y2="-303.98030305431746" /><line stroke="rgb(139,69,19)" x1="-27.60888451949471" x2="-26.167038280164213" y1="-153.7196613032975" y2="-286.2707493244899" /><line stroke="rgb(139,69,19)" x1="-27.60888451949471" x2="-33.85604057120117" y1="-153.7196613032975" y2="-292.6644371311026" /><line stroke="rgb(139,69,19)" x1="-27.60888451949471" x2="-32.74599006824846" y1="-153.7196613032975" y2="-294.328104129301" /><line stroke="rgb(139,69,19)" x1="16.386514436238997" x2="16.386514436238997" y1="-90.39042447655765" y2="-107.39042447655765" /><line stroke="rgb(139,69,19)" x1="16.386514436238997" x2="16.386514436238997" y1="-90.39042447655765" y2="-150.35173612727516" /><line stroke="rgb(139,69,19)" x1="16.386514436238997" x2="32.773028872477994" y1="-90.39042447655765" y2="-163.7808489531153" /><line stroke="rgb(139,69,19)" x1="16.386514436238997" x2="5.397086845100741" y1="-90.39042447655765" y2="-189.00792126527702" /><line stroke="rgb(139,69,19)" x1="16.386514436238997" x2="3.9806392400349084" y1="-90.39042447655765" y2="-168.055745335744" /><line stroke="rgb(139,69,19)" x1="16.386514436238997" x2="1.5818760622343286" y1="-90.39042447655765" y2="-177.76377990597643" /><line stroke="rgb(139,69,19)" x1="16.386514436238997" x2="3.4623150022842433" y1="-90.39042447655765" y2="-178.44491821259555" /><line stroke="rgb(139,69,19)" x1="16.386514436238997" x2="16.386514436238997" y1="-128.1778230837969" y2="-145.1778230837969" /><line stroke="rgb(139,69,19)" x1="16.386514436238997" x2="16.386514436238997" y1="-128.1778230837969" y2="-188.13913473451444" /><line stroke="rgb(139,69,19)" x1="16.386514436238997" x2="32.773028872477994" y1="-128.1778230837969" y2="-201.56824756035456" /><line stroke="rgb(139,69,19)" x1="16.386514436238997" x2="7.728033525380088" y1="-128.1778230837969" y2="-229.1108615864996" /><line stroke="rgb(139,69,19)" x1="16.386514436238997" x2="25.008188908806403" y1="-128.1778230837969" y2="-241.0438507310787" /><line stroke="rgb(139,69,19)" x1="16.386514436238997" x2="18.903168690710736" y1="-128.1778230837969" y2="-233.12370375411905" /><line stroke="rgb(139,69,19)" x1="16.386514436238997" x2="17.199595911353363" y1="-128.1778230837969" y2="-234.17148225429577" /><line stroke="rgb(139,69,19)" x1="32.773028872477994" x2="32.773028872477994" y1="-146.7808489531153" y2="-163.7808489531153" /><line stroke="rgb(139,69,19)" x1="32.773028872477994" x2="32.773028872477994" y1="-146.7808489531153" y2="-190.35564616759385" /><line stroke="rgb(139,69,19)" x1="32.773028872477994" x2="49.15954330871699" y1="-146.7808489531153" y2="-220.17127342967296" /><line stroke="rgb(139,69,19)" x1="32.773028872477994" x2="31.799887840965287" y1="-146.7808489531153" y2="-231.70240508021797" /><line stroke="rgb(139,69,19)" x1="32.773028872477994" x2="52.338561537304315" y1="-146.7808489531153" y2="-227.32486207125606" /><line stroke="rgb(139,69,19)" x1="32.773028872477994" x2="42.38826580760528" y1="-146.7808489531153" y2="-226.32906345128657" /><line stroke="rgb(139,69,19)" x1="32.773028872477994" x2="41.981074897197864" y1="-146.7808489531153" y2="-228.28717365310914" /><line stroke="rgb(139,69,19)" x1="33.6414465276998" x2="33.6414465276998" y1="-183.99768963183837" y2="-200.99768963183837" /><line stroke="rgb(139,69,19)" x1="33.6414465276998" x2="33.6414465276998" y1="-183.99768963183837" y2="-226.7040691910951" /><line stroke="rgb(139,69,19)" x1="33.6414465276998" x2="50.027960963938796" y1="-183.99768963183837" y2="-257.38811410839605" /><line stroke="rgb(139,69,19)" x1="33.6414465276998" x2="30.16394894872083" y1="-183.99768963183837" y2="-259.46257064378756" /><line stroke="rgb(139,69,19)" x1="33.6414465276998" x2="34.48272913744625" y1="-183.99768963183837" y2="-238.9114602679107" /><line stroke="rgb(139,69,19)" x1="33.6414465276998" x2="29.54108198063047" y1="-183.99768963183837" y2="-247.60514322610135" /><line stroke="rgb(139,69,19)" x1="33.6414465276998" x2="31.16632794139355" y1="-183.99768963183837" y2="-248.77072272447256" /><line stroke="rgb(139,69,19)" x1="53.1725929571111" x2="53.1725929571111" y1="-176.28184106198592" y2="-193.28184106198592" /><line stroke="rgb(139,69,19)" x1="53.1725929571111" x2="53.1725929571111" y1="-176.28184106198592" y2="-199.45707419183134" /><line stroke="rgb(139,69,19)" x1="53.1725929571111" x2="69.5591073933501" y1="-176.28184106198592" y2="-249.67226553854357" /><line stroke="rgb(139,69,19)" x1="53.1725929571111" x2="69.45336895673032" y1="-176.28184106198592" y2="-249.24424021964325" /><line stroke="rgb(139,69,19)" x1="53.1725929571111" x2="67.59702281236756" y1="-176.28184106198592" y2="-270.162031187915" /><line stroke="rgb(139,69,19)" x1="53.1725929571111" x2="71.47510520339611" y1="-176.28184106198592" y2="-260.9446304171774" /><line stroke="rgb(139,69,19)" x1="53.1725929571111" x2="69.72334180651788" y1="-176.28184106198592" y2="-259.9795786043934" /><line stroke="rgb(139,69,19)" x1="43.19469296822166" x2="43.19469296822166" y1="-176.94630461382306" y2="-193.94630461382306" /><line stroke="rgb(139,69,19)" x1="43.19469296822166" x2="43.19469296822166" y1="-176.94630461382306" y2="-210.09943773255793" /><line stroke="rgb(139,69,19)" x1="43.19469296822166" x2="59.581207404460656" y1="-176.94630461382306" y2="-250.33672909038071" /><line stroke="rgb(139,69,19)" x1="43.19469296822166" x2="51.376984364971705" y1="-176.94630461382306" y2="-243.91473847475504" /><line stroke="rgb(139,69,19)" x1="43.19469296822166" x2="47.26214541962187" y1="-176.94630461382306" y2="-264.5076523155361" /><line stroke="rgb(139,69,19)" x1="43.19469296822166" x2="52.11736679199421" y1="-176.94630461382306" y2="-255.76540858607748" /><line stroke="rgb(139,69,19)" x1="43.19469296822166" x2="50.4806459697463" y1="-176.94630461382306" y2="-254.61599788923317" /><line stroke="rgb(139,69,19)" x1="43.15591431625325" x2="43.15591431625325" y1="-177.94555243901536" y2="-194.94555243901536" /><line stroke="rgb(139,69,19)" x1="43.15591431625325" x2="43.15591431625325" y1="-177.94555243901536" y2="-211.13746420971864" /><line stroke="rgb(139,69,19)" x1="43.15591431625325" x2="59.54242875249225" y1="-177.94555243901536" y2="-251.335976915573" /><line stroke="rgb(139,69,19)" x1="43.15591431625325" x2="49.66654768943684" y1="-177.94555243901536" y2="-254.77512937295035" /><line stroke="rgb(139,69,19)" x1="43.15591431625325" x2="62.0238015428984" y1="-177.94555243901536" y2="-237.79578082239902" /><line stroke="rgb(139,69,19)" x1="43.15591431625325" x2="53.9548992810286" y1="-177.94555243901536" y2="-243.70279498256426" /><line stroke="rgb(139,69,19)" x1="43.15591431625325" x2="54.960169331434244" y1="-177.94555243901536" y2="-245.43179241626896" /><line stroke="rgb(139,69,19)" x1="62.38043317138476" x2="62.38043317138476" y1="-117.93974885448782" y2="-134.93974885448782" /><line stroke="rgb(139,69,19)" x1="62.38043317138476" x2="62.38043317138476" y1="-117.93974885448782" y2="-131.90714177005958" /><line stroke="rgb(139,69,19)" x1="62.38043317138476" x2="78.76694760762376" y1="-117.93974885448782" y2="-191.33017333104547" /><line stroke="rgb(139,69,19)" x1="62.38043317138476" x2="70.0016771494986" y1="-117.93974885448782" y2="-191.50164971641203" /><line stroke="rgb(139,69,19)" x1="62.38043317138476" x2="56.29172778460995" y1="-117.93974885448782" y2="-175.59450388781698" /><line stroke="rgb(139,69,19)" x1="62.38043317138476" x2="60.20071194459894" y1="-117.93974885448782" y2="-184.79884214958003" /><line stroke="rgb(139,69,19)" x1="62.38043317138476" x2="62.113544822314516" y1="-117.93974885448782" y2="-184.2148298364133" /><line stroke="rgb(139,69,19)" x1="62.38043317138476" x2="62.38043317138476" y1="-109.73322872658133" y2="-126.73322872658133" /><line stroke="rgb(139,69,19)" x1="62.38043317138476" x2="62.38043317138476" y1="-109.73322872658133" y2="-123.7006216421531" /><line stroke="rgb(139,69,19)" x1="62.38043317138476" x2="78.76694760762376" y1="-109.73322872658133" y2="-183.12365320313899" /><line stroke="rgb(139,69,19)" x1="62.38043317138476" x2="81.63250105840928" y1="-109.73322872658133" y2="-174.83824592434382" /><line stroke="rgb(139,69,19)" x1="62.38043317138476" x2="87.36410604558391" y1="-109.73322872658133" y2="-154.63555540374745" /><line stroke="rgb(139,69,19)" x1="62.38043317138476" x2="81.83227288657619" y1="-109.73322872658133" y2="-162.96615093473457" /><line stroke="rgb(139,69,19)" x1="62.38043317138476" x2="83.3728990104767" y1="-109.73322872658133" y2="-164.24148271366712" /><line stroke="rgb(139,69,19)" x1="78.76694760762376" x2="78.76694760762376" y1="-174.33017333104547" y2="-191.33017333104547" /><line stroke="rgb(139,69,19)" x1="78.76694760762376" x2="78.76694760762376" y1="-174.33017333104547" y2="-171.91105181037824" /><line stroke="rgb(139,69,19)" x1="78.76694760762376" x2="95.15346204386276" y1="-174.33017333104547" y2="-247.72059780760313" /><line stroke="rgb(139,69,19)" x1="78.76694760762376" x2="70.24149920099151" y1="-174.33017333104547" y2="-244.24342077623896" /><line stroke="rgb(139,69,19)" x1="78.76694760762376" x2="63.76967148054957" y1="-174.33017333104547" y2="-224.26554686641265" /><line stroke="rgb(139,69,19)" x1="78.76694760762376" x2="63.80509270588462" y1="-174.33017333104547" y2="-234.26548413305565" /><line stroke="rgb(139,69,19)" x1="78.76694760762376" x2="65.79475027984562" y1="-174.33017333104547" y2="-234.4686164504737" /><line stroke="rgb(139,69,19)" x1="73.10786965037826" x2="73.10786965037826" y1="-181.02600838192882" y2="-198.02600838192882" /><line stroke="rgb(139,69,19)" x1="73.10786965037826" x2="73.10786965037826" y1="-181.02600838192882" y2="-184.2659648185071" /><line stroke="rgb(139,69,19)" x1="73.10786965037826" x2="89.49438408661726" y1="-181.02600838192882" y2="-254.41643285848647" /><line stroke="rgb(139,69,19)" x1="73.10786965037826" x2="70.72703994397757" y1="-181.02600838192882" y2="-259.69069155031076" /><line stroke="rgb(139,69,19)" x1="73.10786965037826" x2="65.72731537954067" y1="-181.02600838192882" y2="-239.29454597621353" /><line stroke="rgb(139,69,19)" x1="73.10786965037826" x2="65.03438241436848" y1="-181.02600838192882" y2="-249.27050928337226" /><line stroke="rgb(139,69,19)" x1="73.10786965037826" x2="67.00396329587836" y1="-181.02600838192882" y2="-249.6180019468786" /><line stroke="rgb(139,69,19)" x1="83.99984834476594" x2="83.99984834476594" y1="-163.0714880563672" y2="-180.0714880563672" /><line stroke="rgb(139,69,19)" x1="83.99984834476594" x2="83.99984834476594" y1="-163.0714880563672" y2="-155.41946579855778" /><line stroke="rgb(139,69,19)" x1="83.99984834476594" x2="100.38636278100493" y1="-163.0714880563672" y2="-236.46191253292486" /><line stroke="rgb(139,69,19)" x1="83.99984834476594" x2="88.50317579295546" y1="-163.0714880563672" y2="-264.4283372251499" /><line stroke="rgb(139,69,19)" x1="83.99984834476594" x2="71.63474244211136" y1="-163.0714880563672" y2="-276.9365727637113" /><line stroke="rgb(139,69,19)" x1="83.99984834476594" x2="81.10062716878448" y1="-163.0714880563672" y2="-273.71213074355705" /><line stroke="rgb(139,69,19)" x1="83.99984834476594" x2="80.65826234075848" y1="-163.0714880563672" y2="-271.76166583515044" /><line stroke="rgb(139,69,19)" x1="76.45394816240072" x2="76.45394816240072" y1="-169.63345349652158" y2="-186.63345349652158" /><line stroke="rgb(139,69,19)" x1="76.45394816240072" x2="76.45394816240072" y1="-169.63345349652158" y2="-169.5273314210774" /><line stroke="rgb(139,69,19)" x1="76.45394816240072" x2="92.84046259863972" y1="-169.63345349652158" y2="-243.02387797307924" /><line stroke="rgb(139,69,19)" x1="76.45394816240072" x2="90.03785867544508" y1="-169.63345349652158" y2="-265.6917438401951" /><line stroke="rgb(139,69,19)" x1="76.45394816240072" x2="72.92024965936531" y1="-169.63345349652158" y2="-253.52673411670435" /><line stroke="rgb(139,69,19)" x1="76.45394816240072" x2="78.91787292177206" y1="-169.63345349652158" y2="-261.52851611837355" /><line stroke="rgb(139,69,19)" x1="76.45394816240072" x2="80.63542504519667" y1="-169.63345349652158" y2="-260.5038138673174" /><line stroke="rgb(139,69,19)" x1="77.02721184873901" x2="77.02721184873901" y1="-170.45282444177522" y2="-187.45282444177522" /><line stroke="rgb(139,69,19)" x1="77.02721184873901" x2="77.02721184873901" y1="-170.45282444177522" y2="-169.77343867999275" /><line stroke="rgb(139,69,19)" x1="77.02721184873901" x2="93.41372628497801" y1="-170.45282444177522" y2="-243.84324891833288" /><line stroke="rgb(139,69,19)" x1="77.02721184873901" x2="108.43193319886831" y1="-170.45282444177522" y2="-261.80587789182806" /><line stroke="rgb(139,69,19)" x1="77.02721184873901" x2="91.80354017391485" y1="-170.45282444177522" y2="-274.6314985554716" /><line stroke="rgb(139,69,19)" x1="77.02721184873901" x2="101.206627202923" y1="-170.45282444177522" y2="-271.22827150972535" /><line stroke="rgb(139,69,19)" x1="77.02721184873901" x2="100.7273834904001" y1="-170.45282444177522" y2="-269.2865389163935" /><line stroke="rgb(139,69,19)" x1="69.55336746603575" x2="69.55336746603575" y1="-137.67674491783595" y2="-154.67674491783595" /><line stroke="rgb(139,69,19)" x1="69.55336746603575" x2="69.55336746603575" y1="-137.67674491783595" y2="-144.47120353875673" /><line stroke="rgb(139,69,19)" x1="69.55336746603575" x2="85.93988190227475" y1="-137.67674491783595" y2="-211.0671693943936" /><line stroke="rgb(139,69,19)" x1="69.55336746603575" x2="76.11914755198126" y1="-137.67674491783595" y2="-223.62236799415425" /><line stroke="rgb(139,69,19)" x1="69.55336746603575" x2="55.5118974037243" y1="-137.67674491783595" y2="-227.66479812059595" /><line stroke="rgb(139,69,19)" x1="69.55336746603575" x2="65.44465367489815" y1="-137.67674491783595" y2="-228.8225342120505" /><line stroke="rgb(139,69,19)" x1="69.55336746603575" x2="65.88368410114713" y1="-137.67674491783595" y2="-226.87131605796634" /><line stroke="rgb(139,69,19)" x1="69.55336746603575" x2="69.55336746603575" y1="-122.29729049527846" y2="-139.29729049527845" /><line stroke="rgb(139,69,19)" x1="69.55336746603575" x2="69.55336746603575" y1="-122.29729049527846" y2="-129.09174911619922" /><line stroke="rgb(139,69,19)" x1="69.55336746603575" x2="85.93988190227475" y1="-122.29729049527846" y2="-195.6877149718361" /><line stroke="rgb(139,69,19)" x1="69.55336746603575" x2="91.18473897400825" y1="-122.29729049527846" y2="-180.6354291203266" /><line stroke="rgb(139,69,19)" x1="69.55336746603575" x2="82.88699929153093" y1="-122.29729049527846" y2="-199.92655444161983" /><line stroke="rgb(139,69,19)" x1="69.55336746603575" x2="89.45033970707446" y1="-122.29729049527846" y2="-192.38185016711756" /><line stroke="rgb(139,69,19)" x1="69.55336746603575" x2="88.0877015855853" y1="-122.29729049527846" y2="-190.91787702874907" /><line stroke="rgb(139,69,19)" x1="85.93988190227475" x2="85.93988190227475" y1="-194.0671693943936" y2="-211.0671693943936" /><line stroke="rgb(139,69,19)" x1="85.93988190227475" x2="85.93988190227475" y1="-194.0671693943936" y2="-184.47511357907538" /><line stroke="rgb(139,69,19)" x1="85.93988190227475" x2="102.32639633851375" y1="-194.0671693943936" y2="-267.45759387095126" /><line stroke="rgb(139,69,19)" x1="85.93988190227475" x2="78.64617223936581" y1="-194.0671693943936" y2="-289.46311333423154" /><line stroke="rgb(139,69,19)" x1="85.93988190227475" x2="95.36354502557856" y1="-194.0671693943936" y2="-276.7536897781928" /><line stroke="rgb(139,69,19)" x1="85.93988190227475" x2="85.93696877415216" y1="-194.0671693943936" y2="-280.0913027240036" /><line stroke="rgb(139,69,19)" x1="85.93988190227475" x2="86.40266863723143" y1="-194.0671693943936" y2="-282.0363280805293" /><line stroke="rgb(139,69,19)" x1="88.88388095265522" x2="88.88388095265522" y1="-209.73282305614117" y2="-226.73282305614117" /><line stroke="rgb(139,69,19)" x1="88.88388095265522" x2="88.88388095265522" y1="-209.73282305614117" y2="-197.19676819044247" /><line stroke="rgb(139,69,19)" x1="88.88388095265522" x2="105.27039538889422" y1="-209.73282305614117" y2="-283.1232475326988" /><line stroke="rgb(139,69,19)" x1="88.88388095265522" x2="132.09961373539514" y1="-209.73282305614117" y2="-260.2279678051063" /><line stroke="rgb(139,69,19)" x1="88.88388095265522" x2="149.87684589413027" y1="-209.73282305614117" y2="-249.0489688886365" /><line stroke="rgb(139,69,19)" x1="88.88388095265522" x2="140.19172957657634" y1="-209.73282305614117" y2="-251.5386519840224" /><line stroke="rgb(139,69,19)" x1="88.88388095265522" x2="140.48334854301538" y1="-209.73282305614117" y2="-253.5172773599875" /><line stroke="rgb(139,69,19)" x1="94.56822663124987" x2="94.56822663124987" y1="-229.94886159504" y2="-246.94886159504" /><line stroke="rgb(139,69,19)" x1="94.56822663124987" x2="94.56822663124987" y1="-229.94886159504" y2="-211.72846105074666" /><line stroke="rgb(139,69,19)" x1="94.56822663124987" x2="110.95474106748887" y1="-229.94886159504" y2="-303.33928607159766" /><line stroke="rgb(139,69,19)" x1="94.56822663124987" x2="91.24333131549977" y1="-229.94886159504" y2="-267.4401058373047" /><line stroke="rgb(139,69,19)" x1="94.56822663124987" x2="98.8884999353172" y1="-229.94886159504" y2="-286.9990269929963" /><line stroke="rgb(139,69,19)" x1="94.56822663124987" x2="98.26012330416428" y1="-229.94886159504" y2="-277.0187893801225" /><line stroke="rgb(139,69,19)" x1="94.56822663124987" x2="96.26192118780929" y1="-229.94886159504" y2="-276.93400552438084" /><line stroke="rgb(139,69,19)" x1="94.92452122830117" x2="94.92452122830117" y1="-219.95521090271978" y2="-236.95521090271978" /><line stroke="rgb(139,69,19)" x1="94.92452122830117" x2="94.92452122830117" y1="-219.95521090271978" y2="-201.37851576137513" /><line stroke="rgb(139,69,19)" x1="94.92452122830117" x2="111.31103566454017" y1="-219.95521090271978" y2="-293.34563537927744" /><line stroke="rgb(139,69,19)" x1="94.92452122830117" x2="108.55604411532492" y1="-219.95521090271978" y2="-334.5647048646584" /><line stroke="rgb(139,69,19)" x1="94.92452122830117" x2="88.11004254590075" y1="-219.95521090271978" y2="-329.7729390290708" /><line stroke="rgb(139,69,19)" x1="94.92452122830117" x2="96.6874026277038" y1="-219.95521090271978" y2="-334.91384303781206" /><line stroke="rgb(139,69,19)" x1="94.92452122830117" x2="97.89016797234703" y1="-219.95521090271978" y2="-333.31592078509595" /><line stroke="rgb(139,69,19)" x1="93.93443413295793" x2="93.93443413295793" y1="-219.8147561283802" y2="-236.8147561283802" /><line stroke="rgb(139,69,19)" x1="93.93443413295793" x2="93.93443413295793" y1="-219.8147561283802" y2="-202.2281480823788" /><line stroke="rgb(139,69,19)" x1="93.93443413295793" x2="110.32094856919693" y1="-219.8147561283802" y2="-293.2051806049378" /><line stroke="rgb(139,69,19)" x1="93.93443413295793" x2="102.02636309222969" y1="-219.8147561283802" y2="-332.66375059024153" /><line stroke="rgb(139,69,19)" x1="93.93443413295793" x2="81.1880366146381" y1="-219.8147561283802" y2="-330.0629527101084" /><line stroke="rgb(139,69,19)" x1="93.93443413295793" x2="90.26134223853447" y1="-219.8147561283802" y2="-334.2671321847943" /><line stroke="rgb(139,69,19)" x1="93.93443413295793" x2="91.28822376180099" y1="-219.8147561283802" y2="-332.5508821047728" /><line stroke="rgb(139,69,19)" x1="69.1650104654979" x2="69.1650104654979" y1="-127.6842888213533" y2="-144.6842888213533" /><line stroke="rgb(139,69,19)" x1="69.1650104654979" x2="69.1650104654979" y1="-127.6842888213533" y2="-134.86710444281192" /><line stroke="rgb(139,69,19)" x1="69.1650104654979" x2="85.5515249017369" y1="-127.6842888213533" y2="-201.07471329791096" /><line stroke="rgb(139,69,19)" x1="69.1650104654979" x2="100.21630698350073" y1="-127.6842888213533" y2="-195.89841217995797" /><line stroke="rgb(139,69,19)" x1="69.1650104654979" x2="116.78540019406843" y1="-127.6842888213533" y2="-182.9962747531779" /><line stroke="rgb(139,69,19)" x1="69.1650104654979" x2="107.39810116070828" y1="-127.6842888213533" y2="-186.4428116902026" /><line stroke="rgb(139,69,19)" x1="69.1650104654979" x2="107.88629071822977" y1="-127.6842888213533" y2="-188.3823144501715" /><line stroke="rgb(139,69,19)" x1="69.1650104654979" x2="69.1650104654979" y1="-112.69319139933367" y2="-129.69319139933367" /><line stroke="rgb(139,69,19)" x1="69.1650104654979" x2="69.1650104654979" y1="-112.69319139933367" y2="-119.87600702079229" /><line stroke="rgb(139,69,19)" x1="69.1650104654979" x2="85.5515249017369" y1="-112.69319139933367" y2="-186.08361587589133" /><line stroke="rgb(139,69,19)" x1="69.1650104654979" x2="77.89716556542848" y1="-112.69319139933367" y2="-199.62099782071402" /><line stroke="rgb(139,69,19)" x1="69.1650104654979" x2="75.05679034849213" y1="-112.69319139933367" y2="-178.81397331870957" /><line stroke="rgb(139,69,19)" x1="69.1650104654979" x2="73.32488947426103" y1="-112.69319139933367" y2="-188.6628574870729" /><line stroke="rgb(139,69,19)" x1="69.1650104654979" x2="75.24735837321096" y1="-112.69319139933367" y2="-189.21432220268963" /><line stroke="rgb(139,69,19)" x1="85.5515249017369" x2="85.5515249017369" y1="-184.07471329791096" y2="-201.07471329791096" /><line stroke="rgb(139,69,19)" x1="85.5515249017369" x2="85.5515249017369" y1="-184.07471329791096" y2="-174.87101448313058" /><line stroke="rgb(139,69,19)" x1="85.5515249017369" x2="101.9380393379759" y1="-184.07471329791096" y2="-257.46513777446864" /><line stroke="rgb(139,69,19)" x1="85.5515249017369" x2="133.3538878461613" y1="-184.07471329791096" y2="-251.71337115326094" /><line stroke="rgb(139,69,19)" x1="85.5515249017369" x2="140.60419683304755" y1="-184.07471329791096" y2="-271.4220753114413" /><line stroke="rgb(139,69,19)" x1="85.5515249017369" x2="140.17664157802074" y1="-184.07471329791096" y2="-261.43121966720844" /><line stroke="rgb(139,69,19)" x1="85.5515249017369" x2="138.18054845090907" y1="-184.07471329791096" y2="-261.3062707660624" /><line stroke="rgb(139,69,19)" x1="91.34758940805129" x2="91.34758940805129" y1="-169.64365086273367" y2="-186.64365086273367" /><line stroke="rgb(139,69,19)" x1="91.34758940805129" x2="91.34758940805129" y1="-169.64365086273367" y2="-154.6438875416389" /><line stroke="rgb(139,69,19)" x1="91.34758940805129" x2="107.73410384429029" y1="-169.64365086273367" y2="-243.03407533929132" /><line stroke="rgb(139,69,19)" x1="91.34758940805129" x2="103.4861134086237" y1="-169.64365086273367" y2="-280.52830383102275" /><line stroke="rgb(139,69,19)" x1="91.34758940805129" x2="101.78159612876586" y1="-169.64365086273367" y2="-259.597593837268" /><line stroke="rgb(139,69,19)" x1="91.34758940805129" x2="99.5165969237048" y1="-169.64365086273367" y2="-269.33770567446334" /><line stroke="rgb(139,69,19)" x1="91.34758940805129" x2="101.40622722658561" y1="-169.64365086273367" y2="-269.9929135181546" /><line stroke="rgb(139,69,19)" x1="99.22087365444301" x2="99.22087365444301" y1="-189.11186585989043" y2="-206.11186585989043" /><line stroke="rgb(139,69,19)" x1="99.22087365444301" x2="99.22087365444301" y1="-189.11186585989043" y2="-166.23881829240395" /><line stroke="rgb(139,69,19)" x1="99.22087365444301" x2="115.60738809068201" y1="-189.11186585989043" y2="-262.5022903364481" /><line stroke="rgb(139,69,19)" x1="99.22087365444301" x2="137.7062203653285" y1="-189.11186585989043" y2="-302.39809789252" /><line stroke="rgb(139,69,19)" x1="99.22087365444301" x2="155.788241489365" y1="-189.11186585989043" y2="-313.0770731275272" /><line stroke="rgb(139,69,19)" x1="99.22087365444301" x2="149.13753360529086" y1="-189.11186585989043" y2="-305.609269927073" /><line stroke="rgb(139,69,19)" x1="99.22087365444301" x2="147.51245944648844" y1="-189.11186585989043" y2="-306.77508894321255" /><line stroke="rgb(139,69,19)" x1="98.4758739355255" x2="98.4758739355255" y1="-179.13965570271802" y2="-196.13965570271802" /><line stroke="rgb(139,69,19)" x1="98.4758739355255" x2="98.4758739355255" y1="-179.13965570271802" y2="-157.01160785414905" /><line stroke="rgb(139,69,19)" x1="98.4758739355255" x2="114.8623883717645" y1="-179.13965570271802" y2="-252.53008017927567" /><line stroke="rgb(139,69,19)" x1="98.4758739355255" x2="116.7276428425348" y1="-179.13965570271802" y2="-207.70648464993081" /><line stroke="rgb(139,69,19)" x1="98.4758739355255" x2="106.24444647763316" y1="-179.13965570271802" y2="-225.90270936757247" /><line stroke="rgb(139,69,19)" x1="98.4758739355255" x2="113.64003450242991" y1="-179.13965570271802" y2="-219.1717898339959" /><line stroke="rgb(139,69,19)" x1="98.4758739355255" x2="112.45674417735665" y1="-179.13965570271802" y2="-217.55939285850008" /><line stroke="rgb(139,69,19)" x1="97.47634559376364" x2="97.47634559376364" y1="-179.10894586691947" y2="-196.10894586691947" /><line stroke="rgb(139,69,19)" x1="97.47634559376364" x2="97.47634559376364" y1="-179.10894586691947" y2="-157.98042636011235" /><line stroke="rgb(139,69,19)" x1="97.47634559376364" x2="113.86286003000264" y1="-179.10894586691947" y2="-252.49937034347712" /><line stroke="rgb(139,69,19)" x1="97.47634559376364" x2="117.03134189072202" y1="-179.10894586691947" y2="-208.75109937524465" /><line stroke="rgb(139,69,19)" x1="97.47634559376364" x2="101.15666908568119" y1="-179.10894586691947" y2="-222.49863600305173" /><line stroke="rgb(139,69,19)" x1="97.47634559376364" x2="110.35173557021058" y1="-179.10894586691947" y2="-218.5678915004054" /><line stroke="rgb(139,69,19)" x1="97.47634559376364" x2="109.7632004138799" y1="-179.10894586691947" y2="-216.65644535422112" /><line stroke="rgb(139,69,19)" x1="69.1650104654979" x2="69.1650104654979" y1="-127.6842888213533" y2="-144.6842888213533" /><line stroke="rgb(139,69,19)" x1="69.1650104654979" x2="69.1650104654979" y1="-127.6842888213533" y2="-134.86710444281192" /><line stroke="rgb(139,69,19)" x1="69.1650104654979" x2="85.5515249017369" y1="-127.6842888213533" y2="-201.07471329791096" /><line stroke="rgb(139,69,19)" x1="69.1650104654979" x2="100.21630698350073" y1="-127.6842888213533" y2="-195.89841217995797" /><line stroke="rgb(139,69,19)" x1="69.1650104654979" x2="116.78540019406843" y1="-127.6842888213533" y2="-182.9962747531779" /><line stroke="rgb(139,69,19)" x1="69.1650104654979" x2="107.39810116070828" y1="-127.6842888213533" y2="-186.4428116902026" /><line stroke="rgb(139,69,19)" x1="69.1650104654979" x2="107.88629071822977" y1="-127.6842888213533" y2="-188.3823144501715" /><line stroke="rgb(139,69,19)" x1="69.1650104654979" x2="69.1650104654979" y1="-112.69319139933367" y2="-129.69319139933367" /><line stroke="rgb(139,69,19)" x1="69.1650104654979" x2="69.1650104654979" y1="-112.69319139933367" y2="-119.87600702079229" /><line stroke="rgb(139,69,19)" x1="69.1650104654979" x2="85.5515249017369" y1="-112.69319139933367" y2="-186.08361587589133" /><line stroke="rgb(139,69,19)" x1="69.1650104654979" x2="77.89716556542848" y1="-112.69319139933367" y2="-199.62099782071402" /><line stroke="rgb(139,69,19)" x1="69.1650104654979" x2="75.05679034849213" y1="-112.69319139933367" y2="-178.81397331870957" /><line stroke="rgb(139,69,19)" x1="69.1650104654979" x2="73.32488947426103" y1="-112.69319139933367" y2="-188.6628574870729" /><line stroke="rgb(139,69,19)" x1="69.1650104654979" x2="75.24735837321096" y1="-112.69319139933367" y2="-189.21432220268963" /><line stroke="rgb(139,69,19)" x1="85.5515249017369" x2="85.5515249017369" y1="-184.07471329791096" y2="-201.07471329791096" /><line stroke="rgb(139,69,19)" x1="85.5515249017369" x2="85.5515249017369" y1="-184.07471329791096" y2="-174.87101448313058" /><line stroke="rgb(139,69,19)" x1="85.5515249017369" x2="101.9380393379759" y1="-184.07471329791096" y2="-257.46513777446864" /><line stroke="rgb(139,69,19)" x1="85.5515249017369" x2="133.3538878461613" y1="-184.07471329791096" y2="-251.71337115326094" /><line stroke="rgb(139,69,19)" x1="85.5515249017369" x2="140.60419683304755" y1="-184.07471329791096" y2="-271.4220753114413" /><line stroke="rgb(139,69,19)" x1="85.5515249017369" x2="140.17664157802074" y1="-184.07471329791096" y2="-261.43121966720844" /><line stroke="rgb(139,69,19)" x1="85.5515249017369" x2="138.18054845090907" y1="-184.07471329791096" y2="-261.3062707660624" /><line stroke="rgb(139,69,19)" x1="91.34758940805129" x2="91.34758940805129" y1="-169.64365086273367" y2="-186.64365086273367" /><line stroke="rgb(139,69,19)" x1="91.34758940805129" x2="91.34758940805129" y1="-169.64365086273367" y2="-154.6438875416389" /><line stroke="rgb(139,69,19)" x1="91.34758940805129" x2="107.73410384429029" y1="-169.64365086273367" y2="-243.03407533929132" /><line stroke="rgb(139,69,19)" x1="91.34758940805129" x2="103.4861134086237" y1="-169.64365086273367" y2="-280.52830383102275" /><line stroke="rgb(139,69,19)" x1="91.34758940805129" x2="101.78159612876586" y1="-169.64365086273367" y2="-259.597593837268" /><line stroke="rgb(139,69,19)" x1="91.34758940805129" x2="99.5165969237048" y1="-169.64365086273367" y2="-269.33770567446334" /><line stroke="rgb(139,69,19)" x1="91.34758940805129" x2="101.40622722658561" y1="-169.64365086273367" y2="-269.9929135181546" /><line stroke="rgb(139,69,19)" x1="99.22087365444301" x2="99.22087365444301" y1="-189.11186585989043" y2="-206.11186585989043" /><line stroke="rgb(139,69,19)" x1="99.22087365444301" x2="99.22087365444301" y1="-189.11186585989043" y2="-166.23881829240395" /><line stroke="rgb(139,69,19)" x1="99.22087365444301" x2="115.60738809068201" y1="-189.11186585989043" y2="-262.5022903364481" /><line stroke="rgb(139,69,19)" x1="99.22087365444301" x2="137.7062203653285" y1="-189.11186585989043" y2="-302.39809789252" /><line stroke="rgb(139,69,19)" x1="99.22087365444301" x2="155.788241489365" y1="-189.11186585989043" y2="-313.0770731275272" /><line stroke="rgb(139,69,19)" x1="99.22087365444301" x2="149.13753360529086" y1="-189.11186585989043" y2="-305.609269927073" /><line stroke="rgb(139,69,19)" x1="99.22087365444301" x2="147.51245944648844" y1="-189.11186585989043" y2="-306.77508894321255" /><line stroke="rgb(139,69,19)" x1="98.4758739355255" x2="98.4758739355255" y1="-179.13965570271802" y2="-196.13965570271802" /><line stroke="rgb(139,69,19)" x1="98.4758739355255" x2="98.4758739355255" y1="-179.13965570271802" y2="-157.01160785414905" /><line stroke="rgb(139,69,19)" x1="98.4758739355255" x2="114.8623883717645" y1="-179.13965570271802" y2="-252.53008017927567" /><line stroke="rgb(139,69,19)" x1="98.4758739355255" x2="116.7276428425348" y1="-179.13965570271802" y2="-207.70648464993081" /><line stroke="rgb(139,69,19)" x1="98.4758739355255" x2="106.24444647763316" y1="-179.13965570271802" y2="-225.90270936757247" /><line stroke="rgb(139,69,19)" x1="98.4758739355255" x2="113.64003450242991" y1="-179.13965570271802" y2="-219.1717898339959" /><line stroke="rgb(139,69,19)" x1="98.4758739355255" x2="112.45674417735665" y1="-179.13965570271802" y2="-217.55939285850008" /><line stroke="rgb(139,69,19)" x1="97.47634559376364" x2="97.47634559376364" y1="-179.10894586691947" y2="-196.10894586691947" /><line stroke="rgb(139,69,19)" x1="97.47634559376364" x2="97.47634559376364" y1="-179.10894586691947" y2="-157.98042636011235" /><line stroke="rgb(139,69,19)" x1="97.47634559376364" x2="113.86286003000264" y1="-179.10894586691947" y2="-252.49937034347712" /><line stroke="rgb(139,69,19)" x1="97.47634559376364" x2="117.03134189072202" y1="-179.10894586691947" y2="-208.75109937524465" /><line stroke="rgb(139,69,19)" x1="97.47634559376364" x2="101.15666908568119" y1="-179.10894586691947" y2="-222.49863600305173" /><line stroke="rgb(139,69,19)" x1="97.47634559376364" x2="110.35173557021058" y1="-179.10894586691947" y2="-218.5678915004054" /><line stroke="rgb(139,69,19)" x1="97.47634559376364" x2="109.7632004138799" y1="-179.10894586691947" y2="-216.65644535422112" /><circle cx="0" cy="-300" fill="rgb(255,255,0)" r="10" stroke="rgb(255,255,0)" /></svg>