<?xml version="1.0" encoding="utf-8" ?>
<svg baseProfile="full" height="100%" version="1.1" viewBox="-400 -400 800 400" width="100%" xmlns="http://www.w3.org/2000/svg" xmlns:ev="http://www.w3.org/2001/xml-events" xmlns:xlink="http://www.w3.org/1999/xlink"><defs /><circle cx="-97.80246309671537" cy="-45.811332792395675" fill="rgb(0,255,0)" r="2" stroke="rgb(0,255,0)" /><circle cx="-23.071734949714312" cy="-109.20942638060242" fill="rgb(0,255,0)" r="2" stroke="rgb(0,255,0)" /><circle cx="-6.758695582614991" cy="-104.07326963032102" fill="rgb(0,255,0)" r="2" stroke="rgb(0,255,0)" /><circle cx="-67.42686589149397" cy="-146.89977908416606" fill="rgb(0,255,0)" r="2" stroke="rgb(0,255,0)" /><circle cx="-51.61138231763028" cy="-134.80545982101714" fill="rgb(0,255,0)" r="2" stroke="rgb(0,255,0)" /><circle cx="-110.64058285619936" cy="-141.9580055431526" fill="rgb(0,255,0)" r="2" stroke="rgb(0,255,0)" /><circle cx="-35.9098547091983" cy="-205.35609913135937" fill="rgb(0,255,0)" r="2" stroke="rgb(0,255,0)" /><circle cx="-19.596815342098978" cy="-200.21994238107797" fill="rgb(0,255,0)" r="2" stroke="rgb(0,255,0)" /><circle cx="-79.27428768595637" cy="-230.7849692485768" fill="rgb(0,255,0)" r="2" stroke="rgb(0,255,0)" /><circle cx="-63.42539690962706" cy="-218.72260205764394" fill="rgb(0,255,0)" r="2" stroke="rgb(0,255,0)" /><circle cx="-104.81543324724508" cy="-153.6348041381875" fill="rgb(0,255,0)" r="2" stroke="rgb(0,255,0)" /><circle cx="-30.084705100244022" cy="-217.03289772639425" fill="rgb(0,255,0)" r="2" stroke="rgb(0,255,0)" /><circle cx="-13.771665733144701" cy="-211.89674097611285" fill="rgb(0,255,0)" r="2" stroke="rgb(0,255,0)" /><circle cx="-73.47800741449998" cy="-242.72787826992734" fill="rgb(0,255,0)" r="2" stroke="rgb(0,255,0)" /><circle cx="-57.6447132058256" cy="-230.6505938569809" fill="rgb(0,255,0)" r="2" stroke="rgb(0,255,0)" /><circle cx="-114.41751424114712" cy="-79.83520068182219" fill="rgb(0,255,0)" r="2" stroke="rgb(0,255,0)" /><circle cx="-39.68678609414606" cy="-143.23329427002895" fill="rgb(0,255,0)" r="2" stroke="rgb(0,255,0)" /><circle cx="-23.373746727046736" cy="-138.09713751974755" fill="rgb(0,255,0)" r="2" stroke="rgb(0,255,0)" /><circle cx="-0.5932518879413209" cy="-97.782805370801" fill="rgb(0,255,0)" r="2" stroke="rgb(0,255,0)" /><circle cx="14.78409768698136" cy="-85.26943607827911" fill="rgb(0,255,0)" r="2" stroke="rgb(0,255,0)" /><circle cx="-98.55071483464422" cy="-91.64064665754915" fill="rgb(0,255,0)" r="2" stroke="rgb(0,255,0)" /><circle cx="-23.819986687643166" cy="-155.03874024575592" fill="rgb(0,255,0)" r="2" stroke="rgb(0,255,0)" /><circle cx="-7.506947320543845" cy="-149.90258349547452" fill="rgb(0,255,0)" r="2" stroke="rgb(0,255,0)" /><circle cx="-66.70593563230437" cy="-175.71613790378444" fill="rgb(0,255,0)" r="2" stroke="rgb(0,255,0)" /><circle cx="-50.89268851040054" cy="-163.619679602666" fill="rgb(0,255,0)" r="2" stroke="rgb(0,255,0)" /><circle cx="-184.73798584935128" cy="-86.53251749674739" fill="rgb(0,255,0)" r="2" stroke="rgb(0,255,0)" /><circle cx="-110.00725770235022" cy="-149.93061108495414" fill="rgb(0,255,0)" r="2" stroke="rgb(0,255,0)" /><circle cx="-93.6942183352509" cy="-144.79445433467276" fill="rgb(0,255,0)" r="2" stroke="rgb(0,255,0)" /><circle cx="-152.80499890747572" cy="-168.6650017131833" fill="rgb(0,255,0)" r="2" stroke="rgb(0,255,0)" /><circle cx="-136.83242677922615" cy="-156.72092863838924" fill="rgb(0,255,0)" r="2" stroke="rgb(0,255,0)" /><circle cx="-197.57610560883526" cy="-182.67919024750432" fill="rgb(0,255,0)" r="2" stroke="rgb(0,255,0)" /><circle cx="-122.8453774618342" cy="-246.07728383571109" fill="rgb(0,255,0)" r="2" stroke="rgb(0,255,0)" /><circle cx="-106.53233809473488" cy="-240.94112708542968" fill="rgb(0,255,0)" r="2" stroke="rgb(0,255,0)" /><circle cx="-166.2805670550962" cy="-272.1696356919451" fill="rgb(0,255,0)" r="2" stroke="rgb(0,255,0)" /><circle cx="-150.29409055082732" cy="-260.23886135496497" fill="rgb(0,255,0)" r="2" stroke="rgb(0,255,0)" /><circle cx="-191.750955999881" cy="-194.35598884253918" fill="rgb(0,255,0)" r="2" stroke="rgb(0,255,0)" /><circle cx="-117.02022785287994" cy="-257.75408243074594" fill="rgb(0,255,0)" r="2" stroke="rgb(0,255,0)" /><circle cx="-100.70718848578062" cy="-252.61792568046454" fill="rgb(0,255,0)" r="2" stroke="rgb(0,255,0)" /><circle cx="-160.46555484604977" cy="-283.94644778339045" fill="rgb(0,255,0)" r="2" stroke="rgb(0,255,0)" /><circle cx="-144.4848687637859" cy="-272.0101352400234" fill="rgb(0,255,0)" r="2" stroke="rgb(0,255,0)" /><circle cx="-257.12784525735333" cy="-128.69283919448395" fill="rgb(0,255,0)" r="2" stroke="rgb(0,255,0)" /><circle cx="-182.39711711035227" cy="-192.09093278269071" fill="rgb(0,255,0)" r="2" stroke="rgb(0,255,0)" /><circle cx="-166.08407774325295" cy="-186.9547760324093" fill="rgb(0,255,0)" r="2" stroke="rgb(0,255,0)" /><circle cx="-225.7123854313482" cy="-217.0725245208601" fill="rgb(0,255,0)" r="2" stroke="rgb(0,255,0)" /><circle cx="-209.6803004412811" cy="-205.18537208348056" fill="rgb(0,255,0)" r="2" stroke="rgb(0,255,0)" /><circle cx="-241.1988696834756" cy="-140.60269197841515" fill="rgb(0,255,0)" r="2" stroke="rgb(0,255,0)" /><circle cx="-166.46814153647455" cy="-204.00078556662191" fill="rgb(0,255,0)" r="2" stroke="rgb(0,255,0)" /><circle cx="-150.15510216937523" cy="-198.8646288163405" fill="rgb(0,255,0)" r="2" stroke="rgb(0,255,0)" /><circle cx="-209.82849810104568" cy="-229.39236020590192" fill="rgb(0,255,0)" r="2" stroke="rgb(0,255,0)" /><circle cx="-193.8066264522937" cy="-217.49543929360732" fill="rgb(0,255,0)" r="2" stroke="rgb(0,255,0)" /><circle cx="-195.60492619343074" cy="-91.62266558479135" fill="rgb(0,255,0)" r="2" stroke="rgb(0,255,0)" /><circle cx="-120.87419804642968" cy="-155.0207591729981" fill="rgb(0,255,0)" r="2" stroke="rgb(0,255,0)" /><circle cx="-104.56115867933036" cy="-149.8846024227167" fill="rgb(0,255,0)" r="2" stroke="rgb(0,255,0)" /><circle cx="-163.75973660065944" cy="-175.6926962856358" fill="rgb(0,255,0)" r="2" stroke="rgb(0,255,0)" /><circle cx="-147.77573311221212" cy="-163.75955665092678" fill="rgb(0,255,0)" r="2" stroke="rgb(0,255,0)" /><circle cx="-208.44304595291473" cy="-187.76933833554827" fill="rgb(0,255,0)" r="2" stroke="rgb(0,255,0)" /><circle cx="-133.71231780591367" cy="-251.16743192375503" fill="rgb(0,255,0)" r="2" stroke="rgb(0,255,0)" /><circle cx="-117.39927843881435" cy="-246.03127517347363" fill="rgb(0,255,0)" r="2" stroke="rgb(0,255,0)" /><circle cx="-177.15225039835445" cy="-277.30629672180334" fill="rgb(0,255,0)" r="2" stroke="rgb(0,255,0)" /><circle cx="-161.15571380111408" cy="-265.3851442864912" fill="rgb(0,255,0)" r="2" stroke="rgb(0,255,0)" /><circle cx="-202.61789634396047" cy="-199.44613693058315" fill="rgb(0,255,0)" r="2" stroke="rgb(0,255,0)" /><circle cx="-127.88716819695941" cy="-262.8442305187899" fill="rgb(0,255,0)" r="2" stroke="rgb(0,255,0)" /><circle cx="-111.57412882986009" cy="-257.70807376850854" fill="rgb(0,255,0)" r="2" stroke="rgb(0,255,0)" /><circle cx="-171.33617225356338" cy="-289.07349403766653" fill="rgb(0,255,0)" r="2" stroke="rgb(0,255,0)" /><circle cx="-155.34489932257245" cy="-277.1473072076218" fill="rgb(0,255,0)" r="2" stroke="rgb(0,255,0)" /><circle cx="-268.76940253070353" cy="-133.91800701455608" fill="rgb(0,255,0)" r="2" stroke="rgb(0,255,0)" /><circle cx="-194.03867438370244" cy="-197.31610060276284" fill="rgb(0,255,0)" r="2" stroke="rgb(0,255,0)" /><circle cx="-177.72563501660315" cy="-192.17994385248144" fill="rgb(0,255,0)" r="2" stroke="rgb(0,255,0)" /><circle cx="-237.3760280520998" cy="-222.49806257811372" fill="rgb(0,255,0)" r="2" stroke="rgb(0,255,0)" /><circle cx="-221.33714090414853" cy="-210.61741601443504" fill="rgb(0,255,0)" r="2" stroke="rgb(0,255,0)" /><circle cx="-252.83800715823085" cy="-145.8319231471699" fill="rgb(0,255,0)" r="2" stroke="rgb(0,255,0)" /><circle cx="-178.1072790112298" cy="-209.23001673537667" fill="rgb(0,255,0)" r="2" stroke="rgb(0,255,0)" /><circle cx="-161.7942396441305" cy="-204.09385998509526" fill="rgb(0,255,0)" r="2" stroke="rgb(0,255,0)" /><circle cx="-221.4824441217918" cy="-234.75736294515724" fill="rgb(0,255,0)" r="2" stroke="rgb(0,255,0)" /><circle cx="-205.45296589295995" cy="-222.86771729023502" fill="rgb(0,255,0)" r="2" stroke="rgb(0,255,0)" /><circle cx="107.10833709079284" cy="-105.19598497295276" fill="rgb(0,255,0)" r="2" stroke="rgb(0,255,0)" /><circle cx="181.8390652377939" cy="-168.5940785611595" fill="rgb(0,255,0)" r="2" stroke="rgb(0,255,0)" /><circle cx="198.1521046048932" cy="-163.45792181087813" fill="rgb(0,255,0)" r="2" stroke="rgb(0,255,0)" /><circle cx="138.70810529011962" cy="-191.88552017336144" fill="rgb(0,255,0)" r="2" stroke="rgb(0,255,0)" /><circle cx="155.5278545932323" cy="-180.75172345435934" fill="rgb(0,255,0)" r="2" stroke="rgb(0,255,0)" /><circle cx="94.27021733130886" cy="-201.3426577237097" fill="rgb(0,255,0)" r="2" stroke="rgb(0,255,0)" /><circle cx="169.00094547830992" cy="-264.7407513119165" fill="rgb(0,255,0)" r="2" stroke="rgb(0,255,0)" /><circle cx="185.31398484540924" cy="-259.60459456163505" fill="rgb(0,255,0)" r="2" stroke="rgb(0,255,0)" /><circle cx="125.55066833089319" cy="-290.98288223434724" fill="rgb(0,255,0)" r="2" stroke="rgb(0,255,0)" /><circle cx="142.49162153570614" cy="-279.9650100925073" fill="rgb(0,255,0)" r="2" stroke="rgb(0,255,0)" /><circle cx="100.09536694026312" cy="-213.01945631874455" fill="rgb(0,255,0)" r="2" stroke="rgb(0,255,0)" /><circle cx="174.82609508726418" cy="-276.4175499069513" fill="rgb(0,255,0)" r="2" stroke="rgb(0,255,0)" /><circle cx="191.13913445436347" cy="-271.28139315666994" fill="rgb(0,255,0)" r="2" stroke="rgb(0,255,0)" /><circle cx="131.36896892532485" cy="-302.7298666156912" fill="rgb(0,255,0)" r="2" stroke="rgb(0,255,0)" /><circle cx="148.2509049174722" cy="-291.6555478964097" fill="rgb(0,255,0)" r="2" stroke="rgb(0,255,0)" /><circle cx="32.65572555334241" cy="-147.78796384680413" fill="rgb(0,255,0)" r="2" stroke="rgb(0,255,0)" /><circle cx="107.38645370034347" cy="-211.1860574350109" fill="rgb(0,255,0)" r="2" stroke="rgb(0,255,0)" /><circle cx="123.69949306744279" cy="-206.0499006847295" fill="rgb(0,255,0)" r="2" stroke="rgb(0,255,0)" /><circle cx="64.0063387295008" cy="-236.75898476033208" fill="rgb(0,255,0)" r="2" stroke="rgb(0,255,0)" /><circle cx="89.64123616445598" cy="-234.05637140647434" fill="rgb(0,255,0)" r="2" stroke="rgb(0,255,0)" /><circle cx="51.43088703754097" cy="-164.4771589253612" fill="rgb(0,255,0)" r="2" stroke="rgb(0,255,0)" /><circle cx="126.16161518454203" cy="-227.87525251356797" fill="rgb(0,255,0)" r="2" stroke="rgb(0,255,0)" /><circle cx="142.47465455164135" cy="-222.73909576328657" fill="rgb(0,255,0)" r="2" stroke="rgb(0,255,0)" /><circle cx="82.74893507315807" cy="-253.7517401065639" fill="rgb(0,255,0)" r="2" stroke="rgb(0,255,0)" /><circle cx="101.00526517346248" cy="-243.99195048747845" fill="rgb(0,255,0)" r="2" stroke="rgb(0,255,0)" /><circle cx="98.1275652242121" cy="-87.3257377256304" fill="rgb(0,255,0)" r="2" stroke="rgb(0,255,0)" /><circle cx="172.85829337121316" cy="-150.72383131383717" fill="rgb(0,255,0)" r="2" stroke="rgb(0,255,0)" /><circle cx="189.1713327383125" cy="-145.58767456355577" fill="rgb(0,255,0)" r="2" stroke="rgb(0,255,0)" /><circle cx="130.0560694418173" cy="-169.81953110207704" fill="rgb(0,255,0)" r="2" stroke="rgb(0,255,0)" /><circle cx="146.95048069815397" cy="-158.75714425714813" fill="rgb(0,255,0)" r="2" stroke="rgb(0,255,0)" /><circle cx="85.28944546472812" cy="-183.47241047638735" fill="rgb(0,255,0)" r="2" stroke="rgb(0,255,0)" /><circle cx="160.02017361172918" cy="-246.87050406459412" fill="rgb(0,255,0)" r="2" stroke="rgb(0,255,0)" /><circle cx="176.33321297882847" cy="-241.7343473143127" fill="rgb(0,255,0)" r="2" stroke="rgb(0,255,0)" /><circle cx="116.58420844578602" cy="-272.9704313294768" fill="rgb(0,255,0)" r="2" stroke="rgb(0,255,0)" /><circle cx="133.6393805494061" cy="-262.061803010339" fill="rgb(0,255,0)" r="2" stroke="rgb(0,255,0)" /><circle cx="91.1145950736824" cy="-195.1492090714222" fill="rgb(0,255,0)" r="2" stroke="rgb(0,255,0)" /><circle cx="165.84532322068344" cy="-258.54730265962894" fill="rgb(0,255,0)" r="2" stroke="rgb(0,255,0)" /><circle cx="182.15836258778276" cy="-253.41114590934757" fill="rgb(0,255,0)" r="2" stroke="rgb(0,255,0)" /><circle cx="122.39939688310722" cy="-284.74565670464597" fill="rgb(0,255,0)" r="2" stroke="rgb(0,255,0)" /><circle cx="139.3768223122121" cy="-273.76266815252467" fill="rgb(0,255,0)" r="2" stroke="rgb(0,255,0)" /><circle cx="25.602801094918846" cy="-129.5087758723177" fill="rgb(0,255,0)" r="2" stroke="rgb(0,255,0)" /><circle cx="100.3335292419199" cy="-192.90686946052446" fill="rgb(0,255,0)" r="2" stroke="rgb(0,255,0)" /><circle cx="116.64656860901923" cy="-187.77071271024306" fill="rgb(0,255,0)" r="2" stroke="rgb(0,255,0)" /><circle cx="57.014531610819766" cy="-217.9222580595623" fill="rgb(0,255,0)" r="2" stroke="rgb(0,255,0)" /><circle cx="45.62191472957528" cy="-179.80495194204076" fill="rgb(0,255,0)" r="2" stroke="rgb(0,255,0)" /><circle cx="20.01064782425263" cy="-105.28014559305771" fill="rgb(0,255,0)" r="2" stroke="rgb(0,255,0)" /><circle cx="94.74137597125369" cy="-168.67823918126447" fill="rgb(0,255,0)" r="2" stroke="rgb(0,255,0)" /><circle cx="111.05441533835301" cy="-163.54208243098307" fill="rgb(0,255,0)" r="2" stroke="rgb(0,255,0)" /><circle cx="51.60933948082603" cy="-191.97984021743247" fill="rgb(0,255,0)" r="2" stroke="rgb(0,255,0)" /><circle cx="60.97548950269904" cy="-173.7171034817066" fill="rgb(0,255,0)" r="2" stroke="rgb(0,255,0)" /><line stroke="rgb(139,69,19)" x1="0" x2="-32.60082103223846" y1="0" y2="-15.270444264131891" /><line stroke="rgb(139,69,19)" x1="0" x2="-119.53634378487435" y1="0" y2="-55.9916289684836" /><line stroke="rgb(139,69,19)" x1="0" x2="-130.40328412895383" y1="0" y2="-61.081777056527564" /><line stroke="rgb(139,69,19)" x1="0" x2="172.30997915526976" y1="0" y2="-74.65509644468897" /><line stroke="rgb(139,69,19)" x1="0" x2="163.32920728868902" y1="0" y2="-56.78484919736662" /><line stroke="rgb(139,69,19)" x1="-32.60082103223846" x2="-65.20164206447691" y1="-15.270444264131891" y2="-30.540888528263782" /><line stroke="rgb(139,69,19)" x1="-32.60082103223846" x2="-78.0397618239609" y1="-15.270444264131891" y2="-126.68756127902071" /><line stroke="rgb(139,69,19)" x1="-32.60082103223846" x2="-72.21461221500662" y1="-15.270444264131891" y2="-138.3643598740556" /><line stroke="rgb(139,69,19)" x1="-32.60082103223846" x2="-81.81669320890866" y1="-15.270444264131891" y2="-64.56475641769029" /><line stroke="rgb(139,69,19)" x1="-32.60082103223846" x2="-65.94989380240577" y1="-15.270444264131891" y2="-76.37020239341726" /><line stroke="rgb(139,69,19)" x1="-119.53634378487435" x2="-152.13716481711282" y1="-55.9916289684836" y2="-71.26207323261549" /><line stroke="rgb(139,69,19)" x1="-119.53634378487435" x2="-164.9752845765968" y1="-55.9916289684836" y2="-167.40874598337243" /><line stroke="rgb(139,69,19)" x1="-119.53634378487435" x2="-159.15013496764254" y1="-55.9916289684836" y2="-179.08554457840728" /><line stroke="rgb(139,69,19)" x1="-119.53634378487435" x2="-224.5270242251149" y1="-55.9916289684836" y2="-113.42239493035206" /><line stroke="rgb(139,69,19)" x1="-119.53634378487435" x2="-208.59804865123715" y1="-55.9916289684836" y2="-125.33224771428327" /><line stroke="rgb(139,69,19)" x1="-130.40328412895383" x2="-163.00410516119229" y1="-61.081777056527564" y2="-76.35222132065945" /><line stroke="rgb(139,69,19)" x1="-130.40328412895383" x2="-175.84222492067627" y1="-61.081777056527564" y2="-172.49889407141637" /><line stroke="rgb(139,69,19)" x1="-130.40328412895383" x2="-170.017075311722" y1="-61.081777056527564" y2="-184.17569266645125" /><line stroke="rgb(139,69,19)" x1="-130.40328412895383" x2="-236.16858149846507" y1="-61.081777056527564" y2="-118.64756275042419" /><line stroke="rgb(139,69,19)" x1="-130.40328412895383" x2="-220.2371861259924" y1="-61.081777056527564" y2="-130.561478883038" /><line stroke="rgb(139,69,19)" x1="172.30997915526976" x2="139.7091581230313" y1="-74.65509644468897" y2="-89.92554070882086" /><line stroke="rgb(139,69,19)" x1="172.30997915526976" x2="126.87103836354731" y1="-74.65509644468897" y2="-186.0722134595778" /><line stroke="rgb(139,69,19)" x1="172.30997915526976" x2="132.69618797250158" y1="-74.65509644468897" y2="-197.74901205461265" /><line stroke="rgb(139,69,19)" x1="172.30997915526976" x2="65.25654658558086" y1="-74.65509644468897" y2="-132.51751958267224" /><line stroke="rgb(139,69,19)" x1="172.30997915526976" x2="84.03170806977943" y1="-74.65509644468897" y2="-149.2067146612293" /><line stroke="rgb(139,69,19)" x1="163.32920728868902" x2="130.72838625645056" y1="-56.78484919736662" y2="-72.05529346149851" /><line stroke="rgb(139,69,19)" x1="163.32920728868902" x2="117.89026649696658" y1="-56.78484919736662" y2="-168.20196621225546" /><line stroke="rgb(139,69,19)" x1="163.32920728868902" x2="123.71541610592085" y1="-56.78484919736662" y2="-179.8787648072903" /><line stroke="rgb(139,69,19)" x1="163.32920728868902" x2="58.2036221271573" y1="-56.78484919736662" y2="-114.23833160818582" /><line stroke="rgb(139,69,19)" x1="163.32920728868902" x2="52.611468856491086" y1="-56.78484919736662" y2="-90.00970132892581" /><line stroke="rgb(139,69,19)" x1="-65.20164206447691" x2="-97.80246309671537" y1="-30.540888528263782" y2="-45.811332792395675" /><line stroke="rgb(139,69,19)" x1="-65.20164206447691" x2="-23.071734949714312" y1="-30.540888528263782" y2="-109.20942638060242" /><line stroke="rgb(139,69,19)" x1="-65.20164206447691" x2="-6.758695582614991" y1="-30.540888528263782" y2="-104.07326963032102" /><line stroke="rgb(139,69,19)" x1="-65.20164206447691" x2="-67.42686589149397" y1="-30.540888528263782" y2="-146.89977908416606" /><line stroke="rgb(139,69,19)" x1="-65.20164206447691" x2="-51.61138231763028" y1="-30.540888528263782" y2="-134.80545982101714" /><line stroke="rgb(139,69,19)" x1="-78.0397618239609" x2="-110.64058285619936" y1="-126.68756127902071" y2="-141.9580055431526" /><line stroke="rgb(139,69,19)" x1="-78.0397618239609" x2="-35.9098547091983" y1="-126.68756127902071" y2="-205.35609913135937" /><line stroke="rgb(139,69,19)" x1="-78.0397618239609" x2="-19.596815342098978" y1="-126.68756127902071" y2="-200.21994238107797" /><line stroke="rgb(139,69,19)" x1="-78.0397618239609" x2="-79.27428768595637" y1="-126.68756127902071" y2="-230.7849692485768" /><line stroke="rgb(139,69,19)" x1="-78.0397618239609" x2="-63.42539690962706" y1="-126.68756127902071" y2="-218.72260205764394" /><line stroke="rgb(139,69,19)" x1="-72.21461221500662" x2="-104.81543324724508" y1="-138.3643598740556" y2="-153.6348041381875" /><line stroke="rgb(139,69,19)" x1="-72.21461221500662" x2="-30.084705100244022" y1="-138.3643598740556" y2="-217.03289772639425" /><line stroke="rgb(139,69,19)" x1="-72.21461221500662" x2="-13.771665733144701" y1="-138.3643598740556" y2="-211.89674097611285" /><line stroke="rgb(139,69,19)" x1="-72.21461221500662" x2="-73.47800741449998" y1="-138.3643598740556" y2="-242.72787826992734" /><line stroke="rgb(139,69,19)" x1="-72.21461221500662" x2="-57.6447132058256" y1="-138.3643598740556" y2="-230.6505938569809" /><line stroke="rgb(139,69,19)" x1="-81.81669320890866" x2="-114.41751424114712" y1="-64.56475641769029" y2="-79.83520068182219" /><line stroke="rgb(139,69,19)" x1="-81.81669320890866" x2="-39.68678609414606" y1="-64.56475641769029" y2="-143.23329427002895" /><line stroke="rgb(139,69,19)" x1="-81.81669320890866" x2="-23.373746727046736" y1="-64.56475641769029" y2="-138.09713751974755" /><line stroke="rgb(139,69,19)" x1="-81.81669320890866" x2="-0.5932518879413209" y1="-64.56475641769029" y2="-97.782805370801" /><line stroke="rgb(139,69,19)" x1="-81.81669320890866" x2="14.78409768698136" y1="-64.56475641769029" y2="-85.26943607827911" /><line stroke="rgb(139,69,19)" x1="-65.94989380240577" x2="-98.55071483464422" y1="-76.37020239341726" y2="-91.64064665754915" /><line stroke="rgb(139,69,19)" x1="-65.94989380240577" x2="-23.819986687643166" y1="-76.37020239341726" y2="-155.03874024575592" /><line stroke="rgb(139,69,19)" x1="-65.94989380240577" x2="-7.506947320543845" y1="-76.37020239341726" y2="-149.90258349547452" /><line stroke="rgb(139,69,19)" x1="-65.94989380240577" x2="-66.70593563230437" y1="-76.37020239341726" y2="-175.71613790378444" /><line stroke="rgb(139,69,19)" x1="-65.94989380240577" x2="-50.89268851040054" y1="-76.37020239341726" y2="-163.619679602666" /><line stroke="rgb(139,69,19)" x1="-152.13716481711282" x2="-184.73798584935128" y1="-71.26207323261549" y2="-86.53251749674739" /><line stroke="rgb(139,69,19)" x1="-152.13716481711282" x2="-110.00725770235022" y1="-71.26207323261549" y2="-149.93061108495414" /><line stroke="rgb(139,69,19)" x1="-152.13716481711282" x2="-93.6942183352509" y1="-71.26207323261549" y2="-144.79445433467276" /><line stroke="rgb(139,69,19)" x1="-152.13716481711282" x2="-152.80499890747572" y1="-71.26207323261549" y2="-168.6650017131833" /><line stroke="rgb(139,69,19)" x1="-152.13716481711282" x2="-136.83242677922615" y1="-71.26207323261549" y2="-156.72092863838924" /><line stroke="rgb(139,69,19)" x1="-164.9752845765968" x2="-197.57610560883526" y1="-167.40874598337243" y2="-182.67919024750432" /><line stroke="rgb(139,69,19)" x1="-164.9752845765968" x2="-122.8453774618342" y1="-167.40874598337243" y2="-246.07728383571109" /><line stroke="rgb(139,69,19)" x1="-164.9752845765968" x2="-106.53233809473488" y1="-167.40874598337243" y2="-240.94112708542968" /><line stroke="rgb(139,69,19)" x1="-164.9752845765968" x2="-166.2805670550962" y1="-167.40874598337243" y2="-272.1696356919451" /><line stroke="rgb(139,69,19)" x1="-164.9752845765968" x2="-150.29409055082732" y1="-167.40874598337243" y2="-260.23886135496497" /><line stroke="rgb(139,69,19)" x1="-159.15013496764254" x2="-191.750955999881" y1="-179.08554457840728" y2="-194.35598884253918" /><line stroke="rgb(139,69,19)" x1="-159.15013496764254" x2="-117.02022785287994" y1="-179.08554457840728" y2="-257.75408243074594" /><line stroke="rgb(139,69,19)" x1="-159.15013496764254" x2="-100.70718848578062" y1="-179.08554457840728" y2="-252.61792568046454" /><line stroke="rgb(139,69,19)" x1="-159.15013496764254" x2="-160.46555484604977" y1="-179.08554457840728" y2="-283.94644778339045" /><line stroke="rgb(139,69,19)" x1="-159.15013496764254" x2="-144.4848687637859" y1="-179.08554457840728" y2="-272.0101352400234" /><line stroke="rgb(139,69,19)" x1="-224.5270242251149" x2="-257.12784525735333" y1="-113.42239493035206" y2="-128.69283919448395" /><line stroke="rgb(139,69,19)" x1="-224.5270242251149" x2="-182.39711711035227" y1="-113.42239493035206" y2="-192.09093278269071" /><line stroke="rgb(139,69,19)" x1="-224.5270242251149" x2="-166.08407774325295" y1="-113.42239493035206" y2="-186.9547760324093" /><line stroke="rgb(139,69,19)" x1="-224.5270242251149" x2="-225.7123854313482" y1="-113.42239493035206" y2="-217.0725245208601" /><line stroke="rgb(139,69,19)" x1="-224.5270242251149" x2="-209.6803004412811" y1="-113.42239493035206" y2="-205.18537208348056" /><line stroke="rgb(139,69,19)" x1="-208.59804865123715" x2="-241.1988696834756" y1="-125.33224771428327" y2="-140.60269197841515" /><line stroke="rgb(139,69,19)" x1="-208.59804865123715" x2="-166.46814153647455" y1="-125.33224771428327" y2="-204.00078556662191" /><line stroke="rgb(139,69,19)" x1="-208.59804865123715" x2="-150.15510216937523" y1="-125.33224771428327" y2="-198.8646288163405" /><line stroke="rgb(139,69,19)" x1="-208.59804865123715" x2="-209.82849810104568" y1="-125.33224771428327" y2="-229.39236020590192" /><line stroke="rgb(139,69,19)" x1="-208.59804865123715" x2="-193.8066264522937" y1="-125.33224771428327" y2="-217.49543929360732" /><line stroke="rgb(139,69,19)" x1="-163.00410516119229" x2="-195.60492619343074" y1="-76.35222132065945" y2="-91.62266558479135" /><line stroke="rgb(139,69,19)" x1="-163.00410516119229" x2="-120.87419804642968" y1="-76.35222132065945" y2="-155.0207591729981" /><line stroke="rgb(139,69,19)" x1="-163.00410516119229" x2="-104.56115867933036" y1="-76.35222132065945" y2="-149.8846024227167" /><line stroke="rgb(139,69,19)" x1="-163.00410516119229" x2="-163.75973660065944" y1="-76.35222132065945" y2="-175.6926962856358" /><line stroke="rgb(139,69,19)" x1="-163.00410516119229" x2="-147.77573311221212" y1="-76.35222132065945" y2="-163.75955665092678" /><line stroke="rgb(139,69,19)" x1="-175.84222492067627" x2="-208.44304595291473" y1="-172.49889407141637" y2="-187.76933833554827" /><line stroke="rgb(139,69,19)" x1="-175.84222492067627" x2="-133.71231780591367" y1="-172.49889407141637" y2="-251.16743192375503" /><line stroke="rgb(139,69,19)" x1="-175.84222492067627" x2="-117.39927843881435" y1="-172.49889407141637" y2="-246.03127517347363" /><line stroke="rgb(139,69,19)" x1="-175.84222492067627" x2="-177.15225039835445" y1="-172.49889407141637" y2="-277.30629672180334" /><line stroke="rgb(139,69,19)" x1="-175.84222492067627" x2="-161.15571380111408" y1="-172.49889407141637" y2="-265.3851442864912" /><line stroke="rgb(139,69,19)" x1="-170.017075311722" x2="-202.61789634396047" y1="-184.17569266645125" y2="-199.44613693058315" /><line stroke="rgb(139,69,19)" x1="-170.017075311722" x2="-127.88716819695941" y1="-184.17569266645125" y2="-262.8442305187899" /><line stroke="rgb(139,69,19)" x1="-170.017075311722" x2="-111.57412882986009" y1="-184.17569266645125" y2="-257.70807376850854" /><line stroke="rgb(139,69,19)" x1="-170.017075311722" x2="-171.33617225356338" y1="-184.17569266645125" y2="-289.07349403766653" /><line stroke="rgb(139,69,19)" x1="-170.017075311722" x2="-155.34489932257245" y1="-184.17569266645125" y2="-277.1473072076218" /><line stroke="rgb(139,69,19)" x1="-236.16858149846507" x2="-268.76940253070353" y1="-118.64756275042419" y2="-133.91800701455608" /><line stroke="rgb(139,69,19)" x1="-236.16858149846507" x2="-194.03867438370244" y1="-118.64756275042419" y2="-197.31610060276284" /><line stroke="rgb(139,69,19)" x1="-236.16858149846507" x2="-177.72563501660315" y1="-118.64756275042419" y2="-192.17994385248144" /><line stroke="rgb(139,69,19)" x1="-236.16858149846507" x2="-237.3760280520998" y1="-118.64756275042419" y2="-222.49806257811372" /><line stroke="rgb(139,69,19)" x1="-236.16858149846507" x2="-221.33714090414853" y1="-118.64756275042419" y2="-210.61741601443504" /><line stroke="rgb(139,69,19)" x1="-220.2371861259924" x2="-252.83800715823085" y1="-130.561478883038" y2="-145.8319231471699" /><line stroke="rgb(139,69,19)" x1="-220.2371861259924" x2="-178.1072790112298" y1="-130.561478883038" y2="-209.23001673537667" /><line stroke="rgb(139,69,19)" x1="-220.2371861259924" x2="-161.7942396441305" y1="-130.561478883038" y2="-204.09385998509526" /><line stroke="rgb(139,69,19)" x1="-220.2371861259924" x2="-221.4824441217918" y1="-130.561478883038" y2="-234.75736294515724" /><line stroke="rgb(139,69,19)" x1="-220.2371861259924" x2="-205.45296589295995" y1="-130.561478883038" y2="-222.86771729023502" /><line stroke="rgb(139,69,19)" x1="139.7091581230313" x2="107.10833709079284" y1="-89.92554070882086" y2="-105.19598497295276" /><line stroke="rgb(139,69,19)" x1="139.7091581230313" x2="181.8390652377939" y1="-89.92554070882086" y2="-168.5940785611595" /><line stroke="rgb(139,69,19)" x1="139.7091581230313" x2="198.1521046048932" y1="-89.92554070882086" y2="-163.45792181087813" /><line stroke="rgb(139,69,19)" x1="139.7091581230313" x2="138.70810529011962" y1="-89.92554070882086" y2="-191.88552017336144" /><line stroke="rgb(139,69,19)" x1="139.7091581230313" x2="155.5278545932323" y1="-89.92554070882086" y2="-180.75172345435934" /><line stroke="rgb(139,69,19)" x1="126.87103836354731" x2="94.27021733130886" y1="-186.0722134595778" y2="-201.3426577237097" /><line stroke="rgb(139,69,19)" x1="126.87103836354731" x2="169.00094547830992" y1="-186.0722134595778" y2="-264.7407513119165" /><line stroke="rgb(139,69,19)" x1="126.87103836354731" x2="185.31398484540924" y1="-186.0722134595778" y2="-259.60459456163505" /><line stroke="rgb(139,69,19)" x1="126.87103836354731" x2="125.55066833089319" y1="-186.0722134595778" y2="-290.98288223434724" /><line stroke="rgb(139,69,19)" x1="126.87103836354731" x2="142.49162153570614" y1="-186.0722134595778" y2="-279.9650100925073" /><line stroke="rgb(139,69,19)" x1="132.69618797250158" x2="100.09536694026312" y1="-197.74901205461265" y2="-213.01945631874455" /><line stroke="rgb(139,69,19)" x1="132.69618797250158" x2="174.82609508726418" y1="-197.74901205461265" y2="-276.4175499069513" /><line stroke="rgb(139,69,19)" x1="132.69618797250158" x2="191.13913445436347" y1="-197.74901205461265" y2="-271.28139315666994" /><line stroke="rgb(139,69,19)" x1="132.69618797250158" x2="131.36896892532485" y1="-197.74901205461265" y2="-302.7298666156912" /><line stroke="rgb(139,69,19)" x1="132.69618797250158" x2="148.2509049174722" y1="-197.74901205461265" y2="-291.6555478964097" /><line stroke="rgb(139,69,19)" x1="65.25654658558086" x2="32.65572555334241" y1="-132.51751958267224" y2="-147.78796384680413" /><line stroke="rgb(139,69,19)" x1="65.25654658558086" x2="107.38645370034347" y1="-132.51751958267224" y2="-211.1860574350109" /><line stroke="rgb(139,69,19)" x1="65.25654658558086" x2="123.69949306744279" y1="-132.51751958267224" y2="-206.0499006847295" /><line stroke="rgb(139,69,19)" x1="65.25654658558086" x2="64.0063387295008" y1="-132.51751958267224" y2="-236.75898476033208" /><line stroke="rgb(139,69,19)" x1="65.25654658558086" x2="89.64123616445598" y1="-132.51751958267224" y2="-234.05637140647434" /><line stroke="rgb(139,69,19)" x1="84.03170806977943" x2="51.43088703754097" y1="-149.2067146612293" y2="-164.4771589253612" /><line stroke="rgb(139,69,19)" x1="84.03170806977943" x2="126.16161518454203" y1="-149.2067146612293" y2="-227.87525251356797" /><line stroke="rgb(139,69,19)" x1="84.03170806977943" x2="142.47465455164135" y1="-149.2067146612293" y2="-222.73909576328657" /><line stroke="rgb(139,69,19)" x1="84.03170806977943" x2="82.74893507315807" y1="-149.2067146612293" y2="-253.7517401065639" /><line stroke="rgb(139,69,19)" x1="84.03170806977943" x2="101.00526517346248" y1="-149.2067146612293" y2="-243.99195048747845" /><line stroke="rgb(139,69,19)" x1="130.72838625645056" x2="98.1275652242121" y1="-72.05529346149851" y2="-87.3257377256304" /><line stroke="rgb(139,69,19)" x1="130.72838625645056" x2="172.85829337121316" y1="-72.05529346149851" y2="-150.72383131383717" /><line stroke="rgb(139,69,19)" x1="130.72838625645056" x2="189.1713327383125" y1="-72.05529346149851" y2="-145.58767456355577" /><line stroke="rgb(139,69,19)" x1="130.72838625645056" x2="130.0560694418173" y1="-72.05529346149851" y2="-169.81953110207704" /><line stroke="rgb(139,69,19)" x1="130.72838625645056" x2="146.95048069815397" y1="-72.05529346149851" y2="-158.75714425714813" /><line stroke="rgb(139,69,19)" x1="117.89026649696658" x2="85.28944546472812" y1="-168.20196621225546" y2="-183.47241047638735" /><line stroke="rgb(139,69,19)" x1="117.89026649696658" x2="160.02017361172918" y1="-168.20196621225546" y2="-246.87050406459412" /><line stroke="rgb(139,69,19)" x1="117.89026649696658" x2="176.33321297882847" y1="-168.20196621225546" y2="-241.7343473143127" /><line stroke="rgb(139,69,19)" x1="117.89026649696658" x2="116.58420844578602" y1="-168.20196621225546" y2="-272.9704313294768" /><line stroke="rgb(139,69,19)" x1="117.89026649696658" x2="133.6393805494061" y1="-168.20196621225546" y2="-262.061803010339" /><line stroke="rgb(139,69,19)" x1="123.71541610592085" x2="91.1145950736824" y1="-179.8787648072903" y2="-195.1492090714222" /><line stroke="rgb(139,69,19)" x1="123.71541610592085" x2="165.84532322068344" y1="-179.8787648072903" y2="-258.54730265962894" /><line stroke="rgb(139,69,19)" x1="123.71541610592085" x2="182.15836258778276" y1="-179.8787648072903" y2="-253.41114590934757" /><line stroke="rgb(139,69,19)" x1="123.71541610592085" x2="122.39939688310722" y1="-179.8787648072903" y2="-284.74565670464597" /><line stroke="rgb(139,69,19)" x1="123.71541610592085" x2="139.3768223122121" y1="-179.8787648072903" y2="-273.76266815252467" /><line stroke="rgb(139,69,19)" x1="58.2036221271573" x2="25.602801094918846" y1="-114.23833160818582" y2="-129.5087758723177" /><line stroke="rgb(139,69,19)" x1="58.2036221271573" x2="100.3335292419199" y1="-114.23833160818582" y2="-192.90686946052446" /><line stroke="rgb(139,69,19)" x1="58.2036221271573" x2="116.64656860901923" y1="-114.23833160818582" y2="-187.77071271024306" /><line stroke="rgb(139,69,19)" x1="58.2036221271573" x2="57.014531610819766" y1="-114.23833160818582" y2="-217.9222580595623" /><line stroke="rgb(139,69,19)" x1="58.2036221271573" x2="45.62191472957528" y1="-114.23833160818582" y2="-179.80495194204076" /><line stroke="rgb(139,69,19)" x1="52.611468856491086" x2="20.01064782425263" y1="-90.00970132892581" y2="-105.28014559305771" /><line stroke="rgb(139,69,19)" x1="52.611468856491086" x2="94.74137597125369" y1="-90.00970132892581" y2="-168.67823918126447" /><line stroke="rgb(139,69,19)" x1="52.611468856491086" x2="111.05441533835301" y1="-90.00970132892581" y2="-163.54208243098307" /><line stroke="rgb(139,69,19)" x1="52.611468856491086" x2="51.60933948082603" y1="-90.00970132892581" y2="-191.97984021743247" /><line stroke="rgb(139,69,19)" x1="52.611468856491086" x2="60.97548950269904" y1="-90.00970132892581" y2="-173.7171034817066" /><circle cx="0" cy="-300" fill="rgb(255,255,0)" r="10" stroke="rgb(255,255,0)" /></svg>