<?xml version="1.0" encoding="utf-8" ?>
<svg baseProfile="full" height="100%" version="1.1" viewBox="-400 -400 800 400" width="100%" xmlns="http://www.w3.org/2000/svg" xmlns:ev="http://www.w3.org/2001/xml-events" xmlns:xlink="http://www.w3.org/1999/xlink"><defs /><circle cx="-122.41873731620568" cy="-166.84617019243152" fill="rgb(0,255,0)" r="2" stroke="rgb(0,255,0)" /><circle cx="-140.6382985348053" cy="-172.2357517162328" fill="rgb(0,255,0)" r="2" stroke="rgb(0,255,0)" /><circle cx="-236.53072600111915" cy="-200.60197026255543" fill="rgb(0,255,0)" r="2" stroke="rgb(0,255,0)" /><circle cx="-205.9133448314291" cy="-213.04151810265083" fill="rgb(0,255,0)" r="2" stroke="rgb(0,255,0)" /><circle cx="-105.17057698147066" cy="-158.93230676844746" fill="rgb(0,255,0)" r="2" stroke="rgb(0,255,0)" /><circle cx="-123.39013820007028" cy="-164.32188829224876" fill="rgb(0,255,0)" r="2" stroke="rgb(0,255,0)" /><circle cx="-219.28256566638413" cy="-192.68810683857137" fill="rgb(0,255,0)" r="2" stroke="rgb(0,255,0)" /><circle cx="-188.24301892850482" cy="-206.45855037581657" fill="rgb(0,255,0)" r="2" stroke="rgb(0,255,0)" /><circle cx="-14.504985908929246" cy="-117.25204103558943" fill="rgb(0,255,0)" r="2" stroke="rgb(0,255,0)" /><circle cx="-32.72454712752888" cy="-122.64162255939073" fill="rgb(0,255,0)" r="2" stroke="rgb(0,255,0)" /><circle cx="-128.6169745938427" cy="-151.00784110571334" fill="rgb(0,255,0)" r="2" stroke="rgb(0,255,0)" /><circle cx="-97.52749575715895" cy="-163.027490461254" fill="rgb(0,255,0)" r="2" stroke="rgb(0,255,0)" /><circle cx="-46.18064426808784" cy="-126.28571269858294" fill="rgb(0,255,0)" r="2" stroke="rgb(0,255,0)" /><circle cx="-64.40020548668747" cy="-131.67529422238425" fill="rgb(0,255,0)" r="2" stroke="rgb(0,255,0)" /><circle cx="-160.29263295300132" cy="-160.04151276870687" fill="rgb(0,255,0)" r="2" stroke="rgb(0,255,0)" /><circle cx="-128.16134839783658" cy="-173.62787580789131" fill="rgb(0,255,0)" r="2" stroke="rgb(0,255,0)" /><circle cx="-142.7896918422466" cy="-176.02372593717686" fill="rgb(0,255,0)" r="2" stroke="rgb(0,255,0)" /><circle cx="-161.00925306084625" cy="-181.41330746097816" fill="rgb(0,255,0)" r="2" stroke="rgb(0,255,0)" /><circle cx="-256.9016805271601" cy="-209.77952600730077" fill="rgb(0,255,0)" r="2" stroke="rgb(0,255,0)" /><circle cx="-224.51992109049755" cy="-222.93314182495968" fill="rgb(0,255,0)" r="2" stroke="rgb(0,255,0)" /><circle cx="-125.53713505988615" cy="-168.1109540385168" fill="rgb(0,255,0)" r="2" stroke="rgb(0,255,0)" /><circle cx="-143.75669627848578" cy="-173.5005355623181" fill="rgb(0,255,0)" r="2" stroke="rgb(0,255,0)" /><circle cx="-239.64912374479962" cy="-201.86675410864072" fill="rgb(0,255,0)" r="2" stroke="rgb(0,255,0)" /><circle cx="-208.00135431977907" cy="-213.83345731740957" fill="rgb(0,255,0)" r="2" stroke="rgb(0,255,0)" /><circle cx="-34.81884624711163" cy="-126.44377180462976" fill="rgb(0,255,0)" r="2" stroke="rgb(0,255,0)" /><circle cx="-53.03840746571126" cy="-131.83335332843106" fill="rgb(0,255,0)" r="2" stroke="rgb(0,255,0)" /><circle cx="-148.9308349320251" cy="-160.19957187475367" fill="rgb(0,255,0)" r="2" stroke="rgb(0,255,0)" /><circle cx="-116.91503849389822" cy="-173.88387153565304" fill="rgb(0,255,0)" r="2" stroke="rgb(0,255,0)" /><circle cx="-67.72425143032244" cy="-136.959497129685" fill="rgb(0,255,0)" r="2" stroke="rgb(0,255,0)" /><circle cx="-85.94381264892206" cy="-142.3490786534863" fill="rgb(0,255,0)" r="2" stroke="rgb(0,255,0)" /><circle cx="-181.8362401152359" cy="-170.7152971998089" fill="rgb(0,255,0)" r="2" stroke="rgb(0,255,0)" /><circle cx="-149.94958658406605" cy="-182.76499945886997" fill="rgb(0,255,0)" r="2" stroke="rgb(0,255,0)" /><circle cx="-231.683634055877" cy="-228.87543682239985" fill="rgb(0,255,0)" r="2" stroke="rgb(0,255,0)" /><circle cx="-249.90319527447664" cy="-234.26501834620115" fill="rgb(0,255,0)" r="2" stroke="rgb(0,255,0)" /><circle cx="-345.79562274079046" cy="-262.63123689252376" fill="rgb(0,255,0)" r="2" stroke="rgb(0,255,0)" /><circle cx="-315.25816467690805" cy="-275.8157106852999" fill="rgb(0,255,0)" r="2" stroke="rgb(0,255,0)" /><circle cx="-214.42544057693317" cy="-220.9640643711093" fill="rgb(0,255,0)" r="2" stroke="rgb(0,255,0)" /><circle cx="-232.6450017955328" cy="-226.35364589491058" fill="rgb(0,255,0)" r="2" stroke="rgb(0,255,0)" /><circle cx="-328.5374292618467" cy="-254.7198644412332" fill="rgb(0,255,0)" r="2" stroke="rgb(0,255,0)" /><circle cx="-296.7517502258527" cy="-268.5263329663668" fill="rgb(0,255,0)" r="2" stroke="rgb(0,255,0)" /><circle cx="-123.63070675952245" cy="-179.31586147362398" fill="rgb(0,255,0)" r="2" stroke="rgb(0,255,0)" /><circle cx="-141.85026797812208" cy="-184.70544299742528" fill="rgb(0,255,0)" r="2" stroke="rgb(0,255,0)" /><circle cx="-237.74269544443592" cy="-213.0716615437479" fill="rgb(0,255,0)" r="2" stroke="rgb(0,255,0)" /><circle cx="-207.16644608336696" cy="-225.5942631903739" fill="rgb(0,255,0)" r="2" stroke="rgb(0,255,0)" /><circle cx="-156.10739580114688" cy="-188.03524769087156" fill="rgb(0,255,0)" r="2" stroke="rgb(0,255,0)" /><circle cx="-174.32695701974652" cy="-193.42482921467285" fill="rgb(0,255,0)" r="2" stroke="rgb(0,255,0)" /><circle cx="-270.21938448606033" cy="-221.79104776099547" fill="rgb(0,255,0)" r="2" stroke="rgb(0,255,0)" /><circle cx="-237.84627770913718" cy="-234.41942504272166" fill="rgb(0,255,0)" r="2" stroke="rgb(0,255,0)" /><circle cx="-258.28226579962626" cy="-250.42579965707822" fill="rgb(0,255,0)" r="2" stroke="rgb(0,255,0)" /><circle cx="-276.50182701822587" cy="-255.8153811808795" fill="rgb(0,255,0)" r="2" stroke="rgb(0,255,0)" /><circle cx="-372.3942544845397" cy="-284.1815997272021" fill="rgb(0,255,0)" r="2" stroke="rgb(0,255,0)" /><circle cx="-340.227743089903" cy="-296.4445439612267" fill="rgb(0,255,0)" r="2" stroke="rgb(0,255,0)" /><circle cx="-241.02438845943925" cy="-242.51434871663272" fill="rgb(0,255,0)" r="2" stroke="rgb(0,255,0)" /><circle cx="-259.24394967803886" cy="-247.90393024043402" fill="rgb(0,255,0)" r="2" stroke="rgb(0,255,0)" /><circle cx="-355.1363771443527" cy="-276.27014878675664" fill="rgb(0,255,0)" r="2" stroke="rgb(0,255,0)" /><circle cx="-324.3642046870021" cy="-288.5031579719548" fill="rgb(0,255,0)" r="2" stroke="rgb(0,255,0)" /><circle cx="-150.2263790015473" cy="-200.8669590767686" fill="rgb(0,255,0)" r="2" stroke="rgb(0,255,0)" /><circle cx="-168.44594022014692" cy="-206.2565406005699" fill="rgb(0,255,0)" r="2" stroke="rgb(0,255,0)" /><circle cx="-264.33836768646074" cy="-234.62275914689252" fill="rgb(0,255,0)" r="2" stroke="rgb(0,255,0)" /><circle cx="-231.92453150523357" cy="-247.5015662834634" fill="rgb(0,255,0)" r="2" stroke="rgb(0,255,0)" /><circle cx="-182.33135802864922" cy="-211.40694302242062" fill="rgb(0,255,0)" r="2" stroke="rgb(0,255,0)" /><circle cx="-200.55091924724886" cy="-216.79652454622192" fill="rgb(0,255,0)" r="2" stroke="rgb(0,255,0)" /><circle cx="-296.44334671356273" cy="-245.16274309254453" fill="rgb(0,255,0)" r="2" stroke="rgb(0,255,0)" /><circle cx="-265.4345129288082" cy="-257.2201329542384" fill="rgb(0,255,0)" r="2" stroke="rgb(0,255,0)" /><line stroke="rgb(139,69,19)" x1="0" x2="-217.88481811780258" y1="0" y2="-16.331272710828337" /><line stroke="rgb(139,69,19)" x1="0" x2="-233.87276682915262" y1="0" y2="-26.597016522322992" /><line stroke="rgb(139,69,19)" x1="0" x2="-318.01986530994225" y1="0" y2="-80.62724710913697" /><line stroke="rgb(139,69,19)" x1="0" x2="-343.99494293673666" y1="0" y2="-102.33242245781395" /><line stroke="rgb(139,69,19)" x1="-217.88481811780258" x2="-204.9363536916183" y1="-16.331272710828337" y2="-114.54604473419047" /><line stroke="rgb(139,69,19)" x1="-217.88481811780258" x2="-187.65970258193036" y1="-16.331272710828337" y2="-106.63925483979477" /><line stroke="rgb(139,69,19)" x1="-217.88481811780258" x2="-96.72995989936219" y1="-16.331272710828337" y2="-65.02457118508053" /><line stroke="rgb(139,69,19)" x1="-217.88481811780258" x2="-128.64918769141764" y1="-16.331272710828337" y2="-73.99777079726935" /><line stroke="rgb(139,69,19)" x1="-233.87276682915262" x2="-225.33866031101286" y1="-26.597016522322992" y2="-123.71581655728535" /><line stroke="rgb(139,69,19)" x1="-233.87276682915262" x2="-208.0620092013249" y1="-26.597016522322992" y2="-115.80902666288965" /><line stroke="rgb(139,69,19)" x1="-233.87276682915262" x2="-117.13226651875674" y1="-26.597016522322992" y2="-74.19434300817541" /><line stroke="rgb(139,69,19)" x1="-233.87276682915262" x2="-150.2276036178349" y1="-26.597016522322992" y2="-84.66291310390174" /><line stroke="rgb(139,69,19)" x1="-318.01986530994225" x2="-314.1917611489339" y1="-80.62724710913697" y2="-176.577667309886" /><line stroke="rgb(139,69,19)" x1="-318.01986530994225" x2="-296.9151100392459" y1="-80.62724710913697" y2="-168.6708774154903" /><line stroke="rgb(139,69,19)" x1="-318.01986530994225" x2="-205.98536735667773" y1="-80.62724710913697" y2="-127.05619376077607" /><line stroke="rgb(139,69,19)" x1="-318.01986530994225" x2="-238.59451724451603" y1="-80.62724710913697" y2="-135.74269334308508" /><line stroke="rgb(139,69,19)" x1="-343.99494293673666" x2="-340.73244585653515" y1="-102.33242245781395" y2="-198.14241690924274" /><line stroke="rgb(139,69,19)" x1="-343.99494293673666" x2="-323.4557947468472" y1="-102.33242245781395" y2="-190.23562701484704" /><line stroke="rgb(139,69,19)" x1="-343.99494293673666" x2="-232.52605206427899" y1="-102.33242245781395" y2="-148.6209433601328" /><line stroke="rgb(139,69,19)" x1="-343.99494293673666" x2="-264.727073485941" y1="-102.33242245781395" y2="-159.1370824394805" /><line stroke="rgb(139,69,19)" x1="-204.9363536916183" x2="-122.41873731620568" y1="-114.54604473419047" y2="-166.84617019243152" /><line stroke="rgb(139,69,19)" x1="-204.9363536916183" x2="-140.6382985348053" y1="-114.54604473419047" y2="-172.2357517162328" /><line stroke="rgb(139,69,19)" x1="-204.9363536916183" x2="-236.53072600111915" y1="-114.54604473419047" y2="-200.60197026255543" /><line stroke="rgb(139,69,19)" x1="-204.9363536916183" x2="-205.9133448314291" y1="-114.54604473419047" y2="-213.04151810265083" /><line stroke="rgb(139,69,19)" x1="-187.65970258193036" x2="-105.17057698147066" y1="-106.63925483979477" y2="-158.93230676844746" /><line stroke="rgb(139,69,19)" x1="-187.65970258193036" x2="-123.39013820007028" y1="-106.63925483979477" y2="-164.32188829224876" /><line stroke="rgb(139,69,19)" x1="-187.65970258193036" x2="-219.28256566638413" y1="-106.63925483979477" y2="-192.68810683857137" /><line stroke="rgb(139,69,19)" x1="-187.65970258193036" x2="-188.24301892850482" y1="-106.63925483979477" y2="-206.45855037581657" /><line stroke="rgb(139,69,19)" x1="-96.72995989936219" x2="-14.504985908929246" y1="-65.02457118508053" y2="-117.25204103558943" /><line stroke="rgb(139,69,19)" x1="-96.72995989936219" x2="-32.72454712752888" y1="-65.02457118508053" y2="-122.64162255939073" /><line stroke="rgb(139,69,19)" x1="-96.72995989936219" x2="-128.6169745938427" y1="-65.02457118508053" y2="-151.00784110571334" /><line stroke="rgb(139,69,19)" x1="-96.72995989936219" x2="-97.52749575715895" y1="-65.02457118508053" y2="-163.027490461254" /><line stroke="rgb(139,69,19)" x1="-128.64918769141764" x2="-46.18064426808784" y1="-73.99777079726935" y2="-126.28571269858294" /><line stroke="rgb(139,69,19)" x1="-128.64918769141764" x2="-64.40020548668747" y1="-73.99777079726935" y2="-131.67529422238425" /><line stroke="rgb(139,69,19)" x1="-128.64918769141764" x2="-160.29263295300132" y1="-73.99777079726935" y2="-160.04151276870687" /><line stroke="rgb(139,69,19)" x1="-128.64918769141764" x2="-128.16134839783658" y1="-73.99777079726935" y2="-173.62787580789131" /><line stroke="rgb(139,69,19)" x1="-225.33866031101286" x2="-142.7896918422466" y1="-123.71581655728535" y2="-176.02372593717686" /><line stroke="rgb(139,69,19)" x1="-225.33866031101286" x2="-161.00925306084625" y1="-123.71581655728535" y2="-181.41330746097816" /><line stroke="rgb(139,69,19)" x1="-225.33866031101286" x2="-256.9016805271601" y1="-123.71581655728535" y2="-209.77952600730077" /><line stroke="rgb(139,69,19)" x1="-225.33866031101286" x2="-224.51992109049755" y1="-123.71581655728535" y2="-222.93314182495968" /><line stroke="rgb(139,69,19)" x1="-208.0620092013249" x2="-125.53713505988615" y1="-115.80902666288965" y2="-168.1109540385168" /><line stroke="rgb(139,69,19)" x1="-208.0620092013249" x2="-143.75669627848578" y1="-115.80902666288965" y2="-173.5005355623181" /><line stroke="rgb(139,69,19)" x1="-208.0620092013249" x2="-239.64912374479962" y1="-115.80902666288965" y2="-201.86675410864072" /><line stroke="rgb(139,69,19)" x1="-208.0620092013249" x2="-208.00135431977907" y1="-115.80902666288965" y2="-213.83345731740957" /><line stroke="rgb(139,69,19)" x1="-117.13226651875674" x2="-34.81884624711163" y1="-74.19434300817541" y2="-126.44377180462976" /><line stroke="rgb(139,69,19)" x1="-117.13226651875674" x2="-53.03840746571126" y1="-74.19434300817541" y2="-131.83335332843106" /><line stroke="rgb(139,69,19)" x1="-117.13226651875674" x2="-148.9308349320251" y1="-74.19434300817541" y2="-160.19957187475367" /><line stroke="rgb(139,69,19)" x1="-117.13226651875674" x2="-116.91503849389822" y1="-74.19434300817541" y2="-173.88387153565304" /><line stroke="rgb(139,69,19)" x1="-150.2276036178349" x2="-67.72425143032244" y1="-84.66291310390174" y2="-136.959497129685" /><line stroke="rgb(139,69,19)" x1="-150.2276036178349" x2="-85.94381264892206" y1="-84.66291310390174" y2="-142.3490786534863" /><line stroke="rgb(139,69,19)" x1="-150.2276036178349" x2="-181.8362401152359" y1="-84.66291310390174" y2="-170.7152971998089" /><line stroke="rgb(139,69,19)" x1="-150.2276036178349" x2="-149.94958658406605" y1="-84.66291310390174" y2="-182.76499945886997" /><line stroke="rgb(139,69,19)" x1="-314.1917611489339" x2="-231.683634055877" y1="-176.577667309886" y2="-228.87543682239985" /><line stroke="rgb(139,69,19)" x1="-314.1917611489339" x2="-249.90319527447664" y1="-176.577667309886" y2="-234.26501834620115" /><line stroke="rgb(139,69,19)" x1="-314.1917611489339" x2="-345.79562274079046" y1="-176.577667309886" y2="-262.63123689252376" /><line stroke="rgb(139,69,19)" x1="-314.1917611489339" x2="-315.25816467690805" y1="-176.577667309886" y2="-275.8157106852999" /><line stroke="rgb(139,69,19)" x1="-296.9151100392459" x2="-214.42544057693317" y1="-168.6708774154903" y2="-220.9640643711093" /><line stroke="rgb(139,69,19)" x1="-296.9151100392459" x2="-232.6450017955328" y1="-168.6708774154903" y2="-226.35364589491058" /><line stroke="rgb(139,69,19)" x1="-296.9151100392459" x2="-328.5374292618467" y1="-168.6708774154903" y2="-254.7198644412332" /><line stroke="rgb(139,69,19)" x1="-296.9151100392459" x2="-296.7517502258527" y1="-168.6708774154903" y2="-268.5263329663668" /><line stroke="rgb(139,69,19)" x1="-205.98536735667773" x2="-123.63070675952245" y1="-127.05619376077607" y2="-179.31586147362398" /><line stroke="rgb(139,69,19)" x1="-205.98536735667773" x2="-141.85026797812208" y1="-127.05619376077607" y2="-184.70544299742528" /><line stroke="rgb(139,69,19)" x1="-205.98536735667773" x2="-237.74269544443592" y1="-127.05619376077607" y2="-213.0716615437479" /><line stroke="rgb(139,69,19)" x1="-205.98536735667773" x2="-207.16644608336696" y1="-127.05619376077607" y2="-225.5942631903739" /><line stroke="rgb(139,69,19)" x1="-238.59451724451603" x2="-156.10739580114688" y1="-135.74269334308508" y2="-188.03524769087156" /><line stroke="rgb(139,69,19)" x1="-238.59451724451603" x2="-174.32695701974652" y1="-135.74269334308508" y2="-193.42482921467285" /><line stroke="rgb(139,69,19)" x1="-238.59451724451603" x2="-270.21938448606033" y1="-135.74269334308508" y2="-221.79104776099547" /><line stroke="rgb(139,69,19)" x1="-238.59451724451603" x2="-237.84627770913718" y1="-135.74269334308508" y2="-234.41942504272166" /><line stroke="rgb(139,69,19)" x1="-340.73244585653515" x2="-258.28226579962626" y1="-198.14241690924274" y2="-250.42579965707822" /><line stroke="rgb(139,69,19)" x1="-340.73244585653515" x2="-276.50182701822587" y1="-198.14241690924274" y2="-255.8153811808795" /><line stroke="rgb(139,69,19)" x1="-340.73244585653515" x2="-372.3942544845397" y1="-198.14241690924274" y2="-284.1815997272021" /><line stroke="rgb(139,69,19)" x1="-340.73244585653515" x2="-340.227743089903" y1="-198.14241690924274" y2="-296.4445439612267" /><line stroke="rgb(139,69,19)" x1="-323.4557947468472" x2="-241.02438845943925" y1="-190.23562701484704" y2="-242.51434871663272" /><line stroke="rgb(139,69,19)" x1="-323.4557947468472" x2="-259.24394967803886" y1="-190.23562701484704" y2="-247.90393024043402" /><line stroke="rgb(139,69,19)" x1="-323.4557947468472" x2="-355.1363771443527" y1="-190.23562701484704" y2="-276.27014878675664" /><line stroke="rgb(139,69,19)" x1="-323.4557947468472" x2="-324.3642046870021" y1="-190.23562701484704" y2="-288.5031579719548" /><line stroke="rgb(139,69,19)" x1="-232.52605206427899" x2="-150.2263790015473" y1="-148.6209433601328" y2="-200.8669590767686" /><line stroke="rgb(139,69,19)" x1="-232.52605206427899" x2="-168.44594022014692" y1="-148.6209433601328" y2="-206.2565406005699" /><line stroke="rgb(139,69,19)" x1="-232.52605206427899" x2="-264.33836768646074" y1="-148.6209433601328" y2="-234.62275914689252" /><line stroke="rgb(139,69,19)" x1="-232.52605206427899" x2="-231.92453150523357" y1="-148.6209433601328" y2="-247.5015662834634" /><line stroke="rgb(139,69,19)" x1="-264.727073485941" x2="-182.33135802864922" y1="-159.1370824394805" y2="-211.40694302242062" /><line stroke="rgb(139,69,19)" x1="-264.727073485941" x2="-200.55091924724886" y1="-159.1370824394805" y2="-216.79652454622192" /><line stroke="rgb(139,69,19)" x1="-264.727073485941" x2="-296.44334671356273" y1="-159.1370824394805" y2="-245.16274309254453" /><line stroke="rgb(139,69,19)" x1="-264.727073485941" x2="-265.4345129288082" y1="-159.1370824394805" y2="-257.2201329542384" /><circle cx="0" cy="-300" fill="rgb(255,255,0)" r="10" stroke="rgb(255,255,0)" /></svg>