<?xml version="1.0" encoding="utf-8" ?>
<svg baseProfile="full" height="100%" version="1.1" viewBox="-400 -400 800 400" width="100%" xmlns="http://www.w3.org/2000/svg" xmlns:ev="http://www.w3.org/2001/xml-events" xmlns:xlink="http://www.w3.org/1999/xlink"><defs /><circle cx="-0.7433643574068742" cy="-19.50011024278387" fill="rgb(0,255,0)" r="2" stroke="rgb(0,255,0)" /><circle cx="7.574383068879109" cy="-25.051243257990127" fill="rgb(0,255,0)" r="2" stroke="rgb(0,255,0)" /><circle cx="-5.749252234420027" cy="-13.464470601288161" fill="rgb(0,255,0)" r="2" stroke="rgb(0,255,0)" /><circle cx="12.599137749945971" cy="-19.23024733701063" fill="rgb(0,255,0)" r="2" stroke="rgb(0,255,0)" /><circle cx="7.574383068879109" cy="-33.368990684276106" fill="rgb(0,255,0)" r="2" stroke="rgb(0,255,0)" /><circle cx="15.892130495165091" cy="-38.92012369948236" fill="rgb(0,255,0)" r="2" stroke="rgb(0,255,0)" /><circle cx="2.568495191865935" cy="-27.333351042780393" fill="rgb(0,255,0)" r="2" stroke="rgb(0,255,0)" /><circle cx="20.916885176231936" cy="-33.09912777850287" fill="rgb(0,255,0)" r="2" stroke="rgb(0,255,0)" /><circle cx="41.21352536861193" cy="-57.291526044071375" fill="rgb(0,255,0)" r="2" stroke="rgb(0,255,0)" /><circle cx="49.531272794897916" cy="-62.84265905927763" fill="rgb(0,255,0)" r="2" stroke="rgb(0,255,0)" /><circle cx="36.20763749159879" cy="-51.25588640257566" fill="rgb(0,255,0)" r="2" stroke="rgb(0,255,0)" /><circle cx="54.55602747596477" cy="-57.021663138298145" fill="rgb(0,255,0)" r="2" stroke="rgb(0,255,0)" /><circle cx="59.73817681077457" cy="-79.58973638785918" fill="rgb(0,255,0)" r="2" stroke="rgb(0,255,0)" /><circle cx="68.05592423706055" cy="-85.14086940306544" fill="rgb(0,255,0)" r="2" stroke="rgb(0,255,0)" /><circle cx="54.732288933761424" cy="-73.55409674636348" fill="rgb(0,255,0)" r="2" stroke="rgb(0,255,0)" /><circle cx="73.0806789181274" cy="-79.31987348208595" fill="rgb(0,255,0)" r="2" stroke="rgb(0,255,0)" /><circle cx="7.57438306887911" cy="-41.686738110562096" fill="rgb(0,255,0)" r="2" stroke="rgb(0,255,0)" /><circle cx="15.892130495165093" cy="-47.23787112576835" fill="rgb(0,255,0)" r="2" stroke="rgb(0,255,0)" /><circle cx="2.5684951918659635" cy="-35.65109846906638" fill="rgb(0,255,0)" r="2" stroke="rgb(0,255,0)" /><circle cx="20.916885176231965" cy="-41.416875204788866" fill="rgb(0,255,0)" r="2" stroke="rgb(0,255,0)" /><circle cx="15.892130495165095" cy="-55.55561855205434" fill="rgb(0,255,0)" r="2" stroke="rgb(0,255,0)" /><circle cx="24.209877921451078" cy="-61.106751567260595" fill="rgb(0,255,0)" r="2" stroke="rgb(0,255,0)" /><circle cx="10.886242618151925" cy="-49.51997891055863" fill="rgb(0,255,0)" r="2" stroke="rgb(0,255,0)" /><circle cx="29.234632602517927" cy="-55.28575564628111" fill="rgb(0,255,0)" r="2" stroke="rgb(0,255,0)" /><circle cx="49.53127279489791" cy="-79.4781539118496" fill="rgb(0,255,0)" r="2" stroke="rgb(0,255,0)" /><circle cx="57.84902022118389" cy="-85.02928692705586" fill="rgb(0,255,0)" r="2" stroke="rgb(0,255,0)" /><circle cx="44.525384917884764" cy="-73.44251427035391" fill="rgb(0,255,0)" r="2" stroke="rgb(0,255,0)" /><circle cx="62.873774902250744" cy="-79.20829100607638" fill="rgb(0,255,0)" r="2" stroke="rgb(0,255,0)" /><circle cx="68.05592423706057" cy="-101.77636425563742" fill="rgb(0,255,0)" r="2" stroke="rgb(0,255,0)" /><circle cx="76.37367166334656" cy="-107.32749727084368" fill="rgb(0,255,0)" r="2" stroke="rgb(0,255,0)" /><circle cx="63.05003636004743" cy="-95.74072461414173" fill="rgb(0,255,0)" r="2" stroke="rgb(0,255,0)" /><circle cx="81.39842634441341" cy="-101.5065013498642" fill="rgb(0,255,0)" r="2" stroke="rgb(0,255,0)" /><circle cx="88.17630297164253" cy="-195.04413669291836" fill="rgb(0,255,0)" r="2" stroke="rgb(0,255,0)" /><circle cx="96.49405039792843" cy="-200.59526970812473" fill="rgb(0,255,0)" r="2" stroke="rgb(0,255,0)" /><circle cx="83.1704150946293" cy="-189.00849705142275" fill="rgb(0,255,0)" r="2" stroke="rgb(0,255,0)" /><circle cx="101.51880507899529" cy="-194.77427378714523" fill="rgb(0,255,0)" r="2" stroke="rgb(0,255,0)" /><circle cx="96.49405039793132" cy="-208.91301713441084" fill="rgb(0,255,0)" r="2" stroke="rgb(0,255,0)" /><circle cx="104.81179782421738" cy="-214.46415014961698" fill="rgb(0,255,0)" r="2" stroke="rgb(0,255,0)" /><circle cx="91.48816252091825" cy="-202.877377492915" fill="rgb(0,255,0)" r="2" stroke="rgb(0,255,0)" /><circle cx="109.83655250528423" cy="-208.64315422863748" fill="rgb(0,255,0)" r="2" stroke="rgb(0,255,0)" /><circle cx="130.1331926976646" cy="-232.83555249420607" fill="rgb(0,255,0)" r="2" stroke="rgb(0,255,0)" /><circle cx="138.45094012395066" cy="-238.38668550941222" fill="rgb(0,255,0)" r="2" stroke="rgb(0,255,0)" /><circle cx="125.12730482065153" cy="-226.79991285271024" fill="rgb(0,255,0)" r="2" stroke="rgb(0,255,0)" /><circle cx="143.47569480501753" cy="-232.56568958843272" fill="rgb(0,255,0)" r="2" stroke="rgb(0,255,0)" /><circle cx="148.65784413982527" cy="-255.13376283799374" fill="rgb(0,255,0)" r="2" stroke="rgb(0,255,0)" /><circle cx="156.97559156611126" cy="-260.6848958532" fill="rgb(0,255,0)" r="2" stroke="rgb(0,255,0)" /><circle cx="143.65195626281212" cy="-249.098123196498" fill="rgb(0,255,0)" r="2" stroke="rgb(0,255,0)" /><circle cx="162.00034624717813" cy="-254.86389993222048" fill="rgb(0,255,0)" r="2" stroke="rgb(0,255,0)" /><circle cx="106.87721587160479" cy="-234.22730356036502" fill="rgb(0,255,0)" r="2" stroke="rgb(0,255,0)" /><circle cx="115.19496329789085" cy="-239.77843657557116" fill="rgb(0,255,0)" r="2" stroke="rgb(0,255,0)" /><circle cx="101.87132799459172" cy="-228.19166391886918" fill="rgb(0,255,0)" r="2" stroke="rgb(0,255,0)" /><circle cx="120.2197179789577" cy="-233.95744065459166" fill="rgb(0,255,0)" r="2" stroke="rgb(0,255,0)" /><circle cx="115.19496329788741" cy="-248.09618400185704" fill="rgb(0,255,0)" r="2" stroke="rgb(0,255,0)" /><circle cx="123.51271072417332" cy="-253.64731701706341" fill="rgb(0,255,0)" r="2" stroke="rgb(0,255,0)" /><circle cx="110.18907542087419" cy="-242.06054436036143" fill="rgb(0,255,0)" r="2" stroke="rgb(0,255,0)" /><circle cx="128.53746540524017" cy="-247.82632109608392" fill="rgb(0,255,0)" r="2" stroke="rgb(0,255,0)" /><circle cx="148.83410559761975" cy="-272.0187193616523" fill="rgb(0,255,0)" r="2" stroke="rgb(0,255,0)" /><circle cx="157.15185302390566" cy="-277.56985237685865" fill="rgb(0,255,0)" r="2" stroke="rgb(0,255,0)" /><circle cx="143.82821772060652" cy="-265.9830797201567" fill="rgb(0,255,0)" r="2" stroke="rgb(0,255,0)" /><circle cx="162.17660770497253" cy="-271.7488564558791" fill="rgb(0,255,0)" r="2" stroke="rgb(0,255,0)" /><circle cx="167.35875703978456" cy="-294.3169297054402" fill="rgb(0,255,0)" r="2" stroke="rgb(0,255,0)" /><circle cx="175.67650446607055" cy="-299.86806272064644" fill="rgb(0,255,0)" r="2" stroke="rgb(0,255,0)" /><circle cx="162.3528691627714" cy="-288.2812900639445" fill="rgb(0,255,0)" r="2" stroke="rgb(0,255,0)" /><circle cx="180.70125914713742" cy="-294.0470667996669" fill="rgb(0,255,0)" r="2" stroke="rgb(0,255,0)" /><line stroke="rgb(139,69,19)" x1="0" x2="-0.24778811913562476" y1="0" y2="-6.747824866730248" /><line stroke="rgb(139,69,19)" x1="0" x2="8.06995930715036" y1="0" y2="-12.298957881936506" /><line stroke="rgb(139,69,19)" x1="0" x2="88.67187920991512" y1="0" y2="-4.452516658763365" /><line stroke="rgb(139,69,19)" x1="0" x2="107.37279210987441" y1="0" y2="-6.233857726291208" /><line stroke="rgb(139,69,19)" x1="-0.24778811913562476" x2="-0.4955762382712495" y1="-6.747824866730248" y2="-13.24786161432487" /><line stroke="rgb(139,69,19)" x1="-0.24778811913562476" x2="7.8221711880147335" y1="-6.747824866730248" y2="-18.798994629531126" /><line stroke="rgb(139,69,19)" x1="-0.24778811913562476" x2="41.46131348774756" y1="-6.747824866730248" y2="-9.082387689593574" /><line stroke="rgb(139,69,19)" x1="-0.24778811913562476" x2="59.985964929910196" y1="-6.747824866730248" y2="-12.855946591218732" /><line stroke="rgb(139,69,19)" x1="8.06995930715036" x2="7.822171188014734" y1="-12.298957881936506" y2="-27.116742055817113" /><line stroke="rgb(139,69,19)" x1="8.06995930715036" x2="16.13991861430072" y1="-12.298957881936506" y2="-32.66787507102337" /><line stroke="rgb(139,69,19)" x1="8.06995930715036" x2="49.779060914033536" y1="-12.298957881936506" y2="-22.95126813108582" /><line stroke="rgb(139,69,19)" x1="8.06995930715036" x2="68.30371235619619" y1="-12.298957881936506" y2="-26.724827032710973" /><line stroke="rgb(139,69,19)" x1="88.67187920991512" x2="88.4240910907795" y1="-4.452516658763365" y2="-99.87222073540873" /><line stroke="rgb(139,69,19)" x1="88.67187920991512" x2="96.74183851706547" y1="-4.452516658763365" y2="-105.423353750615" /><line stroke="rgb(139,69,19)" x1="88.67187920991512" x2="130.38098081679829" y1="-4.452516658763365" y2="-95.70674681067744" /><line stroke="rgb(139,69,19)" x1="88.67187920991512" x2="148.9056322589609" y1="-4.452516658763365" y2="-99.4803057123026" /><line stroke="rgb(139,69,19)" x1="107.37279210987441" x2="107.12500399073879" y1="-6.233857726291208" y2="-120.35447470289587" /><line stroke="rgb(139,69,19)" x1="107.37279210987441" x2="115.44275141702477" y1="-6.233857726291208" y2="-125.90560771810213" /><line stroke="rgb(139,69,19)" x1="107.37279210987441" x2="149.08189371675758" y1="-6.233857726291208" y2="-116.18900077816458" /><line stroke="rgb(139,69,19)" x1="107.37279210987441" x2="167.6065451589202" y1="-6.233857726291208" y2="-119.96255967978973" /><line stroke="rgb(139,69,19)" x1="-0.4955762382712495" x2="-0.7433643574068742" y1="-13.24786161432487" y2="-19.50011024278387" /><line stroke="rgb(139,69,19)" x1="-0.4955762382712495" x2="7.574383068879109" y1="-13.24786161432487" y2="-25.051243257990127" /><line stroke="rgb(139,69,19)" x1="-0.4955762382712495" x2="-5.749252234420027" y1="-13.24786161432487" y2="-13.464470601288161" /><line stroke="rgb(139,69,19)" x1="-0.4955762382712495" x2="12.599137749945971" y1="-13.24786161432487" y2="-19.23024733701063" /><line stroke="rgb(139,69,19)" x1="7.8221711880147335" x2="7.574383068879109" y1="-18.798994629531126" y2="-33.368990684276106" /><line stroke="rgb(139,69,19)" x1="7.8221711880147335" x2="15.892130495165091" y1="-18.798994629531126" y2="-38.92012369948236" /><line stroke="rgb(139,69,19)" x1="7.8221711880147335" x2="2.568495191865935" y1="-18.798994629531126" y2="-27.333351042780393" /><line stroke="rgb(139,69,19)" x1="7.8221711880147335" x2="20.916885176231936" y1="-18.798994629531126" y2="-33.09912777850287" /><line stroke="rgb(139,69,19)" x1="41.46131348774756" x2="41.21352536861193" y1="-9.082387689593574" y2="-57.291526044071375" /><line stroke="rgb(139,69,19)" x1="41.46131348774756" x2="49.531272794897916" y1="-9.082387689593574" y2="-62.84265905927763" /><line stroke="rgb(139,69,19)" x1="41.46131348774756" x2="36.20763749159879" y1="-9.082387689593574" y2="-51.25588640257566" /><line stroke="rgb(139,69,19)" x1="41.46131348774756" x2="54.55602747596477" y1="-9.082387689593574" y2="-57.021663138298145" /><line stroke="rgb(139,69,19)" x1="59.985964929910196" x2="59.73817681077457" y1="-12.855946591218732" y2="-79.58973638785918" /><line stroke="rgb(139,69,19)" x1="59.985964929910196" x2="68.05592423706055" y1="-12.855946591218732" y2="-85.14086940306544" /><line stroke="rgb(139,69,19)" x1="59.985964929910196" x2="54.732288933761424" y1="-12.855946591218732" y2="-73.55409674636348" /><line stroke="rgb(139,69,19)" x1="59.985964929910196" x2="73.0806789181274" y1="-12.855946591218732" y2="-79.31987348208595" /><line stroke="rgb(139,69,19)" x1="7.822171188014734" x2="7.57438306887911" y1="-27.116742055817113" y2="-41.686738110562096" /><line stroke="rgb(139,69,19)" x1="7.822171188014734" x2="15.892130495165093" y1="-27.116742055817113" y2="-47.23787112576835" /><line stroke="rgb(139,69,19)" x1="7.822171188014734" x2="2.5684951918659635" y1="-27.116742055817113" y2="-35.65109846906638" /><line stroke="rgb(139,69,19)" x1="7.822171188014734" x2="20.916885176231965" y1="-27.116742055817113" y2="-41.416875204788866" /><line stroke="rgb(139,69,19)" x1="16.13991861430072" x2="15.892130495165095" y1="-32.66787507102337" y2="-55.55561855205434" /><line stroke="rgb(139,69,19)" x1="16.13991861430072" x2="24.209877921451078" y1="-32.66787507102337" y2="-61.106751567260595" /><line stroke="rgb(139,69,19)" x1="16.13991861430072" x2="10.886242618151925" y1="-32.66787507102337" y2="-49.51997891055863" /><line stroke="rgb(139,69,19)" x1="16.13991861430072" x2="29.234632602517927" y1="-32.66787507102337" y2="-55.28575564628111" /><line stroke="rgb(139,69,19)" x1="49.779060914033536" x2="49.53127279489791" y1="-22.95126813108582" y2="-79.4781539118496" /><line stroke="rgb(139,69,19)" x1="49.779060914033536" x2="57.84902022118389" y1="-22.95126813108582" y2="-85.02928692705586" /><line stroke="rgb(139,69,19)" x1="49.779060914033536" x2="44.525384917884764" y1="-22.95126813108582" y2="-73.44251427035391" /><line stroke="rgb(139,69,19)" x1="49.779060914033536" x2="62.873774902250744" y1="-22.95126813108582" y2="-79.20829100607638" /><line stroke="rgb(139,69,19)" x1="68.30371235619619" x2="68.05592423706057" y1="-26.724827032710973" y2="-101.77636425563742" /><line stroke="rgb(139,69,19)" x1="68.30371235619619" x2="76.37367166334656" y1="-26.724827032710973" y2="-107.32749727084368" /><line stroke="rgb(139,69,19)" x1="68.30371235619619" x2="63.05003636004743" y1="-26.724827032710973" y2="-95.74072461414173" /><line stroke="rgb(139,69,19)" x1="68.30371235619619" x2="81.39842634441341" y1="-26.724827032710973" y2="-101.5065013498642" /><line stroke="rgb(139,69,19)" x1="88.4240910907795" x2="88.17630297164253" y1="-99.87222073540873" y2="-195.04413669291836" /><line stroke="rgb(139,69,19)" x1="88.4240910907795" x2="96.49405039792843" y1="-99.87222073540873" y2="-200.59526970812473" /><line stroke="rgb(139,69,19)" x1="88.4240910907795" x2="83.1704150946293" y1="-99.87222073540873" y2="-189.00849705142275" /><line stroke="rgb(139,69,19)" x1="88.4240910907795" x2="101.51880507899529" y1="-99.87222073540873" y2="-194.77427378714523" /><line stroke="rgb(139,69,19)" x1="96.74183851706547" x2="96.49405039793132" y1="-105.423353750615" y2="-208.91301713441084" /><line stroke="rgb(139,69,19)" x1="96.74183851706547" x2="104.81179782421738" y1="-105.423353750615" y2="-214.46415014961698" /><line stroke="rgb(139,69,19)" x1="96.74183851706547" x2="91.48816252091825" y1="-105.423353750615" y2="-202.877377492915" /><line stroke="rgb(139,69,19)" x1="96.74183851706547" x2="109.83655250528423" y1="-105.423353750615" y2="-208.64315422863748" /><line stroke="rgb(139,69,19)" x1="130.38098081679829" x2="130.1331926976646" y1="-95.70674681067744" y2="-232.83555249420607" /><line stroke="rgb(139,69,19)" x1="130.38098081679829" x2="138.45094012395066" y1="-95.70674681067744" y2="-238.38668550941222" /><line stroke="rgb(139,69,19)" x1="130.38098081679829" x2="125.12730482065153" y1="-95.70674681067744" y2="-226.79991285271024" /><line stroke="rgb(139,69,19)" x1="130.38098081679829" x2="143.47569480501753" y1="-95.70674681067744" y2="-232.56568958843272" /><line stroke="rgb(139,69,19)" x1="148.9056322589609" x2="148.65784413982527" y1="-99.4803057123026" y2="-255.13376283799374" /><line stroke="rgb(139,69,19)" x1="148.9056322589609" x2="156.97559156611126" y1="-99.4803057123026" y2="-260.6848958532" /><line stroke="rgb(139,69,19)" x1="148.9056322589609" x2="143.65195626281212" y1="-99.4803057123026" y2="-249.098123196498" /><line stroke="rgb(139,69,19)" x1="148.9056322589609" x2="162.00034624717813" y1="-99.4803057123026" y2="-254.86389993222048" /><line stroke="rgb(139,69,19)" x1="107.12500399073879" x2="106.87721587160479" y1="-120.35447470289587" y2="-234.22730356036502" /><line stroke="rgb(139,69,19)" x1="107.12500399073879" x2="115.19496329789085" y1="-120.35447470289587" y2="-239.77843657557116" /><line stroke="rgb(139,69,19)" x1="107.12500399073879" x2="101.87132799459172" y1="-120.35447470289587" y2="-228.19166391886918" /><line stroke="rgb(139,69,19)" x1="107.12500399073879" x2="120.2197179789577" y1="-120.35447470289587" y2="-233.95744065459166" /><line stroke="rgb(139,69,19)" x1="115.44275141702477" x2="115.19496329788741" y1="-125.90560771810213" y2="-248.09618400185704" /><line stroke="rgb(139,69,19)" x1="115.44275141702477" x2="123.51271072417332" y1="-125.90560771810213" y2="-253.64731701706341" /><line stroke="rgb(139,69,19)" x1="115.44275141702477" x2="110.18907542087419" y1="-125.90560771810213" y2="-242.06054436036143" /><line stroke="rgb(139,69,19)" x1="115.44275141702477" x2="128.53746540524017" y1="-125.90560771810213" y2="-247.82632109608392" /><line stroke="rgb(139,69,19)" x1="149.08189371675758" x2="148.83410559761975" y1="-116.18900077816458" y2="-272.0187193616523" /><line stroke="rgb(139,69,19)" x1="149.08189371675758" x2="157.15185302390566" y1="-116.18900077816458" y2="-277.56985237685865" /><line stroke="rgb(139,69,19)" x1="149.08189371675758" x2="143.82821772060652" y1="-116.18900077816458" y2="-265.9830797201567" /><line stroke="rgb(139,69,19)" x1="149.08189371675758" x2="162.17660770497253" y1="-116.18900077816458" y2="-271.7488564558791" /><line stroke="rgb(139,69,19)" x1="167.6065451589202" x2="167.35875703978456" y1="-119.96255967978973" y2="-294.3169297054402" /><line stroke="rgb(139,69,19)" x1="167.6065451589202" x2="175.67650446607055" y1="-119.96255967978973" y2="-299.86806272064644" /><line stroke="rgb(139,69,19)" x1="167.6065451589202" x2="162.3528691627714" y1="-119.96255967978973" y2="-288.2812900639445" /><line stroke="rgb(139,69,19)" x1="167.6065451589202" x2="180.70125914713742" y1="-119.96255967978973" y2="-294.0470667996669" /><circle cx="0" cy="-300" fill="rgb(255,255,0)" r="10" stroke="rgb(255,255,0)" /></svg>