<?xml version="1.0" encoding="utf-8" ?>
<svg baseProfile="full" height="100%" version="1.1" viewBox="-400 -400 800 400" width="100%" xmlns="http://www.w3.org/2000/svg" xmlns:ev="http://www.w3.org/2001/xml-events" xmlns:xlink="http://www.w3.org/1999/xlink"><defs /><circle cx="0.0" cy="-75.0" fill="rgb(0,255,0)" r="2" stroke="rgb(0,255,0)" /><circle cx="-44.61995835174064" cy="-135.28315947832306" fill="rgb(0,255,0)" r="2" stroke="rgb(0,255,0)" /><circle cx="-29.746638901160427" cy="-115.1887729855487" fill="rgb(0,255,0)" r="2" stroke="rgb(0,255,0)" /><circle cx="-98.27621561053762" cy="-207.77468194555112" fill="rgb(0,255,0)" r="2" stroke="rgb(0,255,0)" /><circle cx="-14.873319450580214" cy="-95.09438649277435" fill="rgb(0,255,0)" r="2" stroke="rgb(0,255,0)" /><circle cx="-71.44808698113914" cy="-171.52892071193708" fill="rgb(0,255,0)" r="2" stroke="rgb(0,255,0)" /><circle cx="-56.57476753055892" cy="-151.43453421916274" fill="rgb(0,255,0)" r="2" stroke="rgb(0,255,0)" /><circle cx="-146.66813566221606" cy="-273.15389657728747" fill="rgb(0,255,0)" r="2" stroke="rgb(0,255,0)" /><line stroke="rgb(139,69,19)" x1="0" x2="0.0" y1="0" y2="-25.0" /><line stroke="rgb(139,69,19)" x1="0" x2="-14.873319450580214" y1="0" y2="-45.09438649277435" /><line stroke="rgb(139,69,19)" x1="0.0" x2="0.0" y1="-25.0" y2="-50.0" /><line stroke="rgb(139,69,19)" x1="0.0" x2="-29.746638901160427" y1="-25.0" y2="-90.1887729855487" /><line stroke="rgb(139,69,19)" x1="-14.873319450580214" x2="-14.873319450580214" y1="-45.09438649277435" y2="-70.09438649277435" /><line stroke="rgb(139,69,19)" x1="-14.873319450580214" x2="-56.57476753055892" y1="-45.09438649277435" y2="-126.43453421916274" /><line stroke="rgb(139,69,19)" x1="0.0" x2="0.0" y1="-50.0" y2="-75.0" /><line stroke="rgb(139,69,19)" x1="0.0" x2="-44.61995835174064" y1="-50.0" y2="-135.28315947832306" /><line stroke="rgb(139,69,19)" x1="-29.746638901160427" x2="-29.746638901160427" y1="-90.1887729855487" y2="-115.1887729855487" /><line stroke="rgb(139,69,19)" x1="-29.746638901160427" x2="-98.27621561053762" y1="-90.1887729855487" y2="-207.77468194555112" /><line stroke="rgb(139,69,19)" x1="-14.873319450580214" x2="-14.873319450580214" y1="-70.09438649277435" y2="-95.09438649277435" /><line stroke="rgb(139,69,19)" x1="-14.873319450580214" x2="-71.44808698113914" y1="-70.09438649277435" y2="-171.52892071193708" /><line stroke="rgb(139,69,19)" x1="-56.57476753055892" x2="-56.57476753055892" y1="-126.43453421916274" y2="-151.43453421916274" /><line stroke="rgb(139,69,19)" x1="-56.57476753055892" x2="-146.66813566221606" y1="-126.43453421916274" y2="-273.15389657728747" /><circle cx="0" cy="-300" fill="rgb(255,255,0)" r="10" stroke="rgb(255,255,0)" /></svg>