<?xml version="1.0" encoding="utf-8" ?>
<svg baseProfile="full" height="100%" version="1.1" viewBox="-400 -400 800 400" width="100%" xmlns="http://www.w3.org/2000/svg" xmlns:ev="http://www.w3.org/2001/xml-events" xmlns:xlink="http://www.w3.org/1999/xlink"><defs /><circle cx="0" cy="0" fill="rgb(0,255,0)" r="2" stroke="rgb(0,255,0)" /><circle cx="-76.33953605653568" cy="-147.4051397837704" fill="rgb(0,255,0)" r="2" stroke="rgb(0,255,0)" /><circle cx="82.7907207793447" cy="-143.8808415072576" fill="rgb(0,255,0)" r="2" stroke="rgb(0,255,0)" /><circle cx="6.451184722809018" cy="-291.285981291028" fill="rgb(0,255,0)" r="2" stroke="rgb(0,255,0)" /><circle cx="165.80357073966616" cy="-8.073161089468874" fill="rgb(0,255,0)" r="2" stroke="rgb(0,255,0)" /><circle cx="89.46403468313048" cy="-155.47830087323928" fill="rgb(0,255,0)" r="2" stroke="rgb(0,255,0)" /><circle cx="248.59429151901085" cy="-151.95400259672647" fill="rgb(0,255,0)" r="2" stroke="rgb(0,255,0)" /><circle cx="172.25475546247517" cy="-299.3591423804969" fill="rgb(0,255,0)" r="2" stroke="rgb(0,255,0)" /><line stroke="rgb(139,69,19)" x1="0" x2="0" y1="0" y2="0" /><line stroke="rgb(139,69,19)" x1="0" x2="165.80357073966616" y1="0" y2="-8.073161089468874" /><line stroke="rgb(139,69,19)" x1="0" x2="0" y1="0" y2="0" /><line stroke="rgb(139,69,19)" x1="0" x2="82.7907207793447" y1="0" y2="-143.8808415072576" /><line stroke="rgb(139,69,19)" x1="165.80357073966616" x2="165.80357073966616" y1="-8.073161089468874" y2="-8.073161089468874" /><line stroke="rgb(139,69,19)" x1="165.80357073966616" x2="248.59429151901085" y1="-8.073161089468874" y2="-151.95400259672647" /><line stroke="rgb(139,69,19)" x1="0" x2="0" y1="0" y2="0" /><line stroke="rgb(139,69,19)" x1="0" x2="-76.33953605653568" y1="0" y2="-147.4051397837704" /><line stroke="rgb(139,69,19)" x1="82.7907207793447" x2="82.7907207793447" y1="-143.8808415072576" y2="-143.8808415072576" /><line stroke="rgb(139,69,19)" x1="82.7907207793447" x2="6.451184722809018" y1="-143.8808415072576" y2="-291.285981291028" /><line stroke="rgb(139,69,19)" x1="165.80357073966616" x2="165.80357073966616" y1="-8.073161089468874" y2="-8.073161089468874" /><line stroke="rgb(139,69,19)" x1="165.80357073966616" x2="89.46403468313048" y1="-8.073161089468874" y2="-155.47830087323928" /><line stroke="rgb(139,69,19)" x1="248.59429151901085" x2="248.59429151901085" y1="-151.95400259672647" y2="-151.95400259672647" /><line stroke="rgb(139,69,19)" x1="248.59429151901085" x2="172.25475546247517" y1="-151.95400259672647" y2="-299.3591423804969" /><circle cx="0" cy="-300" fill="rgb(255,255,0)" r="10" stroke="rgb(255,255,0)" /></svg>