<?xml version="1.0" encoding="utf-8" ?>
<svg baseProfile="full" height="100%" version="1.1" viewBox="-400 -400 800 400" width="100%" xmlns="http://www.w3.org/2000/svg" xmlns:ev="http://www.w3.org/2001/xml-events" xmlns:xlink="http://www.w3.org/1999/xlink"><defs /><circle cx="0.0" cy="-78.0" fill="rgb(0,255,0)" r="2" stroke="rgb(0,255,0)" /><circle cx="31.35268581523965" cy="-25.67401131205574" fill="rgb(0,255,0)" r="2" stroke="rgb(0,255,0)" /><circle cx="60.18428311446961" cy="-68.05756237146197" fill="rgb(0,255,0)" r="2" stroke="rgb(0,255,0)" /><circle cx="7.0460365884705425" cy="-98.01297517352745" fill="rgb(0,255,0)" r="2" stroke="rgb(0,255,0)" /><circle cx="46.516065479255765" cy="-117.46207866204706" fill="rgb(0,255,0)" r="2" stroke="rgb(0,255,0)" /><circle cx="-10.834752431054007" cy="-96.68026726317012" fill="rgb(0,255,0)" r="2" stroke="rgb(0,255,0)" /><circle cx="25.26205912021187" cy="-60.2845724757003" fill="rgb(0,255,0)" r="2" stroke="rgb(0,255,0)" /><circle cx="-8.894213984485123" cy="-9.744004536693595" fill="rgb(0,255,0)" r="2" stroke="rgb(0,255,0)" /><line stroke="rgb(139,69,19)" x1="0" x2="0.0" y1="0" y2="-26.0" /><line stroke="rgb(139,69,19)" x1="0" x2="46.516065479255765" y1="0" y2="-65.46207866204706" /><line stroke="rgb(139,69,19)" x1="0.0" x2="0.0" y1="-26.0" y2="-52.0" /><line stroke="rgb(139,69,19)" x1="0.0" x2="60.18428311446961" y1="-26.0" y2="-42.05756237146197" /><line stroke="rgb(139,69,19)" x1="46.516065479255765" x2="46.516065479255765" y1="-65.46207866204706" y2="-91.46207866204706" /><line stroke="rgb(139,69,19)" x1="46.516065479255765" x2="25.26205912021187" y1="-65.46207866204706" y2="-34.2845724757003" /><line stroke="rgb(139,69,19)" x1="0.0" x2="0.0" y1="-52.0" y2="-78.0" /><line stroke="rgb(139,69,19)" x1="0.0" x2="31.35268581523965" y1="-52.0" y2="-25.67401131205574" /><line stroke="rgb(139,69,19)" x1="60.18428311446961" x2="60.18428311446961" y1="-42.05756237146197" y2="-68.05756237146197" /><line stroke="rgb(139,69,19)" x1="60.18428311446961" x2="7.0460365884705425" y1="-42.05756237146197" y2="-98.01297517352745" /><line stroke="rgb(139,69,19)" x1="46.516065479255765" x2="46.516065479255765" y1="-91.46207866204706" y2="-117.46207866204706" /><line stroke="rgb(139,69,19)" x1="46.516065479255765" x2="-10.834752431054007" y1="-91.46207866204706" y2="-96.68026726317012" /><line stroke="rgb(139,69,19)" x1="25.26205912021187" x2="25.26205912021187" y1="-34.2845724757003" y2="-60.2845724757003" /><line stroke="rgb(139,69,19)" x1="25.26205912021187" x2="-8.894213984485123" y1="-34.2845724757003" y2="-9.744004536693595" /><circle cx="0" cy="-300" fill="rgb(255,255,0)" r="10" stroke="rgb(255,255,0)" /></svg>