<?xml version="1.0" encoding="utf-8" ?>
<svg baseProfile="full" height="100%" version="1.1" viewBox="-400 -400 800 400" width="100%" xmlns="http://www.w3.org/2000/svg" xmlns:ev="http://www.w3.org/2001/xml-events" xmlns:xlink="http://www.w3.org/1999/xlink"><defs /><circle cx="1.5956526738822707" cy="-232.68194157370817" fill="rgb(0,255,0)" r="2" stroke="rgb(0,255,0)" /><circle cx="6.821881283794278" cy="-198.0743335298555" fill="rgb(0,255,0)" r="2" stroke="rgb(0,255,0)" /><circle cx="27.40642136230372" cy="-256.3209817342731" fill="rgb(0,255,0)" r="2" stroke="rgb(0,255,0)" /><circle cx="62.31375051221988" cy="-258.86624628229424" fill="rgb(0,255,0)" r="2" stroke="rgb(0,255,0)" /><circle cx="-32.42054611692" cy="-240.92197918433968" fill="rgb(0,255,0)" r="2" stroke="rgb(0,255,0)" /><circle cx="-66.44895198920116" cy="-249.11145986331442" fill="rgb(0,255,0)" r="2" stroke="rgb(0,255,0)" /><circle cx="-20.240032786812993" cy="-208.10986107204639" fill="rgb(0,255,0)" r="2" stroke="rgb(0,255,0)" /><circle cx="-34.21637230914839" cy="-176.02151531293308" fill="rgb(0,255,0)" r="2" stroke="rgb(0,255,0)" /><line stroke="rgb(139,69,19)" x1="0" x2="0.5318842246274236" y1="0" y2="-77.56064719123606" /><line stroke="rgb(139,69,19)" x1="0" x2="-33.48431456617485" y1="0" y2="-85.80068480186756" /><line stroke="rgb(139,69,19)" x1="0.5318842246274236" x2="1.0637684492548471" y1="-77.56064719123606" y2="-155.12129438247212" /><line stroke="rgb(139,69,19)" x1="0.5318842246274236" x2="26.8745371376763" y1="-77.56064719123606" y2="-178.76033454303706" /><line stroke="rgb(139,69,19)" x1="-33.48431456617485" x2="-32.95243034154743" y1="-85.80068480186756" y2="-163.36133199310362" /><line stroke="rgb(139,69,19)" x1="-33.48431456617485" x2="-20.771917011440415" y1="-85.80068480186756" y2="-130.54921388081033" /><line stroke="rgb(139,69,19)" x1="1.0637684492548471" x2="1.5956526738822707" y1="-155.12129438247212" y2="-232.68194157370817" /><line stroke="rgb(139,69,19)" x1="1.0637684492548471" x2="6.821881283794278" y1="-155.12129438247212" y2="-198.0743335298555" /><line stroke="rgb(139,69,19)" x1="26.8745371376763" x2="27.40642136230372" y1="-178.76033454303706" y2="-256.3209817342731" /><line stroke="rgb(139,69,19)" x1="26.8745371376763" x2="62.31375051221988" y1="-178.76033454303706" y2="-258.86624628229424" /><line stroke="rgb(139,69,19)" x1="-32.95243034154743" x2="-32.42054611692" y1="-163.36133199310362" y2="-240.92197918433968" /><line stroke="rgb(139,69,19)" x1="-32.95243034154743" x2="-66.44895198920116" y1="-163.36133199310362" y2="-249.11145986331442" /><line stroke="rgb(139,69,19)" x1="-20.771917011440415" x2="-20.240032786812993" y1="-130.54921388081033" y2="-208.10986107204639" /><line stroke="rgb(139,69,19)" x1="-20.771917011440415" x2="-34.21637230914839" y1="-130.54921388081033" y2="-176.02151531293308" /><circle cx="0" cy="-300" fill="rgb(255,255,0)" r="10" stroke="rgb(255,255,0)" /></svg>