<?xml version="1.0" encoding="utf-8" ?>
<svg baseProfile="full" height="100%" version="1.1" viewBox="-400 -400 800 400" width="100%" xmlns="http://www.w3.org/2000/svg" xmlns:ev="http://www.w3.org/2001/xml-events" xmlns:xlink="http://www.w3.org/1999/xlink"><defs /><circle cx="15.561707911511089" cy="-16.134115829522187" fill="rgb(0,255,0)" r="2" stroke="rgb(0,255,0)" /><circle cx="15.481846684046374" cy="-5.4242843550696955" fill="rgb(0,255,0)" r="2" stroke="rgb(0,255,0)" /><circle cx="48.43752152127371" cy="-37.26023925360622" fill="rgb(0,255,0)" r="2" stroke="rgb(0,255,0)" /><circle cx="27.23174376734354" cy="-26.643905621087015" fill="rgb(0,255,0)" r="2" stroke="rgb(0,255,0)" /><circle cx="-11.08505221093941" cy="-16.59885239207898" fill="rgb(0,255,0)" r="2" stroke="rgb(0,255,0)" /><circle cx="-11.62964544958696" cy="-5.891077701296373" fill="rgb(0,255,0)" r="2" stroke="rgb(0,255,0)" /><circle cx="-5.320469771115951" cy="-10.733731942555739" fill="rgb(0,255,0)" r="2" stroke="rgb(0,255,0)" /><circle cx="0.0" cy="-0.0" fill="rgb(0,255,0)" r="2" stroke="rgb(0,255,0)" /><line stroke="rgb(139,69,19)" x1="0" x2="26.6467601224505" y1="0" y2="53.7582568074578" /><line stroke="rgb(139,69,19)" x1="0" x2="0.0" y1="0" y2="-0.0" /><line stroke="rgb(139,69,19)" x1="26.6467601224505" x2="20.88217768262704" y1="53.7582568074578" y2="15.481793795660595" /><line stroke="rgb(139,69,19)" x1="26.6467601224505" x2="53.75799129238966" y1="53.7582568074578" y2="27.231483981339178" /><line stroke="rgb(139,69,19)" x1="0.0" x2="-5.764582439823458" y1="-0.0" y2="-11.629702889346701" /><line stroke="rgb(139,69,19)" x1="0.0" x2="0.0" y1="-0.0" y2="-0.0" /><line stroke="rgb(139,69,19)" x1="20.88217768262704" x2="15.561707911511089" y1="15.481793795660595" y2="-16.134115829522187" /><line stroke="rgb(139,69,19)" x1="20.88217768262704" x2="15.481846684046374" y1="15.481793795660595" y2="-5.4242843550696955" /><line stroke="rgb(139,69,19)" x1="53.75799129238966" x2="48.43752152127371" y1="27.231483981339178" y2="-37.26023925360622" /><line stroke="rgb(139,69,19)" x1="53.75799129238966" x2="27.23174376734354" y1="27.231483981339178" y2="-26.643905621087015" /><line stroke="rgb(139,69,19)" x1="-5.764582439823458" x2="-11.08505221093941" y1="-11.629702889346701" y2="-16.59885239207898" /><line stroke="rgb(139,69,19)" x1="-5.764582439823458" x2="-11.62964544958696" y1="-11.629702889346701" y2="-5.891077701296373" /><line stroke="rgb(139,69,19)" x1="0.0" x2="-5.320469771115951" y1="-0.0" y2="-10.733731942555739" /><line stroke="rgb(139,69,19)" x1="0.0" x2="0.0" y1="-0.0" y2="-0.0" /><circle cx="0" cy="-300" fill="rgb(255,255,0)" r="10" stroke="rgb(255,255,0)" /></svg>