<?xml version="1.0" encoding="utf-8" ?>
<svg baseProfile="full" height="100%" version="1.1" viewBox="-400 -400 800 400" width="100%" xmlns="http://www.w3.org/2000/svg" xmlns:ev="http://www.w3.org/2001/xml-events" xmlns:xlink="http://www.w3.org/1999/xlink"><defs /><circle cx="0.0" cy="-66.5" fill="rgb(0,255,0)" r="2" stroke="rgb(0,255,0)" /><circle cx="-65.25773025495354" cy="-106.61469010978175" fill="rgb(0,255,0)" r="2" stroke="rgb(0,255,0)" /><circle cx="-85.7277258302102" cy="-115.12000563950104" fill="rgb(0,255,0)" r="2" stroke="rgb(0,255,0)" /><circle cx="-79.79888210741879" cy="-106.88550365434818" fill="rgb(0,255,0)" r="2" stroke="rgb(0,255,0)" /><circle cx="-106.19772140546688" cy="-123.62532116922033" fill="rgb(0,255,0)" r="2" stroke="rgb(0,255,0)" /><circle cx="-119.40486574979232" cy="-133.63544221692763" fill="rgb(0,255,0)" r="2" stroke="rgb(0,255,0)" /><circle cx="-141.02445786155278" cy="-128.7411242836282" fill="rgb(0,255,0)" r="2" stroke="rgb(0,255,0)" /><circle cx="-132.60805678078916" cy="-141.3487503598024" fill="rgb(0,255,0)" r="2" stroke="rgb(0,255,0)" /><line stroke="rgb(139,69,19)" x1="0" x2="0.0" y1="0" y2="-22.166666666666668" /><line stroke="rgb(139,69,19)" x1="0" x2="-106.19772140546688" y1="0" y2="-79.29198783588699" /><line stroke="rgb(139,69,19)" x1="0.0" x2="0.0" y1="-22.166666666666668" y2="-44.333333333333336" /><line stroke="rgb(139,69,19)" x1="0.0" x2="-85.7277258302102" y1="-22.166666666666668" y2="-92.95333897283437" /><line stroke="rgb(139,69,19)" x1="-106.19772140546688" x2="-106.19772140546688" y1="-79.29198783588699" y2="-101.45865450255366" /><line stroke="rgb(139,69,19)" x1="-106.19772140546688" x2="-141.02445786155278" y1="-79.29198783588699" y2="-106.57445761696154" /><line stroke="rgb(139,69,19)" x1="0.0" x2="0.0" y1="-44.333333333333336" y2="-66.5" /><line stroke="rgb(139,69,19)" x1="0.0" x2="-65.25773025495354" y1="-44.333333333333336" y2="-106.61469010978175" /><line stroke="rgb(139,69,19)" x1="-85.7277258302102" x2="-85.7277258302102" y1="-92.95333897283437" y2="-115.12000563950104" /><line stroke="rgb(139,69,19)" x1="-85.7277258302102" x2="-79.79888210741879" y1="-92.95333897283437" y2="-106.88550365434818" /><line stroke="rgb(139,69,19)" x1="-106.19772140546688" x2="-106.19772140546688" y1="-101.45865450255366" y2="-123.62532116922033" /><line stroke="rgb(139,69,19)" x1="-106.19772140546688" x2="-119.40486574979232" y1="-101.45865450255366" y2="-133.63544221692763" /><line stroke="rgb(139,69,19)" x1="-141.02445786155278" x2="-141.02445786155278" y1="-106.57445761696154" y2="-128.7411242836282" /><line stroke="rgb(139,69,19)" x1="-141.02445786155278" x2="-132.60805678078916" y1="-106.57445761696154" y2="-141.3487503598024" /><circle cx="0" cy="-300" fill="rgb(255,255,0)" r="10" stroke="rgb(255,255,0)" /></svg>