<?xml version="1.0" encoding="utf-8" ?>
<svg baseProfile="full" height="100%" version="1.1" viewBox="-400 -400 800 400" width="100%" xmlns="http://www.w3.org/2000/svg" xmlns:ev="http://www.w3.org/2001/xml-events" xmlns:xlink="http://www.w3.org/1999/xlink"><defs /><circle cx="-4.757417278472292" cy="-88.87918723445779" fill="rgb(0,255,0)" r="2" stroke="rgb(0,255,0)" /><circle cx="-42.56810441290614" cy="-92.66758246488965" fill="rgb(0,255,0)" r="2" stroke="rgb(0,255,0)" /><circle cx="-50.93627378621473" cy="-141.06342096554422" fill="rgb(0,255,0)" r="2" stroke="rgb(0,255,0)" /><circle cx="-70.60338775982322" cy="-173.5781042324791" fill="rgb(0,255,0)" r="2" stroke="rgb(0,255,0)" /><circle cx="25.357978783669598" cy="-183.49780960574" fill="rgb(0,255,0)" r="2" stroke="rgb(0,255,0)" /><circle cx="20.468315839749344" cy="-145.81371221314146" fill="rgb(0,255,0)" r="2" stroke="rgb(0,255,0)" /><circle cx="-19.270867753875187" cy="-107.6409395217428" fill="rgb(0,255,0)" r="2" stroke="rgb(0,255,0)" /><circle cx="0.04872865469360477" cy="-74.91857416393262" fill="rgb(0,255,0)" r="2" stroke="rgb(0,255,0)" /><line stroke="rgb(139,69,19)" x1="0" x2="-4.369054097898095" y1="0" y2="-79.56866985178074" /><line stroke="rgb(139,69,19)" x1="0" x2="24.208331684890673" y1="0" y2="-54.52205287819202" /><line stroke="rgb(139,69,19)" x1="-4.369054097898095" x2="-52.39892242955191" y1="-79.56866985178074" y2="-85.75845592022634" /><line stroke="rgb(139,69,19)" x1="-4.369054097898095" x2="-88.82841900977522" y1="-79.56866985178074" y2="-74.94680577274661" /><line stroke="rgb(139,69,19)" x1="24.208331684890673" x2="63.540567299309174" y1="-54.52205287819202" y2="-117.67214427590412" /><line stroke="rgb(139,69,19)" x1="24.208331684890673" x2="27.15037578329831" y1="-54.52205287819202" y2="-106.72892896101378" /><line stroke="rgb(139,69,19)" x1="-52.39892242955191" x2="-4.757417278472292" y1="-85.75845592022634" y2="-88.87918723445779" /><line stroke="rgb(139,69,19)" x1="-52.39892242955191" x2="-42.56810441290614" y1="-85.75845592022634" y2="-92.66758246488965" /><line stroke="rgb(139,69,19)" x1="-88.82841900977522" x2="-50.93627378621473" y1="-74.94680577274661" y2="-141.06342096554422" /><line stroke="rgb(139,69,19)" x1="-88.82841900977522" x2="-70.60338775982322" y1="-74.94680577274661" y2="-173.5781042324791" /><line stroke="rgb(139,69,19)" x1="63.540567299309174" x2="25.357978783669598" y1="-117.67214427590412" y2="-183.49780960574" /><line stroke="rgb(139,69,19)" x1="63.540567299309174" x2="20.468315839749344" y1="-117.67214427590412" y2="-145.81371221314146" /><line stroke="rgb(139,69,19)" x1="27.15037578329831" x2="-19.270867753875187" y1="-106.72892896101378" y2="-107.6409395217428" /><line stroke="rgb(139,69,19)" x1="27.15037578329831" x2="0.04872865469360477" y1="-106.72892896101378" y2="-74.91857416393262" /><circle cx="0" cy="-300" fill="rgb(255,255,0)" r="10" stroke="rgb(255,255,0)" /></svg>