<?xml version="1.0" encoding="utf-8" ?>
<svg baseProfile="full" height="100%" version="1.1" viewBox="-400 -400 800 400" width="100%" xmlns="http://www.w3.org/2000/svg" xmlns:ev="http://www.w3.org/2001/xml-events" xmlns:xlink="http://www.w3.org/1999/xlink"><defs /><circle cx="-44.18190487994103" cy="-260.2766975377931" fill="rgb(0,255,0)" r="2" stroke="rgb(0,255,0)" /><circle cx="-48.23397048262817" cy="-363.19696164720705" fill="rgb(0,255,0)" r="2" stroke="rgb(0,255,0)" /><circle cx="-127.43996122155178" cy="-199.63763377344094" fill="rgb(0,255,0)" r="2" stroke="rgb(0,255,0)" /><circle cx="-24.497750228942877" cy="-203.087444775973" fill="rgb(0,255,0)" r="2" stroke="rgb(0,255,0)" /><circle cx="52.53187042612221" cy="-224.8444288262314" fill="rgb(0,255,0)" r="2" stroke="rgb(0,255,0)" /><circle cx="-8.668717026368853" cy="-141.99825754795208" fill="rgb(0,255,0)" r="2" stroke="rgb(0,255,0)" /><circle cx="155.42238608248041" cy="-220.0966095406323" fill="rgb(0,255,0)" r="2" stroke="rgb(0,255,0)" /><circle cx="257.22688250227543" cy="-235.7441176077956" fill="rgb(0,255,0)" r="2" stroke="rgb(0,255,0)" /><line stroke="rgb(139,69,19)" x1="0" x2="-14.727301626647009" y1="0" y2="-86.75889917926438" /><line stroke="rgb(139,69,19)" x1="0" x2="81.98647367941622" y1="0" y2="-51.32663046770265" /><line stroke="rgb(139,69,19)" x1="-14.727301626647009" x2="-29.454603253294017" y1="-86.75889917926438" y2="-173.51779835852875" /><line stroke="rgb(139,69,19)" x1="-14.727301626647009" x2="-112.71265959490478" y1="-86.75889917926438" y2="-112.87873459417656" /><line stroke="rgb(139,69,19)" x1="81.98647367941622" x2="67.25917205276922" y1="-51.32663046770265" y2="-138.08552964696702" /><line stroke="rgb(139,69,19)" x1="81.98647367941622" x2="170.14968770912742" y1="-51.32663046770265" y2="-133.33771036136793" /><line stroke="rgb(139,69,19)" x1="-29.454603253294017" x2="-44.18190487994103" y1="-173.51779835852875" y2="-260.2766975377931" /><line stroke="rgb(139,69,19)" x1="-29.454603253294017" x2="-48.23397048262817" y1="-173.51779835852875" y2="-363.19696164720705" /><line stroke="rgb(139,69,19)" x1="-112.71265959490478" x2="-127.43996122155178" y1="-112.87873459417656" y2="-199.63763377344094" /><line stroke="rgb(139,69,19)" x1="-112.71265959490478" x2="-24.497750228942877" y1="-112.87873459417656" y2="-203.087444775973" /><line stroke="rgb(139,69,19)" x1="67.25917205276922" x2="52.53187042612221" y1="-138.08552964696702" y2="-224.8444288262314" /><line stroke="rgb(139,69,19)" x1="67.25917205276922" x2="-8.668717026368853" y1="-138.08552964696702" y2="-141.99825754795208" /><line stroke="rgb(139,69,19)" x1="170.14968770912742" x2="155.42238608248041" y1="-133.33771036136793" y2="-220.0966095406323" /><line stroke="rgb(139,69,19)" x1="170.14968770912742" x2="257.22688250227543" y1="-133.33771036136793" y2="-235.7441176077956" /><circle cx="0" cy="-300" fill="rgb(255,255,0)" r="10" stroke="rgb(255,255,0)" /></svg>