<?xml version="1.0" encoding="utf-8" ?>
<svg baseProfile="full" height="100%" version="1.1" viewBox="-400 -400 800 400" width="100%" xmlns="http://www.w3.org/2000/svg" xmlns:ev="http://www.w3.org/2001/xml-events" xmlns:xlink="http://www.w3.org/1999/xlink"><defs /><circle cx="0.0" cy="-0.0" fill="rgb(0,255,0)" r="2" stroke="rgb(0,255,0)" /><circle cx="-18.869422519399794" cy="-60.84083651920355" fill="rgb(0,255,0)" r="2" stroke="rgb(0,255,0)" /><circle cx="12.719313689797916" cy="-73.67195732599328" fill="rgb(0,255,0)" r="2" stroke="rgb(0,255,0)" /><circle cx="-18.869422519399794" cy="-41.97141399980376" fill="rgb(0,255,0)" r="2" stroke="rgb(0,255,0)" /><circle cx="-37.73884503879959" cy="-102.8122505190073" fill="rgb(0,255,0)" r="2" stroke="rgb(0,255,0)" /><circle cx="-6.150108829601878" cy="-115.64337132579703" fill="rgb(0,255,0)" r="2" stroke="rgb(0,255,0)" /><circle cx="55.53386340862762" cy="-92.22839953032553" fill="rgb(0,255,0)" r="2" stroke="rgb(0,255,0)" /><circle cx="36.66444088922782" cy="-153.06923604952905" fill="rgb(0,255,0)" r="2" stroke="rgb(0,255,0)" /><circle cx="68.25317709842554" cy="-165.9003568563188" fill="rgb(0,255,0)" r="2" stroke="rgb(0,255,0)" /><circle cx="-18.869422519399794" cy="-23.101991480403964" fill="rgb(0,255,0)" r="2" stroke="rgb(0,255,0)" /><circle cx="-37.73884503879959" cy="-83.9428279996075" fill="rgb(0,255,0)" r="2" stroke="rgb(0,255,0)" /><circle cx="-6.150108829601878" cy="-96.77394880639723" fill="rgb(0,255,0)" r="2" stroke="rgb(0,255,0)" /><circle cx="-37.73884503879959" cy="-65.07340548020773" fill="rgb(0,255,0)" r="2" stroke="rgb(0,255,0)" /><circle cx="-56.60826755819939" cy="-125.91424199941126" fill="rgb(0,255,0)" r="2" stroke="rgb(0,255,0)" /><circle cx="-25.019531349001667" cy="-138.745362806201" fill="rgb(0,255,0)" r="2" stroke="rgb(0,255,0)" /><circle cx="36.66444088922782" cy="-115.3303910107295" fill="rgb(0,255,0)" r="2" stroke="rgb(0,255,0)" /><circle cx="17.795018369828025" cy="-176.17122752993302" fill="rgb(0,255,0)" r="2" stroke="rgb(0,255,0)" /><circle cx="49.38375457902574" cy="-189.00234833672278" fill="rgb(0,255,0)" r="2" stroke="rgb(0,255,0)" /><circle cx="47.55123630998262" cy="-75.79082148391467" fill="rgb(0,255,0)" r="2" stroke="rgb(0,255,0)" /><circle cx="28.681813790582826" cy="-136.6316580031182" fill="rgb(0,255,0)" r="2" stroke="rgb(0,255,0)" /><circle cx="60.27054999978054" cy="-149.46277880990795" fill="rgb(0,255,0)" r="2" stroke="rgb(0,255,0)" /><circle cx="28.681813790582826" cy="-117.76223548371841" fill="rgb(0,255,0)" r="2" stroke="rgb(0,255,0)" /><circle cx="9.812391271183031" cy="-178.60307200292195" fill="rgb(0,255,0)" r="2" stroke="rgb(0,255,0)" /><circle cx="41.401127480380744" cy="-191.4341928097117" fill="rgb(0,255,0)" r="2" stroke="rgb(0,255,0)" /><circle cx="103.08509971861024" cy="-168.0192210142402" fill="rgb(0,255,0)" r="2" stroke="rgb(0,255,0)" /><circle cx="84.21567719921045" cy="-228.86005753344372" fill="rgb(0,255,0)" r="2" stroke="rgb(0,255,0)" /><circle cx="115.80441340840815" cy="-241.69117834023348" fill="rgb(0,255,0)" r="2" stroke="rgb(0,255,0)" /><line stroke="rgb(139,69,19)" x1="0" x2="0.0" y1="0" y2="-0.0" /><line stroke="rgb(139,69,19)" x1="0" x2="-18.869422519399794" y1="0" y2="-60.84083651920355" /><line stroke="rgb(139,69,19)" x1="0" x2="47.55123630998262" y1="0" y2="19.31165113605057" /><line stroke="rgb(139,69,19)" x1="0.0" x2="0.0" y1="-0.0" y2="-0.0" /><line stroke="rgb(139,69,19)" x1="0.0" x2="-18.869422519399794" y1="-0.0" y2="-60.84083651920355" /><line stroke="rgb(139,69,19)" x1="0.0" x2="55.53386340862762" y1="-0.0" y2="-36.69453612169792" /><line stroke="rgb(139,69,19)" x1="-18.869422519399794" x2="-18.869422519399794" y1="-60.84083651920355" y2="-41.97141399980376" /><line stroke="rgb(139,69,19)" x1="-18.869422519399794" x2="-37.73884503879959" y1="-60.84083651920355" y2="-102.8122505190073" /><line stroke="rgb(139,69,19)" x1="-18.869422519399794" x2="36.66444088922782" y1="-60.84083651920355" y2="-78.66595012150168" /><line stroke="rgb(139,69,19)" x1="47.55123630998262" x2="47.55123630998262" y1="19.31165113605057" y2="-28.23958517393205" /><line stroke="rgb(139,69,19)" x1="47.55123630998262" x2="28.681813790582826" y1="19.31165113605057" y2="-89.08042169313559" /><line stroke="rgb(139,69,19)" x1="47.55123630998262" x2="103.08509971861024" y1="19.31165113605057" y2="-64.93412129562998" /><line stroke="rgb(139,69,19)" x1="0.0" x2="0.0" y1="-0.0" y2="-0.0" /><line stroke="rgb(139,69,19)" x1="0.0" x2="-18.869422519399794" y1="-0.0" y2="-60.84083651920355" /><line stroke="rgb(139,69,19)" x1="0.0" x2="12.719313689797916" y1="-0.0" y2="-73.67195732599328" /><line stroke="rgb(139,69,19)" x1="-18.869422519399794" x2="-18.869422519399794" y1="-60.84083651920355" y2="-41.97141399980376" /><line stroke="rgb(139,69,19)" x1="-18.869422519399794" x2="-37.73884503879959" y1="-60.84083651920355" y2="-102.8122505190073" /><line stroke="rgb(139,69,19)" x1="-18.869422519399794" x2="-6.150108829601878" y1="-60.84083651920355" y2="-115.64337132579703" /><line stroke="rgb(139,69,19)" x1="55.53386340862762" x2="55.53386340862762" y1="-36.69453612169792" y2="-92.22839953032553" /><line stroke="rgb(139,69,19)" x1="55.53386340862762" x2="36.66444088922782" y1="-36.69453612169792" y2="-153.06923604952905" /><line stroke="rgb(139,69,19)" x1="55.53386340862762" x2="68.25317709842554" y1="-36.69453612169792" y2="-165.9003568563188" /><line stroke="rgb(139,69,19)" x1="-18.869422519399794" x2="-18.869422519399794" y1="-41.97141399980376" y2="-23.101991480403964" /><line stroke="rgb(139,69,19)" x1="-18.869422519399794" x2="-37.73884503879959" y1="-41.97141399980376" y2="-83.9428279996075" /><line stroke="rgb(139,69,19)" x1="-18.869422519399794" x2="-6.150108829601878" y1="-41.97141399980376" y2="-96.77394880639723" /><line stroke="rgb(139,69,19)" x1="-37.73884503879959" x2="-37.73884503879959" y1="-102.8122505190073" y2="-65.07340548020773" /><line stroke="rgb(139,69,19)" x1="-37.73884503879959" x2="-56.60826755819939" y1="-102.8122505190073" y2="-125.91424199941126" /><line stroke="rgb(139,69,19)" x1="-37.73884503879959" x2="-25.019531349001667" y1="-102.8122505190073" y2="-138.745362806201" /><line stroke="rgb(139,69,19)" x1="36.66444088922782" x2="36.66444088922782" y1="-78.66595012150168" y2="-115.3303910107295" /><line stroke="rgb(139,69,19)" x1="36.66444088922782" x2="17.795018369828025" y1="-78.66595012150168" y2="-176.17122752993302" /><line stroke="rgb(139,69,19)" x1="36.66444088922782" x2="49.38375457902574" y1="-78.66595012150168" y2="-189.00234833672278" /><line stroke="rgb(139,69,19)" x1="47.55123630998262" x2="47.55123630998262" y1="-28.23958517393205" y2="-75.79082148391467" /><line stroke="rgb(139,69,19)" x1="47.55123630998262" x2="28.681813790582826" y1="-28.23958517393205" y2="-136.6316580031182" /><line stroke="rgb(139,69,19)" x1="47.55123630998262" x2="60.27054999978054" y1="-28.23958517393205" y2="-149.46277880990795" /><line stroke="rgb(139,69,19)" x1="28.681813790582826" x2="28.681813790582826" y1="-89.08042169313559" y2="-117.76223548371841" /><line stroke="rgb(139,69,19)" x1="28.681813790582826" x2="9.812391271183031" y1="-89.08042169313559" y2="-178.60307200292195" /><line stroke="rgb(139,69,19)" x1="28.681813790582826" x2="41.401127480380744" y1="-89.08042169313559" y2="-191.4341928097117" /><line stroke="rgb(139,69,19)" x1="103.08509971861024" x2="103.08509971861024" y1="-64.93412129562998" y2="-168.0192210142402" /><line stroke="rgb(139,69,19)" x1="103.08509971861024" x2="84.21567719921045" y1="-64.93412129562998" y2="-228.86005753344372" /><line stroke="rgb(139,69,19)" x1="103.08509971861024" x2="115.80441340840815" y1="-64.93412129562998" y2="-241.69117834023348" /><circle cx="0" cy="-300" fill="rgb(255,255,0)" r="10" stroke="rgb(255,255,0)" /></svg>