<?xml version="1.0" encoding="utf-8" ?>
<svg baseProfile="full" height="100%" version="1.1" viewBox="-400 -400 800 400" width="100%" xmlns="http://www.w3.org/2000/svg" xmlns:ev="http://www.w3.org/2001/xml-events" xmlns:xlink="http://www.w3.org/1999/xlink"><defs /><circle cx="0.0" cy="-90.0" fill="rgb(0,255,0)" r="2" stroke="rgb(0,255,0)" /><circle cx="-25.452428487152037" cy="-175.1215455676578" fill="rgb(0,255,0)" r="2" stroke="rgb(0,255,0)" /><circle cx="-43.22373154262217" cy="-163.93312352920043" fill="rgb(0,255,0)" r="2" stroke="rgb(0,255,0)" /><circle cx="62.19083754161766" cy="-97.23138599118754" fill="rgb(0,255,0)" r="2" stroke="rgb(0,255,0)" /><circle cx="34.965319941748334" cy="-189.36357335199855" fill="rgb(0,255,0)" r="2" stroke="rgb(0,255,0)" /><circle cx="17.194016886278206" cy="-178.1751513135412" fill="rgb(0,255,0)" r="2" stroke="rgb(0,255,0)" /><circle cx="74.38470319218969" cy="-114.32845125092729" fill="rgb(0,255,0)" r="2" stroke="rgb(0,255,0)" /><circle cx="42.967095679210466" cy="-223.03580143616335" fill="rgb(0,255,0)" r="2" stroke="rgb(0,255,0)" /><circle cx="25.19579262374034" cy="-211.847379397706" fill="rgb(0,255,0)" r="2" stroke="rgb(0,255,0)" /><circle cx="-13.856055926200604" cy="-121.0229496551077" fill="rgb(0,255,0)" r="2" stroke="rgb(0,255,0)" /><circle cx="-46.91511118516113" cy="-236.2204429959904" fill="rgb(0,255,0)" r="2" stroke="rgb(0,255,0)" /><circle cx="-64.68641424063125" cy="-225.03202095753304" fill="rgb(0,255,0)" r="2" stroke="rgb(0,255,0)" /><circle cx="79.28958236351146" cy="-130.3095037535607" fill="rgb(0,255,0)" r="2" stroke="rgb(0,255,0)" /><circle cx="43.95352405331108" cy="-254.5100712432072" fill="rgb(0,255,0)" r="2" stroke="rgb(0,255,0)" /><circle cx="26.18222099784095" cy="-243.32164920474983" fill="rgb(0,255,0)" r="2" stroke="rgb(0,255,0)" /><circle cx="91.48344801408348" cy="-147.40656901330044" fill="rgb(0,255,0)" r="2" stroke="rgb(0,255,0)" /><circle cx="51.95529979077321" cy="-288.18229932737194" fill="rgb(0,255,0)" r="2" stroke="rgb(0,255,0)" /><circle cx="34.18399673530308" cy="-276.99387728891463" fill="rgb(0,255,0)" r="2" stroke="rgb(0,255,0)" /><circle cx="-20.43265799369736" cy="-140.96657784171902" fill="rgb(0,255,0)" r="2" stroke="rgb(0,255,0)" /><circle cx="-58.38176199972456" cy="-275.49890318334866" fill="rgb(0,255,0)" r="2" stroke="rgb(0,255,0)" /><circle cx="-76.15306505519469" cy="-264.31048114489136" fill="rgb(0,255,0)" r="2" stroke="rgb(0,255,0)" /><circle cx="92.61279780446978" cy="-151.574331537501" fill="rgb(0,255,0)" r="2" stroke="rgb(0,255,0)" /><circle cx="52.06274114409687" cy="-296.39059988559603" fill="rgb(0,255,0)" r="2" stroke="rgb(0,255,0)" /><circle cx="34.29143808862674" cy="-285.2021778471387" fill="rgb(0,255,0)" r="2" stroke="rgb(0,255,0)" /><circle cx="104.8066634550418" cy="-168.67139679724073" fill="rgb(0,255,0)" r="2" stroke="rgb(0,255,0)" /><circle cx="60.064516881559" cy="-330.0628279697608" fill="rgb(0,255,0)" r="2" stroke="rgb(0,255,0)" /><circle cx="42.29321382608887" cy="-318.8744059313035" fill="rgb(0,255,0)" r="2" stroke="rgb(0,255,0)" /><line stroke="rgb(139,69,19)" x1="0" x2="0.0" y1="0" y2="-30.0" /><line stroke="rgb(139,69,19)" x1="0" x2="-13.856055926200604" y1="0" y2="-61.022949655107695" /><line stroke="rgb(139,69,19)" x1="0" x2="-20.43265799369736" y1="0" y2="-80.96657784171902" /><line stroke="rgb(139,69,19)" x1="0.0" x2="0.0" y1="-30.0" y2="-60.0" /><line stroke="rgb(139,69,19)" x1="0.0" x2="62.19083754161766" y1="-30.0" y2="-67.23138599118754" /><line stroke="rgb(139,69,19)" x1="0.0" x2="74.38470319218969" y1="-30.0" y2="-84.32845125092729" /><line stroke="rgb(139,69,19)" x1="-13.856055926200604" x2="-13.856055926200604" y1="-61.022949655107695" y2="-91.0229496551077" /><line stroke="rgb(139,69,19)" x1="-13.856055926200604" x2="79.28958236351146" y1="-61.022949655107695" y2="-100.3095037535607" /><line stroke="rgb(139,69,19)" x1="-13.856055926200604" x2="91.48344801408348" y1="-61.022949655107695" y2="-117.40656901330046" /><line stroke="rgb(139,69,19)" x1="-20.43265799369736" x2="-20.43265799369736" y1="-80.96657784171902" y2="-110.96657784171902" /><line stroke="rgb(139,69,19)" x1="-20.43265799369736" x2="92.61279780446978" y1="-80.96657784171902" y2="-121.57433153750098" /><line stroke="rgb(139,69,19)" x1="-20.43265799369736" x2="104.8066634550418" y1="-80.96657784171902" y2="-138.67139679724073" /><line stroke="rgb(139,69,19)" x1="0.0" x2="0.0" y1="-60.0" y2="-90.0" /><line stroke="rgb(139,69,19)" x1="0.0" x2="-25.452428487152037" y1="-60.0" y2="-175.1215455676578" /><line stroke="rgb(139,69,19)" x1="0.0" x2="-43.22373154262217" y1="-60.0" y2="-163.93312352920043" /><line stroke="rgb(139,69,19)" x1="62.19083754161766" x2="62.19083754161766" y1="-67.23138599118754" y2="-97.23138599118754" /><line stroke="rgb(139,69,19)" x1="62.19083754161766" x2="34.965319941748334" y1="-67.23138599118754" y2="-189.36357335199855" /><line stroke="rgb(139,69,19)" x1="62.19083754161766" x2="17.194016886278206" y1="-67.23138599118754" y2="-178.1751513135412" /><line stroke="rgb(139,69,19)" x1="74.38470319218969" x2="74.38470319218969" y1="-84.32845125092729" y2="-114.32845125092729" /><line stroke="rgb(139,69,19)" x1="74.38470319218969" x2="42.967095679210466" y1="-84.32845125092729" y2="-223.03580143616335" /><line stroke="rgb(139,69,19)" x1="74.38470319218969" x2="25.19579262374034" y1="-84.32845125092729" y2="-211.847379397706" /><line stroke="rgb(139,69,19)" x1="-13.856055926200604" x2="-13.856055926200604" y1="-91.0229496551077" y2="-121.0229496551077" /><line stroke="rgb(139,69,19)" x1="-13.856055926200604" x2="-46.91511118516113" y1="-91.0229496551077" y2="-236.2204429959904" /><line stroke="rgb(139,69,19)" x1="-13.856055926200604" x2="-64.68641424063125" y1="-91.0229496551077" y2="-225.03202095753304" /><line stroke="rgb(139,69,19)" x1="79.28958236351146" x2="79.28958236351146" y1="-100.3095037535607" y2="-130.3095037535607" /><line stroke="rgb(139,69,19)" x1="79.28958236351146" x2="43.95352405331108" y1="-100.3095037535607" y2="-254.5100712432072" /><line stroke="rgb(139,69,19)" x1="79.28958236351146" x2="26.18222099784095" y1="-100.3095037535607" y2="-243.32164920474983" /><line stroke="rgb(139,69,19)" x1="91.48344801408348" x2="91.48344801408348" y1="-117.40656901330046" y2="-147.40656901330044" /><line stroke="rgb(139,69,19)" x1="91.48344801408348" x2="51.95529979077321" y1="-117.40656901330046" y2="-288.18229932737194" /><line stroke="rgb(139,69,19)" x1="91.48344801408348" x2="34.18399673530308" y1="-117.40656901330046" y2="-276.99387728891463" /><line stroke="rgb(139,69,19)" x1="-20.43265799369736" x2="-20.43265799369736" y1="-110.96657784171902" y2="-140.96657784171902" /><line stroke="rgb(139,69,19)" x1="-20.43265799369736" x2="-58.38176199972456" y1="-110.96657784171902" y2="-275.49890318334866" /><line stroke="rgb(139,69,19)" x1="-20.43265799369736" x2="-76.15306505519469" y1="-110.96657784171902" y2="-264.31048114489136" /><line stroke="rgb(139,69,19)" x1="92.61279780446978" x2="92.61279780446978" y1="-121.57433153750098" y2="-151.574331537501" /><line stroke="rgb(139,69,19)" x1="92.61279780446978" x2="52.06274114409687" y1="-121.57433153750098" y2="-296.39059988559603" /><line stroke="rgb(139,69,19)" x1="92.61279780446978" x2="34.29143808862674" y1="-121.57433153750098" y2="-285.2021778471387" /><line stroke="rgb(139,69,19)" x1="104.8066634550418" x2="104.8066634550418" y1="-138.67139679724073" y2="-168.67139679724073" /><line stroke="rgb(139,69,19)" x1="104.8066634550418" x2="60.064516881559" y1="-138.67139679724073" y2="-330.0628279697608" /><line stroke="rgb(139,69,19)" x1="104.8066634550418" x2="42.29321382608887" y1="-138.67139679724073" y2="-318.8744059313035" /><circle cx="0" cy="-300" fill="rgb(255,255,0)" r="10" stroke="rgb(255,255,0)" /></svg>