<?xml version="1.0" encoding="utf-8" ?>
<svg baseProfile="full" height="100%" version="1.1" viewBox="-400 -400 800 400" width="100%" xmlns="http://www.w3.org/2000/svg" xmlns:ev="http://www.w3.org/2001/xml-events" xmlns:xlink="http://www.w3.org/1999/xlink"><defs /><circle cx="4.069665189053604" cy="-131.04370346232815" fill="rgb(0,255,0)" r="2" stroke="rgb(0,255,0)" /><circle cx="72.86281409764533" cy="-32.72024408848225" fill="rgb(0,255,0)" r="2" stroke="rgb(0,255,0)" /><circle cx="49.35848822054315" cy="-66.3140927078796" fill="rgb(0,255,0)" r="2" stroke="rgb(0,255,0)" /><circle cx="-120.207434842006" cy="-110.57494516403453" fill="rgb(0,255,0)" r="2" stroke="rgb(0,255,0)" /><circle cx="-38.701927550008435" cy="-198.64793921484522" fill="rgb(0,255,0)" r="2" stroke="rgb(0,255,0)" /><circle cx="-66.54964254144093" cy="-168.55633291415157" fill="rgb(0,255,0)" r="2" stroke="rgb(0,255,0)" /><circle cx="-90.61879899157583" cy="-115.95467645549834" fill="rgb(0,255,0)" r="2" stroke="rgb(0,255,0)" /><circle cx="-145.63115569277915" cy="-222.6019483858181" fill="rgb(0,255,0)" r="2" stroke="rgb(0,255,0)" /><circle cx="-126.83526715320134" cy="-186.1641304762922" fill="rgb(0,255,0)" r="2" stroke="rgb(0,255,0)" /><circle cx="83.32785775354273" cy="-226.77843282638108" fill="rgb(0,255,0)" r="2" stroke="rgb(0,255,0)" /><circle cx="-22.232063178494087" cy="-169.70739732830958" fill="rgb(0,255,0)" r="2" stroke="rgb(0,255,0)" /><circle cx="13.834243139951823" cy="-189.20666779015068" fill="rgb(0,255,0)" r="2" stroke="rgb(0,255,0)" /><circle cx="196.37205359459543" cy="-192.2257516501874" fill="rgb(0,255,0)" r="2" stroke="rgb(0,255,0)" /><circle cx="287.90354459723767" cy="-269.8272088197098" fill="rgb(0,255,0)" r="2" stroke="rgb(0,255,0)" /><circle cx="256.6302851713349" cy="-243.313377620123" fill="rgb(0,255,0)" r="2" stroke="rgb(0,255,0)" /><circle cx="154.458496916984" cy="-210.1274719913085" fill="rgb(0,255,0)" r="2" stroke="rgb(0,255,0)" /><circle cx="194.06494885868904" cy="-323.4029281351237" fill="rgb(0,255,0)" r="2" stroke="rgb(0,255,0)" /><circle cx="180.53274444527315" cy="-284.70048061932016" fill="rgb(0,255,0)" r="2" stroke="rgb(0,255,0)" /><circle cx="59.8979807620463" cy="-194.34374140620397" fill="rgb(0,255,0)" r="2" stroke="rgb(0,255,0)" /><circle cx="-24.194274722781827" cy="-108.73712619759762" fill="rgb(0,255,0)" r="2" stroke="rgb(0,255,0)" /><circle cx="4.537245901201118" cy="-137.98605306053813" fill="rgb(0,255,0)" r="2" stroke="rgb(0,255,0)" /><circle cx="171.83696938926192" cy="-138.72882850710576" fill="rgb(0,255,0)" r="2" stroke="rgb(0,255,0)" /><circle cx="160.18257080382529" cy="-19.296106886890755" fill="rgb(0,255,0)" r="2" stroke="rgb(0,255,0)" /><circle cx="164.16449032051614" cy="-60.102286773797545" fill="rgb(0,255,0)" r="2" stroke="rgb(0,255,0)" /><circle cx="129.0960810331876" cy="-156.69449020950668" fill="rgb(0,255,0)" r="2" stroke="rgb(0,255,0)" /><circle cx="42.96548780291987" cy="-73.13899422149787" fill="rgb(0,255,0)" r="2" stroke="rgb(0,255,0)" /><circle cx="72.39344048992801" cy="-101.68712201740088" fill="rgb(0,255,0)" r="2" stroke="rgb(0,255,0)" /><line stroke="rgb(139,69,19)" x1="0" x2="0.17701925105413577" y1="0" y2="-53.99843308647691" /><line stroke="rgb(139,69,19)" x1="0" x2="77.40159525389407" y1="0" y2="-145.8481193199181" /><line stroke="rgb(139,69,19)" x1="0" x2="51.01653178625709" y1="0" y2="-114.46614319015903" /><line stroke="rgb(139,69,19)" x1="0.17701925105413577" x2="-5.543954896908681" y1="-53.99843308647691" y2="-89.79657629680172" /><line stroke="rgb(139,69,19)" x1="0.17701925105413577" x2="-120.85977345857644" y1="-53.99843308647691" y2="-56.59624513199975" /><line stroke="rgb(139,69,19)" x1="0.17701925105413577" x2="-81.46020211667329" y1="-53.99843308647691" y2="-67.93969161330709" /><line stroke="rgb(139,69,19)" x1="77.40159525389407" x2="87.16440365105785" y1="-145.8481193199181" y2="-192.01319950325276" /><line stroke="rgb(139,69,19)" x1="77.40159525389407" x2="194.52113694742826" y1="-145.8481193199181" y2="-138.39853904613534" /><line stroke="rgb(139,69,19)" x1="77.40159525389407" x2="157.84091973783504" y1="-145.8481193199181" y2="-156.7168813689838" /><line stroke="rgb(139,69,19)" x1="51.01653178625709" x2="60.84720550215244" y1="-114.46614319015903" y2="-160.29858808472045" /><line stroke="rgb(139,69,19)" x1="51.01653178625709" x2="166.32218360077067" y1="-114.46614319015903" y2="-103.07071904265314" /><line stroke="rgb(139,69,19)" x1="51.01653178625709" x2="130.2848994170761" y1="-114.46614319015903" y2="-122.6235742986928" /><line stroke="rgb(139,69,19)" x1="-5.543954896908681" x2="4.069665189053604" y1="-89.79657629680172" y2="-131.04370346232815" /><line stroke="rgb(139,69,19)" x1="-5.543954896908681" x2="72.86281409764533" y1="-89.79657629680172" y2="-32.72024408848225" /><line stroke="rgb(139,69,19)" x1="-5.543954896908681" x2="49.35848822054315" y1="-89.79657629680172" y2="-66.3140927078796" /><line stroke="rgb(139,69,19)" x1="-120.85977345857644" x2="-120.207434842006" y1="-56.59624513199975" y2="-110.57494516403453" /><line stroke="rgb(139,69,19)" x1="-120.85977345857644" x2="-38.701927550008435" y1="-56.59624513199975" y2="-198.64793921484522" /><line stroke="rgb(139,69,19)" x1="-120.85977345857644" x2="-66.54964254144093" y1="-56.59624513199975" y2="-168.55633291415157" /><line stroke="rgb(139,69,19)" x1="-81.46020211667329" x2="-90.61879899157583" y1="-67.93969161330709" y2="-115.95467645549834" /><line stroke="rgb(139,69,19)" x1="-81.46020211667329" x2="-145.63115569277915" y1="-67.93969161330709" y2="-222.6019483858181" /><line stroke="rgb(139,69,19)" x1="-81.46020211667329" x2="-126.83526715320134" y1="-67.93969161330709" y2="-186.1641304762922" /><line stroke="rgb(139,69,19)" x1="87.16440365105785" x2="83.32785775354273" y1="-192.01319950325276" y2="-226.77843282638108" /><line stroke="rgb(139,69,19)" x1="87.16440365105785" x2="-22.232063178494087" y1="-192.01319950325276" y2="-169.70739732830958" /><line stroke="rgb(139,69,19)" x1="87.16440365105785" x2="13.834243139951823" y1="-192.01319950325276" y2="-189.20666779015068" /><line stroke="rgb(139,69,19)" x1="194.52113694742826" x2="196.37205359459543" y1="-138.39853904613534" y2="-192.2257516501874" /><line stroke="rgb(139,69,19)" x1="194.52113694742826" x2="287.90354459723767" y1="-138.39853904613534" y2="-269.8272088197098" /><line stroke="rgb(139,69,19)" x1="194.52113694742826" x2="256.6302851713349" y1="-138.39853904613534" y2="-243.313377620123" /><line stroke="rgb(139,69,19)" x1="157.84091973783504" x2="154.458496916984" y1="-156.7168813689838" y2="-210.1274719913085" /><line stroke="rgb(139,69,19)" x1="157.84091973783504" x2="194.06494885868904" y1="-156.7168813689838" y2="-323.4029281351237" /><line stroke="rgb(139,69,19)" x1="157.84091973783504" x2="180.53274444527315" y1="-156.7168813689838" y2="-284.70048061932016" /><line stroke="rgb(139,69,19)" x1="60.84720550215244" x2="59.8979807620463" y1="-160.29858808472045" y2="-194.34374140620397" /><line stroke="rgb(139,69,19)" x1="60.84720550215244" x2="-24.194274722781827" y1="-160.29858808472045" y2="-108.73712619759762" /><line stroke="rgb(139,69,19)" x1="60.84720550215244" x2="4.537245901201118" y1="-160.29858808472045" y2="-137.98605306053813" /><line stroke="rgb(139,69,19)" x1="166.32218360077067" x2="171.83696938926192" y1="-103.07071904265314" y2="-138.72882850710576" /><line stroke="rgb(139,69,19)" x1="166.32218360077067" x2="160.18257080382529" y1="-103.07071904265314" y2="-19.296106886890755" /><line stroke="rgb(139,69,19)" x1="166.32218360077067" x2="164.16449032051614" y1="-103.07071904265314" y2="-60.102286773797545" /><line stroke="rgb(139,69,19)" x1="130.2848994170761" x2="129.0960810331876" y1="-122.6235742986928" y2="-156.69449020950668" /><line stroke="rgb(139,69,19)" x1="130.2848994170761" x2="42.96548780291987" y1="-122.6235742986928" y2="-73.13899422149787" /><line stroke="rgb(139,69,19)" x1="130.2848994170761" x2="72.39344048992801" y1="-122.6235742986928" y2="-101.68712201740088" /><circle cx="0" cy="-300" fill="rgb(255,255,0)" r="10" stroke="rgb(255,255,0)" /></svg>