<?xml version="1.0" encoding="utf-8" ?>
<svg baseProfile="full" height="100%" version="1.1" viewBox="-400 -400 800 400" width="100%" xmlns="http://www.w3.org/2000/svg" xmlns:ev="http://www.w3.org/2001/xml-events" xmlns:xlink="http://www.w3.org/1999/xlink"><defs /><circle cx="0.0" cy="-0.0" fill="rgb(0,255,0)" r="2" stroke="rgb(0,255,0)" /><circle cx="-24.043818695465113" cy="-8.89158617898807" fill="rgb(0,255,0)" r="2" stroke="rgb(0,255,0)" /><circle cx="-17.24344761610293" cy="-72.8142640176856" fill="rgb(0,255,0)" r="2" stroke="rgb(0,255,0)" /><circle cx="5.2051622437226825" cy="-31.7715799630527" fill="rgb(0,255,0)" r="2" stroke="rgb(0,255,0)" /><circle cx="23.09338334303355" cy="-44.16207170515531" fill="rgb(0,255,0)" r="2" stroke="rgb(0,255,0)" /><circle cx="-25.70734057785772" cy="-77.45960816543246" fill="rgb(0,255,0)" r="2" stroke="rgb(0,255,0)" /><circle cx="-29.77721219886105" cy="-139.63421978325738" fill="rgb(0,255,0)" r="2" stroke="rgb(0,255,0)" /><circle cx="-93.38185573921868" cy="-131.24247237725123" fill="rgb(0,255,0)" r="2" stroke="rgb(0,255,0)" /><circle cx="-0.7399897652505558" cy="-114.96731002515497" fill="rgb(0,255,0)" r="2" stroke="rgb(0,255,0)" /><circle cx="23.516870722879773" cy="-158.9666878748659" fill="rgb(0,255,0)" r="2" stroke="rgb(0,255,0)" /><circle cx="49.150030182768276" cy="-130.38310144892907" fill="rgb(0,255,0)" r="2" stroke="rgb(0,255,0)" /><circle cx="8.459117171406499" cy="-132.86471636706202" fill="rgb(0,255,0)" r="2" stroke="rgb(0,255,0)" /><circle cx="40.84500274528921" cy="-239.09110377291177" fill="rgb(0,255,0)" r="2" stroke="rgb(0,255,0)" /><circle cx="26.51433959218875" cy="-217.91125274511802" fill="rgb(0,255,0)" r="2" stroke="rgb(0,255,0)" /><circle cx="23.934698871782953" cy="-194.6152597407323" fill="rgb(0,255,0)" r="2" stroke="rgb(0,255,0)" /><circle cx="7.677801570358419" cy="-191.6845396484456" fill="rgb(0,255,0)" r="2" stroke="rgb(0,255,0)" /><circle cx="-56.49476739046846" cy="-146.3251973510081" fill="rgb(0,255,0)" r="2" stroke="rgb(0,255,0)" /><circle cx="-0.02858007068424584" cy="-150.29532867126582" fill="rgb(0,255,0)" r="2" stroke="rgb(0,255,0)" /><circle cx="-37.62414005125494" cy="-238.37757784888205" fill="rgb(0,255,0)" r="2" stroke="rgb(0,255,0)" /><circle cx="-65.00624435030298" cy="-128.56263776816863" fill="rgb(0,255,0)" r="2" stroke="rgb(0,255,0)" /><circle cx="-46.665793403938494" cy="-228.80620036004933" fill="rgb(0,255,0)" r="2" stroke="rgb(0,255,0)" /><circle cx="-35.315548902426514" cy="-147.50401014389195" fill="rgb(0,255,0)" r="2" stroke="rgb(0,255,0)" /><circle cx="-81.90549134621847" cy="-163.15911650253685" fill="rgb(0,255,0)" r="2" stroke="rgb(0,255,0)" /><circle cx="-21.467626980443157" cy="-83.99338844984979" fill="rgb(0,255,0)" r="2" stroke="rgb(0,255,0)" /><circle cx="-84.21299432835463" cy="-326.32440957132513" fill="rgb(0,255,0)" r="2" stroke="rgb(0,255,0)" /><circle cx="-73.9598700163764" cy="-250.75116825652103" fill="rgb(0,255,0)" r="2" stroke="rgb(0,255,0)" /><circle cx="-171.42798046769616" cy="-138.7192862545223" fill="rgb(0,255,0)" r="2" stroke="rgb(0,255,0)" /><line stroke="rgb(139,69,19)" x1="0" x2="0.0" y1="0" y2="-0.0" /><line stroke="rgb(139,69,19)" x1="0" x2="23.516870722879773" y1="0" y2="-39.741671968716474" /><line stroke="rgb(139,69,19)" x1="0" x2="-37.62414005125494" y1="0" y2="-59.594394462220514" /><line stroke="rgb(139,69,19)" x1="0.0" x2="0.0" y1="-0.0" y2="-0.0" /><line stroke="rgb(139,69,19)" x1="0.0" x2="5.2051622437226825" y1="-0.0" y2="-15.88578998152635" /><line stroke="rgb(139,69,19)" x1="0.0" x2="-29.77721219886105" y1="-0.0" y2="-69.81710989162869" /><line stroke="rgb(139,69,19)" x1="23.516870722879773" x2="23.516870722879773" y1="-39.741671968716474" y2="-79.48334393743295" /><line stroke="rgb(139,69,19)" x1="23.516870722879773" x2="40.84500274528921" y1="-39.741671968716474" y2="-119.54555188645588" /><line stroke="rgb(139,69,19)" x1="23.516870722879773" x2="7.677801570358419" y1="-39.741671968716474" y2="-95.8422698242228" /><line stroke="rgb(139,69,19)" x1="-37.62414005125494" x2="-37.62414005125494" y1="-59.594394462220514" y2="-119.18878892444103" /><line stroke="rgb(139,69,19)" x1="-37.62414005125494" x2="-35.315548902426514" y1="-59.594394462220514" y2="-73.75200507194597" /><line stroke="rgb(139,69,19)" x1="-37.62414005125494" x2="-84.21299432835463" y1="-59.594394462220514" y2="-163.16220478566257" /><line stroke="rgb(139,69,19)" x1="0.0" x2="0.0" y1="-0.0" y2="-0.0" /><line stroke="rgb(139,69,19)" x1="0.0" x2="-24.043818695465113" y1="-0.0" y2="-8.89158617898807" /><line stroke="rgb(139,69,19)" x1="0.0" x2="-17.24344761610293" y1="-0.0" y2="-72.8142640176856" /><line stroke="rgb(139,69,19)" x1="5.2051622437226825" x2="5.2051622437226825" y1="-15.88578998152635" y2="-31.7715799630527" /><line stroke="rgb(139,69,19)" x1="5.2051622437226825" x2="23.09338334303355" y1="-15.88578998152635" y2="-44.16207170515531" /><line stroke="rgb(139,69,19)" x1="5.2051622437226825" x2="-25.70734057785772" y1="-15.88578998152635" y2="-77.45960816543246" /><line stroke="rgb(139,69,19)" x1="-29.77721219886105" x2="-29.77721219886105" y1="-69.81710989162869" y2="-139.63421978325738" /><line stroke="rgb(139,69,19)" x1="-29.77721219886105" x2="-93.38185573921868" y1="-69.81710989162869" y2="-131.24247237725123" /><line stroke="rgb(139,69,19)" x1="-29.77721219886105" x2="-0.7399897652505558" y1="-69.81710989162869" y2="-114.96731002515497" /><line stroke="rgb(139,69,19)" x1="23.516870722879773" x2="23.516870722879773" y1="-79.48334393743295" y2="-158.9666878748659" /><line stroke="rgb(139,69,19)" x1="23.516870722879773" x2="49.150030182768276" y1="-79.48334393743295" y2="-130.38310144892907" /><line stroke="rgb(139,69,19)" x1="23.516870722879773" x2="8.459117171406499" y1="-79.48334393743295" y2="-132.86471636706202" /><line stroke="rgb(139,69,19)" x1="40.84500274528921" x2="40.84500274528921" y1="-119.54555188645588" y2="-239.09110377291177" /><line stroke="rgb(139,69,19)" x1="40.84500274528921" x2="26.51433959218875" y1="-119.54555188645588" y2="-217.91125274511802" /><line stroke="rgb(139,69,19)" x1="40.84500274528921" x2="23.934698871782953" y1="-119.54555188645588" y2="-194.6152597407323" /><line stroke="rgb(139,69,19)" x1="7.677801570358419" x2="7.677801570358419" y1="-95.8422698242228" y2="-191.6845396484456" /><line stroke="rgb(139,69,19)" x1="7.677801570358419" x2="-56.49476739046846" y1="-95.8422698242228" y2="-146.3251973510081" /><line stroke="rgb(139,69,19)" x1="7.677801570358419" x2="-0.02858007068424584" y1="-95.8422698242228" y2="-150.29532867126582" /><line stroke="rgb(139,69,19)" x1="-37.62414005125494" x2="-37.62414005125494" y1="-119.18878892444103" y2="-238.37757784888205" /><line stroke="rgb(139,69,19)" x1="-37.62414005125494" x2="-65.00624435030298" y1="-119.18878892444103" y2="-128.56263776816863" /><line stroke="rgb(139,69,19)" x1="-37.62414005125494" x2="-46.665793403938494" y1="-119.18878892444103" y2="-228.80620036004933" /><line stroke="rgb(139,69,19)" x1="-35.315548902426514" x2="-35.315548902426514" y1="-73.75200507194597" y2="-147.50401014389195" /><line stroke="rgb(139,69,19)" x1="-35.315548902426514" x2="-81.90549134621847" y1="-73.75200507194597" y2="-163.15911650253685" /><line stroke="rgb(139,69,19)" x1="-35.315548902426514" x2="-21.467626980443157" y1="-73.75200507194597" y2="-83.99338844984979" /><line stroke="rgb(139,69,19)" x1="-84.21299432835463" x2="-84.21299432835463" y1="-163.16220478566257" y2="-326.32440957132513" /><line stroke="rgb(139,69,19)" x1="-84.21299432835463" x2="-73.9598700163764" y1="-163.16220478566257" y2="-250.75116825652103" /><line stroke="rgb(139,69,19)" x1="-84.21299432835463" x2="-171.42798046769616" y1="-163.16220478566257" y2="-138.7192862545223" /><circle cx="0" cy="-300" fill="rgb(255,255,0)" r="10" stroke="rgb(255,255,0)" /></svg>