<?xml version="1.0" encoding="utf-8" ?>
<svg baseProfile="full" height="100%" version="1.1" viewBox="-400 -400 800 400" width="100%" xmlns="http://www.w3.org/2000/svg" xmlns:ev="http://www.w3.org/2001/xml-events" xmlns:xlink="http://www.w3.org/1999/xlink"><defs /><circle cx="0" cy="0" fill="rgb(0,255,0)" r="2" stroke="rgb(0,255,0)" /><circle cx="-9.153272322029586" cy="-97.90154727340897" fill="rgb(0,255,0)" r="2" stroke="rgb(0,255,0)" /><circle cx="-120.51879345026408" cy="-107.02712775598262" fill="rgb(0,255,0)" r="2" stroke="rgb(0,255,0)" /><circle cx="-14.053538216792422" cy="-55.94062894978316" fill="rgb(0,255,0)" r="2" stroke="rgb(0,255,0)" /><circle cx="-2.469696879852542" cy="-113.39605460772708" fill="rgb(0,255,0)" r="2" stroke="rgb(0,255,0)" /><circle cx="-28.793572504427825" cy="-20.70963178861976" fill="rgb(0,255,0)" r="2" stroke="rgb(0,255,0)" /><circle cx="-140.62153996770093" cy="-117.9962197237063" fill="rgb(0,255,0)" r="2" stroke="rgb(0,255,0)" /><circle cx="-145.96659208883403" cy="-216.45870606120585" fill="rgb(0,255,0)" r="2" stroke="rgb(0,255,0)" /><circle cx="-157.84331898496208" cy="-224.4756625584959" fill="rgb(0,255,0)" r="2" stroke="rgb(0,255,0)" /><circle cx="-7.78166806945836" cy="-51.35639489232969" fill="rgb(0,255,0)" r="2" stroke="rgb(0,255,0)" /><circle cx="9.127243407171317" cy="-144.37614007878696" fill="rgb(0,255,0)" r="2" stroke="rgb(0,255,0)" /><circle cx="-45.09491258692805" cy="-181.5465179841396" fill="rgb(0,255,0)" r="2" stroke="rgb(0,255,0)" /><circle cx="-29.034223776192988" cy="-118.21648775172437" fill="rgb(0,255,0)" r="2" stroke="rgb(0,255,0)" /><circle cx="-52.42932920168107" cy="-201.85287928889767" fill="rgb(0,255,0)" r="2" stroke="rgb(0,255,0)" /><circle cx="-48.79779856899992" cy="-215.51765392313803" fill="rgb(0,255,0)" r="2" stroke="rgb(0,255,0)" /><circle cx="37.52536130765278" cy="-62.550850679674646" fill="rgb(0,255,0)" r="2" stroke="rgb(0,255,0)" /><circle cx="14.528162890855985" cy="-142.51376075139953" fill="rgb(0,255,0)" r="2" stroke="rgb(0,255,0)" /><circle cx="12.947302385836172" cy="-74.96195287238791" fill="rgb(0,255,0)" r="2" stroke="rgb(0,255,0)" /><circle cx="88.17736633067824" cy="-36.24359755746693" fill="rgb(0,255,0)" r="2" stroke="rgb(0,255,0)" /><circle cx="102.88785675291034" cy="-95.93839753763224" fill="rgb(0,255,0)" r="2" stroke="rgb(0,255,0)" /><circle cx="118.48896201608454" cy="-208.55324896775926" fill="rgb(0,255,0)" r="2" stroke="rgb(0,255,0)" /><circle cx="101.57097076857231" cy="-91.47518717096213" fill="rgb(0,255,0)" r="2" stroke="rgb(0,255,0)" /><circle cx="110.33626773396313" cy="-143.9764628336979" fill="rgb(0,255,0)" r="2" stroke="rgb(0,255,0)" /><circle cx="79.2474505843092" cy="-202.34561681463555" fill="rgb(0,255,0)" r="2" stroke="rgb(0,255,0)" /><circle cx="178.21982783941598" cy="-168.95427640416602" fill="rgb(0,255,0)" r="2" stroke="rgb(0,255,0)" /><circle cx="173.43465611601079" cy="-268.3850011690694" fill="rgb(0,255,0)" r="2" stroke="rgb(0,255,0)" /><circle cx="233.18257106697894" cy="-278.8506476724034" fill="rgb(0,255,0)" r="2" stroke="rgb(0,255,0)" /><line stroke="rgb(139,69,19)" x1="0" x2="0" y1="0" y2="0" /><line stroke="rgb(139,69,19)" x1="0" x2="-7.78166806945836" y1="0" y2="-51.35639489232969" /><line stroke="rgb(139,69,19)" x1="0" x2="88.17736633067824" y1="0" y2="-36.24359755746693" /><line stroke="rgb(139,69,19)" x1="0" x2="0" y1="0" y2="0" /><line stroke="rgb(139,69,19)" x1="0" x2="-14.053538216792422" y1="0" y2="-55.94062894978316" /><line stroke="rgb(139,69,19)" x1="0" x2="-140.62153996770093" y1="0" y2="-117.9962197237063" /><line stroke="rgb(139,69,19)" x1="-7.78166806945836" x2="-7.78166806945836" y1="-51.35639489232969" y2="-51.35639489232969" /><line stroke="rgb(139,69,19)" x1="-7.78166806945836" x2="-29.034223776192988" y1="-51.35639489232969" y2="-118.21648775172437" /><line stroke="rgb(139,69,19)" x1="-7.78166806945836" x2="37.52536130765278" y1="-51.35639489232969" y2="-62.550850679674646" /><line stroke="rgb(139,69,19)" x1="88.17736633067824" x2="88.17736633067824" y1="-36.24359755746693" y2="-36.24359755746693" /><line stroke="rgb(139,69,19)" x1="88.17736633067824" x2="101.57097076857231" y1="-36.24359755746693" y2="-91.47518717096213" /><line stroke="rgb(139,69,19)" x1="88.17736633067824" x2="178.21982783941598" y1="-36.24359755746693" y2="-168.95427640416602" /><line stroke="rgb(139,69,19)" x1="0" x2="0" y1="0" y2="0" /><line stroke="rgb(139,69,19)" x1="0" x2="-9.153272322029586" y1="0" y2="-97.90154727340897" /><line stroke="rgb(139,69,19)" x1="0" x2="-120.51879345026408" y1="0" y2="-107.02712775598262" /><line stroke="rgb(139,69,19)" x1="-14.053538216792422" x2="-14.053538216792422" y1="-55.94062894978316" y2="-55.94062894978316" /><line stroke="rgb(139,69,19)" x1="-14.053538216792422" x2="-2.469696879852542" y1="-55.94062894978316" y2="-113.39605460772708" /><line stroke="rgb(139,69,19)" x1="-14.053538216792422" x2="-28.793572504427825" y1="-55.94062894978316" y2="-20.70963178861976" /><line stroke="rgb(139,69,19)" x1="-140.62153996770093" x2="-140.62153996770093" y1="-117.9962197237063" y2="-117.9962197237063" /><line stroke="rgb(139,69,19)" x1="-140.62153996770093" x2="-145.96659208883403" y1="-117.9962197237063" y2="-216.45870606120585" /><line stroke="rgb(139,69,19)" x1="-140.62153996770093" x2="-157.84331898496208" y1="-117.9962197237063" y2="-224.4756625584959" /><line stroke="rgb(139,69,19)" x1="-7.78166806945836" x2="-7.78166806945836" y1="-51.35639489232969" y2="-51.35639489232969" /><line stroke="rgb(139,69,19)" x1="-7.78166806945836" x2="9.127243407171317" y1="-51.35639489232969" y2="-144.37614007878696" /><line stroke="rgb(139,69,19)" x1="-7.78166806945836" x2="-45.09491258692805" y1="-51.35639489232969" y2="-181.5465179841396" /><line stroke="rgb(139,69,19)" x1="-29.034223776192988" x2="-29.034223776192988" y1="-118.21648775172437" y2="-118.21648775172437" /><line stroke="rgb(139,69,19)" x1="-29.034223776192988" x2="-52.42932920168107" y1="-118.21648775172437" y2="-201.85287928889767" /><line stroke="rgb(139,69,19)" x1="-29.034223776192988" x2="-48.79779856899992" y1="-118.21648775172437" y2="-215.51765392313803" /><line stroke="rgb(139,69,19)" x1="37.52536130765278" x2="37.52536130765278" y1="-62.550850679674646" y2="-62.550850679674646" /><line stroke="rgb(139,69,19)" x1="37.52536130765278" x2="14.528162890855985" y1="-62.550850679674646" y2="-142.51376075139953" /><line stroke="rgb(139,69,19)" x1="37.52536130765278" x2="12.947302385836172" y1="-62.550850679674646" y2="-74.96195287238791" /><line stroke="rgb(139,69,19)" x1="88.17736633067824" x2="88.17736633067824" y1="-36.24359755746693" y2="-36.24359755746693" /><line stroke="rgb(139,69,19)" x1="88.17736633067824" x2="102.88785675291034" y1="-36.24359755746693" y2="-95.93839753763224" /><line stroke="rgb(139,69,19)" x1="88.17736633067824" x2="118.48896201608454" y1="-36.24359755746693" y2="-208.55324896775926" /><line stroke="rgb(139,69,19)" x1="101.57097076857231" x2="101.57097076857231" y1="-91.47518717096213" y2="-91.47518717096213" /><line stroke="rgb(139,69,19)" x1="101.57097076857231" x2="110.33626773396313" y1="-91.47518717096213" y2="-143.9764628336979" /><line stroke="rgb(139,69,19)" x1="101.57097076857231" x2="79.2474505843092" y1="-91.47518717096213" y2="-202.34561681463555" /><line stroke="rgb(139,69,19)" x1="178.21982783941598" x2="178.21982783941598" y1="-168.95427640416602" y2="-168.95427640416602" /><line stroke="rgb(139,69,19)" x1="178.21982783941598" x2="173.43465611601079" y1="-168.95427640416602" y2="-268.3850011690694" /><line stroke="rgb(139,69,19)" x1="178.21982783941598" x2="233.18257106697894" y1="-168.95427640416602" y2="-278.8506476724034" /><circle cx="0" cy="-300" fill="rgb(255,255,0)" r="10" stroke="rgb(255,255,0)" /></svg>