<?xml version="1.0" encoding="utf-8" ?>
<svg baseProfile="full" height="100%" version="1.1" viewBox="-400 -400 800 400" width="100%" xmlns="http://www.w3.org/2000/svg" xmlns:ev="http://www.w3.org/2001/xml-events" xmlns:xlink="http://www.w3.org/1999/xlink"><defs /><circle cx="0.0" cy="-159.0" fill="rgb(0,255,0)" r="2" stroke="rgb(0,255,0)" /><circle cx="84.42588209734669" cy="-75.19208424968494" fill="rgb(0,255,0)" r="2" stroke="rgb(0,255,0)" /><circle cx="23.681747387805874" cy="-111.95007791622172" fill="rgb(0,255,0)" r="2" stroke="rgb(0,255,0)" /><circle cx="66.45930704241209" cy="-86.06416688344933" fill="rgb(0,255,0)" r="2" stroke="rgb(0,255,0)" /><circle cx="-110.70849587063738" cy="-202.53303633320405" fill="rgb(0,255,0)" r="2" stroke="rgb(0,255,0)" /><circle cx="-71.0580939510898" cy="-90.37537079961098" fill="rgb(0,255,0)" r="2" stroke="rgb(0,255,0)" /><circle cx="-109.81049945010193" cy="-149.86697582116113" fill="rgb(0,255,0)" r="2" stroke="rgb(0,255,0)" /><circle cx="-82.52007304234691" cy="-107.97147932711171" fill="rgb(0,255,0)" r="2" stroke="rgb(0,255,0)" /><circle cx="-40.374788440709466" cy="-192.82893415106975" fill="rgb(0,255,0)" r="2" stroke="rgb(0,255,0)" /><circle cx="-47.56586372696758" cy="-311.57144863747584" fill="rgb(0,255,0)" r="2" stroke="rgb(0,255,0)" /><circle cx="-26.717624841576836" cy="-243.7013452385736" fill="rgb(0,255,0)" r="2" stroke="rgb(0,255,0)" /><circle cx="-41.39948321157031" cy="-291.49719270258925" fill="rgb(0,255,0)" r="2" stroke="rgb(0,255,0)" /><circle cx="-89.90556832094039" cy="-199.66280892722065" fill="rgb(0,255,0)" r="2" stroke="rgb(0,255,0)" /><circle cx="-158.16852005404064" cy="-297.08798909647373" fill="rgb(0,255,0)" r="2" stroke="rgb(0,255,0)" /><circle cx="-104.88768145238879" cy="-250.1608941735539" fill="rgb(0,255,0)" r="2" stroke="rgb(0,255,0)" /><circle cx="-142.4093987774957" cy="-283.2081441192721" fill="rgb(0,255,0)" r="2" stroke="rgb(0,255,0)" /><circle cx="118.8975299935368" cy="-162.85663995765907" fill="rgb(0,255,0)" r="2" stroke="rgb(0,255,0)" /><circle cx="0.20181274605934618" cy="-170.7827371961413" fill="rgb(0,255,0)" r="2" stroke="rgb(0,255,0)" /><circle cx="70.16790815854296" cy="-182.8552469903489" fill="rgb(0,255,0)" r="2" stroke="rgb(0,255,0)" /><circle cx="20.89600998073759" cy="-174.35347952963932" fill="rgb(0,255,0)" r="2" stroke="rgb(0,255,0)" /><circle cx="231.03190517849816" cy="-202.57286097886546" fill="rgb(0,255,0)" r="2" stroke="rgb(0,255,0)" /><circle cx="275.11632713544924" cy="-92.08277069449434" fill="rgb(0,255,0)" r="2" stroke="rgb(0,255,0)" /><circle cx="234.02604240766715" cy="-149.9843121333006" fill="rgb(0,255,0)" r="2" stroke="rgb(0,255,0)" /><circle cx="262.9628626384996" cy="-109.20857872569056" fill="rgb(0,255,0)" r="2" stroke="rgb(0,255,0)" /><circle cx="171.56305439608303" cy="-163.78554621464332" fill="rgb(0,255,0)" r="2" stroke="rgb(0,255,0)" /><circle cx="94.15016403421441" cy="-73.45979841176984" fill="rgb(0,255,0)" r="2" stroke="rgb(0,255,0)" /><circle cx="126.3699274897728" cy="-136.72816999558623" fill="rgb(0,255,0)" r="2" stroke="rgb(0,255,0)" /><circle cx="103.67995322529507" cy="-92.1729787393775" fill="rgb(0,255,0)" r="2" stroke="rgb(0,255,0)" /><circle cx="213.4425267780655" cy="-191.10055661198285" fill="rgb(0,255,0)" r="2" stroke="rgb(0,255,0)" /><circle cx="331.84228642763065" cy="-179.56828774362043" fill="rgb(0,255,0)" r="2" stroke="rgb(0,255,0)" /><circle cx="261.5413994461191" cy="-169.62920883193357" fill="rgb(0,255,0)" r="2" stroke="rgb(0,255,0)" /><circle cx="311.04906633450753" cy="-176.62856017819192" fill="rgb(0,255,0)" r="2" stroke="rgb(0,255,0)" /><circle cx="50.4691990563132" cy="-143.92086627011707" fill="rgb(0,255,0)" r="2" stroke="rgb(0,255,0)" /><circle cx="-67.10310483756527" cy="-162.03852802356872" fill="rgb(0,255,0)" r="2" stroke="rgb(0,255,0)" /><circle cx="3.6426807853137646" cy="-168.0413454122323" fill="rgb(0,255,0)" r="2" stroke="rgb(0,255,0)" /><circle cx="-46.178295005446124" cy="-163.8140092230326" fill="rgb(0,255,0)" r="2" stroke="rgb(0,255,0)" /><circle cx="165.6070598080443" cy="-173.83356143190375" fill="rgb(0,255,0)" r="2" stroke="rgb(0,255,0)" /><circle cx="175.74565890526958" cy="-292.3607950901341" fill="rgb(0,255,0)" r="2" stroke="rgb(0,255,0)" /><circle cx="186.51107974183435" cy="-222.18169767351256" fill="rgb(0,255,0)" r="2" stroke="rgb(0,255,0)" /><circle cx="178.92979746256339" cy="-271.6035972626827" fill="rgb(0,255,0)" r="2" stroke="rgb(0,255,0)" /><circle cx="103.01908904961861" cy="-140.3112417576561" fill="rgb(0,255,0)" r="2" stroke="rgb(0,255,0)" /><circle cx="199.77398804945392" cy="-71.10151823661707" fill="rgb(0,255,0)" r="2" stroke="rgb(0,255,0)" /><circle cx="133.92829735400338" cy="-97.65985057957597" fill="rgb(0,255,0)" r="2" stroke="rgb(0,255,0)" /><circle cx="180.2985020691094" cy="-78.95679963383026" fill="rgb(0,255,0)" r="2" stroke="rgb(0,255,0)" /><circle cx="147.0951247949888" cy="-163.91850913388683" fill="rgb(0,255,0)" r="2" stroke="rgb(0,255,0)" /><circle cx="82.3401421720159" cy="-64.12728439029789" fill="rgb(0,255,0)" r="2" stroke="rgb(0,255,0)" /><circle cx="105.88793404948734" cy="-131.1086362555394" fill="rgb(0,255,0)" r="2" stroke="rgb(0,255,0)" /><circle cx="89.304982023099" cy="-83.93867015325667" fill="rgb(0,255,0)" r="2" stroke="rgb(0,255,0)" /><circle cx="98.65816450506222" cy="-157.25591816275227" fill="rgb(0,255,0)" r="2" stroke="rgb(0,255,0)" /><circle cx="1.548714725204789" cy="-88.5445575752894" fill="rgb(0,255,0)" r="2" stroke="rgb(0,255,0)" /><circle cx="48.229684047431974" cy="-142.04116590831632" fill="rgb(0,255,0)" r="2" stroke="rgb(0,255,0)" /><circle cx="15.355761989525512" cy="-104.36749806815652" fill="rgb(0,255,0)" r="2" stroke="rgb(0,255,0)" /><circle cx="160.62754485664613" cy="-258.8004512955986" fill="rgb(0,255,0)" r="2" stroke="rgb(0,255,0)" /><circle cx="167.5896023712166" cy="-140.04428907447084" fill="rgb(0,255,0)" r="2" stroke="rgb(0,255,0)" /><circle cx="146.87229515855617" cy="-207.9544737440493" fill="rgb(0,255,0)" r="2" stroke="rgb(0,255,0)" /><circle cx="161.46194812521847" cy="-160.13040003307856" fill="rgb(0,255,0)" r="2" stroke="rgb(0,255,0)" /><circle cx="138.94186697282137" cy="-191.19326695311176" fill="rgb(0,255,0)" r="2" stroke="rgb(0,255,0)" /><circle cx="257.9007853670805" cy="-190.6716878172227" fill="rgb(0,255,0)" r="2" stroke="rgb(0,255,0)" /><circle cx="188.82194334226938" cy="-174.26700603087926" fill="rgb(0,255,0)" r="2" stroke="rgb(0,255,0)" /><circle cx="237.46901519072793" cy="-185.8195988381634" fill="rgb(0,255,0)" r="2" stroke="rgb(0,255,0)" /><circle cx="154.21347111635995" cy="-238.80396015204613" fill="rgb(0,255,0)" r="2" stroke="rgb(0,255,0)" /><circle cx="48.82968647004655" cy="-183.61560772196873" fill="rgb(0,255,0)" r="2" stroke="rgb(0,255,0)" /><circle cx="102.20966993453371" cy="-230.42989363269345" fill="rgb(0,255,0)" r="2" stroke="rgb(0,255,0)" /><circle cx="64.61813228348643" cy="-197.46208665330985" fill="rgb(0,255,0)" r="2" stroke="rgb(0,255,0)" /><line stroke="rgb(139,69,19)" x1="0" x2="0.0" y1="0" y2="-53.0" /><line stroke="rgb(139,69,19)" x1="0" x2="118.8975299935368" y1="0" y2="-56.85663995765906" /><line stroke="rgb(139,69,19)" x1="0" x2="50.4691990563132" y1="0" y2="-37.92086627011706" /><line stroke="rgb(139,69,19)" x1="0" x2="98.65816450506222" y1="0" y2="-51.25591816275227" /><line stroke="rgb(139,69,19)" x1="0.0" x2="0.0" y1="-53.0" y2="-106.0" /><line stroke="rgb(139,69,19)" x1="0.0" x2="-110.70849587063738" y1="-53.0" y2="-149.53303633320405" /><line stroke="rgb(139,69,19)" x1="0.0" x2="-40.374788440709466" y1="-53.0" y2="-139.82893415106975" /><line stroke="rgb(139,69,19)" x1="0.0" x2="-89.90556832094039" y1="-53.0" y2="-146.66280892722065" /><line stroke="rgb(139,69,19)" x1="118.8975299935368" x2="118.8975299935368" y1="-56.85663995765906" y2="-109.85663995765907" /><line stroke="rgb(139,69,19)" x1="118.8975299935368" x2="231.03190517849816" y1="-56.85663995765906" y2="-149.57286097886546" /><line stroke="rgb(139,69,19)" x1="118.8975299935368" x2="171.56305439608303" y1="-56.85663995765906" y2="-110.78554621464332" /><line stroke="rgb(139,69,19)" x1="118.8975299935368" x2="213.4425267780655" y1="-56.85663995765906" y2="-138.10055661198285" /><line stroke="rgb(139,69,19)" x1="50.4691990563132" x2="50.4691990563132" y1="-37.92086627011706" y2="-90.92086627011706" /><line stroke="rgb(139,69,19)" x1="50.4691990563132" x2="165.6070598080443" y1="-37.92086627011706" y2="-120.83356143190375" /><line stroke="rgb(139,69,19)" x1="50.4691990563132" x2="103.01908904961861" y1="-37.92086627011706" y2="-87.31124175765608" /><line stroke="rgb(139,69,19)" x1="50.4691990563132" x2="147.0951247949888" y1="-37.92086627011706" y2="-110.91850913388683" /><line stroke="rgb(139,69,19)" x1="98.65816450506222" x2="98.65816450506222" y1="-51.25591816275227" y2="-104.25591816275227" /><line stroke="rgb(139,69,19)" x1="98.65816450506222" x2="160.62754485664613" y1="-51.25591816275227" y2="-205.80045129559858" /><line stroke="rgb(139,69,19)" x1="98.65816450506222" x2="138.94186697282137" y1="-51.25591816275227" y2="-138.19326695311176" /><line stroke="rgb(139,69,19)" x1="98.65816450506222" x2="154.21347111635995" y1="-51.25591816275227" y2="-185.80396015204613" /><line stroke="rgb(139,69,19)" x1="0.0" x2="0.0" y1="-106.0" y2="-159.0" /><line stroke="rgb(139,69,19)" x1="0.0" x2="84.42588209734669" y1="-106.0" y2="-75.19208424968494" /><line stroke="rgb(139,69,19)" x1="0.0" x2="23.681747387805874" y1="-106.0" y2="-111.95007791622172" /><line stroke="rgb(139,69,19)" x1="0.0" x2="66.45930704241209" y1="-106.0" y2="-86.06416688344933" /><line stroke="rgb(139,69,19)" x1="-110.70849587063738" x2="-110.70849587063738" y1="-149.53303633320405" y2="-202.53303633320405" /><line stroke="rgb(139,69,19)" x1="-110.70849587063738" x2="-71.0580939510898" y1="-149.53303633320405" y2="-90.37537079961098" /><line stroke="rgb(139,69,19)" x1="-110.70849587063738" x2="-109.81049945010193" y1="-149.53303633320405" y2="-149.86697582116113" /><line stroke="rgb(139,69,19)" x1="-110.70849587063738" x2="-82.52007304234691" y1="-149.53303633320405" y2="-107.97147932711171" /><line stroke="rgb(139,69,19)" x1="-40.374788440709466" x2="-40.374788440709466" y1="-139.82893415106975" y2="-192.82893415106975" /><line stroke="rgb(139,69,19)" x1="-40.374788440709466" x2="-47.56586372696758" y1="-139.82893415106975" y2="-311.57144863747584" /><line stroke="rgb(139,69,19)" x1="-40.374788440709466" x2="-26.717624841576836" y1="-139.82893415106975" y2="-243.7013452385736" /><line stroke="rgb(139,69,19)" x1="-40.374788440709466" x2="-41.39948321157031" y1="-139.82893415106975" y2="-291.49719270258925" /><line stroke="rgb(139,69,19)" x1="-89.90556832094039" x2="-89.90556832094039" y1="-146.66280892722065" y2="-199.66280892722065" /><line stroke="rgb(139,69,19)" x1="-89.90556832094039" x2="-158.16852005404064" y1="-146.66280892722065" y2="-297.08798909647373" /><line stroke="rgb(139,69,19)" x1="-89.90556832094039" x2="-104.88768145238879" y1="-146.66280892722065" y2="-250.1608941735539" /><line stroke="rgb(139,69,19)" x1="-89.90556832094039" x2="-142.4093987774957" y1="-146.66280892722065" y2="-283.2081441192721" /><line stroke="rgb(139,69,19)" x1="118.8975299935368" x2="118.8975299935368" y1="-109.85663995765907" y2="-162.85663995765907" /><line stroke="rgb(139,69,19)" x1="118.8975299935368" x2="0.20181274605934618" y1="-109.85663995765907" y2="-170.7827371961413" /><line stroke="rgb(139,69,19)" x1="118.8975299935368" x2="70.16790815854296" y1="-109.85663995765907" y2="-182.8552469903489" /><line stroke="rgb(139,69,19)" x1="118.8975299935368" x2="20.89600998073759" y1="-109.85663995765907" y2="-174.35347952963932" /><line stroke="rgb(139,69,19)" x1="231.03190517849816" x2="231.03190517849816" y1="-149.57286097886546" y2="-202.57286097886546" /><line stroke="rgb(139,69,19)" x1="231.03190517849816" x2="275.11632713544924" y1="-149.57286097886546" y2="-92.08277069449434" /><line stroke="rgb(139,69,19)" x1="231.03190517849816" x2="234.02604240766715" y1="-149.57286097886546" y2="-149.9843121333006" /><line stroke="rgb(139,69,19)" x1="231.03190517849816" x2="262.9628626384996" y1="-149.57286097886546" y2="-109.20857872569056" /><line stroke="rgb(139,69,19)" x1="171.56305439608303" x2="171.56305439608303" y1="-110.78554621464332" y2="-163.78554621464332" /><line stroke="rgb(139,69,19)" x1="171.56305439608303" x2="94.15016403421441" y1="-110.78554621464332" y2="-73.45979841176984" /><line stroke="rgb(139,69,19)" x1="171.56305439608303" x2="126.3699274897728" y1="-110.78554621464332" y2="-136.72816999558623" /><line stroke="rgb(139,69,19)" x1="171.56305439608303" x2="103.67995322529507" y1="-110.78554621464332" y2="-92.1729787393775" /><line stroke="rgb(139,69,19)" x1="213.4425267780655" x2="213.4425267780655" y1="-138.10055661198285" y2="-191.10055661198285" /><line stroke="rgb(139,69,19)" x1="213.4425267780655" x2="331.84228642763065" y1="-138.10055661198285" y2="-179.56828774362043" /><line stroke="rgb(139,69,19)" x1="213.4425267780655" x2="261.5413994461191" y1="-138.10055661198285" y2="-169.62920883193357" /><line stroke="rgb(139,69,19)" x1="213.4425267780655" x2="311.04906633450753" y1="-138.10055661198285" y2="-176.62856017819192" /><line stroke="rgb(139,69,19)" x1="50.4691990563132" x2="50.4691990563132" y1="-90.92086627011706" y2="-143.92086627011707" /><line stroke="rgb(139,69,19)" x1="50.4691990563132" x2="-67.10310483756527" y1="-90.92086627011706" y2="-162.03852802356872" /><line stroke="rgb(139,69,19)" x1="50.4691990563132" x2="3.6426807853137646" y1="-90.92086627011706" y2="-168.0413454122323" /><line stroke="rgb(139,69,19)" x1="50.4691990563132" x2="-46.178295005446124" y1="-90.92086627011706" y2="-163.8140092230326" /><line stroke="rgb(139,69,19)" x1="165.6070598080443" x2="165.6070598080443" y1="-120.83356143190375" y2="-173.83356143190375" /><line stroke="rgb(139,69,19)" x1="165.6070598080443" x2="175.74565890526958" y1="-120.83356143190375" y2="-292.3607950901341" /><line stroke="rgb(139,69,19)" x1="165.6070598080443" x2="186.51107974183435" y1="-120.83356143190375" y2="-222.18169767351256" /><line stroke="rgb(139,69,19)" x1="165.6070598080443" x2="178.92979746256339" y1="-120.83356143190375" y2="-271.6035972626827" /><line stroke="rgb(139,69,19)" x1="103.01908904961861" x2="103.01908904961861" y1="-87.31124175765608" y2="-140.3112417576561" /><line stroke="rgb(139,69,19)" x1="103.01908904961861" x2="199.77398804945392" y1="-87.31124175765608" y2="-71.10151823661707" /><line stroke="rgb(139,69,19)" x1="103.01908904961861" x2="133.92829735400338" y1="-87.31124175765608" y2="-97.65985057957597" /><line stroke="rgb(139,69,19)" x1="103.01908904961861" x2="180.2985020691094" y1="-87.31124175765608" y2="-78.95679963383026" /><line stroke="rgb(139,69,19)" x1="147.0951247949888" x2="147.0951247949888" y1="-110.91850913388683" y2="-163.91850913388683" /><line stroke="rgb(139,69,19)" x1="147.0951247949888" x2="82.3401421720159" y1="-110.91850913388683" y2="-64.12728439029789" /><line stroke="rgb(139,69,19)" x1="147.0951247949888" x2="105.88793404948734" y1="-110.91850913388683" y2="-131.1086362555394" /><line stroke="rgb(139,69,19)" x1="147.0951247949888" x2="89.304982023099" y1="-110.91850913388683" y2="-83.93867015325667" /><line stroke="rgb(139,69,19)" x1="98.65816450506222" x2="98.65816450506222" y1="-104.25591816275227" y2="-157.25591816275227" /><line stroke="rgb(139,69,19)" x1="98.65816450506222" x2="1.548714725204789" y1="-104.25591816275227" y2="-88.5445575752894" /><line stroke="rgb(139,69,19)" x1="98.65816450506222" x2="48.229684047431974" y1="-104.25591816275227" y2="-142.04116590831632" /><line stroke="rgb(139,69,19)" x1="98.65816450506222" x2="15.355761989525512" y1="-104.25591816275227" y2="-104.36749806815652" /><line stroke="rgb(139,69,19)" x1="160.62754485664613" x2="160.62754485664613" y1="-205.80045129559858" y2="-258.8004512955986" /><line stroke="rgb(139,69,19)" x1="160.62754485664613" x2="167.5896023712166" y1="-205.80045129559858" y2="-140.04428907447084" /><line stroke="rgb(139,69,19)" x1="160.62754485664613" x2="146.87229515855617" y1="-205.80045129559858" y2="-207.9544737440493" /><line stroke="rgb(139,69,19)" x1="160.62754485664613" x2="161.46194812521847" y1="-205.80045129559858" y2="-160.13040003307856" /><line stroke="rgb(139,69,19)" x1="138.94186697282137" x2="138.94186697282137" y1="-138.19326695311176" y2="-191.19326695311176" /><line stroke="rgb(139,69,19)" x1="138.94186697282137" x2="257.9007853670805" y1="-138.19326695311176" y2="-190.6716878172227" /><line stroke="rgb(139,69,19)" x1="138.94186697282137" x2="188.82194334226938" y1="-138.19326695311176" y2="-174.26700603087926" /><line stroke="rgb(139,69,19)" x1="138.94186697282137" x2="237.46901519072793" y1="-138.19326695311176" y2="-185.8195988381634" /><line stroke="rgb(139,69,19)" x1="154.21347111635995" x2="154.21347111635995" y1="-185.80396015204613" y2="-238.80396015204613" /><line stroke="rgb(139,69,19)" x1="154.21347111635995" x2="48.82968647004655" y1="-185.80396015204613" y2="-183.61560772196873" /><line stroke="rgb(139,69,19)" x1="154.21347111635995" x2="102.20966993453371" y1="-185.80396015204613" y2="-230.42989363269345" /><line stroke="rgb(139,69,19)" x1="154.21347111635995" x2="64.61813228348643" y1="-185.80396015204613" y2="-197.46208665330985" /><circle cx="0" cy="-300" fill="rgb(255,255,0)" r="10" stroke="rgb(255,255,0)" /></svg>