<?xml version="1.0" encoding="utf-8" ?>
<svg baseProfile="full" height="100%" version="1.1" viewBox="-400 -400 800 400" width="100%" xmlns="http://www.w3.org/2000/svg" xmlns:ev="http://www.w3.org/2001/xml-events" xmlns:xlink="http://www.w3.org/1999/xlink"><defs /><circle cx="9.506299697362723" cy="-61.67190310353207" fill="rgb(0,255,0)" r="2" stroke="rgb(0,255,0)" /><circle cx="4.360257217460169" cy="-43.382063115302586" fill="rgb(0,255,0)" r="2" stroke="rgb(0,255,0)" /><circle cx="21.70675467459578" cy="-9.758715152797246" fill="rgb(0,255,0)" r="2" stroke="rgb(0,255,0)" /><circle cx="-8.028077424440028" cy="-69.04648308096793" fill="rgb(0,255,0)" r="2" stroke="rgb(0,255,0)" /><circle cx="5.925726857608344" cy="-56.15108289104406" fill="rgb(0,255,0)" r="2" stroke="rgb(0,255,0)" /><circle cx="7.50557467529628" cy="-35.59134580802876" fill="rgb(0,255,0)" r="2" stroke="rgb(0,255,0)" /><circle cx="-24.054474792097203" cy="-42.934307129744575" fill="rgb(0,255,0)" r="2" stroke="rgb(0,255,0)" /><circle cx="-27.137070382449473" cy="-24.186037758244154" fill="rgb(0,255,0)" r="2" stroke="rgb(0,255,0)" /><circle cx="-16.694356389358518" cy="-7.440281845773498" fill="rgb(0,255,0)" r="2" stroke="rgb(0,255,0)" /><circle cx="19.07458276224999" cy="-78.02477385855961" fill="rgb(0,255,0)" r="2" stroke="rgb(0,255,0)" /><circle cx="11.30427851451606" cy="-95.36323895491829" fill="rgb(0,255,0)" r="2" stroke="rgb(0,255,0)" /><circle cx="49.065171255344666" cy="-128.7904605440245" fill="rgb(0,255,0)" r="2" stroke="rgb(0,255,0)" /><circle cx="37.23268452950912" cy="-83.55201149800367" fill="rgb(0,255,0)" r="2" stroke="rgb(0,255,0)" /><circle cx="43.457003546804444" cy="-101.50355329170304" fill="rgb(0,255,0)" r="2" stroke="rgb(0,255,0)" /><circle cx="138.39601895736357" cy="-61.769929626639254" fill="rgb(0,255,0)" r="2" stroke="rgb(0,255,0)" /><circle cx="-41.32022354957683" cy="-87.45062498345126" fill="rgb(0,255,0)" r="2" stroke="rgb(0,255,0)" /><circle cx="-34.40430260975093" cy="-69.75401407757221" fill="rgb(0,255,0)" r="2" stroke="rgb(0,255,0)" /><circle cx="-12.979591679619325" cy="-44.722610006588376" fill="rgb(0,255,0)" r="2" stroke="rgb(0,255,0)" /><circle cx="-62.02278415976831" cy="-99.14398851773275" fill="rgb(0,255,0)" r="2" stroke="rgb(0,255,0)" /><circle cx="-71.11537241469988" cy="-82.46091809211023" fill="rgb(0,255,0)" r="2" stroke="rgb(0,255,0)" /><circle cx="-48.60360131067051" cy="-6.870267525785303" fill="rgb(0,255,0)" r="2" stroke="rgb(0,255,0)" /><circle cx="-77.46196069820316" cy="-110.16662105006804" fill="rgb(0,255,0)" r="2" stroke="rgb(0,255,0)" /><circle cx="-94.67814691336314" cy="-118.20421597671964" fill="rgb(0,255,0)" r="2" stroke="rgb(0,255,0)" /><circle cx="-148.21862790233214" cy="-125.62605902708466" fill="rgb(0,255,0)" r="2" stroke="rgb(0,255,0)" /><circle cx="-100.03594868063108" cy="-61.157983046625326" fill="rgb(0,255,0)" r="2" stroke="rgb(0,255,0)" /><circle cx="-113.41663216274077" cy="-47.66882778947164" fill="rgb(0,255,0)" r="2" stroke="rgb(0,255,0)" /><circle cx="-112.27928183888997" cy="-0.02641586520769739" fill="rgb(0,255,0)" r="2" stroke="rgb(0,255,0)" /><line stroke="rgb(139,69,19)" x1="0" x2="3.1621759320689757" y1="0" y2="-20.550378932437976" /><line stroke="rgb(139,69,19)" x1="0" x2="12.752106716230823" y1="0" y2="-36.95261132790735" /><line stroke="rgb(139,69,19)" x1="0" x2="-68.37105914528902" y1="0" y2="-58.02736412100201" /><line stroke="rgb(139,69,19)" x1="3.1621759320689757" x2="6.336803647968138" y1="-20.550378932437976" y2="-41.09550732900557" /><line stroke="rgb(139,69,19)" x1="3.1621759320689757" x2="-11.170404417274227" y1="-20.550378932437976" y2="-48.477760762769044" /><line stroke="rgb(139,69,19)" x1="3.1621759320689757" x2="-27.221035639657433" y1="-20.550378932437976" y2="-22.357259250832204" /><line stroke="rgb(139,69,19)" x1="12.752106716230823" x2="15.90135376581724" y1="-36.95261132790735" y2="-57.49905846110935" /><line stroke="rgb(139,69,19)" x1="12.752106716230823" x2="34.07936253629832" y1="-36.95261132790735" y2="-63.02716818689384" /><line stroke="rgb(139,69,19)" x1="12.752106716230823" x2="-44.4725617562691" y1="-36.95261132790735" y2="-66.87507306252697" /><line stroke="rgb(139,69,19)" x1="-68.37105914528902" x2="-65.19789407228527" y1="-58.02736412100201" y2="-78.56987833291124" /><line stroke="rgb(139,69,19)" x1="-68.37105914528902" x2="-80.64862622659527" y1="-58.02736412100201" y2="-89.62767539633084" /><line stroke="rgb(139,69,19)" x1="-68.37105914528902" x2="-103.21715830186379" y1="-58.02736412100201" y2="-40.58841612662383" /><line stroke="rgb(139,69,19)" x1="6.336803647968138" x2="9.506299697362723" y1="-41.09550732900557" y2="-61.67190310353207" /><line stroke="rgb(139,69,19)" x1="6.336803647968138" x2="4.360257217460169" y1="-41.09550732900557" y2="-43.382063115302586" /><line stroke="rgb(139,69,19)" x1="6.336803647968138" x2="21.70675467459578" y1="-41.09550732900557" y2="-9.758715152797246" /><line stroke="rgb(139,69,19)" x1="-11.170404417274227" x2="-8.028077424440028" y1="-48.477760762769044" y2="-69.04648308096793" /><line stroke="rgb(139,69,19)" x1="-11.170404417274227" x2="5.925726857608344" y1="-48.477760762769044" y2="-56.15108289104406" /><line stroke="rgb(139,69,19)" x1="-11.170404417274227" x2="7.50557467529628" y1="-48.477760762769044" y2="-35.59134580802876" /><line stroke="rgb(139,69,19)" x1="-27.221035639657433" x2="-24.054474792097203" y1="-22.357259250832204" y2="-42.934307129744575" /><line stroke="rgb(139,69,19)" x1="-27.221035639657433" x2="-27.137070382449473" y1="-22.357259250832204" y2="-24.186037758244154" /><line stroke="rgb(139,69,19)" x1="-27.221035639657433" x2="-16.694356389358518" y1="-22.357259250832204" y2="-7.440281845773498" /><line stroke="rgb(139,69,19)" x1="15.90135376581724" x2="19.07458276224999" y1="-57.49905846110935" y2="-78.02477385855961" /><line stroke="rgb(139,69,19)" x1="15.90135376581724" x2="11.30427851451606" y1="-57.49905846110935" y2="-95.36323895491829" /><line stroke="rgb(139,69,19)" x1="15.90135376581724" x2="49.065171255344666" y1="-57.49905846110935" y2="-128.7904605440245" /><line stroke="rgb(139,69,19)" x1="34.07936253629832" x2="37.23268452950912" y1="-63.02716818689384" y2="-83.55201149800367" /><line stroke="rgb(139,69,19)" x1="34.07936253629832" x2="43.457003546804444" y1="-63.02716818689384" y2="-101.50355329170304" /><line stroke="rgb(139,69,19)" x1="34.07936253629832" x2="138.39601895736357" y1="-63.02716818689384" y2="-61.769929626639254" /><line stroke="rgb(139,69,19)" x1="-44.4725617562691" x2="-41.32022354957683" y1="-66.87507306252697" y2="-87.45062498345126" /><line stroke="rgb(139,69,19)" x1="-44.4725617562691" x2="-34.40430260975093" y1="-66.87507306252697" y2="-69.75401407757221" /><line stroke="rgb(139,69,19)" x1="-44.4725617562691" x2="-12.979591679619325" y1="-66.87507306252697" y2="-44.722610006588376" /><line stroke="rgb(139,69,19)" x1="-65.19789407228527" x2="-62.02278415976831" y1="-78.56987833291124" y2="-99.14398851773275" /><line stroke="rgb(139,69,19)" x1="-65.19789407228527" x2="-71.11537241469988" y1="-78.56987833291124" y2="-82.46091809211023" /><line stroke="rgb(139,69,19)" x1="-65.19789407228527" x2="-48.60360131067051" y1="-78.56987833291124" y2="-6.870267525785303" /><line stroke="rgb(139,69,19)" x1="-80.64862622659527" x2="-77.46196069820316" y1="-89.62767539633084" y2="-110.16662105006804" /><line stroke="rgb(139,69,19)" x1="-80.64862622659527" x2="-94.67814691336314" y1="-89.62767539633084" y2="-118.20421597671964" /><line stroke="rgb(139,69,19)" x1="-80.64862622659527" x2="-148.21862790233214" y1="-89.62767539633084" y2="-125.62605902708466" /><line stroke="rgb(139,69,19)" x1="-103.21715830186379" x2="-100.03594868063108" y1="-40.58841612662383" y2="-61.157983046625326" /><line stroke="rgb(139,69,19)" x1="-103.21715830186379" x2="-113.41663216274077" y1="-40.58841612662383" y2="-47.66882778947164" /><line stroke="rgb(139,69,19)" x1="-103.21715830186379" x2="-112.27928183888997" y1="-40.58841612662383" y2="-0.02641586520769739" /><circle cx="0" cy="-300" fill="rgb(255,255,0)" r="10" stroke="rgb(255,255,0)" /></svg>