<?xml version="1.0" encoding="utf-8" ?>
<svg baseProfile="full" height="100%" version="1.1" viewBox="-400 -400 800 400" width="100%" xmlns="http://www.w3.org/2000/svg" xmlns:ev="http://www.w3.org/2001/xml-events" xmlns:xlink="http://www.w3.org/1999/xlink"><defs /><circle cx="20.989739823706934" cy="-218.96937273814055" fill="rgb(0,255,0)" r="2" stroke="rgb(0,255,0)" /><circle cx="8.94137524578002" cy="-179.77961755904616" fill="rgb(0,255,0)" r="2" stroke="rgb(0,255,0)" /><circle cx="1.0214075269269678" cy="-154.01831245239183" fill="rgb(0,255,0)" r="2" stroke="rgb(0,255,0)" /><circle cx="71.44197068388279" cy="-254.0749123315619" fill="rgb(0,255,0)" r="2" stroke="rgb(0,255,0)" /><circle cx="107.53342710705388" cy="-234.62223196986514" fill="rgb(0,255,0)" r="2" stroke="rgb(0,255,0)" /><circle cx="131.2831057793847" cy="-221.8215596309885" fill="rgb(0,255,0)" r="2" stroke="rgb(0,255,0)" /><circle cx="92.44864975008181" cy="-271.1858855538538" fill="rgb(0,255,0)" r="2" stroke="rgb(0,255,0)" /><circle cx="133.4436540386274" cy="-271.82590382088154" fill="rgb(0,255,0)" r="2" stroke="rgb(0,255,0)" /><circle cx="160.42114556665186" cy="-272.24707922203515" fill="rgb(0,255,0)" r="2" stroke="rgb(0,255,0)" /><circle cx="-52.217242452068845" cy="-200.13088353612235" fill="rgb(0,255,0)" r="2" stroke="rgb(0,255,0)" /><circle cx="-48.93183241636841" cy="-240.99903838677983" fill="rgb(0,255,0)" r="2" stroke="rgb(0,255,0)" /><circle cx="-46.76562402050866" cy="-267.9451240195635" fill="rgb(0,255,0)" r="2" stroke="rgb(0,255,0)" /><circle cx="-53.926355393868306" cy="-208.62671629990666" fill="rgb(0,255,0)" r="2" stroke="rgb(0,255,0)" /><circle cx="-21.655386165984098" cy="-183.33670750012664" fill="rgb(0,255,0)" r="2" stroke="rgb(0,255,0)" /><circle cx="-0.38811216723066755" cy="-166.67003899142037" fill="rgb(0,255,0)" r="2" stroke="rgb(0,255,0)" /><circle cx="-115.95644185185427" cy="-224.7611982023386" fill="rgb(0,255,0)" r="2" stroke="rgb(0,255,0)" /><circle cx="-144.51914695313297" cy="-254.1750023986235" fill="rgb(0,255,0)" r="2" stroke="rgb(0,255,0)" /><circle cx="-163.33936137295802" cy="-273.55601340279657" fill="rgb(0,255,0)" r="2" stroke="rgb(0,255,0)" /><circle cx="-40.53382522827377" cy="-179.33794409771204" fill="rgb(0,255,0)" r="2" stroke="rgb(0,255,0)" /><circle cx="-68.31163597496362" cy="-209.49409156586654" fill="rgb(0,255,0)" r="2" stroke="rgb(0,255,0)" /><circle cx="-86.62894603873467" cy="-229.37973009009093" fill="rgb(0,255,0)" r="2" stroke="rgb(0,255,0)" /><circle cx="40.3211538682292" cy="-178.69523854507128" fill="rgb(0,255,0)" r="2" stroke="rgb(0,255,0)" /><circle cx="72.39667604992715" cy="-153.15779785945432" fill="rgb(0,255,0)" r="2" stroke="rgb(0,255,0)" /><circle cx="93.50219901576514" cy="-136.35429773790204" fill="rgb(0,255,0)" r="2" stroke="rgb(0,255,0)" /><circle cx="40.18007082348562" cy="-196.90430059039883" fill="rgb(0,255,0)" r="2" stroke="rgb(0,255,0)" /><circle cx="54.208646244536425" cy="-235.42960489362127" fill="rgb(0,255,0)" r="2" stroke="rgb(0,255,0)" /><circle cx="63.43238288748122" cy="-260.7598505042347" fill="rgb(0,255,0)" r="2" stroke="rgb(0,255,0)" /><line stroke="rgb(139,69,19)" x1="0" x2="2.47146245490448" y1="0" y2="-60.15329061698142" /><line stroke="rgb(139,69,19)" x1="0" x2="-20.43888854801179" y1="0" y2="-26.151587469592265" /><line stroke="rgb(139,69,19)" x1="0" x2="-35.519362128313034" y1="0" y2="-3.770359616113364" /><line stroke="rgb(139,69,19)" x1="2.47146245490448" x2="12.861030192835635" y1="-60.15329061698142" y2="-157.24296241660767" /><line stroke="rgb(139,69,19)" x1="2.47146245490448" x2="51.93485816351364" y1="-60.15329061698142" y2="-169.66213983372597" /><line stroke="rgb(139,69,19)" x1="2.47146245490448" x2="77.57755573760595" y1="-60.15329061698142" y2="-177.81238328735284" /><line stroke="rgb(139,69,19)" x1="-20.43888854801179" x2="-40.32799756480564" y1="-26.151587469592265" y2="-104.04841307879879" /><line stroke="rgb(139,69,19)" x1="-20.43888854801179" x2="-73.89921066883467" y1="-26.151587469592265" y2="-127.58505792728707" /><line stroke="rgb(139,69,19)" x1="-20.43888854801179" x2="-96.02572822244223" y1="-26.151587469592265" y2="-143.09787194980453" /><line stroke="rgb(139,69,19)" x1="-35.519362128313034" x2="-20.65385503402196" y1="-3.770359616113364" y2="-97.15007182638088" /><line stroke="rgb(139,69,19)" x1="-35.519362128313034" x2="20.340878366742835" y1="-3.770359616113364" y2="-97.80721214641872" /><line stroke="rgb(139,69,19)" x1="-35.519362128313034" x2="47.3675996057418" y1="-3.770359616113364" y2="-98.24044702249277" /><line stroke="rgb(139,69,19)" x1="12.861030192835635" x2="20.989739823706934" y1="-157.24296241660767" y2="-218.96937273814055" /><line stroke="rgb(139,69,19)" x1="12.861030192835635" x2="8.94137524578002" y1="-157.24296241660767" y2="-179.77961755904616" /><line stroke="rgb(139,69,19)" x1="12.861030192835635" x2="1.0214075269269678" y1="-157.24296241660767" y2="-154.01831245239183" /><line stroke="rgb(139,69,19)" x1="51.93485816351364" x2="71.44197068388279" y1="-169.66213983372597" y2="-254.0749123315619" /><line stroke="rgb(139,69,19)" x1="51.93485816351364" x2="107.53342710705388" y1="-169.66213983372597" y2="-234.62223196986514" /><line stroke="rgb(139,69,19)" x1="51.93485816351364" x2="131.2831057793847" y1="-169.66213983372597" y2="-221.8215596309885" /><line stroke="rgb(139,69,19)" x1="77.57755573760595" x2="92.44864975008181" y1="-177.81238328735284" y2="-271.1858855538538" /><line stroke="rgb(139,69,19)" x1="77.57755573760595" x2="133.4436540386274" y1="-177.81238328735284" y2="-271.82590382088154" /><line stroke="rgb(139,69,19)" x1="77.57755573760595" x2="160.42114556665186" y1="-177.81238328735284" y2="-272.24707922203515" /><line stroke="rgb(139,69,19)" x1="-40.32799756480564" x2="-52.217242452068845" y1="-104.04841307879879" y2="-200.13088353612235" /><line stroke="rgb(139,69,19)" x1="-40.32799756480564" x2="-48.93183241636841" y1="-104.04841307879879" y2="-240.99903838677983" /><line stroke="rgb(139,69,19)" x1="-40.32799756480564" x2="-46.76562402050866" y1="-104.04841307879879" y2="-267.9451240195635" /><line stroke="rgb(139,69,19)" x1="-73.89921066883467" x2="-53.926355393868306" y1="-127.58505792728707" y2="-208.62671629990666" /><line stroke="rgb(139,69,19)" x1="-73.89921066883467" x2="-21.655386165984098" y1="-127.58505792728707" y2="-183.33670750012664" /><line stroke="rgb(139,69,19)" x1="-73.89921066883467" x2="-0.38811216723066755" y1="-127.58505792728707" y2="-166.67003899142037" /><line stroke="rgb(139,69,19)" x1="-96.02572822244223" x2="-115.95644185185427" y1="-143.09787194980453" y2="-224.7611982023386" /><line stroke="rgb(139,69,19)" x1="-96.02572822244223" x2="-144.51914695313297" y1="-143.09787194980453" y2="-254.1750023986235" /><line stroke="rgb(139,69,19)" x1="-96.02572822244223" x2="-163.33936137295802" y1="-143.09787194980453" y2="-273.55601340279657" /><line stroke="rgb(139,69,19)" x1="-20.65385503402196" x2="-40.53382522827377" y1="-97.15007182638088" y2="-179.33794409771204" /><line stroke="rgb(139,69,19)" x1="-20.65385503402196" x2="-68.31163597496362" y1="-97.15007182638088" y2="-209.49409156586654" /><line stroke="rgb(139,69,19)" x1="-20.65385503402196" x2="-86.62894603873467" y1="-97.15007182638088" y2="-229.37973009009093" /><line stroke="rgb(139,69,19)" x1="20.340878366742835" x2="40.3211538682292" y1="-97.80721214641872" y2="-178.69523854507128" /><line stroke="rgb(139,69,19)" x1="20.340878366742835" x2="72.39667604992715" y1="-97.80721214641872" y2="-153.15779785945432" /><line stroke="rgb(139,69,19)" x1="20.340878366742835" x2="93.50219901576514" y1="-97.80721214641872" y2="-136.35429773790204" /><line stroke="rgb(139,69,19)" x1="47.3675996057418" x2="40.18007082348562" y1="-98.24044702249277" y2="-196.90430059039883" /><line stroke="rgb(139,69,19)" x1="47.3675996057418" x2="54.208646244536425" y1="-98.24044702249277" y2="-235.42960489362127" /><line stroke="rgb(139,69,19)" x1="47.3675996057418" x2="63.43238288748122" y1="-98.24044702249277" y2="-260.7598505042347" /><circle cx="0" cy="-300" fill="rgb(255,255,0)" r="10" stroke="rgb(255,255,0)" /></svg>