<?xml version="1.0" encoding="utf-8" ?>
<svg baseProfile="full" height="100%" version="1.1" viewBox="-400 -400 800 400" width="100%" xmlns="http://www.w3.org/2000/svg" xmlns:ev="http://www.w3.org/2001/xml-events" xmlns:xlink="http://www.w3.org/1999/xlink"><defs /><circle cx="-1.5873249671574294" cy="-89.6555734820285" fill="rgb(0,255,0)" r="2" stroke="rgb(0,255,0)" /><circle cx="5.626041005966968" cy="-46.511461624599924" fill="rgb(0,255,0)" r="2" stroke="rgb(0,255,0)" /><circle cx="10.785592302197696" cy="-40.39762237077882" fill="rgb(0,255,0)" r="2" stroke="rgb(0,255,0)" /><circle cx="38.3519798247031" cy="-137.82237123950068" fill="rgb(0,255,0)" r="2" stroke="rgb(0,255,0)" /><circle cx="75.13224554718691" cy="-67.82781233796382" fill="rgb(0,255,0)" r="2" stroke="rgb(0,255,0)" /><circle cx="80.29179684341764" cy="-61.713973084142715" fill="rgb(0,255,0)" r="2" stroke="rgb(0,255,0)" /><circle cx="45.9851226447052" cy="-155.75973408637975" fill="rgb(0,255,0)" r="2" stroke="rgb(0,255,0)" /><circle cx="88.41617196764714" cy="-80.63355614097935" fill="rgb(0,255,0)" r="2" stroke="rgb(0,255,0)" /><circle cx="93.57572326387788" cy="-74.51971688715824" fill="rgb(0,255,0)" r="2" stroke="rgb(0,255,0)" /><circle cx="23.955107590721504" cy="-102.63448276105333" fill="rgb(0,255,0)" r="2" stroke="rgb(0,255,0)" /><circle cx="50.07742920864944" cy="-42.31867158769665" fill="rgb(0,255,0)" r="2" stroke="rgb(0,255,0)" /><circle cx="55.236980504880165" cy="-36.204832333875544" fill="rgb(0,255,0)" r="2" stroke="rgb(0,255,0)" /><circle cx="88.1048819181476" cy="-214.80201976030264" fill="rgb(0,255,0)" r="2" stroke="rgb(0,255,0)" /><circle cx="161.71701229382785" cy="-111.35951603567548" fill="rgb(0,255,0)" r="2" stroke="rgb(0,255,0)" /><circle cx="166.87656359005857" cy="-105.24567678185437" fill="rgb(0,255,0)" r="2" stroke="rgb(0,255,0)" /><circle cx="95.73802473814969" cy="-232.73938260718168" fill="rgb(0,255,0)" r="2" stroke="rgb(0,255,0)" /><circle cx="175.00093871428808" cy="-124.16525983869099" fill="rgb(0,255,0)" r="2" stroke="rgb(0,255,0)" /><circle cx="180.1604900105188" cy="-118.05142058486987" fill="rgb(0,255,0)" r="2" stroke="rgb(0,255,0)" /><circle cx="30.65305906976744" cy="-132.78707261470913" fill="rgb(0,255,0)" r="2" stroke="rgb(0,255,0)" /><circle cx="61.733846062570514" cy="-67.96835403148734" fill="rgb(0,255,0)" r="2" stroke="rgb(0,255,0)" /><circle cx="66.89339735880124" cy="-61.85451477766623" fill="rgb(0,255,0)" r="2" stroke="rgb(0,255,0)" /><circle cx="101.37492862085266" cy="-262.32804188315265" fill="rgb(0,255,0)" r="2" stroke="rgb(0,255,0)" /><circle cx="184.81081888852177" cy="-149.9643341435663" fill="rgb(0,255,0)" r="2" stroke="rgb(0,255,0)" /><circle cx="189.97037018475248" cy="-143.8504948897452" fill="rgb(0,255,0)" r="2" stroke="rgb(0,255,0)" /><circle cx="109.00807144085475" cy="-280.2654047300316" fill="rgb(0,255,0)" r="2" stroke="rgb(0,255,0)" /><circle cx="198.094745308982" cy="-162.7700779465817" fill="rgb(0,255,0)" r="2" stroke="rgb(0,255,0)" /><circle cx="203.25429660521272" cy="-156.65623869276058" fill="rgb(0,255,0)" r="2" stroke="rgb(0,255,0)" /><line stroke="rgb(139,69,19)" x1="0" x2="-0.21242310126496294" y1="0" y2="-11.998119703772295" /><line stroke="rgb(139,69,19)" x1="0" x2="26.20111415420429" y1="0" y2="24.224862779296767" /><line stroke="rgb(139,69,19)" x1="0" x2="33.49123730626658" y1="0" y2="27.519419567055245" /><line stroke="rgb(139,69,19)" x1="-0.21242310126496294" x2="-0.664490421747419" y1="-11.998119703772295" y2="-37.531867177624505" /><line stroke="rgb(139,69,19)" x1="-0.21242310126496294" x2="40.42859705332559" y1="-11.998119703772295" y2="-20.53050449074043" /><line stroke="rgb(139,69,19)" x1="-0.21242310126496294" x2="48.360932853794026" y1="-11.998119703772295" y2="-21.56879575459987" /><line stroke="rgb(139,69,19)" x1="26.20111415420429" x2="25.4551957044485" y1="24.224862779296767" y2="-17.90623688042929" /><line stroke="rgb(139,69,19)" x1="26.20111415420429" x2="91.77176951120978" y1="24.224862779296767" y2="-7.6882170719589915" /><line stroke="rgb(139,69,19)" x1="26.20111415420429" x2="99.70410531167822" y1="24.224862779296767" y2="-8.72650833581843" /><line stroke="rgb(139,69,19)" x1="33.49123730626658" x2="32.54556064682498" y1="27.519419567055245" y2="-25.894459118818066" /><line stroke="rgb(139,69,19)" x1="33.49123730626658" x2="105.70921991803789" y1="27.519419567055245" y2="-17.517823479546774" /><line stroke="rgb(139,69,19)" x1="33.49123730626658" x2="113.64155571850632" y1="27.519419567055245" y2="-18.556114743406212" /><line stroke="rgb(139,69,19)" x1="-0.664490421747419" x2="-1.5873249671574294" y1="-37.531867177624505" y2="-89.6555734820285" /><line stroke="rgb(139,69,19)" x1="-0.664490421747419" x2="5.626041005966968" y1="-37.531867177624505" y2="-46.511461624599924" /><line stroke="rgb(139,69,19)" x1="-0.664490421747419" x2="10.785592302197696" y1="-37.531867177624505" y2="-40.39762237077882" /><line stroke="rgb(139,69,19)" x1="40.42859705332559" x2="38.3519798247031" y1="-20.53050449074043" y2="-137.82237123950068" /><line stroke="rgb(139,69,19)" x1="40.42859705332559" x2="75.13224554718691" y1="-20.53050449074043" y2="-67.82781233796382" /><line stroke="rgb(139,69,19)" x1="40.42859705332559" x2="80.29179684341764" y1="-20.53050449074043" y2="-61.713973084142715" /><line stroke="rgb(139,69,19)" x1="48.360932853794026" x2="45.9851226447052" y1="-21.56879575459987" y2="-155.75973408637975" /><line stroke="rgb(139,69,19)" x1="48.360932853794026" x2="88.41617196764714" y1="-21.56879575459987" y2="-80.63355614097935" /><line stroke="rgb(139,69,19)" x1="48.360932853794026" x2="93.57572326387788" y1="-21.56879575459987" y2="-74.51971688715824" /><line stroke="rgb(139,69,19)" x1="25.4551957044485" x2="23.955107590721504" y1="-17.90623688042929" y2="-102.63448276105333" /><line stroke="rgb(139,69,19)" x1="25.4551957044485" x2="50.07742920864944" y1="-17.90623688042929" y2="-42.31867158769665" /><line stroke="rgb(139,69,19)" x1="25.4551957044485" x2="55.236980504880165" y1="-17.90623688042929" y2="-36.204832333875544" /><line stroke="rgb(139,69,19)" x1="91.77176951120978" x2="88.1048819181476" y1="-7.6882170719589915" y2="-214.80201976030264" /><line stroke="rgb(139,69,19)" x1="91.77176951120978" x2="161.71701229382785" y1="-7.6882170719589915" y2="-111.35951603567548" /><line stroke="rgb(139,69,19)" x1="91.77176951120978" x2="166.87656359005857" y1="-7.6882170719589915" y2="-105.24567678185437" /><line stroke="rgb(139,69,19)" x1="99.70410531167822" x2="95.73802473814969" y1="-8.72650833581843" y2="-232.73938260718168" /><line stroke="rgb(139,69,19)" x1="99.70410531167822" x2="175.00093871428808" y1="-8.72650833581843" y2="-124.16525983869099" /><line stroke="rgb(139,69,19)" x1="99.70410531167822" x2="180.1604900105188" y1="-8.72650833581843" y2="-118.05142058486987" /><line stroke="rgb(139,69,19)" x1="32.54556064682498" x2="30.65305906976744" y1="-25.894459118818066" y2="-132.78707261470913" /><line stroke="rgb(139,69,19)" x1="32.54556064682498" x2="61.733846062570514" y1="-25.894459118818066" y2="-67.96835403148734" /><line stroke="rgb(139,69,19)" x1="32.54556064682498" x2="66.89339735880124" y1="-25.894459118818066" y2="-61.85451477766623" /><line stroke="rgb(139,69,19)" x1="105.70921991803789" x2="101.37492862085266" y1="-17.517823479546774" y2="-262.32804188315265" /><line stroke="rgb(139,69,19)" x1="105.70921991803789" x2="184.81081888852177" y1="-17.517823479546774" y2="-149.9643341435663" /><line stroke="rgb(139,69,19)" x1="105.70921991803789" x2="189.97037018475248" y1="-17.517823479546774" y2="-143.8504948897452" /><line stroke="rgb(139,69,19)" x1="113.64155571850632" x2="109.00807144085475" y1="-18.556114743406212" y2="-280.2654047300316" /><line stroke="rgb(139,69,19)" x1="113.64155571850632" x2="198.094745308982" y1="-18.556114743406212" y2="-162.7700779465817" /><line stroke="rgb(139,69,19)" x1="113.64155571850632" x2="203.25429660521272" y1="-18.556114743406212" y2="-156.65623869276058" /><circle cx="0" cy="-300" fill="rgb(255,255,0)" r="10" stroke="rgb(255,255,0)" /></svg>