<?xml version="1.0" encoding="utf-8" ?>
<svg baseProfile="full" height="100%" version="1.1" viewBox="-400 -400 800 400" width="100%" xmlns="http://www.w3.org/2000/svg" xmlns:ev="http://www.w3.org/2001/xml-events" xmlns:xlink="http://www.w3.org/1999/xlink"><defs /><circle cx="0.0" cy="-216.0" fill="rgb(0,255,0)" r="2" stroke="rgb(0,255,0)" /><circle cx="9.783832149090419" cy="-216.6397586307688" fill="rgb(0,255,0)" r="2" stroke="rgb(0,255,0)" /><circle cx="-20.997740766735436" cy="-225.38588742170802" fill="rgb(0,255,0)" r="2" stroke="rgb(0,255,0)" /><circle cx="-16.30493949324945" cy="-215.693094341882" fill="rgb(0,255,0)" r="2" stroke="rgb(0,255,0)" /><circle cx="-6.53667159055097" cy="-216.27825960274905" fill="rgb(0,255,0)" r="2" stroke="rgb(0,255,0)" /><circle cx="-37.30268025998488" cy="-225.07898176359" fill="rgb(0,255,0)" r="2" stroke="rgb(0,255,0)" /><circle cx="-41.99548153347087" cy="-234.77177484341604" fill="rgb(0,255,0)" r="2" stroke="rgb(0,255,0)" /><circle cx="-31.445522206446554" cy="-238.7964479629169" fill="rgb(0,255,0)" r="2" stroke="rgb(0,255,0)" /><circle cx="-62.99322230020631" cy="-244.15766226512406" fill="rgb(0,255,0)" r="2" stroke="rgb(0,255,0)" /><circle cx="-106.29252919878198" cy="-249.44820438218846" fill="rgb(0,255,0)" r="2" stroke="rgb(0,255,0)" /><circle cx="-95.40175297617115" cy="-256.16529353123235" fill="rgb(0,255,0)" r="2" stroke="rgb(0,255,0)" /><circle cx="-127.29026996551741" cy="-258.83409180389646" fill="rgb(0,255,0)" r="2" stroke="rgb(0,255,0)" /><circle cx="-119.41037064945955" cy="-254.43295985053106" fill="rgb(0,255,0)" r="2" stroke="rgb(0,255,0)" /><circle cx="-108.45594373690778" cy="-262.06985310566404" fill="rgb(0,255,0)" r="2" stroke="rgb(0,255,0)" /><circle cx="-140.408111416195" cy="-263.81884727223905" fill="rgb(0,255,0)" r="2" stroke="rgb(0,255,0)" /><circle cx="-148.28801073225284" cy="-268.2199792256045" fill="rgb(0,255,0)" r="2" stroke="rgb(0,255,0)" /><circle cx="-137.2957593286756" cy="-278.40611719766093" fill="rgb(0,255,0)" r="2" stroke="rgb(0,255,0)" /><circle cx="-169.28575149898828" cy="-277.6058666473125" fill="rgb(0,255,0)" r="2" stroke="rgb(0,255,0)" /><circle cx="-127.81233510186787" cy="-273.1314886538749" fill="rgb(0,255,0)" r="2" stroke="rgb(0,255,0)" /><circle cx="-116.85569112351766" cy="-284.2253853153229" fill="rgb(0,255,0)" r="2" stroke="rgb(0,255,0)" /><circle cx="-148.81007586860332" cy="-282.5173760755829" fill="rgb(0,255,0)" r="2" stroke="rgb(0,255,0)" /><circle cx="-139.31883141263216" cy="-282.1861764806187" fill="rgb(0,255,0)" r="2" stroke="rgb(0,255,0)" /><circle cx="-128.49530038375767" cy="-294.9494388163569" fill="rgb(0,255,0)" r="2" stroke="rgb(0,255,0)" /><circle cx="-160.3165721793676" cy="-291.5720639023267" fill="rgb(0,255,0)" r="2" stroke="rgb(0,255,0)" /><circle cx="-169.80781663533875" cy="-291.90326349729094" fill="rgb(0,255,0)" r="2" stroke="rgb(0,255,0)" /><circle cx="-159.2240693393531" cy="-306.4476014367615" fill="rgb(0,255,0)" r="2" stroke="rgb(0,255,0)" /><circle cx="-190.8055574020742" cy="-301.2891509189989" fill="rgb(0,255,0)" r="2" stroke="rgb(0,255,0)" /><line stroke="rgb(139,69,19)" x1="0" x2="0.0" y1="0" y2="-72.0" /><line stroke="rgb(139,69,19)" x1="0" x2="-106.29252919878198" y1="0" y2="-105.44820438218848" /><line stroke="rgb(139,69,19)" x1="0" x2="-127.81233510186787" y1="0" y2="-129.1314886538749" /><line stroke="rgb(139,69,19)" x1="0.0" x2="0.0" y1="-72.0" y2="-144.0" /><line stroke="rgb(139,69,19)" x1="0.0" x2="-16.30493949324945" y1="-72.0" y2="-143.693094341882" /><line stroke="rgb(139,69,19)" x1="0.0" x2="-41.99548153347087" y1="-72.0" y2="-162.77177484341604" /><line stroke="rgb(139,69,19)" x1="-106.29252919878198" x2="-106.29252919878198" y1="-105.44820438218848" y2="-177.44820438218846" /><line stroke="rgb(139,69,19)" x1="-106.29252919878198" x2="-119.41037064945955" y1="-105.44820438218848" y2="-182.43295985053106" /><line stroke="rgb(139,69,19)" x1="-106.29252919878198" x2="-148.28801073225284" y1="-105.44820438218848" y2="-196.2199792256045" /><line stroke="rgb(139,69,19)" x1="-127.81233510186787" x2="-127.81233510186787" y1="-129.1314886538749" y2="-201.1314886538749" /><line stroke="rgb(139,69,19)" x1="-127.81233510186787" x2="-139.31883141263216" y1="-129.1314886538749" y2="-210.1861764806187" /><line stroke="rgb(139,69,19)" x1="-127.81233510186787" x2="-169.80781663533875" y1="-129.1314886538749" y2="-219.90326349729094" /><line stroke="rgb(139,69,19)" x1="0.0" x2="0.0" y1="-144.0" y2="-216.0" /><line stroke="rgb(139,69,19)" x1="0.0" x2="9.783832149090419" y1="-144.0" y2="-216.6397586307688" /><line stroke="rgb(139,69,19)" x1="0.0" x2="-20.997740766735436" y1="-144.0" y2="-225.38588742170802" /><line stroke="rgb(139,69,19)" x1="-16.30493949324945" x2="-16.30493949324945" y1="-143.693094341882" y2="-215.693094341882" /><line stroke="rgb(139,69,19)" x1="-16.30493949324945" x2="-6.53667159055097" y1="-143.693094341882" y2="-216.27825960274905" /><line stroke="rgb(139,69,19)" x1="-16.30493949324945" x2="-37.30268025998488" y1="-143.693094341882" y2="-225.07898176359" /><line stroke="rgb(139,69,19)" x1="-41.99548153347087" x2="-41.99548153347087" y1="-162.77177484341604" y2="-234.77177484341604" /><line stroke="rgb(139,69,19)" x1="-41.99548153347087" x2="-31.445522206446554" y1="-162.77177484341604" y2="-238.7964479629169" /><line stroke="rgb(139,69,19)" x1="-41.99548153347087" x2="-62.99322230020631" y1="-162.77177484341604" y2="-244.15766226512406" /><line stroke="rgb(139,69,19)" x1="-106.29252919878198" x2="-106.29252919878198" y1="-177.44820438218846" y2="-249.44820438218846" /><line stroke="rgb(139,69,19)" x1="-106.29252919878198" x2="-95.40175297617115" y1="-177.44820438218846" y2="-256.16529353123235" /><line stroke="rgb(139,69,19)" x1="-106.29252919878198" x2="-127.29026996551741" y1="-177.44820438218846" y2="-258.83409180389646" /><line stroke="rgb(139,69,19)" x1="-119.41037064945955" x2="-119.41037064945955" y1="-182.43295985053106" y2="-254.43295985053106" /><line stroke="rgb(139,69,19)" x1="-119.41037064945955" x2="-108.45594373690778" y1="-182.43295985053106" y2="-262.06985310566404" /><line stroke="rgb(139,69,19)" x1="-119.41037064945955" x2="-140.408111416195" y1="-182.43295985053106" y2="-263.81884727223905" /><line stroke="rgb(139,69,19)" x1="-148.28801073225284" x2="-148.28801073225284" y1="-196.2199792256045" y2="-268.2199792256045" /><line stroke="rgb(139,69,19)" x1="-148.28801073225284" x2="-137.2957593286756" y1="-196.2199792256045" y2="-278.40611719766093" /><line stroke="rgb(139,69,19)" x1="-148.28801073225284" x2="-169.28575149898828" y1="-196.2199792256045" y2="-277.6058666473125" /><line stroke="rgb(139,69,19)" x1="-127.81233510186787" x2="-127.81233510186787" y1="-201.1314886538749" y2="-273.1314886538749" /><line stroke="rgb(139,69,19)" x1="-127.81233510186787" x2="-116.85569112351766" y1="-201.1314886538749" y2="-284.2253853153229" /><line stroke="rgb(139,69,19)" x1="-127.81233510186787" x2="-148.81007586860332" y1="-201.1314886538749" y2="-282.5173760755829" /><line stroke="rgb(139,69,19)" x1="-139.31883141263216" x2="-139.31883141263216" y1="-210.1861764806187" y2="-282.1861764806187" /><line stroke="rgb(139,69,19)" x1="-139.31883141263216" x2="-128.49530038375767" y1="-210.1861764806187" y2="-294.9494388163569" /><line stroke="rgb(139,69,19)" x1="-139.31883141263216" x2="-160.3165721793676" y1="-210.1861764806187" y2="-291.5720639023267" /><line stroke="rgb(139,69,19)" x1="-169.80781663533875" x2="-169.80781663533875" y1="-219.90326349729094" y2="-291.90326349729094" /><line stroke="rgb(139,69,19)" x1="-169.80781663533875" x2="-159.2240693393531" y1="-219.90326349729094" y2="-306.4476014367615" /><line stroke="rgb(139,69,19)" x1="-169.80781663533875" x2="-190.8055574020742" y1="-219.90326349729094" y2="-301.2891509189989" /><circle cx="0" cy="-300" fill="rgb(255,255,0)" r="10" stroke="rgb(255,255,0)" /></svg>