<?xml version="1.0" encoding="utf-8" ?>
<svg baseProfile="full" height="100%" version="1.1" viewBox="-400 -400 800 400" width="100%" xmlns="http://www.w3.org/2000/svg" xmlns:ev="http://www.w3.org/2001/xml-events" xmlns:xlink="http://www.w3.org/1999/xlink"><defs /><circle cx="-60.526266348545" cy="-260.03163611030106" fill="rgb(0,255,0)" r="2" stroke="rgb(0,255,0)" /><circle cx="-58.22024197292736" cy="-170.0611840075187" fill="rgb(0,255,0)" r="2" stroke="rgb(0,255,0)" /><circle cx="-86.51503954755731" cy="-254.0734044399106" fill="rgb(0,255,0)" r="2" stroke="rgb(0,255,0)" /><circle cx="-97.28706076418803" cy="-342.1817669314436" fill="rgb(0,255,0)" r="2" stroke="rgb(0,255,0)" /><circle cx="-185.67792312627114" cy="-325.23905608319734" fill="rgb(0,255,0)" r="2" stroke="rgb(0,255,0)" /><circle cx="-122.29704336460388" cy="-325.5001464999929" fill="rgb(0,255,0)" r="2" stroke="rgb(0,255,0)" /><circle cx="-73.63611902110722" cy="-287.0350234988845" fill="rgb(0,255,0)" r="2" stroke="rgb(0,255,0)" /><circle cx="-160.39329956951596" cy="-263.0936028373864" fill="rgb(0,255,0)" r="2" stroke="rgb(0,255,0)" /><circle cx="-103.32643571004401" cy="-285.5308449685898" fill="rgb(0,255,0)" r="2" stroke="rgb(0,255,0)" /><circle cx="-5.9390664520806595" cy="-188.47580051694467" fill="rgb(0,255,0)" r="2" stroke="rgb(0,255,0)" /><circle cx="-92.32129183549708" cy="-213.7366622957647" fill="rgb(0,255,0)" r="2" stroke="rgb(0,255,0)" /><circle cx="-11.924715779527624" cy="-215.42490332461784" fill="rgb(0,255,0)" r="2" stroke="rgb(0,255,0)" /><circle cx="83.5106905592254" cy="-198.41264964623622" fill="rgb(0,255,0)" r="2" stroke="rgb(0,255,0)" /><circle cx="24.781782042849905" cy="-130.21503015350612" fill="rgb(0,255,0)" r="2" stroke="rgb(0,255,0)" /><circle cx="80.78798301452464" cy="-168.6679026770934" fill="rgb(0,255,0)" r="2" stroke="rgb(0,255,0)" /><circle cx="18.82001256497994" cy="-173.72404834669356" fill="rgb(0,255,0)" r="2" stroke="rgb(0,255,0)" /><circle cx="77.05725080989909" cy="-105.1060909185937" fill="rgb(0,255,0)" r="2" stroke="rgb(0,255,0)" /><circle cx="47.6407984180626" cy="-165.78235374494182" fill="rgb(0,255,0)" r="2" stroke="rgb(0,255,0)" /><circle cx="-39.39155473969188" cy="-238.63569977981263" fill="rgb(0,255,0)" r="2" stroke="rgb(0,255,0)" /><circle cx="-13.92764220156096" cy="-152.31311201594622" fill="rgb(0,255,0)" r="2" stroke="rgb(0,255,0)" /><circle cx="-57.925969364083585" cy="-253.97494077102527" fill="rgb(0,255,0)" r="2" stroke="rgb(0,255,0)" /><circle cx="-96.12163180698869" cy="-308.50485145591756" fill="rgb(0,255,0)" r="2" stroke="rgb(0,255,0)" /><circle cx="-121.49955065277047" cy="-222.15694334543167" fill="rgb(0,255,0)" r="2" stroke="rgb(0,255,0)" /><circle cx="-84.23028047072565" cy="-329.59323518994006" fill="rgb(0,255,0)" r="2" stroke="rgb(0,255,0)" /><circle cx="-47.04653746782888" cy="-213.9803542437283" fill="rgb(0,255,0)" r="2" stroke="rgb(0,255,0)" /><circle cx="36.21085239471412" cy="-179.80131047014504" fill="rgb(0,255,0)" r="2" stroke="rgb(0,255,0)" /><circle cx="-28.285791283878204" cy="-235.52545494459687" fill="rgb(0,255,0)" r="2" stroke="rgb(0,255,0)" /><line stroke="rgb(139,69,19)" x1="0" x2="-71.13827693468605" y1="0" y2="-52.10610439190605" /><line stroke="rgb(139,69,19)" x1="0" x2="-16.5510770382217" y1="0" y2="19.449731201450298" /><line stroke="rgb(139,69,19)" x1="0" x2="-50.003565325832916" y1="0" y2="-30.71016806141762" /><line stroke="rgb(139,69,19)" x1="-71.13827693468605" x2="-100.22898739794672" y1="-52.10610439190605" y2="-158.9675541538323" /><line stroke="rgb(139,69,19)" x1="-71.13827693468605" x2="-136.98978181358976" y1="-52.10610439190605" y2="-241.11768497497482" /><line stroke="rgb(139,69,19)" x1="-71.13827693468605" x2="-113.33884007050895" y1="-52.10610439190605" y2="-185.9709415424158" /><line stroke="rgb(139,69,19)" x1="-16.5510770382217" x2="-45.64178750148238" y1="19.449731201450298" y2="-87.41171856047595" /><line stroke="rgb(139,69,19)" x1="-16.5510770382217" x2="43.80796950982368" y1="19.449731201450298" y2="-97.3485676897675" /><line stroke="rgb(139,69,19)" x1="-16.5510770382217" x2="-20.882708484421784" y1="19.449731201450298" y2="-72.65996639022481" /><line stroke="rgb(139,69,19)" x1="-50.003565325832916" x2="-79.0942757890936" y1="-30.71016806141762" y2="-137.57161782334387" /><line stroke="rgb(139,69,19)" x1="-50.003565325832916" x2="-135.82435285639042" y1="-30.71016806141762" y2="-207.44076949944883" /><line stroke="rgb(139,69,19)" x1="-50.003565325832916" x2="-86.7492585172306" y1="-30.71016806141762" y2="-112.91627228725959" /><line stroke="rgb(139,69,19)" x1="-100.22898739794672" x2="-60.526266348545" y1="-158.9675541538323" y2="-260.03163611030106" /><line stroke="rgb(139,69,19)" x1="-100.22898739794672" x2="-58.22024197292736" y1="-158.9675541538323" y2="-170.0611840075187" /><line stroke="rgb(139,69,19)" x1="-100.22898739794672" x2="-86.51503954755731" y1="-158.9675541538323" y2="-254.0734044399106" /><line stroke="rgb(139,69,19)" x1="-136.98978181358976" x2="-97.28706076418803" y1="-241.11768497497482" y2="-342.1817669314436" /><line stroke="rgb(139,69,19)" x1="-136.98978181358976" x2="-185.67792312627114" y1="-241.11768497497482" y2="-325.23905608319734" /><line stroke="rgb(139,69,19)" x1="-136.98978181358976" x2="-122.29704336460388" y1="-241.11768497497482" y2="-325.5001464999929" /><line stroke="rgb(139,69,19)" x1="-113.33884007050895" x2="-73.63611902110722" y1="-185.9709415424158" y2="-287.0350234988845" /><line stroke="rgb(139,69,19)" x1="-113.33884007050895" x2="-160.39329956951596" y1="-185.9709415424158" y2="-263.0936028373864" /><line stroke="rgb(139,69,19)" x1="-113.33884007050895" x2="-103.32643571004401" y1="-185.9709415424158" y2="-285.5308449685898" /><line stroke="rgb(139,69,19)" x1="-45.64178750148238" x2="-5.9390664520806595" y1="-87.41171856047595" y2="-188.47580051694467" /><line stroke="rgb(139,69,19)" x1="-45.64178750148238" x2="-92.32129183549708" y1="-87.41171856047595" y2="-213.7366622957647" /><line stroke="rgb(139,69,19)" x1="-45.64178750148238" x2="-11.924715779527624" y1="-87.41171856047595" y2="-215.42490332461784" /><line stroke="rgb(139,69,19)" x1="43.80796950982368" x2="83.5106905592254" y1="-97.3485676897675" y2="-198.41264964623622" /><line stroke="rgb(139,69,19)" x1="43.80796950982368" x2="24.781782042849905" y1="-97.3485676897675" y2="-130.21503015350612" /><line stroke="rgb(139,69,19)" x1="43.80796950982368" x2="80.78798301452464" y1="-97.3485676897675" y2="-168.6679026770934" /><line stroke="rgb(139,69,19)" x1="-20.882708484421784" x2="18.82001256497994" y1="-72.65996639022481" y2="-173.72404834669356" /><line stroke="rgb(139,69,19)" x1="-20.882708484421784" x2="77.05725080989909" y1="-72.65996639022481" y2="-105.1060909185937" /><line stroke="rgb(139,69,19)" x1="-20.882708484421784" x2="47.6407984180626" y1="-72.65996639022481" y2="-165.78235374494182" /><line stroke="rgb(139,69,19)" x1="-79.0942757890936" x2="-39.39155473969188" y1="-137.57161782334387" y2="-238.63569977981263" /><line stroke="rgb(139,69,19)" x1="-79.0942757890936" x2="-13.92764220156096" y1="-137.57161782334387" y2="-152.31311201594622" /><line stroke="rgb(139,69,19)" x1="-79.0942757890936" x2="-57.925969364083585" y1="-137.57161782334387" y2="-253.97494077102527" /><line stroke="rgb(139,69,19)" x1="-135.82435285639042" x2="-96.12163180698869" y1="-207.44076949944883" y2="-308.50485145591756" /><line stroke="rgb(139,69,19)" x1="-135.82435285639042" x2="-121.49955065277047" y1="-207.44076949944883" y2="-222.15694334543167" /><line stroke="rgb(139,69,19)" x1="-135.82435285639042" x2="-84.23028047072565" y1="-207.44076949944883" y2="-329.59323518994006" /><line stroke="rgb(139,69,19)" x1="-86.7492585172306" x2="-47.04653746782888" y1="-112.91627228725959" y2="-213.9803542437283" /><line stroke="rgb(139,69,19)" x1="-86.7492585172306" x2="36.21085239471412" y1="-112.91627228725959" y2="-179.80131047014504" /><line stroke="rgb(139,69,19)" x1="-86.7492585172306" x2="-28.285791283878204" y1="-112.91627228725959" y2="-235.52545494459687" /><circle cx="0" cy="-300" fill="rgb(255,255,0)" r="10" stroke="rgb(255,255,0)" /></svg>