<?xml version="1.0" encoding="utf-8" ?>
<svg baseProfile="full" height="100%" version="1.1" viewBox="-400 -400 800 400" width="100%" xmlns="http://www.w3.org/2000/svg" xmlns:ev="http://www.w3.org/2001/xml-events" xmlns:xlink="http://www.w3.org/1999/xlink"><defs /><circle cx="0.0" cy="-234.0" fill="rgb(0,255,0)" r="2" stroke="rgb(0,255,0)" /><circle cx="-27.39390363751747" cy="-206.24078453020678" fill="rgb(0,255,0)" r="2" stroke="rgb(0,255,0)" /><circle cx="-50.573360561570716" cy="-182.75221759422791" fill="rgb(0,255,0)" r="2" stroke="rgb(0,255,0)" /><circle cx="37.343274170470075" cy="-245.98151090359056" fill="rgb(0,255,0)" r="2" stroke="rgb(0,255,0)" /><circle cx="29.827898457033193" cy="-207.71247475312182" fill="rgb(0,255,0)" r="2" stroke="rgb(0,255,0)" /><circle cx="23.46873439181737" cy="-175.3309826258021" fill="rgb(0,255,0)" r="2" stroke="rgb(0,255,0)" /><circle cx="68.94142923779091" cy="-256.11971243739794" fill="rgb(0,255,0)" r="2" stroke="rgb(0,255,0)" /><circle cx="99.66826091984198" cy="-280.1376602011621" fill="rgb(0,255,0)" r="2" stroke="rgb(0,255,0)" /><circle cx="125.66788772773135" cy="-300.4605390781933" fill="rgb(0,255,0)" r="2" stroke="rgb(0,255,0)" /><circle cx="-36.56510350337034" cy="-240.6327362096497" fill="rgb(0,255,0)" r="2" stroke="rgb(0,255,0)" /><circle cx="-71.8092673782568" cy="-223.9339664118428" fill="rgb(0,255,0)" r="2" stroke="rgb(0,255,0)" /><circle cx="-101.63125219546842" cy="-209.8042381213908" fill="rgb(0,255,0)" r="2" stroke="rgb(0,255,0)" /><circle cx="-62.256487398157475" cy="-210.00051070394642" fill="rgb(0,255,0)" r="2" stroke="rgb(0,255,0)" /><circle cx="-99.00789060901982" cy="-223.05173141438638" fill="rgb(0,255,0)" r="2" stroke="rgb(0,255,0)" /><circle cx="-130.1052317874418" cy="-234.09507201552788" fill="rgb(0,255,0)" r="2" stroke="rgb(0,255,0)" /><circle cx="-83.99535069374657" cy="-184.08093527604368" fill="rgb(0,255,0)" r="2" stroke="rgb(0,255,0)" /><circle cx="-119.18702159514321" cy="-167.27182170132494" fill="rgb(0,255,0)" r="2" stroke="rgb(0,255,0)" /><circle cx="-148.96458928094034" cy="-153.04872559963985" fill="rgb(0,255,0)" r="2" stroke="rgb(0,255,0)" /><circle cx="-67.50480646776064" cy="-246.24505146396865" fill="rgb(0,255,0)" r="2" stroke="rgb(0,255,0)" /><circle cx="-84.72980704666688" cy="-211.25506210905917" fill="rgb(0,255,0)" r="2" stroke="rgb(0,255,0)" /><circle cx="-99.30480753651061" cy="-181.64814803952038" fill="rgb(0,255,0)" r="2" stroke="rgb(0,255,0)" /><circle cx="-103.71458216726202" cy="-257.47971571398057" fill="rgb(0,255,0)" r="2" stroke="rgb(0,255,0)" /><circle cx="-73.79912194189644" cy="-232.4584199940429" fill="rgb(0,255,0)" r="2" stroke="rgb(0,255,0)" /><circle cx="-48.48604021274095" cy="-211.2865543848649" fill="rgb(0,255,0)" r="2" stroke="rgb(0,255,0)" /><circle cx="-134.3536231437632" cy="-266.98597007937525" fill="rgb(0,255,0)" r="2" stroke="rgb(0,255,0)" /><circle cx="-162.13345241993693" cy="-294.358969282726" fill="rgb(0,255,0)" r="2" stroke="rgb(0,255,0)" /><circle cx="-185.63946180746854" cy="-317.5207378394074" fill="rgb(0,255,0)" r="2" stroke="rgb(0,255,0)" /><line stroke="rgb(139,69,19)" x1="0" x2="0.0" y1="0" y2="-78.0" /><line stroke="rgb(139,69,19)" x1="0" x2="-37.3980467118624" y1="0" y2="-89.06282523306582" /><line stroke="rgb(139,69,19)" x1="0" x2="-69.04254777574597" y1="0" y2="-98.42367735335229" /><line stroke="rgb(139,69,19)" x1="0.0" x2="0.0" y1="-78.0" y2="-156.0" /><line stroke="rgb(139,69,19)" x1="0.0" x2="37.76621398290723" y1="-78.0" y2="-165.7320646009602" /><line stroke="rgb(139,69,19)" x1="0.0" x2="69.72224119921336" y1="-78.0" y2="-173.96688849408037" /><line stroke="rgb(139,69,19)" x1="-37.3980467118624" x2="-36.97922996552426" y1="-89.06282523306582" y2="-164.83530785629964" /><line stroke="rgb(139,69,19)" x1="-37.3980467118624" x2="-62.961587518274804" y1="-89.06282523306582" y2="-135.75065389581684" /><line stroke="rgb(139,69,19)" x1="-37.3980467118624" x2="-84.9466592936791" y1="-89.06282523306582" y2="-111.14056208310063" /><line stroke="rgb(139,69,19)" x1="-69.04254777574597" x2="-68.26934762866019" y1="-98.42367735335229" y2="-172.31133758086085" /><line stroke="rgb(139,69,19)" x1="-69.04254777574597" x2="-104.88922544381506" y1="-98.42367735335229" y2="-185.72716960139266" /><line stroke="rgb(139,69,19)" x1="-69.04254777574597" x2="-135.87527590279228" y1="-98.42367735335229" y2="-197.0790274649196" /><line stroke="rgb(139,69,19)" x1="0.0" x2="0.0" y1="-156.0" y2="-234.0" /><line stroke="rgb(139,69,19)" x1="0.0" x2="-27.39390363751747" y1="-156.0" y2="-206.24078453020678" /><line stroke="rgb(139,69,19)" x1="0.0" x2="-50.573360561570716" y1="-156.0" y2="-182.75221759422791" /><line stroke="rgb(139,69,19)" x1="37.76621398290723" x2="37.343274170470075" y1="-165.7320646009602" y2="-245.98151090359056" /><line stroke="rgb(139,69,19)" x1="37.76621398290723" x2="29.827898457033193" y1="-165.7320646009602" y2="-207.71247475312182" /><line stroke="rgb(139,69,19)" x1="37.76621398290723" x2="23.46873439181737" y1="-165.7320646009602" y2="-175.3309826258021" /><line stroke="rgb(139,69,19)" x1="69.72224119921336" x2="68.94142923779091" y1="-173.96688849408037" y2="-256.11971243739794" /><line stroke="rgb(139,69,19)" x1="69.72224119921336" x2="99.66826091984198" y1="-173.96688849408037" y2="-280.1376602011621" /><line stroke="rgb(139,69,19)" x1="69.72224119921336" x2="125.66788772773135" y1="-173.96688849408037" y2="-300.4605390781933" /><line stroke="rgb(139,69,19)" x1="-36.97922996552426" x2="-36.56510350337034" y1="-164.83530785629964" y2="-240.6327362096497" /><line stroke="rgb(139,69,19)" x1="-36.97922996552426" x2="-71.8092673782568" y1="-164.83530785629964" y2="-223.9339664118428" /><line stroke="rgb(139,69,19)" x1="-36.97922996552426" x2="-101.63125219546842" y1="-164.83530785629964" y2="-209.8042381213908" /><line stroke="rgb(139,69,19)" x1="-62.961587518274804" x2="-62.256487398157475" y1="-135.75065389581684" y2="-210.00051070394642" /><line stroke="rgb(139,69,19)" x1="-62.961587518274804" x2="-99.00789060901982" y1="-135.75065389581684" y2="-223.05173141438638" /><line stroke="rgb(139,69,19)" x1="-62.961587518274804" x2="-130.1052317874418" y1="-135.75065389581684" y2="-234.09507201552788" /><line stroke="rgb(139,69,19)" x1="-84.9466592936791" x2="-83.99535069374657" y1="-111.14056208310063" y2="-184.08093527604368" /><line stroke="rgb(139,69,19)" x1="-84.9466592936791" x2="-119.18702159514321" y1="-111.14056208310063" y2="-167.27182170132494" /><line stroke="rgb(139,69,19)" x1="-84.9466592936791" x2="-148.96458928094034" y1="-111.14056208310063" y2="-153.04872559963985" /><line stroke="rgb(139,69,19)" x1="-68.26934762866019" x2="-67.50480646776064" y1="-172.31133758086085" y2="-246.24505146396865" /><line stroke="rgb(139,69,19)" x1="-68.26934762866019" x2="-84.72980704666688" y1="-172.31133758086085" y2="-211.25506210905917" /><line stroke="rgb(139,69,19)" x1="-68.26934762866019" x2="-99.30480753651061" y1="-172.31133758086085" y2="-181.64814803952038" /><line stroke="rgb(139,69,19)" x1="-104.88922544381506" x2="-103.71458216726202" y1="-185.72716960139266" y2="-257.47971571398057" /><line stroke="rgb(139,69,19)" x1="-104.88922544381506" x2="-73.79912194189644" y1="-185.72716960139266" y2="-232.4584199940429" /><line stroke="rgb(139,69,19)" x1="-104.88922544381506" x2="-48.48604021274095" y1="-185.72716960139266" y2="-211.2865543848649" /><line stroke="rgb(139,69,19)" x1="-135.87527590279228" x2="-134.3536231437632" y1="-197.0790274649196" y2="-266.98597007937525" /><line stroke="rgb(139,69,19)" x1="-135.87527590279228" x2="-162.13345241993693" y1="-197.0790274649196" y2="-294.358969282726" /><line stroke="rgb(139,69,19)" x1="-135.87527590279228" x2="-185.63946180746854" y1="-197.0790274649196" y2="-317.5207378394074" /><circle cx="0" cy="-300" fill="rgb(255,255,0)" r="10" stroke="rgb(255,255,0)" /></svg>