<?xml version="1.0" encoding="utf-8" ?>
<svg baseProfile="full" height="100%" version="1.1" viewBox="-400 -400 800 400" width="100%" xmlns="http://www.w3.org/2000/svg" xmlns:ev="http://www.w3.org/2001/xml-events" xmlns:xlink="http://www.w3.org/1999/xlink"><defs /><circle cx="0.0" cy="-2.369565217391304" fill="rgb(0,255,0)" r="2" stroke="rgb(0,255,0)" /><circle cx="10.117491163209193" cy="-102.29116336325995" fill="rgb(0,255,0)" r="2" stroke="rgb(0,255,0)" /><circle cx="11.965953171332076" cy="-113.70608513893424" fill="rgb(0,255,0)" r="2" stroke="rgb(0,255,0)" /><circle cx="-34.016659595482004" cy="-89.23498814351319" fill="rgb(0,255,0)" r="2" stroke="rgb(0,255,0)" /><circle cx="-23.89916843227281" cy="-189.15658628938183" fill="rgb(0,255,0)" r="2" stroke="rgb(0,255,0)" /><circle cx="-18.841749149225887" cy="-177.77441808828462" fill="rgb(0,255,0)" r="2" stroke="rgb(0,255,0)" /><circle cx="-43.26838239513927" cy="-97.83848263147037" fill="rgb(0,255,0)" r="2" stroke="rgb(0,255,0)" /><circle cx="-33.150891231930075" cy="-197.760080777339" fill="rgb(0,255,0)" r="2" stroke="rgb(0,255,0)" /><circle cx="-39.86368380959315" cy="-207.10976813607812" fill="rgb(0,255,0)" r="2" stroke="rgb(0,255,0)" /><circle cx="-46.87605039795021" cy="-45.04309926388949" fill="rgb(0,255,0)" r="2" stroke="rgb(0,255,0)" /><circle cx="-36.758559234741014" cy="-144.96469740975812" fill="rgb(0,255,0)" r="2" stroke="rgb(0,255,0)" /><circle cx="-34.27557483614231" cy="-133.51325267654354" fill="rgb(0,255,0)" r="2" stroke="rgb(0,255,0)" /><circle cx="-80.89270999343222" cy="-131.90852219001138" fill="rgb(0,255,0)" r="2" stroke="rgb(0,255,0)" /><circle cx="-70.77521883022303" cy="-231.83012033588003" fill="rgb(0,255,0)" r="2" stroke="rgb(0,255,0)" /><circle cx="-78.46002458332237" cy="-240.6290600273573" fill="rgb(0,255,0)" r="2" stroke="rgb(0,255,0)" /><circle cx="-71.59846777705233" cy="-125.35418824995243" fill="rgb(0,255,0)" r="2" stroke="rgb(0,255,0)" /><circle cx="-61.48097661384314" cy="-225.27578639582106" fill="rgb(0,255,0)" r="2" stroke="rgb(0,255,0)" /><circle cx="-54.618974855081824" cy="-214.9821339231585" fill="rgb(0,255,0)" r="2" stroke="rgb(0,255,0)" /><circle cx="-56.52614931002038" cy="-46.31643930642134" fill="rgb(0,255,0)" r="2" stroke="rgb(0,255,0)" /><circle cx="-46.408658146811185" cy="-146.23803745228997" fill="rgb(0,255,0)" r="2" stroke="rgb(0,255,0)" /><circle cx="-45.12717836209805" cy="-157.71758632269197" fill="rgb(0,255,0)" r="2" stroke="rgb(0,255,0)" /><circle cx="-90.54280890550238" cy="-133.18186223254324" fill="rgb(0,255,0)" r="2" stroke="rgb(0,255,0)" /><circle cx="-80.42531774229319" cy="-233.10346037841188" fill="rgb(0,255,0)" r="2" stroke="rgb(0,255,0)" /><circle cx="-74.96994309783518" cy="-221.9415507196691" fill="rgb(0,255,0)" r="2" stroke="rgb(0,255,0)" /><circle cx="-99.67383504503803" cy="-141.75170772280987" fill="rgb(0,255,0)" r="2" stroke="rgb(0,255,0)" /><circle cx="-89.55634388182884" cy="-241.6733058686785" fill="rgb(0,255,0)" r="2" stroke="rgb(0,255,0)" /><circle cx="-98.03938248588413" cy="-249.9895306217225" fill="rgb(0,255,0)" r="2" stroke="rgb(0,255,0)" /><line stroke="rgb(139,69,19)" x1="0" x2="0.0" y1="0" y2="-0.7898550724637681" /><line stroke="rgb(139,69,19)" x1="0" x2="-46.87605039795021" y1="0" y2="-43.463389118961956" /><line stroke="rgb(139,69,19)" x1="0" x2="-56.52614931002038" y1="0" y2="-44.736729161493805" /><line stroke="rgb(139,69,19)" x1="0.0" x2="0.0" y1="-0.7898550724637681" y2="-1.5797101449275361" /><line stroke="rgb(139,69,19)" x1="0.0" x2="-34.016659595482004" y1="-0.7898550724637681" y2="-88.44513307104943" /><line stroke="rgb(139,69,19)" x1="0.0" x2="-43.26838239513927" y1="-0.7898550724637681" y2="-97.0486275590066" /><line stroke="rgb(139,69,19)" x1="-46.87605039795021" x2="-46.87605039795021" y1="-43.463389118961956" y2="-44.25324419142572" /><line stroke="rgb(139,69,19)" x1="-46.87605039795021" x2="-80.89270999343222" y1="-43.463389118961956" y2="-131.1186671175476" /><line stroke="rgb(139,69,19)" x1="-46.87605039795021" x2="-71.59846777705233" y1="-43.463389118961956" y2="-124.56433317748866" /><line stroke="rgb(139,69,19)" x1="-56.52614931002038" x2="-56.52614931002038" y1="-44.736729161493805" y2="-45.52658423395757" /><line stroke="rgb(139,69,19)" x1="-56.52614931002038" x2="-90.54280890550238" y1="-44.736729161493805" y2="-132.39200716007946" /><line stroke="rgb(139,69,19)" x1="-56.52614931002038" x2="-99.67383504503803" y1="-44.736729161493805" y2="-140.9618526503461" /><line stroke="rgb(139,69,19)" x1="0.0" x2="0.0" y1="-1.5797101449275361" y2="-2.369565217391304" /><line stroke="rgb(139,69,19)" x1="0.0" x2="10.117491163209193" y1="-1.5797101449275361" y2="-102.29116336325995" /><line stroke="rgb(139,69,19)" x1="0.0" x2="11.965953171332076" y1="-1.5797101449275361" y2="-113.70608513893424" /><line stroke="rgb(139,69,19)" x1="-34.016659595482004" x2="-34.016659595482004" y1="-88.44513307104943" y2="-89.23498814351319" /><line stroke="rgb(139,69,19)" x1="-34.016659595482004" x2="-23.89916843227281" y1="-88.44513307104943" y2="-189.15658628938183" /><line stroke="rgb(139,69,19)" x1="-34.016659595482004" x2="-18.841749149225887" y1="-88.44513307104943" y2="-177.77441808828462" /><line stroke="rgb(139,69,19)" x1="-43.26838239513927" x2="-43.26838239513927" y1="-97.0486275590066" y2="-97.83848263147037" /><line stroke="rgb(139,69,19)" x1="-43.26838239513927" x2="-33.150891231930075" y1="-97.0486275590066" y2="-197.760080777339" /><line stroke="rgb(139,69,19)" x1="-43.26838239513927" x2="-39.86368380959315" y1="-97.0486275590066" y2="-207.10976813607812" /><line stroke="rgb(139,69,19)" x1="-46.87605039795021" x2="-46.87605039795021" y1="-44.25324419142572" y2="-45.04309926388949" /><line stroke="rgb(139,69,19)" x1="-46.87605039795021" x2="-36.758559234741014" y1="-44.25324419142572" y2="-144.96469740975812" /><line stroke="rgb(139,69,19)" x1="-46.87605039795021" x2="-34.27557483614231" y1="-44.25324419142572" y2="-133.51325267654354" /><line stroke="rgb(139,69,19)" x1="-80.89270999343222" x2="-80.89270999343222" y1="-131.1186671175476" y2="-131.90852219001138" /><line stroke="rgb(139,69,19)" x1="-80.89270999343222" x2="-70.77521883022303" y1="-131.1186671175476" y2="-231.83012033588003" /><line stroke="rgb(139,69,19)" x1="-80.89270999343222" x2="-78.46002458332237" y1="-131.1186671175476" y2="-240.6290600273573" /><line stroke="rgb(139,69,19)" x1="-71.59846777705233" x2="-71.59846777705233" y1="-124.56433317748866" y2="-125.35418824995243" /><line stroke="rgb(139,69,19)" x1="-71.59846777705233" x2="-61.48097661384314" y1="-124.56433317748866" y2="-225.27578639582106" /><line stroke="rgb(139,69,19)" x1="-71.59846777705233" x2="-54.618974855081824" y1="-124.56433317748866" y2="-214.9821339231585" /><line stroke="rgb(139,69,19)" x1="-56.52614931002038" x2="-56.52614931002038" y1="-45.52658423395757" y2="-46.31643930642134" /><line stroke="rgb(139,69,19)" x1="-56.52614931002038" x2="-46.408658146811185" y1="-45.52658423395757" y2="-146.23803745228997" /><line stroke="rgb(139,69,19)" x1="-56.52614931002038" x2="-45.12717836209805" y1="-45.52658423395757" y2="-157.71758632269197" /><line stroke="rgb(139,69,19)" x1="-90.54280890550238" x2="-90.54280890550238" y1="-132.39200716007946" y2="-133.18186223254324" /><line stroke="rgb(139,69,19)" x1="-90.54280890550238" x2="-80.42531774229319" y1="-132.39200716007946" y2="-233.10346037841188" /><line stroke="rgb(139,69,19)" x1="-90.54280890550238" x2="-74.96994309783518" y1="-132.39200716007946" y2="-221.9415507196691" /><line stroke="rgb(139,69,19)" x1="-99.67383504503803" x2="-99.67383504503803" y1="-140.9618526503461" y2="-141.75170772280987" /><line stroke="rgb(139,69,19)" x1="-99.67383504503803" x2="-89.55634388182884" y1="-140.9618526503461" y2="-241.6733058686785" /><line stroke="rgb(139,69,19)" x1="-99.67383504503803" x2="-98.03938248588413" y1="-140.9618526503461" y2="-249.9895306217225" /><circle cx="0" cy="-300" fill="rgb(255,255,0)" r="10" stroke="rgb(255,255,0)" /></svg>