<?xml version="1.0" encoding="utf-8" ?>
<svg baseProfile="full" height="100%" version="1.1" viewBox="-400 -400 800 400" width="100%" xmlns="http://www.w3.org/2000/svg" xmlns:ev="http://www.w3.org/2001/xml-events" xmlns:xlink="http://www.w3.org/1999/xlink"><defs /><circle cx="16.790181342396046" cy="-120.43331537392909" fill="rgb(0,255,0)" r="2" stroke="rgb(0,255,0)" /><circle cx="36.784606752267884" cy="-130.93379195973563" fill="rgb(0,255,0)" r="2" stroke="rgb(0,255,0)" /><circle cx="49.31842283226478" cy="-192.97768487338794" fill="rgb(0,255,0)" r="2" stroke="rgb(0,255,0)" /><circle cx="-32.62950869006357" cy="-180.25211879960605" fill="rgb(0,255,0)" r="2" stroke="rgb(0,255,0)" /><circle cx="-37.41974916308703" cy="-158.18198848257782" fill="rgb(0,255,0)" r="2" stroke="rgb(0,255,0)" /><circle cx="2.092612750072213" cy="-108.73186765915146" fill="rgb(0,255,0)" r="2" stroke="rgb(0,255,0)" /><circle cx="-83.39533791398513" cy="-169.84672538909751" fill="rgb(0,255,0)" r="2" stroke="rgb(0,255,0)" /><circle cx="-95.07521890229833" cy="-189.1759115100608" fill="rgb(0,255,0)" r="2" stroke="rgb(0,255,0)" /><circle cx="-157.7587501798743" cy="-197.9688689181857" fill="rgb(0,255,0)" r="2" stroke="rgb(0,255,0)" /><circle cx="107.96719419545772" cy="-139.41240492731097" fill="rgb(0,255,0)" r="2" stroke="rgb(0,255,0)" /><circle cx="120.72871372639091" cy="-158.04518988452043" fill="rgb(0,255,0)" r="2" stroke="rgb(0,255,0)" /><circle cx="102.78853021251766" cy="-218.7468456189112" fill="rgb(0,255,0)" r="2" stroke="rgb(0,255,0)" /><circle cx="157.6456627224211" cy="-192.17790893148194" fill="rgb(0,255,0)" r="2" stroke="rgb(0,255,0)" /><circle cx="141.55507518124304" cy="-208.02499221452447" fill="rgb(0,255,0)" r="2" stroke="rgb(0,255,0)" /><circle cx="78.64115297126816" cy="-201.06944870124147" fill="rgb(0,255,0)" r="2" stroke="rgb(0,255,0)" /><circle cx="161.2125449104791" cy="-278.505935640193" fill="rgb(0,255,0)" r="2" stroke="rgb(0,255,0)" /><circle cx="139.8945491874555" cy="-271.0507284429953" fill="rgb(0,255,0)" r="2" stroke="rgb(0,255,0)" /><circle cx="118.39873391505733" cy="-211.51526742031677" fill="rgb(0,255,0)" r="2" stroke="rgb(0,255,0)" /><circle cx="140.99579512599712" cy="-169.14881203685704" fill="rgb(0,255,0)" r="2" stroke="rgb(0,255,0)" /><circle cx="163.37399451864943" cy="-166.10689686008175" fill="rgb(0,255,0)" r="2" stroke="rgb(0,255,0)" /><circle cx="209.5677904017199" cy="-209.3813051786384" fill="rgb(0,255,0)" r="2" stroke="rgb(0,255,0)" /><circle cx="181.60768982857448" cy="-233.10551472140196" fill="rgb(0,255,0)" r="2" stroke="rgb(0,255,0)" /><circle cx="170.82439044749222" cy="-213.26219064356783" fill="rgb(0,255,0)" r="2" stroke="rgb(0,255,0)" /><circle cx="194.89538035432415" cy="-154.72050773033806" fill="rgb(0,255,0)" r="2" stroke="rgb(0,255,0)" /><circle cx="186.554978154479" cy="-306.93008630500566" fill="rgb(0,255,0)" r="2" stroke="rgb(0,255,0)" /><circle cx="179.6109278867067" cy="-285.4401532693107" fill="rgb(0,255,0)" r="2" stroke="rgb(0,255,0)" /><circle cx="214.05240716984423" cy="-232.33341454250555" fill="rgb(0,255,0)" r="2" stroke="rgb(0,255,0)" /><line stroke="rgb(139,69,19)" x1="0" x2="14.456930794261316" y1="0" y2="-42.99964398539906" /><line stroke="rgb(139,69,19)" x1="0" x2="89.7617286139557" y1="0" y2="-82.42282784128457" /><line stroke="rgb(139,69,19)" x1="0" x2="137.6024236994086" y1="0" y2="-107.46814464384714" /><line stroke="rgb(139,69,19)" x1="14.456930794261316" x2="19.150290746210597" y1="-42.99964398539906" y2="-96.2464812611399" /><line stroke="rgb(139,69,19)" x1="14.456930794261316" x2="-22.789726921873545" y1="-42.99964398539906" y2="-129.9305157879122" /><line stroke="rgb(139,69,19)" x1="14.456930794261316" x2="-98.32332063864843" y1="-42.99964398539906" y2="-132.31483021238304" /><line stroke="rgb(139,69,19)" x1="89.7617286139557" x2="103.1249751998653" y1="-82.42282784128457" y2="-114.60933822991981" /><line stroke="rgb(139,69,19)" x1="89.7617286139557" x2="142.81735063954525" y1="-82.42282784128457" y2="-150.91491074923826" /><line stroke="rgb(139,69,19)" x1="89.7617286139557" x2="156.7058962012608" y1="-82.42282784128457" y2="-225.1989402389321" /><line stroke="rgb(139,69,19)" x1="137.6024236994086" x2="151.50954188175527" y1="-107.46814464384714" y2="-140.8474628469258" /><line stroke="rgb(139,69,19)" x1="137.6024236994086" x2="187.8803766606702" y1="-107.46814464384714" y2="-180.48004592556038" /><line stroke="rgb(139,69,19)" x1="137.6024236994086" x2="195.22991153020843" y1="-107.46814464384714" y2="-255.69303065723417" /><line stroke="rgb(139,69,19)" x1="19.150290746210597" x2="16.790181342396046" y1="-96.2464812611399" y2="-120.43331537392909" /><line stroke="rgb(139,69,19)" x1="19.150290746210597" x2="36.784606752267884" y1="-96.2464812611399" y2="-130.93379195973563" /><line stroke="rgb(139,69,19)" x1="19.150290746210597" x2="49.31842283226478" y1="-96.2464812611399" y2="-192.97768487338794" /><line stroke="rgb(139,69,19)" x1="-22.789726921873545" x2="-32.62950869006357" y1="-129.9305157879122" y2="-180.25211879960605" /><line stroke="rgb(139,69,19)" x1="-22.789726921873545" x2="-37.41974916308703" y1="-129.9305157879122" y2="-158.18198848257782" /><line stroke="rgb(139,69,19)" x1="-22.789726921873545" x2="2.092612750072213" y1="-129.9305157879122" y2="-108.73186765915146" /><line stroke="rgb(139,69,19)" x1="-98.32332063864843" x2="-83.39533791398513" y1="-132.31483021238304" y2="-169.84672538909751" /><line stroke="rgb(139,69,19)" x1="-98.32332063864843" x2="-95.07521890229833" y1="-132.31483021238304" y2="-189.1759115100608" /><line stroke="rgb(139,69,19)" x1="-98.32332063864843" x2="-157.7587501798743" y1="-132.31483021238304" y2="-197.9688689181857" /><line stroke="rgb(139,69,19)" x1="103.1249751998653" x2="107.96719419545772" y1="-114.60933822991981" y2="-139.41240492731097" /><line stroke="rgb(139,69,19)" x1="103.1249751998653" x2="120.72871372639091" y1="-114.60933822991981" y2="-158.04518988452043" /><line stroke="rgb(139,69,19)" x1="103.1249751998653" x2="102.78853021251766" y1="-114.60933822991981" y2="-218.7468456189112" /><line stroke="rgb(139,69,19)" x1="142.81735063954525" x2="157.6456627224211" y1="-150.91491074923826" y2="-192.17790893148194" /><line stroke="rgb(139,69,19)" x1="142.81735063954525" x2="141.55507518124304" y1="-150.91491074923826" y2="-208.02499221452447" /><line stroke="rgb(139,69,19)" x1="142.81735063954525" x2="78.64115297126816" y1="-150.91491074923826" y2="-201.06944870124147" /><line stroke="rgb(139,69,19)" x1="156.7058962012608" x2="161.2125449104791" y1="-225.1989402389321" y2="-278.505935640193" /><line stroke="rgb(139,69,19)" x1="156.7058962012608" x2="139.8945491874555" y1="-225.1989402389321" y2="-271.0507284429953" /><line stroke="rgb(139,69,19)" x1="156.7058962012608" x2="118.39873391505733" y1="-225.1989402389321" y2="-211.51526742031677" /><line stroke="rgb(139,69,19)" x1="151.50954188175527" x2="140.99579512599712" y1="-140.8474628469258" y2="-169.14881203685704" /><line stroke="rgb(139,69,19)" x1="151.50954188175527" x2="163.37399451864943" y1="-140.8474628469258" y2="-166.10689686008175" /><line stroke="rgb(139,69,19)" x1="151.50954188175527" x2="209.5677904017199" y1="-140.8474628469258" y2="-209.3813051786384" /><line stroke="rgb(139,69,19)" x1="187.8803766606702" x2="181.60768982857448" y1="-180.48004592556038" y2="-233.10551472140196" /><line stroke="rgb(139,69,19)" x1="187.8803766606702" x2="170.82439044749222" y1="-180.48004592556038" y2="-213.26219064356783" /><line stroke="rgb(139,69,19)" x1="187.8803766606702" x2="194.89538035432415" y1="-180.48004592556038" y2="-154.72050773033806" /><line stroke="rgb(139,69,19)" x1="195.22991153020843" x2="186.554978154479" y1="-255.69303065723417" y2="-306.93008630500566" /><line stroke="rgb(139,69,19)" x1="195.22991153020843" x2="179.6109278867067" y1="-255.69303065723417" y2="-285.4401532693107" /><line stroke="rgb(139,69,19)" x1="195.22991153020843" x2="214.05240716984423" y1="-255.69303065723417" y2="-232.33341454250555" /><circle cx="0" cy="-300" fill="rgb(255,255,0)" r="10" stroke="rgb(255,255,0)" /></svg>