<?xml version="1.0" encoding="utf-8" ?>
<svg baseProfile="full" height="100%" version="1.1" viewBox="-400 -400 800 400" width="100%" xmlns="http://www.w3.org/2000/svg" xmlns:ev="http://www.w3.org/2001/xml-events" xmlns:xlink="http://www.w3.org/1999/xlink"><defs /><circle cx="-105.10473776279774" cy="-73.9453570744601" fill="rgb(0,255,0)" r="2" stroke="rgb(0,255,0)" /><circle cx="23.76339459511381" cy="-110.94996476688604" fill="rgb(0,255,0)" r="2" stroke="rgb(0,255,0)" /><circle cx="73.28949233365975" cy="-124.01564557736323" fill="rgb(0,255,0)" r="2" stroke="rgb(0,255,0)" /><circle cx="-8.552629287145962" cy="-128.97815355310541" fill="rgb(0,255,0)" r="2" stroke="rgb(0,255,0)" /><circle cx="120.31550307076559" cy="-165.98276124553138" fill="rgb(0,255,0)" r="2" stroke="rgb(0,255,0)" /><circle cx="169.84160080931153" cy="-179.04844205600855" fill="rgb(0,255,0)" r="2" stroke="rgb(0,255,0)" /><circle cx="29.89594105296416" cy="-148.42501700412376" fill="rgb(0,255,0)" r="2" stroke="rgb(0,255,0)" /><circle cx="158.7640734108757" cy="-185.42962469654972" fill="rgb(0,255,0)" r="2" stroke="rgb(0,255,0)" /><circle cx="208.29017114942167" cy="-198.4953055070269" fill="rgb(0,255,0)" r="2" stroke="rgb(0,255,0)" /><circle cx="-56.61262171007475" cy="-155.78945371867036" fill="rgb(0,255,0)" r="2" stroke="rgb(0,255,0)" /><circle cx="72.2555106478368" cy="-192.79406141109632" fill="rgb(0,255,0)" r="2" stroke="rgb(0,255,0)" /><circle cx="121.78160838638274" cy="-205.8597422215735" fill="rgb(0,255,0)" r="2" stroke="rgb(0,255,0)" /><circle cx="39.93948676557707" cy="-210.8222501973156" fill="rgb(0,255,0)" r="2" stroke="rgb(0,255,0)" /><circle cx="168.80761912348862" cy="-247.82685788974158" fill="rgb(0,255,0)" r="2" stroke="rgb(0,255,0)" /><circle cx="218.33371686203458" cy="-260.8925387002187" fill="rgb(0,255,0)" r="2" stroke="rgb(0,255,0)" /><circle cx="78.38805710568718" cy="-230.26911364833398" fill="rgb(0,255,0)" r="2" stroke="rgb(0,255,0)" /><circle cx="207.25618946359873" cy="-267.27372134075995" fill="rgb(0,255,0)" r="2" stroke="rgb(0,255,0)" /><circle cx="256.7822872021447" cy="-280.3394021512371" fill="rgb(0,255,0)" r="2" stroke="rgb(0,255,0)" /><circle cx="85.4150821409252" cy="-193.56117930442318" fill="rgb(0,255,0)" r="2" stroke="rgb(0,255,0)" /><circle cx="214.28321449883674" cy="-230.56578699684914" fill="rgb(0,255,0)" r="2" stroke="rgb(0,255,0)" /><circle cx="263.8093122373827" cy="-243.63146780732632" fill="rgb(0,255,0)" r="2" stroke="rgb(0,255,0)" /><circle cx="181.96719061657697" cy="-248.59397578306846" fill="rgb(0,255,0)" r="2" stroke="rgb(0,255,0)" /><circle cx="310.8353229744885" cy="-285.5985834754944" fill="rgb(0,255,0)" r="2" stroke="rgb(0,255,0)" /><circle cx="360.3614207130345" cy="-298.66426428597157" fill="rgb(0,255,0)" r="2" stroke="rgb(0,255,0)" /><circle cx="220.41576095668708" cy="-268.0408392340869" fill="rgb(0,255,0)" r="2" stroke="rgb(0,255,0)" /><circle cx="349.28389331459863" cy="-305.0454469265128" fill="rgb(0,255,0)" r="2" stroke="rgb(0,255,0)" /><circle cx="398.8099910531446" cy="-318.11112773698994" fill="rgb(0,255,0)" r="2" stroke="rgb(0,255,0)" /><line stroke="rgb(139,69,19)" x1="0" x2="-18.286094325838107" y1="0" y2="-14.879474535003325" /><line stroke="rgb(139,69,19)" x1="0" x2="110.58203803207344" y1="0" y2="-51.884082227429275" /><line stroke="rgb(139,69,19)" x1="0" x2="289.70393628481884" y1="0" y2="-68.9620138618012" /><line stroke="rgb(139,69,19)" x1="-18.286094325838107" x2="-50.87455931021702" y1="-14.879474535003325" y2="-38.16312349385416" /><line stroke="rgb(139,69,19)" x1="-18.286094325838107" x2="77.99357304769453" y1="-14.879474535003325" y2="-75.1677311862801" /><line stroke="rgb(139,69,19)" x1="-18.286094325838107" x2="127.86161221239932" y1="-14.879474535003325" y2="-88.24399841054064" /><line stroke="rgb(139,69,19)" x1="110.58203803207344" x2="45.67754916543476" y1="-51.884082227429275" y2="-93.19591997249947" /><line stroke="rgb(139,69,19)" x1="110.58203803207344" x2="174.5456815233463" y1="-51.884082227429275" y2="-130.2005276649254" /><line stroke="rgb(139,69,19)" x1="110.58203803207344" x2="224.41372068805111" y1="-51.884082227429275" y2="-143.27679488918596" /><line stroke="rgb(139,69,19)" x1="289.70393628481884" x2="209.88533587987774" y1="-68.9620138618012" y2="-118.59400941374965" /><line stroke="rgb(139,69,19)" x1="289.70393628481884" x2="338.7534682377893" y1="-68.9620138618012" y2="-155.5986171061756" /><line stroke="rgb(139,69,19)" x1="289.70393628481884" x2="388.6215074024941" y1="-68.9620138618012" y2="-168.67488433043616" /><line stroke="rgb(139,69,19)" x1="-50.87455931021702" x2="-105.10473776279774" y1="-38.16312349385416" y2="-73.9453570744601" /><line stroke="rgb(139,69,19)" x1="-50.87455931021702" x2="23.76339459511381" y1="-38.16312349385416" y2="-110.94996476688604" /><line stroke="rgb(139,69,19)" x1="-50.87455931021702" x2="73.28949233365975" y1="-38.16312349385416" y2="-124.01564557736323" /><line stroke="rgb(139,69,19)" x1="77.99357304769453" x2="-8.552629287145962" y1="-75.1677311862801" y2="-128.97815355310541" /><line stroke="rgb(139,69,19)" x1="77.99357304769453" x2="120.31550307076559" y1="-75.1677311862801" y2="-165.98276124553138" /><line stroke="rgb(139,69,19)" x1="77.99357304769453" x2="169.84160080931153" y1="-75.1677311862801" y2="-179.04844205600855" /><line stroke="rgb(139,69,19)" x1="127.86161221239932" x2="29.89594105296416" y1="-88.24399841054064" y2="-148.42501700412376" /><line stroke="rgb(139,69,19)" x1="127.86161221239932" x2="158.7640734108757" y1="-88.24399841054064" y2="-185.42962469654972" /><line stroke="rgb(139,69,19)" x1="127.86161221239932" x2="208.29017114942167" y1="-88.24399841054064" y2="-198.4953055070269" /><line stroke="rgb(139,69,19)" x1="45.67754916543476" x2="-56.61262171007475" y1="-93.19591997249947" y2="-155.78945371867036" /><line stroke="rgb(139,69,19)" x1="45.67754916543476" x2="72.2555106478368" y1="-93.19591997249947" y2="-192.79406141109632" /><line stroke="rgb(139,69,19)" x1="45.67754916543476" x2="121.78160838638274" y1="-93.19591997249947" y2="-205.8597422215735" /><line stroke="rgb(139,69,19)" x1="174.5456815233463" x2="39.93948676557707" y1="-130.2005276649254" y2="-210.8222501973156" /><line stroke="rgb(139,69,19)" x1="174.5456815233463" x2="168.80761912348862" y1="-130.2005276649254" y2="-247.82685788974158" /><line stroke="rgb(139,69,19)" x1="174.5456815233463" x2="218.33371686203458" y1="-130.2005276649254" y2="-260.8925387002187" /><line stroke="rgb(139,69,19)" x1="224.41372068805111" x2="78.38805710568718" y1="-143.27679488918596" y2="-230.26911364833398" /><line stroke="rgb(139,69,19)" x1="224.41372068805111" x2="207.25618946359873" y1="-143.27679488918596" y2="-267.27372134075995" /><line stroke="rgb(139,69,19)" x1="224.41372068805111" x2="256.7822872021447" y1="-143.27679488918596" y2="-280.3394021512371" /><line stroke="rgb(139,69,19)" x1="209.88533587987774" x2="85.4150821409252" y1="-118.59400941374965" y2="-193.56117930442318" /><line stroke="rgb(139,69,19)" x1="209.88533587987774" x2="214.28321449883674" y1="-118.59400941374965" y2="-230.56578699684914" /><line stroke="rgb(139,69,19)" x1="209.88533587987774" x2="263.8093122373827" y1="-118.59400941374965" y2="-243.63146780732632" /><line stroke="rgb(139,69,19)" x1="338.7534682377893" x2="181.96719061657697" y1="-155.5986171061756" y2="-248.59397578306846" /><line stroke="rgb(139,69,19)" x1="338.7534682377893" x2="310.8353229744885" y1="-155.5986171061756" y2="-285.5985834754944" /><line stroke="rgb(139,69,19)" x1="338.7534682377893" x2="360.3614207130345" y1="-155.5986171061756" y2="-298.66426428597157" /><line stroke="rgb(139,69,19)" x1="388.6215074024941" x2="220.41576095668708" y1="-168.67488433043616" y2="-268.0408392340869" /><line stroke="rgb(139,69,19)" x1="388.6215074024941" x2="349.28389331459863" y1="-168.67488433043616" y2="-305.0454469265128" /><line stroke="rgb(139,69,19)" x1="388.6215074024941" x2="398.8099910531446" y1="-168.67488433043616" y2="-318.11112773698994" /><circle cx="0" cy="-300" fill="rgb(255,255,0)" r="10" stroke="rgb(255,255,0)" /></svg>