<?xml version="1.0" encoding="utf-8" ?>
<svg baseProfile="full" height="100%" version="1.1" viewBox="-400 -400 800 400" width="100%" xmlns="http://www.w3.org/2000/svg" xmlns:ev="http://www.w3.org/2001/xml-events" xmlns:xlink="http://www.w3.org/1999/xlink"><defs /><circle cx="-98.23324491024252" cy="-284.77728390052164" fill="rgb(0,255,0)" r="2" stroke="rgb(0,255,0)" /><circle cx="-88.08593862046976" cy="-249.27748481753545" fill="rgb(0,255,0)" r="2" stroke="rgb(0,255,0)" /><circle cx="-58.00527689554258" cy="-229.49987651444428" fill="rgb(0,255,0)" r="2" stroke="rgb(0,255,0)" /><circle cx="-110.23687421595295" cy="-310.9746992164669" fill="rgb(0,255,0)" r="2" stroke="rgb(0,255,0)" /><circle cx="-89.06350395095765" cy="-280.72751833142803" fill="rgb(0,255,0)" r="2" stroke="rgb(0,255,0)" /><circle cx="-54.17645825162862" cy="-271.8452864963019" fill="rgb(0,255,0)" r="2" stroke="rgb(0,255,0)" /><circle cx="-173.1109529074186" cy="-328.41326132363315" fill="rgb(0,255,0)" r="2" stroke="rgb(0,255,0)" /><circle cx="-138.80804959429335" cy="-314.7562344084797" fill="rgb(0,255,0)" r="2" stroke="rgb(0,255,0)" /><circle cx="-104.77235321756848" cy="-326.48531673197795" fill="rgb(0,255,0)" r="2" stroke="rgb(0,255,0)" /><circle cx="-14.681700244621453" cy="-170.29974749898184" fill="rgb(0,255,0)" r="2" stroke="rgb(0,255,0)" /><circle cx="12.133090214794413" cy="-195.6802631062044" fill="rgb(0,255,0)" r="2" stroke="rgb(0,255,0)" /><circle cx="15.802687563058445" cy="-231.49274773519397" fill="rgb(0,255,0)" r="2" stroke="rgb(0,255,0)" /><circle cx="-19.687578043886404" cy="-195.0829109035852" fill="rgb(0,255,0)" r="2" stroke="rgb(0,255,0)" /><circle cx="15.289976292580114" cy="-206.90552704851603" fill="rgb(0,255,0)" r="2" stroke="rgb(0,255,0)" /><circle cx="33.61596537092258" cy="-237.8919454330353" fill="rgb(0,255,0)" r="2" stroke="rgb(0,255,0)" /><circle cx="3.8051878045727676" cy="-45.12107885225568" fill="rgb(0,255,0)" r="2" stroke="rgb(0,255,0)" /><circle cx="16.958727287076247" cy="-79.62017969493084" fill="rgb(0,255,0)" r="2" stroke="rgb(0,255,0)" /><circle cx="4.732786922936976" cy="-113.4805751771533" fill="rgb(0,255,0)" r="2" stroke="rgb(0,255,0)" /><circle cx="223.02023447848407" cy="-311.29695458554943" fill="rgb(0,255,0)" r="2" stroke="rgb(0,255,0)" /><circle cx="222.9713992840209" cy="-274.3754002440184" fill="rgb(0,255,0)" r="2" stroke="rgb(0,255,0)" /><circle cx="246.42203991475913" cy="-247.0611648710857" fill="rgb(0,255,0)" r="2" stroke="rgb(0,255,0)" /><circle cx="5.099137564907068" cy="-216.57252809734638" fill="rgb(0,255,0)" r="2" stroke="rgb(0,255,0)" /><circle cx="39.98597283541319" cy="-228.66021955102843" fill="rgb(0,255,0)" r="2" stroke="rgb(0,255,0)" /><circle cx="58.07630403386984" cy="-259.78480657045964" fill="rgb(0,255,0)" r="2" stroke="rgb(0,255,0)" /><circle cx="256.2887900753471" cy="-50.05795910935231" fill="rgb(0,255,0)" r="2" stroke="rgb(0,255,0)" /><circle cx="219.4084752527197" cy="-51.803220824608964" fill="rgb(0,255,0)" r="2" stroke="rgb(0,255,0)" /><circle cx="191.04557432119182" cy="-29.632387490060303" fill="rgb(0,255,0)" r="2" stroke="rgb(0,255,0)" /><line stroke="rgb(139,69,19)" x1="0" x2="-17.591189587092245" y1="0" y2="-134.85751758397075" /><line stroke="rgb(139,69,19)" x1="0" x2="5.135184044041736" y1="0" y2="-109.58178944852366" /><line stroke="rgb(139,69,19)" x1="0" x2="43.08607241926615" y1="0" y2="-107.65045013828933" /><line stroke="rgb(139,69,19)" x1="-17.591189587092245" x2="-151.3272204139239" y1="-134.85751758397075" y2="-159.56933780597663" /><line stroke="rgb(139,69,19)" x1="-17.591189587092245" x2="-119.5789773087744" y1="-134.85751758397075" y2="-175.29594218426564" /><line stroke="rgb(139,69,19)" x1="-17.591189587092245" x2="-106.43143752877265" y1="-134.85751758397075" y2="-209.88123093155343" /><line stroke="rgb(139,69,19)" x1="5.135184044041736" x2="120.90005317748708" y1="-109.58178944852366" y2="-180.9575211401587" /><line stroke="rgb(139,69,19)" x1="5.135184044041736" x2="107.90170634815782" y1="-109.58178944852366" y2="-147.9981521346793" /><line stroke="rgb(139,69,19)" x1="5.135184044041736" x2="121.34866543146929" y1="-109.58178944852366" y2="-113.52817546785013" /><line stroke="rgb(139,69,19)" x1="43.08607241926615" x2="137.41956402262576" y1="-107.65045013828933" y2="-205.61571113380182" /><line stroke="rgb(139,69,19)" x1="43.08607241926615" x2="133.04203582142515" y1="-107.65045013828933" y2="-170.45729432669026" /><line stroke="rgb(139,69,19)" x1="43.08607241926615" x2="154.65235925748826" y1="-107.65045013828933" y2="-140.4240806959657" /><line stroke="rgb(139,69,19)" x1="-151.3272204139239" x2="-98.23324491024252" y1="-159.56933780597663" y2="-284.77728390052164" /><line stroke="rgb(139,69,19)" x1="-151.3272204139239" x2="-88.08593862046976" y1="-159.56933780597663" y2="-249.27748481753545" /><line stroke="rgb(139,69,19)" x1="-151.3272204139239" x2="-58.00527689554258" y1="-159.56933780597663" y2="-229.49987651444428" /><line stroke="rgb(139,69,19)" x1="-119.5789773087744" x2="-110.23687421595295" y1="-175.29594218426564" y2="-310.9746992164669" /><line stroke="rgb(139,69,19)" x1="-119.5789773087744" x2="-89.06350395095765" y1="-175.29594218426564" y2="-280.72751833142803" /><line stroke="rgb(139,69,19)" x1="-119.5789773087744" x2="-54.17645825162862" y1="-175.29594218426564" y2="-271.8452864963019" /><line stroke="rgb(139,69,19)" x1="-106.43143752877265" x2="-173.1109529074186" y1="-209.88123093155343" y2="-328.41326132363315" /><line stroke="rgb(139,69,19)" x1="-106.43143752877265" x2="-138.80804959429335" y1="-209.88123093155343" y2="-314.7562344084797" /><line stroke="rgb(139,69,19)" x1="-106.43143752877265" x2="-104.77235321756848" y1="-209.88123093155343" y2="-326.48531673197795" /><line stroke="rgb(139,69,19)" x1="120.90005317748708" x2="-14.681700244621453" y1="-180.9575211401587" y2="-170.29974749898184" /><line stroke="rgb(139,69,19)" x1="120.90005317748708" x2="12.133090214794413" y1="-180.9575211401587" y2="-195.6802631062044" /><line stroke="rgb(139,69,19)" x1="120.90005317748708" x2="15.802687563058445" y1="-180.9575211401587" y2="-231.49274773519397" /><line stroke="rgb(139,69,19)" x1="107.90170634815782" x2="-19.687578043886404" y1="-147.9981521346793" y2="-195.0829109035852" /><line stroke="rgb(139,69,19)" x1="107.90170634815782" x2="15.289976292580114" y1="-147.9981521346793" y2="-206.90552704851603" /><line stroke="rgb(139,69,19)" x1="107.90170634815782" x2="33.61596537092258" y1="-147.9981521346793" y2="-237.8919454330353" /><line stroke="rgb(139,69,19)" x1="121.34866543146929" x2="3.8051878045727676" y1="-113.52817546785013" y2="-45.12107885225568" /><line stroke="rgb(139,69,19)" x1="121.34866543146929" x2="16.958727287076247" y1="-113.52817546785013" y2="-79.62017969493084" /><line stroke="rgb(139,69,19)" x1="121.34866543146929" x2="4.732786922936976" y1="-113.52817546785013" y2="-113.4805751771533" /><line stroke="rgb(139,69,19)" x1="137.41956402262576" x2="223.02023447848407" y1="-205.61571113380182" y2="-311.29695458554943" /><line stroke="rgb(139,69,19)" x1="137.41956402262576" x2="222.9713992840209" y1="-205.61571113380182" y2="-274.3754002440184" /><line stroke="rgb(139,69,19)" x1="137.41956402262576" x2="246.42203991475913" y1="-205.61571113380182" y2="-247.0611648710857" /><line stroke="rgb(139,69,19)" x1="133.04203582142515" x2="5.099137564907068" y1="-170.45729432669026" y2="-216.57252809734638" /><line stroke="rgb(139,69,19)" x1="133.04203582142515" x2="39.98597283541319" y1="-170.45729432669026" y2="-228.66021955102843" /><line stroke="rgb(139,69,19)" x1="133.04203582142515" x2="58.07630403386984" y1="-170.45729432669026" y2="-259.78480657045964" /><line stroke="rgb(139,69,19)" x1="154.65235925748826" x2="256.2887900753471" y1="-140.4240806959657" y2="-50.05795910935231" /><line stroke="rgb(139,69,19)" x1="154.65235925748826" x2="219.4084752527197" y1="-140.4240806959657" y2="-51.803220824608964" /><line stroke="rgb(139,69,19)" x1="154.65235925748826" x2="191.04557432119182" y1="-140.4240806959657" y2="-29.632387490060303" /><circle cx="0" cy="-300" fill="rgb(255,255,0)" r="10" stroke="rgb(255,255,0)" /></svg>