<?xml version="1.0" encoding="utf-8" ?>
<svg baseProfile="full" height="100%" version="1.1" viewBox="-400 -400 800 400" width="100%" xmlns="http://www.w3.org/2000/svg" xmlns:ev="http://www.w3.org/2001/xml-events" xmlns:xlink="http://www.w3.org/1999/xlink"><defs /><circle cx="74.57363765184304" cy="-362.80822364801026" fill="rgb(0,255,0)" r="2" stroke="rgb(0,255,0)" /><circle cx="70.67159305296148" cy="-317.90536418497743" fill="rgb(0,255,0)" r="2" stroke="rgb(0,255,0)" /><circle cx="72.38142819329045" cy="-335.8239708214572" fill="rgb(0,255,0)" r="2" stroke="rgb(0,255,0)" /><circle cx="110.66994408981486" cy="-250.4324591839333" fill="rgb(0,255,0)" r="2" stroke="rgb(0,255,0)" /><circle cx="79.24048808237772" cy="-282.3877117074205" fill="rgb(0,255,0)" r="2" stroke="rgb(0,255,0)" /><circle cx="91.75286266936763" cy="-269.44783217958684" fill="rgb(0,255,0)" r="2" stroke="rgb(0,255,0)" /><circle cx="119.2248494949869" cy="-346.8933591207602" fill="rgb(0,255,0)" r="2" stroke="rgb(0,255,0)" /><circle cx="86.7995900326884" cy="-314.91377986888335" fill="rgb(0,255,0)" r="2" stroke="rgb(0,255,0)" /><circle cx="99.72056356775921" cy="-327.44567688832933" fill="rgb(0,255,0)" r="2" stroke="rgb(0,255,0)" /><circle cx="-36.149538399172044" cy="-123.89559718863661" fill="rgb(0,255,0)" r="2" stroke="rgb(0,255,0)" /><circle cx="-49.834178140031156" cy="-165.77761348539403" fill="rgb(0,255,0)" r="2" stroke="rgb(0,255,0)" /><circle cx="-44.39181219429272" cy="-148.62008881215905" fill="rgb(0,255,0)" r="2" stroke="rgb(0,255,0)" /><circle cx="-10.914253926864909" cy="-118.02814947210771" fill="rgb(0,255,0)" r="2" stroke="rgb(0,255,0)" /><circle cx="-32.48714259864189" cy="-156.55117398951177" fill="rgb(0,255,0)" r="2" stroke="rgb(0,255,0)" /><circle cx="-23.82812009526798" cy="-140.77076432163355" fill="rgb(0,255,0)" r="2" stroke="rgb(0,255,0)" /><circle cx="-100.62191557316552" cy="-247.90934273548754" fill="rgb(0,255,0)" r="2" stroke="rgb(0,255,0)" /><circle cx="-82.61978624557221" cy="-207.57476562704494" fill="rgb(0,255,0)" r="2" stroke="rgb(0,255,0)" /><circle cx="-89.81397132706878" cy="-224.07457474755213" fill="rgb(0,255,0)" r="2" stroke="rgb(0,255,0)" /><circle cx="44.95355335934656" cy="-161.16538837401563" fill="rgb(0,255,0)" r="2" stroke="rgb(0,255,0)" /><circle cx="67.64078961875039" cy="-199.26579065649833" fill="rgb(0,255,0)" r="2" stroke="rgb(0,255,0)" /><circle cx="58.29902675102702" cy="-183.8797103719286" fill="rgb(0,255,0)" r="2" stroke="rgb(0,255,0)" /><circle cx="47.431936595307526" cy="-155.62628186039555" fill="rgb(0,255,0)" r="2" stroke="rgb(0,255,0)" /><circle cx="56.35012599294284" cy="-199.0705970371162" fill="rgb(0,255,0)" r="2" stroke="rgb(0,255,0)" /><circle cx="52.57926134774889" cy="-181.47001239263275" fill="rgb(0,255,0)" r="2" stroke="rgb(0,255,0)" /><circle cx="10.984867785326522" cy="-192.4003919448087" fill="rgb(0,255,0)" r="2" stroke="rgb(0,255,0)" /><circle cx="52.64064895411913" cy="-207.44327435468932" fill="rgb(0,255,0)" r="2" stroke="rgb(0,255,0)" /><circle cx="35.65878301022245" cy="-201.47534095496692" fill="rgb(0,255,0)" r="2" stroke="rgb(0,255,0)" /><line stroke="rgb(139,69,19)" x1="0" x2="8.526545469420457" y1="0" y2="-68.47114737141408" /><line stroke="rgb(139,69,19)" x1="0" x2="0.824842423433195" y1="0" y2="-35.23842211863943" /><line stroke="rgb(139,69,19)" x1="0" x2="5.084220317725212" y1="0" y2="-52.727209954096075" /><line stroke="rgb(139,69,19)" x1="8.526545469420457" x2="75.91241137825372" y1="-68.47114737141408" y2="-147.72693463500053" /><line stroke="rgb(139,69,19)" x1="8.526545469420457" x2="58.58265792151413" y1="-68.47114737141408" y2="-146.58800868314134" /><line stroke="rgb(139,69,19)" x1="8.526545469420457" x2="76.56548208877172" y1="-68.47114737141408" y2="-147.37416068466283" /><line stroke="rgb(139,69,19)" x1="0.824842423433195" x2="-64.00077316240827" y1="-35.23842211863943" y2="-92.9503275037738" /><line stroke="rgb(139,69,19)" x1="0.824842423433195" x2="-50.27499225631665" y1="-35.23842211863943" y2="-86.7645140560615" /><line stroke="rgb(139,69,19)" x1="0.824842423433195" x2="-66.49305843660201" y1="-35.23842211863943" y2="-94.5731201654695" /><line stroke="rgb(139,69,19)" x1="5.084220317725212" x2="73.24508293781767" y1="-52.727209954096075" y2="-111.37341828799086" /><line stroke="rgb(139,69,19)" x1="5.084220317725212" x2="53.930843902413336" y1="-52.727209954096075" y2="-111.54072255849165" /><line stroke="rgb(139,69,19)" x1="5.084220317725212" x2="71.92359206069655" y1="-52.727209954096075" y2="-111.02982754716732" /><line stroke="rgb(139,69,19)" x1="75.91241137825372" x2="74.57363765184304" y1="-147.72693463500053" y2="-362.80822364801026" /><line stroke="rgb(139,69,19)" x1="75.91241137825372" x2="70.67159305296148" y1="-147.72693463500053" y2="-317.90536418497743" /><line stroke="rgb(139,69,19)" x1="75.91241137825372" x2="72.38142819329045" y1="-147.72693463500053" y2="-335.8239708214572" /><line stroke="rgb(139,69,19)" x1="58.58265792151413" x2="110.66994408981486" y1="-146.58800868314134" y2="-250.4324591839333" /><line stroke="rgb(139,69,19)" x1="58.58265792151413" x2="79.24048808237772" y1="-146.58800868314134" y2="-282.3877117074205" /><line stroke="rgb(139,69,19)" x1="58.58265792151413" x2="91.75286266936763" y1="-146.58800868314134" y2="-269.44783217958684" /><line stroke="rgb(139,69,19)" x1="76.56548208877172" x2="119.2248494949869" y1="-147.37416068466283" y2="-346.8933591207602" /><line stroke="rgb(139,69,19)" x1="76.56548208877172" x2="86.7995900326884" y1="-147.37416068466283" y2="-314.91377986888335" /><line stroke="rgb(139,69,19)" x1="76.56548208877172" x2="99.72056356775921" y1="-147.37416068466283" y2="-327.44567688832933" /><line stroke="rgb(139,69,19)" x1="-64.00077316240827" x2="-36.149538399172044" y1="-92.9503275037738" y2="-123.89559718863661" /><line stroke="rgb(139,69,19)" x1="-64.00077316240827" x2="-49.834178140031156" y1="-92.9503275037738" y2="-165.77761348539403" /><line stroke="rgb(139,69,19)" x1="-64.00077316240827" x2="-44.39181219429272" y1="-92.9503275037738" y2="-148.62008881215905" /><line stroke="rgb(139,69,19)" x1="-50.27499225631665" x2="-10.914253926864909" y1="-86.7645140560615" y2="-118.02814947210771" /><line stroke="rgb(139,69,19)" x1="-50.27499225631665" x2="-32.48714259864189" y1="-86.7645140560615" y2="-156.55117398951177" /><line stroke="rgb(139,69,19)" x1="-50.27499225631665" x2="-23.82812009526798" y1="-86.7645140560615" y2="-140.77076432163355" /><line stroke="rgb(139,69,19)" x1="-66.49305843660201" x2="-100.62191557316552" y1="-94.5731201654695" y2="-247.90934273548754" /><line stroke="rgb(139,69,19)" x1="-66.49305843660201" x2="-82.61978624557221" y1="-94.5731201654695" y2="-207.57476562704494" /><line stroke="rgb(139,69,19)" x1="-66.49305843660201" x2="-89.81397132706878" y1="-94.5731201654695" y2="-224.07457474755213" /><line stroke="rgb(139,69,19)" x1="73.24508293781767" x2="44.95355335934656" y1="-111.37341828799086" y2="-161.16538837401563" /><line stroke="rgb(139,69,19)" x1="73.24508293781767" x2="67.64078961875039" y1="-111.37341828799086" y2="-199.26579065649833" /><line stroke="rgb(139,69,19)" x1="73.24508293781767" x2="58.29902675102702" y1="-111.37341828799086" y2="-183.8797103719286" /><line stroke="rgb(139,69,19)" x1="53.930843902413336" x2="47.431936595307526" y1="-111.54072255849165" y2="-155.62628186039555" /><line stroke="rgb(139,69,19)" x1="53.930843902413336" x2="56.35012599294284" y1="-111.54072255849165" y2="-199.0705970371162" /><line stroke="rgb(139,69,19)" x1="53.930843902413336" x2="52.57926134774889" y1="-111.54072255849165" y2="-181.47001239263275" /><line stroke="rgb(139,69,19)" x1="71.92359206069655" x2="10.984867785326522" y1="-111.02982754716732" y2="-192.4003919448087" /><line stroke="rgb(139,69,19)" x1="71.92359206069655" x2="52.64064895411913" y1="-111.02982754716732" y2="-207.44327435468932" /><line stroke="rgb(139,69,19)" x1="71.92359206069655" x2="35.65878301022245" y1="-111.02982754716732" y2="-201.47534095496692" /><circle cx="0" cy="-300" fill="rgb(255,255,0)" r="10" stroke="rgb(255,255,0)" /></svg>