<?xml version="1.0" encoding="utf-8" ?>
<svg baseProfile="full" height="100%" version="1.1" viewBox="-400 -400 800 400" width="100%" xmlns="http://www.w3.org/2000/svg" xmlns:ev="http://www.w3.org/2001/xml-events" xmlns:xlink="http://www.w3.org/1999/xlink"><defs /><circle cx="-186.78098200574664" cy="-194.63133678562903" fill="rgb(0,255,0)" r="2" stroke="rgb(0,255,0)" /><circle cx="-116.6069202383243" cy="-218.11752538791177" fill="rgb(0,255,0)" r="2" stroke="rgb(0,255,0)" /><circle cx="-104.16022365575148" cy="-211.1680590722146" fill="rgb(0,255,0)" r="2" stroke="rgb(0,255,0)" /><circle cx="-40.46875316130121" cy="-173.49317902921285" fill="rgb(0,255,0)" r="2" stroke="rgb(0,255,0)" /><circle cx="-229.7825637842391" cy="-245.4232388061694" fill="rgb(0,255,0)" r="2" stroke="rgb(0,255,0)" /><circle cx="-254.40115417416172" cy="-175.6383908288813" fill="rgb(0,255,0)" r="2" stroke="rgb(0,255,0)" /><circle cx="-297.22193511629877" cy="-267.94149723876933" fill="rgb(0,255,0)" r="2" stroke="rgb(0,255,0)" /><circle cx="-284.7816569671877" cy="-340.88832362328554" fill="rgb(0,255,0)" r="2" stroke="rgb(0,255,0)" /><line stroke="rgb(139,69,19)" x1="0" x2="-61.108399117621225" y1="0" y2="-75.78545012550347" /><line stroke="rgb(139,69,19)" x1="0" x2="-123.61741564011942" y1="0" y2="-115.39129380279492" /><line stroke="rgb(139,69,19)" x1="-61.108399117621225" x2="-119.74743682524762" y1="-75.78545012550347" y2="-132.16287307611063" /><line stroke="rgb(139,69,19)" x1="-61.108399117621225" x2="-49.17285799008884" y1="-75.78545012550347" y2="-154.4166103406682" /><line stroke="rgb(139,69,19)" x1="-123.61741564011942" x2="-179.05208984910374" y1="-115.39129380279492" y2="-172.0220765361713" /><line stroke="rgb(139,69,19)" x1="-123.61741564011942" x2="-248.52826457366382" y1="-115.39129380279492" y2="-197.49875500182685" /><line stroke="rgb(139,69,19)" x1="-119.74743682524762" x2="-186.78098200574664" y1="-132.16287307611063" y2="-194.63133678562903" /><line stroke="rgb(139,69,19)" x1="-119.74743682524762" x2="-116.6069202383243" y1="-132.16287307611063" y2="-218.11752538791177" /><line stroke="rgb(139,69,19)" x1="-49.17285799008884" x2="-104.16022365575148" y1="-154.4166103406682" y2="-211.1680590722146" /><line stroke="rgb(139,69,19)" x1="-49.17285799008884" x2="-40.46875316130121" y1="-154.4166103406682" y2="-173.49317902921285" /><line stroke="rgb(139,69,19)" x1="-179.05208984910374" x2="-229.7825637842391" y1="-172.0220765361713" y2="-245.4232388061694" /><line stroke="rgb(139,69,19)" x1="-179.05208984910374" x2="-254.40115417416172" y1="-172.0220765361713" y2="-175.6383908288813" /><line stroke="rgb(139,69,19)" x1="-248.52826457366382" x2="-297.22193511629877" y1="-197.49875500182685" y2="-267.94149723876933" /><line stroke="rgb(139,69,19)" x1="-248.52826457366382" x2="-284.7816569671877" y1="-197.49875500182685" y2="-340.88832362328554" /><circle cx="0" cy="-300" fill="rgb(255,255,0)" r="10" stroke="rgb(255,255,0)" /></svg>