<?xml version="1.0" encoding="utf-8" ?>
<svg baseProfile="full" height="100%" version="1.1" viewBox="-400 -400 800 400" width="100%" xmlns="http://www.w3.org/2000/svg" xmlns:ev="http://www.w3.org/2001/xml-events" xmlns:xlink="http://www.w3.org/1999/xlink"><defs /><circle cx="0.0" cy="-198.0" r="2" stroke="rgb(0,255,0)" /><circle cx="60.498510060030064" cy="-190.1942149327283" r="2" stroke="rgb(0,255,0)" /><circle cx="29.016662168264897" cy="-205.45045902814925" r="2" stroke="rgb(0,255,0)" /><circle cx="39.25582613477697" cy="-244.69025716866594" r="2" stroke="rgb(0,255,0)" /><circle cx="32.30272899774604" cy="-184.08782784274692" r="2" stroke="rgb(0,255,0)" /><circle cx="27.01441828696334" cy="-149.50613470308807" r="2" stroke="rgb(0,255,0)" /><circle cx="73.92689517854153" cy="-239.9689348318552" r="2" stroke="rgb(0,255,0)" /><circle cx="87.70183425837244" cy="-299.39326531480594" r="2" stroke="rgb(0,255,0)" /><circle cx="52.8175286405912" cy="-302.0285930258395" r="2" stroke="rgb(0,255,0)" /><circle cx="-18.078483301272506" cy="-256.259492286885" r="2" stroke="rgb(0,255,0)" /><circle cx="19.86895429904734" cy="-208.499760508222" r="2" stroke="rgb(0,255,0)" /><circle cx="-7.926008813467199" cy="-229.74357740051474" r="2" stroke="rgb(0,255,0)" /><circle cx="42.61303326992019" cy="-262.3864667677068" r="2" stroke="rgb(0,255,0)" /><circle cx="62.370883918788216" cy="-320.09805431940237" r="2" stroke="rgb(0,255,0)" /><circle cx="46.62868178507857" cy="-288.856370584995" r="2" stroke="rgb(0,255,0)" /><circle cx="37.59195666375407" cy="-227.7575380669721" r="2" stroke="rgb(0,255,0)" /><circle cx="98.5783004975855" cy="-226.46685383692576" r="2" stroke="rgb(0,255,0)" /><circle cx="117.21705930660606" cy="-196.86184749275378" r="2" stroke="rgb(0,255,0)" /><circle cx="-33.131127763197874" cy="-206.4838055607998" r="2" stroke="rgb(0,255,0)" /><circle cx="-34.112537856828475" cy="-267.47591024844047" r="2" stroke="rgb(0,255,0)" /><circle cx="-68.53309806377851" cy="-273.72769124420745" r="2" stroke="rgb(0,255,0)" /><circle cx="-84.98447229680407" cy="-238.61215224529528" r="2" stroke="rgb(0,255,0)" /><circle cx="-145.95094785003081" cy="-236.59005961195584" r="2" stroke="rgb(0,255,0)" /><circle cx="-167.2203100917716" cy="-264.3654796881476" r="2" stroke="rgb(0,255,0)" /><circle cx="-107.96349932565472" cy="-265.0003736717747" r="2" stroke="rgb(0,255,0)" /><circle cx="-76.09191775349832" cy="-317.01193284941695" r="2" stroke="rgb(0,255,0)" /><circle cx="-75.40912734355446" cy="-282.0348899807667" r="2" stroke="rgb(0,255,0)" /><line stroke="rgb(139,69,19)" x1="0" x2="0.0" y1="0" y2="-66.0" /><line stroke="rgb(139,69,19)" x1="0" x2="-18.078483301272506" y1="0" y2="-124.25949228688498" /><line stroke="rgb(139,69,19)" x1="0" x2="-33.131127763197874" y1="0" y2="-74.48380556079981" /><line stroke="rgb(139,69,19)" x1="0.0" x2="0.0" y1="-66.0" y2="-132.0" /><line stroke="rgb(139,69,19)" x1="0.0" x2="39.25582613477697" y1="-66.0" y2="-178.69025716866594" /><line stroke="rgb(139,69,19)" x1="0.0" x2="73.92689517854153" y1="-66.0" y2="-173.9689348318552" /><line stroke="rgb(139,69,19)" x1="-18.078483301272506" x2="-18.078483301272506" y1="-124.25949228688498" y2="-190.25949228688498" /><line stroke="rgb(139,69,19)" x1="-18.078483301272506" x2="42.61303326992019" y1="-124.25949228688498" y2="-196.38646676770682" /><line stroke="rgb(139,69,19)" x1="-18.078483301272506" x2="37.59195666375407" y1="-124.25949228688498" y2="-161.7575380669721" /><line stroke="rgb(139,69,19)" x1="-33.131127763197874" x2="-33.131127763197874" y1="-74.48380556079981" y2="-140.4838055607998" /><line stroke="rgb(139,69,19)" x1="-33.131127763197874" x2="-84.98447229680407" y1="-74.48380556079981" y2="-172.61215224529528" /><line stroke="rgb(139,69,19)" x1="-33.131127763197874" x2="-107.96349932565472" y1="-74.48380556079981" y2="-199.0003736717747" /><line stroke="rgb(139,69,19)" x1="0.0" x2="0.0" y1="-132.0" y2="-198.0" /><line stroke="rgb(139,69,19)" x1="0.0" x2="60.498510060030064" y1="-132.0" y2="-190.1942149327283" /><line stroke="rgb(139,69,19)" x1="0.0" x2="29.016662168264897" y1="-132.0" y2="-205.45045902814925" /><line stroke="rgb(139,69,19)" x1="39.25582613477697" x2="39.25582613477697" y1="-178.69025716866594" y2="-244.69025716866594" /><line stroke="rgb(139,69,19)" x1="39.25582613477697" x2="32.30272899774604" y1="-178.69025716866594" y2="-184.08782784274692" /><line stroke="rgb(139,69,19)" x1="39.25582613477697" x2="27.01441828696334" y1="-178.69025716866594" y2="-149.50613470308807" /><line stroke="rgb(139,69,19)" x1="73.92689517854153" x2="73.92689517854153" y1="-173.9689348318552" y2="-239.9689348318552" /><line stroke="rgb(139,69,19)" x1="73.92689517854153" x2="87.70183425837244" y1="-173.9689348318552" y2="-299.39326531480594" /><line stroke="rgb(139,69,19)" x1="73.92689517854153" x2="52.8175286405912" y1="-173.9689348318552" y2="-302.0285930258395" /><line stroke="rgb(139,69,19)" x1="-18.078483301272506" x2="-18.078483301272506" y1="-190.25949228688498" y2="-256.259492286885" /><line stroke="rgb(139,69,19)" x1="-18.078483301272506" x2="19.86895429904734" y1="-190.25949228688498" y2="-208.499760508222" /><line stroke="rgb(139,69,19)" x1="-18.078483301272506" x2="-7.926008813467199" y1="-190.25949228688498" y2="-229.74357740051474" /><line stroke="rgb(139,69,19)" x1="42.61303326992019" x2="42.61303326992019" y1="-196.38646676770682" y2="-262.3864667677068" /><line stroke="rgb(139,69,19)" x1="42.61303326992019" x2="62.370883918788216" y1="-196.38646676770682" y2="-320.09805431940237" /><line stroke="rgb(139,69,19)" x1="42.61303326992019" x2="46.62868178507857" y1="-196.38646676770682" y2="-288.856370584995" /><line stroke="rgb(139,69,19)" x1="37.59195666375407" x2="37.59195666375407" y1="-161.7575380669721" y2="-227.7575380669721" /><line stroke="rgb(139,69,19)" x1="37.59195666375407" x2="98.5783004975855" y1="-161.7575380669721" y2="-226.46685383692576" /><line stroke="rgb(139,69,19)" x1="37.59195666375407" x2="117.21705930660606" y1="-161.7575380669721" y2="-196.86184749275378" /><line stroke="rgb(139,69,19)" x1="-33.131127763197874" x2="-33.131127763197874" y1="-140.4838055607998" y2="-206.4838055607998" /><line stroke="rgb(139,69,19)" x1="-33.131127763197874" x2="-34.112537856828475" y1="-140.4838055607998" y2="-267.47591024844047" /><line stroke="rgb(139,69,19)" x1="-33.131127763197874" x2="-68.53309806377851" y1="-140.4838055607998" y2="-273.72769124420745" /><line stroke="rgb(139,69,19)" x1="-84.98447229680407" x2="-84.98447229680407" y1="-172.61215224529528" y2="-238.61215224529528" /><line stroke="rgb(139,69,19)" x1="-84.98447229680407" x2="-145.95094785003081" y1="-172.61215224529528" y2="-236.59005961195584" /><line stroke="rgb(139,69,19)" x1="-84.98447229680407" x2="-167.2203100917716" y1="-172.61215224529528" y2="-264.3654796881476" /><line stroke="rgb(139,69,19)" x1="-107.96349932565472" x2="-107.96349932565472" y1="-199.0003736717747" y2="-265.0003736717747" /><line stroke="rgb(139,69,19)" x1="-107.96349932565472" x2="-76.09191775349832" y1="-199.0003736717747" y2="-317.01193284941695" /><line stroke="rgb(139,69,19)" x1="-107.96349932565472" x2="-75.40912734355446" y1="-199.0003736717747" y2="-282.0348899807667" /><circle cx="0" cy="-300" r="10" stroke="rgb(255,255,0)" /></svg>